<svg width="295" height="77" viewBox="0 0 295 77" fill="none" xmlns="http://www.w3.org/2000/svg">
<path d="M11.05 15.9429V17.3028C11.0531 17.966 10.9203 18.6228 10.66 19.2327C10.4082 19.8351 10.0451 20.3848 9.58992 20.8528C9.13466 21.3249 8.5955 21.708 7.99996 21.9827C7.38509 22.264 6.71615 22.4076 6.04 22.4029C5.42483 22.402 4.81255 22.3179 4.21993 22.1529C3.60437 21.9936 3.03332 21.6959 2.55001 21.2828C2.03621 20.8443 1.62043 20.3027 1.32991 19.6929C0.982877 18.9102 0.818743 18.0586 0.849933 17.2029V5.08283C0.842278 4.39522 0.967922 3.71263 1.21993 3.07282C1.45791 2.46719 1.81767 1.91686 2.27694 1.45587C2.7362 0.994892 3.28523 0.633134 3.88997 0.392886C4.55071 0.126691 5.25763 -0.00600146 5.96993 0.0027494C6.63988 -0.0237934 7.30784 0.0917158 7.93001 0.341617C8.55218 0.591517 9.11446 0.970352 9.57991 1.45294C10.0418 1.94233 10.4052 2.51606 10.65 3.14289C10.9144 3.81811 11.0468 4.53765 11.04 5.26276V6.50275H7.88997V5.45294C7.90348 4.87295 7.72017 4.30536 7.36995 3.84284C7.20563 3.6234 6.99062 3.44684 6.74337 3.32843C6.49611 3.21003 6.22389 3.15335 5.94991 3.16291C5.64734 3.12314 5.33972 3.17077 5.06331 3.30011C4.78691 3.42946 4.55331 3.6351 4.38997 3.89289C4.11024 4.46468 3.97625 5.09662 3.99996 5.73273V16.9927C3.98109 17.5588 4.12704 18.1182 4.42 18.6028C4.59243 18.8317 4.82127 19.0119 5.08419 19.1258C5.34711 19.2397 5.63511 19.2834 5.92 19.2527C6.14422 19.2488 6.36653 19.2119 6.57991 19.1429C6.82302 19.0712 7.04807 18.9484 7.23995 18.7828C7.44329 18.5943 7.60062 18.3617 7.69991 18.1028C7.82952 17.758 7.89071 17.391 7.87996 17.0228V15.9429H11.05Z" fill="#011C1C"/>
<path d="M14.2 5.39279C14.1871 4.58589 14.3439 3.78518 14.6601 3.04269C14.9416 2.3907 15.3652 1.80992 15.9001 1.34274C16.3949 0.912867 16.9642 0.577333 17.58 0.35275C18.8061 -0.100656 20.154 -0.100656 21.3801 0.35275C22.004 0.579268 22.5829 0.914428 23.09 1.34274C23.6034 1.82238 24.015 2.4005 24.3001 3.04269C24.6211 3.7837 24.778 4.58545 24.7601 5.39279V17.0227C24.7839 17.8402 24.6268 18.653 24.3001 19.4028C24.0179 20.0292 23.6053 20.5882 23.09 21.0427C22.3487 21.6935 21.4454 22.1319 20.4755 22.3115C19.5056 22.491 18.5051 22.405 17.58 22.0627C16.9579 21.8375 16.3869 21.4907 15.9001 21.0427C15.3726 20.5925 14.9495 20.033 14.6601 19.4028C14.3333 18.653 14.1761 17.8402 14.2 17.0227V5.39279ZM17.35 17.0227C17.325 17.3333 17.3685 17.6457 17.4773 17.9377C17.5862 18.2297 17.7578 18.4942 17.98 18.7126C18.4019 19.0617 18.9324 19.2529 19.48 19.2529C20.0276 19.2529 20.5581 19.0617 20.98 18.7126C21.204 18.4954 21.3768 18.231 21.4858 17.9387C21.5947 17.6464 21.6372 17.3335 21.61 17.0227V5.39279C21.635 5.08216 21.5916 4.76976 21.4827 4.47775C21.3739 4.18574 21.2023 3.9213 20.98 3.70285C20.5581 3.35375 20.0276 3.16256 19.48 3.16256C18.9324 3.16256 18.4019 3.35375 17.98 3.70285C17.7561 3.92006 17.5834 4.18444 17.4744 4.47677C17.3654 4.76911 17.3229 5.08198 17.35 5.39279V17.0227Z" fill="#011C1C"/>
<path d="M28.3199 22.2126V0.192871H31.35L35.4 11.8528H35.46L39.48 0.192871H42.54V22.2126H39.39V8.82275H39.33L36.21 18.2827H34.63L31.54 8.82275H31.48V22.2126H28.3199Z" fill="#011C1C"/>
<path d="M56.46 0.202881V17.2727C56.4677 17.9438 56.3397 18.6096 56.0836 19.23C55.8276 19.8503 55.4488 20.4125 54.97 20.8828C54.5008 21.3561 53.9437 21.733 53.33 21.9927C52.7049 22.2621 52.0306 22.3985 51.35 22.3928C50.6757 22.3994 50.0078 22.263 49.39 21.9927C48.7857 21.7267 48.2363 21.3504 47.77 20.8828C47.3047 20.4147 46.9286 19.8656 46.6601 19.2627C46.3878 18.635 46.2514 17.9568 46.26 17.2727V0.202881H49.4101V16.9626C49.3823 17.2738 49.4176 17.5875 49.5138 17.8848C49.61 18.182 49.7651 18.457 49.97 18.6929C50.3429 19.0534 50.8413 19.2546 51.36 19.2546C51.8787 19.2546 52.3771 19.0534 52.75 18.6929C52.9528 18.4557 53.1067 18.1807 53.2028 17.8838C53.2989 17.5869 53.3354 17.2737 53.3101 16.9626V0.202881H56.46Z" fill="#011C1C"/>
<path d="M60.0699 22.2126V0.192871H63.1L67.86 13.4626H67.92V0.192871H71.0699V22.2126H68.11L63.29 8.98267H63.23V22.2126H60.0699Z" fill="#011C1C"/>
<path d="M74.78 22.2126V0.192871H77.9301V22.2126H74.78Z" fill="#011C1C"/>
<path d="M81.76 22.2126V0.192829H86.4301C87.1821 0.137843 87.9372 0.24113 88.6469 0.496051C89.3565 0.750973 90.0049 1.15185 90.55 1.67281C91.5531 2.83742 92.0593 4.34896 91.96 5.88277V16.1828C92.029 17.0047 91.9318 17.832 91.6741 18.6154C91.4164 19.3989 91.0034 20.1223 90.46 20.7426C89.8745 21.2605 89.1921 21.6573 88.4523 21.9096C87.7125 22.162 86.9299 22.2648 86.15 22.2126H81.76ZM84.91 3.17281V19.2526H86.36C86.7036 19.2894 87.051 19.2483 87.3765 19.1323C87.7019 19.0163 87.9971 18.8284 88.24 18.5827C88.6619 17.9714 88.8598 17.233 88.8 16.4926V5.88277C88.8482 5.17282 88.662 4.46667 88.27 3.87276C88.0285 3.61154 87.7288 3.41094 87.3951 3.28756C87.0615 3.16417 86.7033 3.12153 86.35 3.1628H84.91V3.17281Z" fill="#011C1C"/>
<path d="M93.9 22.2126L98.8101 0.192871H101.43L106.34 22.2126H103.19L102.26 17.4827H97.97L97.04 22.2126H93.9ZM101.68 14.5127L100.14 6.53271H100.08L98.54 14.5127H101.68Z" fill="#011C1C"/>
<path d="M108.66 22.2126V0.192829H113.33C114.082 0.137843 114.837 0.24113 115.547 0.496051C116.257 0.750973 116.905 1.15185 117.45 1.67281C118.453 2.83742 118.959 4.34896 118.86 5.88277V16.1828C118.929 17.0047 118.832 17.832 118.574 18.6154C118.316 19.3989 117.903 20.1223 117.36 20.7426C116.774 21.2605 116.092 21.6573 115.352 21.9096C114.612 22.162 113.83 22.2648 113.05 22.2126H108.66ZM111.81 3.17281V19.2526H113.26C113.604 19.2894 113.951 19.2483 114.276 19.1323C114.602 19.0163 114.897 18.8284 115.14 18.5827C115.562 17.9714 115.76 17.233 115.7 16.4926V5.88277C115.748 5.17282 115.562 4.46667 115.17 3.87276C114.929 3.61154 114.629 3.41094 114.295 3.28756C113.961 3.16417 113.603 3.12153 113.25 3.1628H111.81V3.17281Z" fill="#011C1C"/>
<path d="M122.59 22.2126V0.192871H131.98V3.16284H125.74V9.6228H131.18V12.5928H125.74V19.0527H131.98V22.2029H122.59V22.2126Z" fill="#011C1C"/>
<path d="M23.1801 44.1829H16.8101V42.7427C16.8453 41.4058 16.4871 40.0881 15.7801 38.9529C15.3945 38.4035 14.8703 37.9659 14.2608 37.6849C13.6513 37.4038 12.9783 37.2893 12.3101 37.3528C11.5708 37.3205 10.8369 37.4936 10.19 37.8528C9.66621 38.1674 9.21885 38.5944 8.88005 39.1028C8.53949 39.6724 8.3056 40.2994 8.18998 40.9529C8.05971 41.6655 7.99616 42.3885 8.00004 43.1128C8.00004 43.9928 8.03001 44.7228 8.09001 45.3028C8.13993 45.8491 8.29989 46.3798 8.5601 46.8628C8.82596 47.3389 9.19914 47.7463 9.65007 48.0528C10.2674 48.4586 10.9281 48.794 11.62 49.0528L16.5 50.9927C17.7435 51.4369 18.9055 52.0823 19.94 52.9029C20.7902 53.5987 21.491 54.4593 22 55.4329C22.4813 56.5165 22.798 57.6657 22.94 58.8428C23.1186 60.2858 23.2021 61.739 23.19 63.1929C23.202 64.9485 23.0141 66.6998 22.63 68.4129C22.3104 69.888 21.6946 71.2827 20.82 72.5127C19.921 73.7023 18.7384 74.6478 17.38 75.2627C15.7449 75.9745 13.9725 76.3159 12.19 76.2627C10.7143 76.2752 9.25047 76.0003 7.88005 75.4529C6.59345 74.9425 5.42327 74.1771 4.43998 73.2029C3.47568 72.2399 2.7022 71.1032 2.16008 69.8528C1.59168 68.5403 1.3054 67.1231 1.31999 65.6929V63.3128H7.68998V65.3128C7.67838 66.4504 8.04024 67.5604 8.72001 68.4727C9.14008 68.9723 9.67575 69.362 10.2804 69.6077C10.8851 69.8534 11.5405 69.9478 12.19 69.8829C13.0583 69.9241 13.9244 69.7632 14.72 69.4129C15.3093 69.1114 15.7989 68.646 16.13 68.0728C16.4811 67.4256 16.6826 66.708 16.72 65.9727C16.78 65.1627 16.8101 64.2527 16.8101 63.2527C16.8194 62.2913 16.7792 61.3302 16.69 60.3728C16.6421 59.7428 16.4723 59.128 16.19 58.5628C15.8947 58.1025 15.498 57.7161 15.0301 57.4329C14.4147 57.0781 13.7766 56.7639 13.12 56.4927L8.5601 54.6128C5.8101 53.4828 3.96674 51.9929 3.03007 50.1429C2.0195 47.9589 1.53647 45.5679 1.62004 43.1629C1.6114 41.554 1.84405 39.9528 2.3101 38.4129C2.72913 36.9943 3.42968 35.6746 4.37004 34.5328C5.27666 33.429 6.41754 32.541 7.71 31.9329C9.22994 31.25 10.8844 30.9182 12.5501 30.9627C14.043 30.9429 15.5228 31.2431 16.8901 31.8428C18.1581 32.3983 19.3139 33.1813 20.3001 34.1529C21.2119 35.0517 21.9361 36.1227 22.4305 37.3038C22.9249 38.4848 23.1797 39.7524 23.1801 41.0328V44.1829Z" fill="#00AA89"/>
<path d="M29.5 75.9028V31.3628H35.62L43.8101 54.9529H43.9301L52.05 31.3628H58.24V75.9028H51.86V48.8127H51.74L45.4301 67.9529H42.24L35.99 48.8127H35.87V75.9028H29.5Z" fill="#00AA89"/>
<path d="M62.9301 75.9028L72.87 31.3628H78.1801L88.12 75.9028H81.75L79.87 66.3328H71.1801L69.3 75.9028H62.9301ZM78.6801 60.3228L75.5601 44.1829H75.4399L72.3199 60.3228H78.6801Z" fill="#00AA89"/>
<path d="M92.8 75.9028V31.3628H103.05C110.55 31.3628 114.3 35.7229 114.3 44.4429C114.363 46.7334 113.947 49.0118 113.08 51.1328C112.193 53.052 110.685 54.6162 108.8 55.5728L115.67 75.9028H108.92L102.98 56.8828H99.17V75.9028H92.8ZM99.1801 37.3628V51.2527H102.8C103.72 51.2886 104.637 51.1284 105.49 50.7827C106.129 50.4972 106.671 50.0317 107.05 49.4429C107.41 48.7711 107.644 48.0388 107.74 47.2827C107.872 46.2983 107.935 45.3059 107.93 44.3127C107.941 43.3194 107.877 42.3267 107.74 41.3428C107.64 40.5603 107.385 39.8057 106.99 39.1228C106.2 37.9528 104.7 37.3695 102.49 37.3728H99.1801V37.3628Z" fill="#00AA89"/>
<path d="M124.05 75.9028V37.3628H116.68V31.3528H137.8V37.3628H130.43V75.9028H124.05Z" fill="#00AA89"/>
<path d="M155.36 75.9028V31.3628H161.48L169.67 54.9529H169.79L177.91 31.3628H184.1V75.9028H177.72V48.8127H177.6L171.29 67.9529H168.1L161.85 48.8127H161.73V75.9028H155.36Z" fill="#00AA89"/>
<path d="M191.29 41.8628C191.256 40.2301 191.577 38.6094 192.23 37.1128C192.807 35.8 193.659 34.6268 194.73 33.6729C195.729 32.795 196.886 32.1161 198.14 31.6729C200.617 30.7529 203.343 30.7529 205.82 31.6729C207.085 32.1306 208.26 32.8076 209.29 33.6729C210.327 34.6434 211.157 35.8134 211.73 37.1128C212.378 38.6112 212.698 40.2306 212.67 41.8628V65.3828C212.716 67.0392 212.395 68.6852 211.73 70.2029C211.156 71.4672 210.325 72.5978 209.29 73.5227C208.277 74.4272 207.099 75.1268 205.82 75.5828C203.343 76.5027 200.617 76.5027 198.14 75.5828C196.879 75.1275 195.72 74.4273 194.73 73.5227C193.662 72.6138 192.808 71.4803 192.23 70.2029C191.569 68.6841 191.248 67.0388 191.29 65.3828V41.8628ZM197.67 65.3928C197.618 66.0205 197.706 66.6518 197.927 67.2415C198.149 67.8311 198.498 68.3642 198.95 68.8027C199.802 69.5074 200.874 69.8928 201.98 69.8928C203.086 69.8928 204.158 69.5074 205.01 68.8027C205.462 68.3642 205.811 67.8311 206.033 67.2415C206.254 66.6518 206.342 66.0205 206.29 65.3928V41.8728C206.342 41.2452 206.254 40.6138 206.033 40.0242C205.811 39.4346 205.462 38.9012 205.01 38.4627C204.158 37.758 203.086 37.3726 201.98 37.3726C200.874 37.3726 199.802 37.758 198.95 38.4627C198.498 38.9012 198.149 39.4346 197.927 40.0242C197.706 40.6138 197.618 41.2452 197.67 41.8728V65.3928Z" fill="#00AA89"/>
<path d="M219.61 75.9028V31.3628H225.73L235.35 58.2029H235.47V31.3628H241.84V75.9028H235.84L226.09 49.1228H225.97V75.9028H219.61Z" fill="#00AA89"/>
<path d="M249.16 75.9028V31.3628H268.16V37.3728H255.54V50.4529H266.54V56.4626H255.54V69.5327H268.16V75.9128H249.16V75.9028Z" fill="#00AA89"/>
<path d="M279.79 75.9028V57.0728L271.04 31.3628H277.79L282.91 49.0627H283.03L288.15 31.3628H294.9L286.15 57.0728V75.9028H279.79Z" fill="#00AA89"/>
</svg>
