<svg width="348" height="85" viewBox="0 0 348 85" fill="none" xmlns="http://www.w3.org/2000/svg">
<path d="M0.810111 5.78271C0.731029 5.10097 0.805852 4.41022 1.02911 3.76123C1.25236 3.11224 1.61827 2.52153 2.10003 2.03271C2.96019 1.32784 4.03799 0.942627 5.15008 0.942627C6.26216 0.942627 7.33984 1.32784 8.2 2.03271C8.68176 2.52153 9.0478 3.11224 9.27105 3.76123C9.4943 4.41022 9.56913 5.10097 9.49004 5.78271V14.7327C9.56913 15.4144 9.4943 16.1054 9.27105 16.7544C9.0478 17.4034 8.68176 17.9938 8.2 18.4827C7.33984 19.1875 6.26216 19.5728 5.15008 19.5728C4.03799 19.5728 2.96019 19.1875 2.10003 18.4827C1.61827 17.9938 1.25236 17.4034 1.02911 16.7544C0.805852 16.1054 0.731029 15.4144 0.810111 14.7327V5.78271ZM7.5501 5.36279C7.58581 5.01778 7.54417 4.66921 7.42828 4.34229C7.31238 4.01536 7.1251 3.71815 6.88006 3.47266C6.41139 3.03679 5.78981 2.80334 5.15008 2.82275C4.833 2.81084 4.51668 2.86228 4.21966 2.97388C3.92263 3.08548 3.65088 3.2549 3.4201 3.47266C3.17446 3.71773 2.98671 4.01476 2.87078 4.3418C2.75485 4.66884 2.71362 5.01773 2.75005 5.36279V15.1428C2.71587 15.4908 2.7581 15.842 2.87383 16.1719C2.98956 16.5018 3.17604 16.8024 3.4201 17.0527C3.90747 17.4537 4.51896 17.6729 5.15008 17.6729C5.78119 17.6729 6.39269 17.4537 6.88006 17.0527C7.12361 16.802 7.30965 16.5015 7.42535 16.1716C7.54104 15.8418 7.58367 15.4907 7.5501 15.1428V5.36279Z" fill="#00211B"/>
<path d="M21.97 6.47256V7.74258C22.2717 7.2922 22.6793 6.92269 23.157 6.66641C23.6347 6.41013 24.1679 6.27492 24.71 6.27261C25.2301 6.23804 25.7488 6.35961 26.1995 6.62148C26.6502 6.88336 27.0124 7.2736 27.24 7.74258C27.5375 7.27652 27.9511 6.89607 28.4403 6.63833C28.9295 6.38059 29.4774 6.25447 30.03 6.27261C31.81 6.27261 32.66 7.49264 32.66 9.30264V19.3126H30.72V10.1527C30.72 9.04274 30.26 8.16274 29.09 8.16274C27.88 8.16274 27.3101 9.2726 27.3101 10.5126V19.3026H25.37V10.1427C25.37 9.34273 25.06 8.15273 23.77 8.15273C22.53 8.15273 21.96 9.31259 21.96 10.5026V19.2926H20.02V6.46255H21.97V6.47256Z" fill="#00211B"/>
<path d="M41.83 18.0428H41.8C41.4836 18.5138 41.0518 18.8961 40.546 19.1534C40.0402 19.4107 39.4771 19.5344 38.91 19.5128C36.87 19.5128 36.28 17.9629 36.28 15.9129C36.28 13.1929 37.16 11.6729 40.03 11.6729C40.6347 11.6756 41.2387 11.7088 41.84 11.7728V9.8829C41.8406 9.6487 41.7937 9.41674 41.7019 9.20126C41.6102 8.98578 41.4756 8.79131 41.3063 8.62948C41.137 8.46766 40.9366 8.34178 40.7172 8.25985C40.4978 8.17793 40.264 8.14166 40.03 8.15292C39.5889 8.13626 39.1587 8.29165 38.8302 8.58651C38.5017 8.88138 38.3009 9.29244 38.27 9.73275H36.41C36.4051 9.25154 36.5009 8.77479 36.6914 8.33285C36.8819 7.89092 37.1628 7.49368 37.516 7.16684C37.8692 6.83999 38.2869 6.59059 38.7423 6.4349C39.1977 6.27921 39.6806 6.22061 40.16 6.26278C43.13 6.26278 43.78 8.46288 43.78 10.1129V19.2928H41.84V18.0428H41.83ZM41.83 13.203C41.3933 13.1307 40.9524 13.0872 40.51 13.0728C40.1871 13.0533 39.8638 13.1055 39.5636 13.2259C39.2633 13.3463 38.9935 13.5319 38.7736 13.7691C38.5536 14.0063 38.389 14.2893 38.2915 14.5977C38.194 14.9062 38.1662 15.2323 38.21 15.5528C38.21 17.3628 38.75 17.8529 39.86 17.8529C40.4165 17.7428 40.917 17.4416 41.2749 17.0016C41.6328 16.5615 41.8256 16.0102 41.8199 15.443V13.203H41.83Z" fill="#00211B"/>
<path d="M49.89 2.57275V6.48267H51.7V8.03271H49.89V15.8127C49.846 16.0495 49.8604 16.2934 49.9318 16.5234C50.0031 16.7535 50.1294 16.9628 50.2997 17.1331C50.47 17.3034 50.6792 17.4296 50.9092 17.501C51.1392 17.5724 51.3832 17.5867 51.62 17.5427H51.83V19.3027H51.26C50.8088 19.4084 50.3382 19.3979 49.8922 19.2722C49.4462 19.1465 49.0393 18.9099 48.7096 18.5842C48.3799 18.2586 48.1383 17.8546 48.0072 17.4102C47.8761 16.9657 47.8598 16.4952 47.96 16.0427V8.02271H46.59V6.47266H47.96V2.56274H49.89V2.57275Z" fill="#00211B"/>
<path d="M60.12 15.7126H62.0601V15.8928C62.0978 16.3726 62.0319 16.8548 61.8672 17.3071C61.7025 17.7593 61.4426 18.1709 61.1051 18.5141C60.7676 18.8573 60.3605 19.1241 59.911 19.2963C59.4616 19.4686 58.9804 19.5423 58.5 19.5126C58.0021 19.5436 57.5032 19.4688 57.0363 19.2932C56.5693 19.1176 56.1447 18.8452 55.7906 18.4938C55.4364 18.1425 55.1606 17.7201 54.9812 17.2546C54.8019 16.789 54.7231 16.2908 54.75 15.7927V9.84272C54.73 9.36429 54.8103 8.88688 54.9859 8.44136C55.1614 7.99583 55.4282 7.59205 55.7692 7.25581C56.1101 6.91957 56.5177 6.65827 56.9656 6.48896C57.4135 6.31966 57.8919 6.24601 58.37 6.27266C58.8612 6.25207 59.3513 6.33239 59.8103 6.5085C60.2693 6.6846 60.6874 6.95273 61.0387 7.29658C61.3901 7.64043 61.6673 8.05268 61.8533 8.50776C62.0393 8.96284 62.13 9.45131 62.12 9.94282V13.6127H56.7V15.6528C56.7 17.0228 57.32 17.6228 58.51 17.6228C59.65 17.6228 60.14 16.9227 60.14 15.8627V15.7126H60.12ZM60.1801 12.1628V9.9626C60.2059 9.72546 60.1796 9.48561 60.1029 9.25972C60.0263 9.03382 59.9012 8.82742 59.7364 8.65498C59.5715 8.48254 59.371 8.3482 59.1488 8.26142C58.9266 8.17465 58.688 8.13767 58.45 8.15278C58.2044 8.1475 57.9605 8.19453 57.7345 8.29072C57.5085 8.38691 57.3055 8.53001 57.1391 8.71064C56.9726 8.89128 56.8465 9.10522 56.7691 9.33833C56.6916 9.57144 56.6647 9.81837 56.69 10.0627V12.1628H60.1801Z" fill="#00211B"/>
<path d="M67.6899 6.47266V8.49268C69.0599 6.63268 70.25 6.29271 71.25 6.27271V8.44287H70.89C69.47 8.44287 67.6899 9.01276 67.6899 11.8328V19.3027H65.75V6.47266H67.6899Z" fill="#00211B"/>
<path d="M75.86 1.56274V3.45288H73.92V1.56274H75.86ZM73.92 6.47266H75.86V19.3027H73.92V6.47266Z" fill="#00211B"/>
<path d="M85.03 18.0428H85C84.6835 18.5138 84.2519 18.8961 83.7461 19.1534C83.2403 19.4107 82.6771 19.5344 82.11 19.5128C80.07 19.5128 79.48 17.9629 79.48 15.9129C79.48 13.1929 80.36 11.6729 83.23 11.6729C83.8346 11.6756 84.4388 11.7088 85.04 11.7728V9.8829C85.0407 9.6487 84.9937 9.41674 84.902 9.20126C84.8102 8.98578 84.6755 8.79131 84.5062 8.62948C84.3369 8.46766 84.1365 8.34178 83.9171 8.25985C83.6977 8.17793 83.4639 8.14166 83.23 8.15292C82.7889 8.13626 82.3586 8.29165 82.0302 8.58651C81.7017 8.88138 81.5008 9.29244 81.47 9.73275H79.61C79.6051 9.25154 79.701 8.77479 79.8915 8.33285C80.082 7.89092 80.3628 7.49368 80.7161 7.16684C81.0693 6.83999 81.487 6.59059 81.9424 6.4349C82.3977 6.27921 82.8806 6.22061 83.36 6.26278C86.33 6.26278 86.98 8.46288 86.98 10.1129V19.2928H85.04V18.0428H85.03ZM85.03 13.203C84.5934 13.1307 84.1523 13.0872 83.71 13.0728C83.3871 13.0533 83.0639 13.1055 82.7637 13.2259C82.4634 13.3463 82.1936 13.5319 81.9736 13.7691C81.7537 14.0063 81.589 14.2893 81.4916 14.5977C81.3941 14.9062 81.3663 15.2323 81.41 15.5528C81.41 17.3628 81.9501 17.8529 83.0601 17.8529C83.6165 17.7428 84.1169 17.4416 84.4749 17.0016C84.8328 16.5615 85.0257 16.0102 85.02 15.443V13.203H85.03Z" fill="#00211B"/>
<path d="M92.75 1.20288V16.1028C92.7343 16.2932 92.7602 16.4849 92.826 16.6643C92.8918 16.8437 92.9959 17.0067 93.131 17.1418C93.2662 17.277 93.4291 17.381 93.6086 17.4468C93.788 17.5126 93.9796 17.5385 94.1701 17.5227H94.45V19.3027H93.86C93.4655 19.3488 93.0656 19.3084 92.6883 19.1843C92.3109 19.0603 91.9651 18.8554 91.6748 18.5842C91.3846 18.313 91.1569 17.9819 91.0076 17.6138C90.8583 17.2457 90.7909 16.8497 90.8101 16.4529V1.19287H92.75V1.20288Z" fill="#00211B"/>
<path d="M111.38 19.3027H109.44V18.0327C109.13 18.48 108.718 18.8468 108.238 19.1025C107.758 19.3582 107.224 19.4954 106.68 19.5027C104.41 19.5027 103.99 17.7727 103.99 16.5327V9.24268C103.99 8.00268 104.4 6.27271 106.68 6.27271C107.224 6.27791 107.759 6.41428 108.24 6.67017C108.72 6.92605 109.132 7.2939 109.44 7.74268V1.20288H111.38V19.3027ZM109.44 15.2727V10.5127C109.44 9.7127 109.13 8.16284 107.55 8.16284C106.31 8.16284 105.92 9.17283 105.92 10.1528V15.6328C105.92 16.6128 106.31 17.6228 107.55 17.6228C109.13 17.6228 109.44 16.0727 109.44 15.2727Z" fill="#00211B"/>
<path d="M120.5 15.7126H122.44V15.8928C122.478 16.3726 122.412 16.8548 122.247 17.3071C122.082 17.7593 121.823 18.1709 121.485 18.5141C121.148 18.8573 120.74 19.1241 120.291 19.2963C119.842 19.4686 119.36 19.5423 118.88 19.5126C118.382 19.5436 117.883 19.4688 117.416 19.2932C116.949 19.1176 116.525 18.8452 116.171 18.4938C115.816 18.1425 115.541 17.7201 115.361 17.2546C115.182 16.789 115.103 16.2908 115.13 15.7927V9.84272C115.11 9.36429 115.19 8.88688 115.366 8.44136C115.541 7.99583 115.808 7.59205 116.149 7.25581C116.49 6.91957 116.898 6.65827 117.346 6.48896C117.794 6.31966 118.272 6.24601 118.75 6.27266C119.241 6.25207 119.731 6.33239 120.19 6.5085C120.649 6.6846 121.067 6.95273 121.419 7.29658C121.77 7.64043 122.047 8.05268 122.233 8.50776C122.419 8.96284 122.51 9.45131 122.5 9.94282V13.6127H117.08V15.6528C117.08 17.0228 117.7 17.6228 118.89 17.6228C120.03 17.6228 120.52 16.9227 120.52 15.8627V15.7126H120.5ZM120.55 12.1628V9.9626C120.576 9.72546 120.55 9.48561 120.473 9.25972C120.396 9.03382 120.271 8.82742 120.106 8.65498C119.942 8.48254 119.741 8.3482 119.519 8.26142C119.297 8.17465 119.058 8.13767 118.82 8.15278C118.574 8.1475 118.331 8.19453 118.105 8.29072C117.879 8.38691 117.676 8.53001 117.509 8.71064C117.343 8.89128 117.216 9.10522 117.139 9.33833C117.062 9.57144 117.035 9.81837 117.06 10.0627V12.1628H120.55Z" fill="#00211B"/>
<path d="M140.18 19.3027H138.24V18.0327C137.93 18.48 137.518 18.8468 137.038 19.1025C136.558 19.3583 136.024 19.4954 135.48 19.5027C133.21 19.5027 132.79 17.7727 132.79 16.5327V6.47266H134.73V15.6328C134.73 16.6128 135.12 17.6228 136.36 17.6228C137.94 17.6228 138.25 16.0727 138.25 15.2727V6.48267H140.19V19.3027H140.18Z" fill="#00211B"/>
<path d="M145.97 6.47256V7.74258C146.272 7.2922 146.679 6.92269 147.157 6.66641C147.635 6.41013 148.168 6.27492 148.71 6.27261C149.23 6.23804 149.749 6.35961 150.199 6.62148C150.65 6.88336 151.012 7.2736 151.24 7.74258C151.537 7.27652 151.951 6.89607 152.44 6.63833C152.929 6.38059 153.477 6.25447 154.03 6.27261C155.81 6.27261 156.66 7.49264 156.66 9.30264V19.3126H154.72V10.1527C154.72 9.04274 154.26 8.16274 153.09 8.16274C151.88 8.16274 151.31 9.2726 151.31 10.5126V19.3026H149.37V10.1427C149.37 9.34273 149.06 8.15273 147.77 8.15273C146.53 8.15273 145.96 9.31259 145.96 10.5026V19.2926H144.02V6.46255H145.97V6.47256Z" fill="#00211B"/>
<path d="M165.84 18.0428H165.81C165.494 18.5138 165.062 18.8961 164.556 19.1534C164.05 19.4107 163.487 19.5344 162.92 19.5128C160.88 19.5128 160.29 17.9629 160.29 15.9129C160.29 13.1929 161.17 11.6729 164.04 11.6729C164.645 11.6756 165.249 11.7088 165.85 11.7728V9.8829C165.851 9.6487 165.804 9.41674 165.712 9.20126C165.62 8.98578 165.486 8.79131 165.316 8.62948C165.147 8.46766 164.947 8.34178 164.727 8.25985C164.508 8.17793 164.274 8.14166 164.04 8.15292C163.599 8.13626 163.169 8.29165 162.84 8.58651C162.512 8.88138 162.311 9.29244 162.28 9.73275H160.42C160.415 9.25154 160.511 8.77479 160.701 8.33285C160.892 7.89092 161.173 7.49368 161.526 7.16684C161.879 6.83999 162.297 6.59059 162.752 6.4349C163.208 6.27921 163.691 6.22061 164.17 6.26278C167.14 6.26278 167.79 8.46288 167.79 10.1129V19.2928H165.85V18.0428H165.84ZM165.84 13.203C165.403 13.1307 164.962 13.0872 164.52 13.0728C164.197 13.0533 163.874 13.1055 163.574 13.2259C163.273 13.3463 163.004 13.5319 162.784 13.7691C162.564 14.0063 162.399 14.2893 162.302 14.5977C162.204 14.9062 162.176 15.2323 162.22 15.5528C162.22 17.3628 162.76 17.8529 163.87 17.8529C164.426 17.7428 164.927 17.4416 165.285 17.0016C165.643 16.5615 165.836 16.0102 165.83 15.443V13.203H165.84Z" fill="#00211B"/>
<path d="M185.68 19.3027H183.74V18.0327C183.43 18.48 183.018 18.8468 182.538 19.1025C182.058 19.3582 181.524 19.4954 180.98 19.5027C178.71 19.5027 178.29 17.7727 178.29 16.5327V6.47266H180.23V15.6328C180.23 16.6128 180.62 17.6228 181.86 17.6228C183.44 17.6228 183.75 16.0727 183.75 15.2727V6.48267H185.69V19.3027H185.68ZM182.32 4.35278H181.31L182.5 1.19287H184.59L182.32 4.35278Z" fill="#00211B"/>
<path d="M189.53 6.47266H191.47V7.74268C191.78 7.29538 192.192 6.92856 192.672 6.67285C193.152 6.41714 193.686 6.27998 194.23 6.27271C196.5 6.27271 196.92 8.00268 196.92 9.24268V19.3027H194.98V10.1428C194.98 9.16282 194.59 8.15283 193.35 8.15283C191.77 8.15283 191.46 9.70269 191.46 10.5027V19.2927H189.52V6.47266H189.53Z" fill="#00211B"/>
<path d="M202.7 1.56274V3.45288H200.76V1.56274H202.7ZM200.76 6.47266H202.7V19.3027H200.76V6.47266Z" fill="#00211B"/>
<path d="M212 15.3728H213.94V15.8928C213.908 16.8749 213.493 17.8053 212.782 18.4841C212.072 19.1629 211.123 19.5358 210.141 19.5227C209.158 19.5096 208.22 19.1115 207.528 18.414C206.836 17.7165 206.445 16.7753 206.44 15.7927V9.97264C206.416 9.47618 206.497 8.9803 206.678 8.51731C206.859 8.05433 207.135 7.6347 207.489 7.28562C207.843 6.93655 208.266 6.66596 208.732 6.49143C209.197 6.31691 209.694 6.24234 210.19 6.27268C210.678 6.23613 211.169 6.30269 211.63 6.468C212.09 6.63331 212.511 6.8936 212.865 7.23216C213.219 7.57071 213.497 7.97991 213.682 8.43309C213.867 8.88626 213.955 9.37344 213.94 9.86277V10.4328H212V10.2527C212 8.80267 211.17 8.15281 210.19 8.15281C209.18 8.15281 208.38 8.80267 208.38 10.2527V15.5327C208.38 16.9027 209 17.6228 210.19 17.6228C211.33 17.6228 212 16.9227 212 15.5327V15.3728Z" fill="#00211B"/>
<path d="M222.18 18.0428H222.15C221.834 18.5138 221.402 18.8961 220.896 19.1534C220.39 19.4107 219.827 19.5344 219.26 19.5128C217.22 19.5128 216.63 17.9629 216.63 15.9129C216.63 13.1929 217.51 11.6729 220.38 11.6729C220.985 11.6756 221.589 11.7088 222.19 11.7728V9.8829C222.191 9.6487 222.144 9.41674 222.052 9.20126C221.96 8.98578 221.826 8.79131 221.656 8.62948C221.487 8.46766 221.287 8.34178 221.067 8.25985C220.848 8.17793 220.614 8.14166 220.38 8.15292C219.939 8.13626 219.509 8.29165 219.18 8.58651C218.852 8.88138 218.651 9.29244 218.62 9.73275H216.76C216.755 9.25154 216.851 8.77479 217.041 8.33285C217.232 7.89092 217.513 7.49368 217.866 7.16684C218.219 6.83999 218.637 6.59059 219.092 6.4349C219.548 6.27921 220.031 6.22061 220.51 6.26278C223.48 6.26278 224.13 8.46288 224.13 10.1129V19.2928H222.19V18.0428H222.18ZM222.18 13.203C221.743 13.1307 221.302 13.0872 220.86 13.0728C220.537 13.0533 220.214 13.1055 219.914 13.2259C219.613 13.3463 219.344 13.5319 219.124 13.7691C218.904 14.0063 218.739 14.2893 218.642 14.5977C218.544 14.9062 218.516 15.2323 218.56 15.5528C218.56 17.3628 219.1 17.8529 220.21 17.8529C220.766 17.7428 221.267 17.4416 221.625 17.0016C221.983 16.5615 222.176 16.0102 222.17 15.443V13.203H222.18Z" fill="#00211B"/>
<path d="M234.63 6.47266H236.57V7.74268C236.88 7.29538 237.292 6.92856 237.772 6.67285C238.252 6.41714 238.786 6.27998 239.33 6.27271C241.6 6.27271 242.02 8.00268 242.02 9.24268V16.5327C242.02 17.7727 241.61 19.5027 239.33 19.5027C238.786 19.4975 238.251 19.3614 237.77 19.1055C237.29 18.8496 236.878 18.4815 236.57 18.0327V24.5728H234.63V6.47266ZM240.08 15.6328V10.1528C240.08 9.17283 239.69 8.16284 238.45 8.16284C236.87 8.16284 236.56 9.7127 236.56 10.5127V15.2727C236.56 16.0727 236.87 17.6228 238.45 17.6228C239.7 17.6228 240.08 16.6128 240.08 15.6328Z" fill="#00211B"/>
<path d="M251.19 18.0427H251.16C250.844 18.5138 250.412 18.896 249.906 19.1533C249.4 19.4106 248.837 19.5343 248.27 19.5127C246.23 19.5127 245.64 17.9628 245.64 15.9128C245.64 13.1928 246.52 11.6729 249.39 11.6729C249.995 11.6755 250.599 11.7087 251.2 11.7727V9.88281C251.201 9.64861 251.154 9.41665 251.062 9.20117C250.97 8.98569 250.836 8.79122 250.666 8.62939C250.497 8.46757 250.297 8.34169 250.077 8.25977C249.858 8.17784 249.624 8.14158 249.39 8.15283C248.949 8.13617 248.519 8.29156 248.19 8.58643C247.862 8.88129 247.661 9.29235 247.63 9.73267H245.77C245.765 9.25145 245.861 8.7747 246.051 8.33276C246.242 7.89083 246.523 7.49359 246.876 7.16675C247.229 6.8399 247.647 6.5905 248.102 6.43481C248.558 6.27913 249.041 6.22052 249.52 6.2627C252.49 6.2627 253.14 8.46279 253.14 10.1128V19.2927H251.2V18.0427H251.19ZM251.19 13.2029C250.753 13.1306 250.312 13.0871 249.87 13.0728C249.547 13.0532 249.224 13.1055 248.924 13.2258C248.623 13.3462 248.354 13.5319 248.134 13.769C247.914 14.0062 247.749 14.2892 247.651 14.5977C247.554 14.9061 247.526 15.2322 247.57 15.5527C247.57 17.3627 248.11 17.8528 249.22 17.8528C249.776 17.7427 250.277 17.4416 250.635 17.0015C250.993 16.5614 251.186 16.0101 251.18 15.4429V13.2029H251.19ZM249.85 4.35278H248.84L250.03 1.19287H252.12L249.85 4.35278Z" fill="#00211B"/>
<path d="M264.37 20.8528C264.401 21.3665 264.323 21.8809 264.14 22.3621C263.958 22.8432 263.675 23.2801 263.311 23.644C262.947 24.0079 262.51 24.2907 262.029 24.4731C261.548 24.6556 261.034 24.734 260.52 24.7029C260.048 24.7552 259.571 24.702 259.123 24.5471C258.674 24.3923 258.266 24.1398 257.927 23.8076C257.588 23.4755 257.327 23.072 257.163 22.6267C257 22.1814 256.937 21.7052 256.98 21.2327H258.84C258.839 21.456 258.886 21.6772 258.976 21.8813C259.067 22.0855 259.2 22.268 259.366 22.4172C259.532 22.5664 259.728 22.6789 259.941 22.7471C260.153 22.8152 260.378 22.8376 260.6 22.8127C260.835 22.8241 261.07 22.7877 261.29 22.7061C261.511 22.6244 261.713 22.4992 261.883 22.3376C262.054 22.1761 262.191 21.9815 262.285 21.7659C262.379 21.5502 262.428 21.3179 262.43 21.0828V17.9028C262.12 18.3501 261.708 18.7169 261.228 18.9727C260.748 19.2284 260.214 19.3655 259.67 19.3728C257.4 19.3728 256.98 17.6428 256.98 16.4028V9.24268C256.98 8.00268 257.39 6.27271 259.67 6.27271C260.214 6.27791 260.749 6.41428 261.23 6.67017C261.71 6.92605 262.122 7.2939 262.43 7.74268V6.47266H264.37V20.8528ZM262.43 15.1428V10.5127C262.43 9.7127 262.12 8.16284 260.54 8.16284C259.3 8.16284 258.91 9.17283 258.91 10.1528V15.5027C258.91 16.4827 259.3 17.4927 260.54 17.4927C262.12 17.4927 262.43 15.9428 262.43 15.1428Z" fill="#00211B"/>
<path d="M270.16 1.56274V3.45288H268.22V1.56274H270.16ZM268.22 6.47266H270.16V19.3027H268.22V6.47266Z" fill="#00211B"/>
<path d="M274 6.47266H275.94V7.74268C276.249 7.29538 276.662 6.92856 277.142 6.67285C277.622 6.41714 278.156 6.27998 278.7 6.27271C280.97 6.27271 281.39 8.00268 281.39 9.24268V19.3027H279.45V10.1428C279.45 9.16282 279.06 8.15283 277.82 8.15283C276.24 8.15283 275.93 9.70269 275.93 10.5027V19.2927H274V6.47266Z" fill="#00211B"/>
<path d="M290.56 18.0428H290.53C290.214 18.5138 289.782 18.8961 289.276 19.1534C288.77 19.4107 288.207 19.5344 287.64 19.5128C285.6 19.5128 285.01 17.9629 285.01 15.9129C285.01 13.1929 285.89 11.6729 288.76 11.6729C289.365 11.6756 289.969 11.7088 290.57 11.7728V9.8829C290.571 9.6487 290.524 9.41674 290.432 9.20126C290.34 8.98578 290.206 8.79131 290.036 8.62948C289.867 8.46766 289.667 8.34178 289.447 8.25985C289.228 8.17793 288.994 8.14166 288.76 8.15292C288.319 8.13626 287.889 8.29165 287.56 8.58651C287.232 8.88138 287.031 9.29244 287 9.73275H285.14C285.135 9.25154 285.231 8.77479 285.421 8.33285C285.612 7.89092 285.893 7.49368 286.246 7.16684C286.599 6.83999 287.017 6.59059 287.472 6.4349C287.928 6.27921 288.411 6.22061 288.89 6.26278C291.86 6.26278 292.51 8.46288 292.51 10.1129V19.2928H290.57V18.0428H290.56ZM290.56 13.203C290.123 13.1307 289.682 13.0872 289.24 13.0728C288.917 13.0533 288.594 13.1055 288.294 13.2259C287.993 13.3463 287.724 13.5319 287.504 13.7691C287.284 14.0063 287.119 14.2893 287.022 14.5977C286.924 14.9062 286.896 15.2323 286.94 15.5528C286.94 17.3628 287.48 17.8529 288.59 17.8529C289.146 17.7428 289.647 17.4416 290.005 17.0016C290.363 16.5615 290.556 16.0102 290.55 15.443V13.203H290.56Z" fill="#00211B"/>
<path d="M0.780029 36.5127H2.71997V37.7827C3.02953 37.3354 3.44152 36.9686 3.92163 36.7129C4.40174 36.4572 4.93607 36.32 5.47998 36.3127C7.74998 36.3127 8.17004 38.0427 8.17004 39.2827V46.5728C8.17004 47.8128 7.75998 49.5427 5.47998 49.5427C4.93567 49.5375 4.40061 49.4012 3.92017 49.1453C3.43972 48.8894 3.02804 48.5215 2.71997 48.0728V54.6128H0.780029V36.5127ZM6.22998 45.6628V40.1829C6.22998 39.2029 5.83998 38.1929 4.59998 38.1929C3.01998 38.1929 2.70996 39.7427 2.70996 40.5427V45.3027C2.70996 46.1027 3.01998 47.6528 4.59998 47.6528C5.84998 47.6528 6.22998 46.6528 6.22998 45.6628Z" fill="#00211B"/>
<path d="M17.34 48.0728H17.3101C16.9936 48.5439 16.5618 48.9262 16.056 49.1834C15.5502 49.4407 14.9871 49.5644 14.42 49.5428C12.38 49.5428 11.79 47.993 11.79 45.943C11.79 43.223 12.67 41.703 15.54 41.703C16.1447 41.7056 16.7487 41.7388 17.35 41.8028V39.9129C17.3507 39.6787 17.3037 39.4468 17.2119 39.2313C17.1202 39.0158 16.9856 38.8213 16.8163 38.6595C16.647 38.4977 16.4466 38.3718 16.2272 38.2899C16.0078 38.208 15.774 38.1717 15.54 38.1829C15.099 38.1663 14.6687 38.3217 14.3402 38.6165C14.0118 38.9114 13.8109 39.3225 13.78 39.7628H11.92C11.9151 39.2816 12.0109 38.8048 12.2014 38.3629C12.3919 37.9209 12.6728 37.5237 13.026 37.1969C13.3792 36.87 13.797 36.6206 14.2523 36.4649C14.7077 36.3092 15.1907 36.2506 15.67 36.2928C18.64 36.2928 19.29 38.4929 19.29 40.1429V49.3228H17.35V48.0728H17.34ZM17.34 43.2328C16.9033 43.1605 16.4624 43.1172 16.02 43.1029C15.6971 43.0833 15.3739 43.1356 15.0736 43.2559C14.7734 43.3763 14.5035 43.5617 14.2836 43.7989C14.0636 44.0361 13.899 44.3193 13.8015 44.6278C13.7041 44.9362 13.6762 45.2623 13.72 45.5829C13.72 47.3929 14.26 47.8829 15.37 47.8829C15.9265 47.7728 16.427 47.4717 16.7849 47.0316C17.1428 46.5915 17.3356 46.04 17.33 45.4727V43.2328H17.34Z" fill="#00211B"/>
<path d="M25.0699 36.5127V38.5327C26.4399 36.6727 27.63 36.3327 28.64 36.3127V38.4827H28.28C26.86 38.4827 25.08 39.0528 25.08 41.8728V49.3428H23.14V36.5127H25.0699Z" fill="#00211B"/>
<path d="M36.15 48.0728H36.12C35.8035 48.5439 35.3719 48.9262 34.8661 49.1834C34.3603 49.4407 33.7971 49.5644 33.23 49.5428C31.19 49.5428 30.6 47.993 30.6 45.943C30.6 43.223 31.48 41.703 34.35 41.703C34.9546 41.7056 35.5588 41.7388 36.16 41.8028V39.9129C36.1607 39.6787 36.1137 39.4468 36.022 39.2313C35.9302 39.0158 35.7955 38.8213 35.6262 38.6595C35.4569 38.4977 35.2565 38.3718 35.0371 38.2899C34.8177 38.208 34.5839 38.1717 34.35 38.1829C33.9089 38.1663 33.4786 38.3217 33.1501 38.6165C32.8217 38.9114 32.6208 39.3225 32.59 39.7628H30.73C30.7251 39.2816 30.821 38.8048 31.0115 38.3629C31.202 37.9209 31.4828 37.5237 31.8361 37.1969C32.1893 36.87 32.607 36.6206 33.0624 36.4649C33.5177 36.3092 34.0006 36.2506 34.48 36.2928C37.45 36.2928 38.1 38.4929 38.1 40.1429V49.3228H36.16V48.0728H36.15ZM36.15 43.2328C35.7134 43.1605 35.2723 43.1172 34.83 43.1029C34.5071 43.0833 34.1839 43.1356 33.8837 43.2559C33.5834 43.3763 33.3136 43.5617 33.0936 43.7989C32.8737 44.0361 32.709 44.3193 32.6116 44.6278C32.5141 44.9362 32.4863 45.2623 32.53 45.5829C32.53 47.3929 33.0701 47.8829 34.1801 47.8829C34.7365 47.7728 35.2371 47.4717 35.595 47.0316C35.9529 46.5915 36.1457 46.04 36.14 45.4727V43.2328H36.15Z" fill="#00211B"/>
<path d="M54.05 45.4028H55.99V45.9228C55.9584 46.9049 55.5427 47.8353 54.8323 48.5141C54.1218 49.1929 53.1734 49.5658 52.1909 49.5527C51.2084 49.5396 50.2703 49.1416 49.5782 48.4441C48.8862 47.7466 48.4954 46.8053 48.49 45.8227V40.0027C48.4663 39.5062 48.5475 39.0103 48.7283 38.5473C48.909 38.0844 49.1853 37.6647 49.5391 37.3157C49.8928 36.9666 50.3162 36.696 50.7816 36.5215C51.247 36.3469 51.7439 36.2724 52.24 36.3027C52.7282 36.2662 53.2186 36.3327 53.6794 36.498C54.1403 36.6633 54.5611 36.9236 54.9148 37.2622C55.2684 37.6007 55.5469 38.0099 55.7322 38.4631C55.9174 38.9163 56.0052 39.4035 55.99 39.8928V40.4626H54.05V40.2827C54.05 38.8327 53.22 38.1828 52.24 38.1828C51.23 38.1828 50.43 38.8327 50.43 40.2827V45.5627C50.43 46.9327 51.05 47.6528 52.24 47.6528C53.38 47.6528 54.05 46.9527 54.05 45.5627V45.4028Z" fill="#00211B"/>
<path d="M59.0699 39.9229C59.0881 38.9588 59.4829 38.0401 60.1698 37.3633C60.8567 36.6865 61.7811 36.3052 62.7454 36.3013C63.7096 36.2974 64.6371 36.6711 65.3295 37.3423C66.0218 38.0135 66.4239 38.9289 66.45 39.8929V45.8628C66.45 46.8415 66.0613 47.7799 65.3693 48.472C64.6773 49.164 63.7387 49.5528 62.76 49.5528C61.7814 49.5528 60.8428 49.164 60.1508 48.472C59.4587 47.7799 59.0699 46.8415 59.0699 45.8628V39.9229ZM64.52 40.2827C64.52 38.8627 63.72 38.1829 62.76 38.1829C61.8 38.1829 61 38.8527 61 40.2827V45.5628C61 46.9028 61.62 47.6529 62.76 47.6529C63.84 47.6529 64.52 46.9528 64.52 45.5628V40.2827Z" fill="#00211B"/>
<path d="M70.2 36.5127H72.14V37.7827C72.4496 37.3354 72.8616 36.9686 73.3417 36.7129C73.8218 36.4572 74.3561 36.32 74.9 36.3127C77.17 36.3127 77.59 38.0427 77.59 39.2827V49.3428H75.65V40.1829C75.65 39.2029 75.26 38.1929 74.02 38.1929C72.44 38.1929 72.13 39.7427 72.13 40.5427V49.3328H70.1899V36.5127H70.2Z" fill="#00211B"/>
<path d="M86.37 39.8928C86.24 38.4428 85.44 38.1328 84.64 38.1328C83.68 38.1328 82.99 38.4927 82.99 39.7927C82.99 40.8027 83.69 41.2128 84.51 41.6028L86.11 42.3828C86.8903 42.7364 87.5259 43.3465 87.9109 44.1118C88.2959 44.8771 88.407 45.7513 88.2257 46.5886C88.0445 47.4259 87.5818 48.1758 86.9148 48.7134C86.2478 49.2509 85.4167 49.5435 84.5601 49.5427C81.6901 49.5427 80.8701 47.6528 80.8101 45.8728H82.77C82.87 47.2428 83.49 47.7327 84.5 47.7327C84.7523 47.7666 85.009 47.7421 85.2501 47.6606C85.4913 47.5792 85.7104 47.4432 85.8904 47.2632C86.0704 47.0832 86.2064 46.864 86.2878 46.6228C86.3693 46.3816 86.394 46.1251 86.36 45.8728C86.36 44.9128 86.05 44.4227 84.73 43.7827L83.15 43.0027C82.4679 42.7569 81.888 42.2893 81.5035 41.6746C81.1191 41.0598 80.9524 40.3337 81.03 39.6128C81.03 37.8828 82.17 36.3027 84.72 36.3027C87.54 36.3027 88.23 38.2928 88.29 39.8928H86.37Z" fill="#00211B"/>
<path d="M93.9399 32.6028V36.5127H95.75V38.0627H93.9399V45.8428C93.896 46.0796 93.9103 46.3234 93.9817 46.5535C94.0531 46.7835 94.1794 46.9928 94.3497 47.1631C94.52 47.3334 94.7292 47.4596 94.9592 47.531C95.1893 47.6024 95.4332 47.6167 95.67 47.5728H95.88V49.3328H95.3101C94.8589 49.4384 94.3882 49.4279 93.9421 49.3022C93.4961 49.1766 93.0893 48.9399 92.7596 48.6143C92.43 48.2886 92.1882 47.8846 92.0571 47.4402C91.926 46.9957 91.9099 46.5252 92.01 46.0728V38.0527H90.64V36.5027H92.01V32.5928H93.9399V32.6028Z" fill="#00211B"/>
<path d="M100.84 36.5127V38.5327C102.21 36.6727 103.4 36.3327 104.41 36.3127V38.4827H104.05C102.63 38.4827 100.85 39.0528 100.85 41.8728V49.3428H98.91V36.5127H100.84Z" fill="#00211B"/>
<path d="M114.45 49.3428H112.51V48.0728C112.2 48.52 111.788 48.8869 111.308 49.1426C110.828 49.3983 110.294 49.5354 109.75 49.5427C107.48 49.5427 107.06 47.8128 107.06 46.5728V36.5127H109V45.6729C109 46.6529 109.39 47.6628 110.63 47.6628C112.21 47.6628 112.52 46.1127 112.52 45.3127V36.5227H114.46V49.3428H114.45Z" fill="#00211B"/>
<path d="M120.24 31.5928V33.4827H118.3V31.5928H120.24ZM118.3 36.5127H120.24V49.3428H118.3V36.5127Z" fill="#00211B"/>
<path d="M126.03 36.5127V38.5327C127.4 36.6727 128.59 36.3327 129.59 36.3127V38.4827H129.23C127.81 38.4827 126.03 39.0528 126.03 41.8728V49.3428H124.09V36.5127H126.03Z" fill="#00211B"/>
<path d="M138.81 39.9229C138.828 38.9588 139.223 38.0401 139.91 37.3633C140.597 36.6865 141.521 36.3052 142.485 36.3013C143.45 36.2974 144.377 36.6711 145.069 37.3423C145.762 38.0135 146.164 38.9289 146.19 39.8929V45.8628C146.19 46.8415 145.801 47.7799 145.109 48.472C144.417 49.164 143.479 49.5528 142.5 49.5528C141.521 49.5528 140.583 49.164 139.891 48.472C139.199 47.7799 138.81 46.8415 138.81 45.8628V39.9229ZM144.27 40.2827C144.27 38.8627 143.47 38.1829 142.51 38.1829C141.55 38.1829 140.75 38.8527 140.75 40.2827V45.5628C140.75 46.9028 141.37 47.6529 142.51 47.6529C143.59 47.6529 144.27 46.9528 144.27 45.5628V40.2827Z" fill="#00211B"/>
<path d="M161.55 39.8928C161.42 38.4428 160.62 38.1328 159.82 38.1328C158.86 38.1328 158.17 38.4927 158.17 39.7927C158.17 40.8027 158.87 41.2128 159.69 41.6028L161.29 42.3828C162.07 42.7364 162.706 43.3465 163.091 44.1118C163.476 44.8771 163.587 45.7513 163.406 46.5886C163.225 47.4259 162.762 48.1758 162.095 48.7134C161.428 49.2509 160.597 49.5435 159.74 49.5427C156.87 49.5427 156.05 47.6528 155.99 45.8728H157.95C158.05 47.2428 158.67 47.7327 159.68 47.7327C159.932 47.7666 160.189 47.7421 160.43 47.6606C160.671 47.5792 160.89 47.4432 161.07 47.2632C161.25 47.0832 161.386 46.864 161.468 46.6228C161.549 46.3816 161.574 46.1251 161.54 45.8728C161.54 44.9128 161.23 44.4227 159.91 43.7827L158.33 43.0027C157.648 42.7569 157.068 42.2893 156.684 41.6746C156.299 41.0598 156.132 40.3337 156.21 39.6128C156.21 37.8828 157.35 36.3027 159.9 36.3027C162.72 36.3027 163.41 38.2928 163.46 39.8928H161.55Z" fill="#00211B"/>
<path d="M172.11 45.7426H174.05V45.9228C174.088 46.4026 174.022 46.8849 173.857 47.3371C173.692 47.7894 173.433 48.201 173.095 48.5441C172.758 48.8873 172.35 49.1541 171.901 49.3264C171.452 49.4986 170.97 49.5723 170.49 49.5427C169.992 49.5736 169.493 49.4988 169.026 49.3232C168.559 49.1476 168.135 48.8752 167.781 48.5239C167.426 48.1725 167.151 47.7502 166.971 47.2846C166.792 46.8191 166.713 46.3209 166.74 45.8227V39.8728C166.72 39.3943 166.8 38.9169 166.976 38.4714C167.151 38.0259 167.418 37.6221 167.759 37.2858C168.1 36.9496 168.508 36.6883 168.956 36.519C169.404 36.3497 169.882 36.276 170.36 36.3027C170.851 36.2821 171.341 36.3624 171.8 36.5385C172.259 36.7146 172.677 36.9828 173.029 37.3266C173.38 37.6705 173.657 38.0827 173.843 38.5378C174.029 38.9929 174.12 39.4811 174.11 39.9726V43.6428H168.69V45.6828C168.69 47.0528 169.31 47.6528 170.5 47.6528C171.64 47.6528 172.13 46.9528 172.13 45.8928V45.7426H172.11ZM172.17 42.2028V40.0026C172.196 39.7655 172.17 39.5256 172.093 39.2998C172.016 39.0739 171.891 38.8675 171.726 38.695C171.562 38.5226 171.361 38.3882 171.139 38.3015C170.917 38.2147 170.678 38.1777 170.44 38.1928C170.194 38.1875 169.951 38.2346 169.725 38.3308C169.498 38.427 169.296 38.57 169.129 38.7507C168.963 38.9313 168.836 39.1453 168.759 39.3784C168.682 39.6115 168.655 39.8584 168.68 40.1027V42.2028H172.17Z" fill="#00211B"/>
<path d="M185.13 49.3428H183.19V48.0728C182.88 48.52 182.468 48.8869 181.988 49.1426C181.508 49.3983 180.974 49.5354 180.43 49.5427C178.16 49.5427 177.74 47.8128 177.74 46.5728V36.5127H179.68V45.6729C179.68 46.6529 180.07 47.6628 181.31 47.6628C182.89 47.6628 183.2 46.1127 183.2 45.3127V36.5227H185.14V49.3428H185.13Z" fill="#00211B"/>
<path d="M195.65 36.5127H197.59V37.7827C197.9 37.3354 198.312 36.9686 198.792 36.7129C199.272 36.4572 199.806 36.32 200.35 36.3127C202.62 36.3127 203.04 38.0427 203.04 39.2827V49.3428H201.1V40.1829C201.1 39.2029 200.71 38.1929 199.47 38.1929C197.89 38.1929 197.58 39.7427 197.58 40.5427V49.3328H195.64V36.5127H195.65Z" fill="#00211B"/>
<path d="M212.16 45.7426H214.1V45.9228C214.137 46.4034 214.071 46.8863 213.906 47.3391C213.74 47.7918 213.479 48.2038 213.141 48.5471C212.802 48.8903 212.394 49.1568 211.944 49.3286C211.493 49.5003 211.011 49.5733 210.53 49.5427C210.032 49.5736 209.533 49.4988 209.066 49.3232C208.599 49.1476 208.175 48.8752 207.821 48.5239C207.466 48.1725 207.191 47.7502 207.011 47.2846C206.832 46.8191 206.753 46.3209 206.78 45.8227V39.8728C206.76 39.3943 206.84 38.9169 207.016 38.4714C207.191 38.0259 207.458 37.6221 207.799 37.2858C208.14 36.9496 208.548 36.6883 208.996 36.519C209.444 36.3497 209.922 36.276 210.4 36.3027C210.891 36.2821 211.381 36.3624 211.84 36.5385C212.299 36.7146 212.717 36.9828 213.069 37.3266C213.42 37.6705 213.697 38.0827 213.883 38.5378C214.069 38.9929 214.16 39.4811 214.15 39.9726V43.6428H208.73V45.6828C208.73 47.0528 209.35 47.6528 210.54 47.6528C211.68 47.6528 212.17 46.9528 212.17 45.8928V45.7426H212.16ZM212.21 42.2028V40.0026C212.236 39.7655 212.21 39.5256 212.133 39.2998C212.056 39.0739 211.931 38.8675 211.766 38.695C211.602 38.5226 211.401 38.3882 211.179 38.3015C210.957 38.2147 210.718 38.1777 210.48 38.1928C210.234 38.1875 209.991 38.2346 209.765 38.3308C209.539 38.427 209.336 38.57 209.169 38.7507C209.003 38.9313 208.877 39.1453 208.799 39.3784C208.722 39.6115 208.695 39.8584 208.72 40.1027V42.2028H212.21Z" fill="#00211B"/>
<path d="M225.18 50.8928C225.211 51.4065 225.133 51.9209 224.95 52.4021C224.768 52.8833 224.485 53.3202 224.121 53.6841C223.757 54.048 223.32 54.3307 222.839 54.5132C222.358 54.6957 221.844 54.7738 221.33 54.7427C220.858 54.795 220.381 54.742 219.933 54.5872C219.484 54.4323 219.076 54.1795 218.737 53.8474C218.398 53.5153 218.137 53.1121 217.973 52.6667C217.81 52.2214 217.747 51.7452 217.79 51.2727H219.65C219.649 51.4961 219.696 51.717 219.786 51.9211C219.877 52.1253 220.01 52.3081 220.176 52.4573C220.342 52.6065 220.538 52.719 220.751 52.7871C220.963 52.8553 221.188 52.8776 221.41 52.8528C221.645 52.8641 221.88 52.8277 222.1 52.7461C222.321 52.6644 222.523 52.5393 222.693 52.3777C222.864 52.2161 223.001 52.0215 223.095 51.8059C223.189 51.5903 223.238 51.358 223.24 51.1228V47.9429C222.93 48.3902 222.518 48.7567 222.038 49.0125C221.558 49.2682 221.024 49.4056 220.48 49.4128C218.21 49.4128 217.79 47.6829 217.79 46.4429V39.2827C217.79 38.0427 218.2 36.3127 220.48 36.3127C221.024 36.318 221.559 36.4543 222.04 36.7102C222.52 36.9661 222.932 37.3339 223.24 37.7827V36.5127H225.18V50.8928ZM223.24 45.1729V40.5427C223.24 39.7427 222.93 38.1929 221.35 38.1929C220.11 38.1929 219.72 39.2029 219.72 40.1829V45.5327C219.72 46.5127 220.11 47.5227 221.35 47.5227C222.93 47.5227 223.24 45.9729 223.24 45.1729Z" fill="#00211B"/>
<path d="M228.92 39.9229C228.938 38.9588 229.333 38.0401 230.02 37.3633C230.707 36.6865 231.631 36.3052 232.595 36.3013C233.56 36.2973 234.487 36.6711 235.179 37.3423C235.872 38.0135 236.274 38.9289 236.3 39.8928V45.8628C236.3 46.8414 235.911 47.7799 235.219 48.4719C234.527 49.1639 233.589 49.5527 232.61 49.5527C231.631 49.5527 230.693 49.1639 230.001 48.4719C229.309 47.7799 228.92 46.8414 228.92 45.8628V39.9229ZM234.37 40.2827C234.37 38.8627 233.57 38.1829 232.61 38.1829C231.65 38.1829 230.85 38.8527 230.85 40.2827V45.5627C230.85 46.9027 231.47 47.6528 232.61 47.6528C233.69 47.6528 234.37 46.9527 234.37 45.5627V40.2827ZM232.95 34.3928H231.94L233.13 31.2327H235.22L232.95 34.3928Z" fill="#00211B"/>
<path d="M245.51 45.4028H247.45V45.9228C247.418 46.9049 247.003 47.8353 246.292 48.5141C245.582 49.1929 244.633 49.5658 243.651 49.5527C242.668 49.5396 241.73 49.1416 241.038 48.4441C240.346 47.7466 239.955 46.8053 239.95 45.8227V40.0027C239.926 39.5062 240.007 39.0103 240.188 38.5473C240.369 38.0844 240.645 37.6647 240.999 37.3157C241.353 36.9666 241.776 36.696 242.242 36.5215C242.707 36.3469 243.204 36.2724 243.7 36.3027C244.188 36.2662 244.679 36.3327 245.139 36.498C245.6 36.6633 246.021 36.9236 246.375 37.2622C246.729 37.6007 247.007 38.0099 247.192 38.4631C247.377 38.9163 247.465 39.4035 247.45 39.8928V40.4626H245.51V40.2827C245.51 38.8327 244.68 38.1828 243.7 38.1828C242.69 38.1828 241.89 38.8327 241.89 40.2827V45.5627C241.89 46.9327 242.51 47.6528 243.7 47.6528C244.84 47.6528 245.51 46.9527 245.51 45.5627V45.4028Z" fill="#00211B"/>
<path d="M252.56 31.5928V33.4827H250.62V31.5928H252.56ZM250.62 36.5127H252.56V49.3428H250.62V36.5127Z" fill="#00211B"/>
<path d="M256.31 39.9229C256.328 38.9588 256.723 38.0401 257.41 37.3633C258.097 36.6865 259.021 36.3052 259.985 36.3013C260.95 36.2974 261.877 36.6711 262.569 37.3423C263.262 38.0135 263.664 38.9289 263.69 39.8929V45.8628C263.69 46.8415 263.301 47.7799 262.609 48.472C261.917 49.164 260.979 49.5528 260 49.5528C259.021 49.5528 258.083 49.164 257.391 48.472C256.699 47.7799 256.31 46.8415 256.31 45.8628V39.9229ZM261.76 40.2827C261.76 38.8627 260.96 38.1829 260 38.1829C259.04 38.1829 258.24 38.8527 258.24 40.2827V45.5628C258.24 46.9028 258.86 47.6529 260 47.6529C261.08 47.6529 261.76 46.9528 261.76 45.5628V40.2827Z" fill="#00211B"/>
<path d="M274.11 31.2327H276.05V37.7727C276.36 37.3254 276.772 36.9586 277.252 36.7029C277.732 36.4472 278.266 36.31 278.81 36.3027C281.08 36.3027 281.5 38.0327 281.5 39.2727V46.5627C281.5 47.8027 281.09 49.5327 278.81 49.5327C278.266 49.5275 277.731 49.3911 277.25 49.1353C276.77 48.8794 276.358 48.5115 276.05 48.0627V49.3328H274.11V31.2327ZM279.56 45.6628V40.1829C279.56 39.2029 279.17 38.1929 277.93 38.1929C276.35 38.1929 276.04 39.7427 276.04 40.5427V45.3027C276.04 46.1027 276.35 47.6528 277.93 47.6528C279.17 47.6528 279.56 46.6528 279.56 45.6628Z" fill="#00211B"/>
<path d="M290.67 48.0728H290.64C290.324 48.5439 289.892 48.9262 289.386 49.1834C288.88 49.4407 288.317 49.5644 287.75 49.5428C285.71 49.5428 285.12 47.993 285.12 45.943C285.12 43.223 286 41.703 288.87 41.703C289.475 41.7056 290.079 41.7388 290.68 41.8028V39.9129C290.681 39.6787 290.634 39.4468 290.542 39.2313C290.45 39.0158 290.316 38.8213 290.146 38.6595C289.977 38.4977 289.777 38.3718 289.557 38.2899C289.338 38.208 289.104 38.1717 288.87 38.1829C288.429 38.1663 287.999 38.3217 287.67 38.6165C287.342 38.9114 287.141 39.3225 287.11 39.7628H285.25C285.245 39.2816 285.341 38.8048 285.531 38.3629C285.722 37.9209 286.003 37.5237 286.356 37.1969C286.709 36.87 287.127 36.6206 287.582 36.4649C288.038 36.3092 288.521 36.2506 289 36.2928C291.97 36.2928 292.62 38.4929 292.62 40.1429V49.3228H290.68V48.0728H290.67ZM290.67 43.2328C290.233 43.1605 289.792 43.1172 289.35 43.1029C289.027 43.0833 288.704 43.1356 288.404 43.2559C288.103 43.3763 287.834 43.5617 287.614 43.7989C287.394 44.0361 287.229 44.3193 287.132 44.6278C287.034 44.9362 287.006 45.2623 287.05 45.5829C287.05 47.3929 287.59 47.8829 288.7 47.8829C289.256 47.7728 289.757 47.4717 290.115 47.0316C290.473 46.5915 290.666 46.04 290.66 45.4727V43.2328H290.67Z" fill="#00211B"/>
<path d="M301.39 39.8928C301.26 38.4428 300.46 38.1328 299.66 38.1328C298.7 38.1328 298.01 38.4927 298.01 39.7927C298.01 40.8027 298.71 41.2128 299.53 41.6028L301.13 42.3828C301.91 42.7364 302.546 43.3465 302.931 44.1118C303.316 44.8771 303.427 45.7513 303.246 46.5886C303.064 47.4259 302.602 48.1758 301.935 48.7134C301.268 49.2509 300.437 49.5435 299.58 49.5427C296.71 49.5427 295.89 47.6528 295.83 45.8728H297.79C297.89 47.2428 298.51 47.7327 299.52 47.7327C299.772 47.7666 300.029 47.7421 300.27 47.6606C300.511 47.5792 300.73 47.4432 300.91 47.2632C301.09 47.0832 301.226 46.864 301.308 46.6228C301.389 46.3816 301.414 46.1251 301.38 45.8728C301.38 44.9128 301.07 44.4227 299.75 43.7827L298.17 43.0027C297.488 42.7569 296.908 42.2893 296.524 41.6746C296.139 41.0598 295.972 40.3337 296.05 39.6128C296.05 37.8828 297.19 36.3027 299.74 36.3027C302.56 36.3027 303.25 38.2928 303.3 39.8928H301.39Z" fill="#00211B"/>
<path d="M311.95 45.7426H313.89V45.9228C313.927 46.4034 313.861 46.8863 313.696 47.3391C313.53 47.7918 313.269 48.2038 312.931 48.5471C312.592 48.8903 312.184 49.1568 311.734 49.3286C311.283 49.5003 310.801 49.5733 310.32 49.5427C309.822 49.5736 309.323 49.4988 308.856 49.3232C308.389 49.1476 307.965 48.8752 307.611 48.5239C307.256 48.1725 306.981 47.7502 306.801 47.2846C306.622 46.8191 306.543 46.3209 306.57 45.8227V39.8728C306.55 39.3943 306.63 38.9169 306.806 38.4714C306.981 38.0259 307.248 37.6221 307.589 37.2858C307.93 36.9496 308.338 36.6883 308.786 36.519C309.233 36.3497 309.712 36.276 310.19 36.3027C310.681 36.2821 311.171 36.3624 311.63 36.5385C312.089 36.7146 312.507 36.9828 312.859 37.3266C313.21 37.6705 313.487 38.0827 313.673 38.5378C313.859 38.9929 313.95 39.4811 313.94 39.9726V43.6428H308.52V45.6828C308.52 47.0528 309.14 47.6528 310.33 47.6528C311.47 47.6528 311.96 46.9528 311.96 45.8928V45.7426H311.95ZM312.01 42.2028V40.0026C312.036 39.7655 312.01 39.5256 311.933 39.2998C311.856 39.0739 311.731 38.8675 311.566 38.695C311.401 38.5226 311.201 38.3882 310.979 38.3015C310.757 38.2147 310.518 38.1777 310.28 38.1928C310.034 38.1875 309.791 38.2346 309.565 38.3308C309.339 38.427 309.136 38.57 308.969 38.7507C308.803 38.9313 308.677 39.1453 308.599 39.3784C308.522 39.6115 308.495 39.8584 308.52 40.1027V42.2028H312.01Z" fill="#00211B"/>
<path d="M322.91 48.0728H322.88C322.564 48.5439 322.132 48.9262 321.626 49.1834C321.12 49.4407 320.557 49.5644 319.99 49.5428C317.95 49.5428 317.36 47.993 317.36 45.943C317.36 43.223 318.24 41.703 321.11 41.703C321.715 41.7056 322.319 41.7388 322.92 41.8028V39.9129C322.921 39.6787 322.874 39.4468 322.782 39.2313C322.69 39.0158 322.556 38.8213 322.386 38.6595C322.217 38.4977 322.017 38.3718 321.797 38.2899C321.578 38.208 321.344 38.1717 321.11 38.1829C320.669 38.1663 320.239 38.3217 319.91 38.6165C319.582 38.9114 319.381 39.3225 319.35 39.7628H317.49C317.485 39.2816 317.581 38.8048 317.771 38.3629C317.962 37.9209 318.243 37.5237 318.596 37.1969C318.949 36.87 319.367 36.6206 319.822 36.4649C320.278 36.3092 320.761 36.2506 321.24 36.2928C324.21 36.2928 324.86 38.4929 324.86 40.1429V49.3228H322.92V48.0728H322.91ZM322.91 43.2328C322.473 43.1605 322.032 43.1172 321.59 43.1029C321.267 43.0833 320.944 43.1356 320.644 43.2559C320.343 43.3763 320.074 43.5617 319.854 43.7989C319.634 44.0361 319.469 44.3193 319.372 44.6278C319.274 44.9362 319.246 45.2623 319.29 45.5829C319.29 47.3929 319.83 47.8829 320.94 47.8829C321.496 47.7728 321.997 47.4717 322.355 47.0316C322.713 46.5915 322.906 46.04 322.9 45.4727V43.2328H322.91Z" fill="#00211B"/>
<path d="M336.08 49.3428H334.14V48.0728C333.83 48.52 333.418 48.8869 332.938 49.1426C332.458 49.3983 331.924 49.5354 331.38 49.5427C329.11 49.5427 328.69 47.8128 328.69 46.5728V39.2827C328.69 38.0427 329.1 36.3127 331.38 36.3127C331.924 36.318 332.459 36.4543 332.94 36.7102C333.42 36.9661 333.832 37.3339 334.14 37.7827V31.2427H336.08V49.3428ZM334.15 45.3027V40.5427C334.15 39.7427 333.84 38.1929 332.26 38.1929C331.02 38.1929 330.63 39.2029 330.63 40.1829V45.6628C330.63 46.6428 331.02 47.6528 332.26 47.6528C333.84 47.6528 334.15 46.1027 334.15 45.3027Z" fill="#00211B"/>
<path d="M339.83 39.9229C339.848 38.9588 340.243 38.0401 340.93 37.3633C341.617 36.6865 342.541 36.3052 343.505 36.3013C344.47 36.2974 345.397 36.6711 346.089 37.3423C346.782 38.0135 347.184 38.9289 347.21 39.8929V45.8628C347.21 46.8415 346.821 47.7799 346.129 48.472C345.437 49.164 344.499 49.5528 343.52 49.5528C342.541 49.5528 341.603 49.164 340.911 48.472C340.219 47.7799 339.83 46.8415 339.83 45.8628V39.9229ZM345.28 40.2827C345.28 38.8627 344.48 38.1829 343.52 38.1829C342.56 38.1829 341.76 38.8527 341.76 40.2827V45.5628C341.76 46.9028 342.38 47.6529 343.52 47.6529C344.6 47.6529 345.28 46.9528 345.28 45.5628V40.2827Z" fill="#00211B"/>
<path d="M0.780029 66.5427H2.71997V67.8127C3.02953 67.3655 3.44152 66.9986 3.92163 66.7429C4.40174 66.4872 4.93607 66.35 5.47998 66.3428C7.74998 66.3428 8.17004 68.0727 8.17004 69.3127V79.3728H6.22998V70.2126C6.22998 69.2326 5.83998 68.2227 4.59998 68.2227C3.01998 68.2227 2.70996 69.7728 2.70996 70.5728V79.3628H0.77002V66.5427H0.780029Z" fill="#00211B"/>
<path d="M17.34 78.1029H17.3101C16.9936 78.5739 16.5618 78.9562 16.056 79.2135C15.5502 79.4707 14.9871 79.5945 14.42 79.5728C12.38 79.5728 11.79 78.0227 11.79 75.9727C11.79 73.2527 12.67 71.7328 15.54 71.7328C16.1447 71.7354 16.7487 71.7689 17.35 71.8329V69.943C17.3507 69.7088 17.3037 69.4768 17.2119 69.2613C17.1202 69.0458 16.9856 68.8511 16.8163 68.6893C16.647 68.5275 16.4466 68.4018 16.2272 68.3199C16.0078 68.238 15.774 68.2015 15.54 68.2127C15.099 68.1961 14.6687 68.3517 14.3402 68.6466C14.0118 68.9414 13.8109 69.3525 13.78 69.7928H11.92C11.9151 69.3116 12.0109 68.8346 12.2014 68.3927C12.3919 67.9507 12.6728 67.5537 13.026 67.2269C13.3792 66.9 13.797 66.6506 14.2523 66.495C14.7077 66.3393 15.1907 66.2807 15.67 66.3228C18.64 66.3228 19.29 68.5229 19.29 70.1729V79.3529H17.35V78.1029H17.34ZM17.34 73.2628C16.9033 73.1905 16.4624 73.1472 16.02 73.1329C15.6971 73.1134 15.3739 73.1656 15.0736 73.286C14.7734 73.4064 14.5035 73.5918 14.2836 73.8289C14.0636 74.0661 13.899 74.3491 13.8015 74.6576C13.7041 74.966 13.6762 75.2924 13.72 75.6129C13.72 77.4229 14.26 77.9129 15.37 77.9129C15.9265 77.8029 16.427 77.5017 16.7849 77.0616C17.1428 76.6215 17.3356 76.07 17.33 75.5028V73.2628H17.34Z" fill="#00211B"/>
<path d="M28.0601 69.9329C27.9301 68.4829 27.13 68.1729 26.33 68.1729C25.37 68.1729 24.6801 68.5328 24.6801 69.8328C24.6801 70.8428 25.38 71.2528 26.2 71.6428L27.8 72.4229C28.5804 72.7764 29.216 73.3866 29.601 74.1519C29.9859 74.9171 30.097 75.7914 29.9158 76.6287C29.7345 77.4659 29.2718 78.2156 28.6047 78.7532C27.9377 79.2907 27.1067 79.5836 26.25 79.5828C23.38 79.5828 22.56 77.6928 22.5 75.9128H24.46C24.56 77.2828 25.1799 77.7727 26.1899 77.7727C26.4422 77.8067 26.6989 77.7821 26.9401 77.7007C27.1812 77.6192 27.4003 77.4832 27.5803 77.3032C27.7603 77.1232 27.8963 76.904 27.9778 76.6628C28.0592 76.4217 28.084 76.1651 28.05 75.9128C28.05 74.9528 27.74 74.4628 26.42 73.8228L24.84 73.0427C24.1578 72.797 23.5781 72.3294 23.1936 71.7146C22.8092 71.0998 22.6423 70.3737 22.72 69.6528C22.72 67.9228 23.86 66.3428 26.41 66.3428C29.23 66.3428 29.92 68.3329 29.98 69.9329H28.0601Z" fill="#00211B"/>
<path d="M43.4399 63.2827L40.52 65.1228V63.2827L43.49 61.2627H45.38V79.3628H43.4399V63.2827Z" fill="#00211B"/>
<path d="M58.73 75.8027C58.73 77.1727 58.27 79.6328 54.96 79.6328C51.65 79.6328 51.1899 77.1727 51.1899 75.8027V64.8328C51.1899 63.4628 51.66 61.0027 54.96 61.0027C58.26 61.0027 58.73 63.4628 58.73 64.8328V75.8027ZM56.79 65.0928C56.79 64.0828 56.38 62.8928 54.96 62.8928C53.54 62.8928 53.13 64.0828 53.13 65.0928V75.5427C53.13 76.5527 53.54 77.7427 54.96 77.7427C56.38 77.7427 56.79 76.5527 56.79 75.5427V65.0928Z" fill="#00211B"/>
<path d="M69.17 66.5427H71.11V67.8127C71.4195 67.3655 71.8315 66.9986 72.3116 66.7429C72.7918 66.4872 73.3261 66.35 73.87 66.3428C76.14 66.3428 76.5601 68.0727 76.5601 69.3127V76.6028C76.5601 77.8428 76.15 79.5728 73.87 79.5728C73.3257 79.5675 72.7906 79.4312 72.3102 79.1753C71.8297 78.9194 71.418 78.5516 71.11 78.1028V84.6428H69.17V66.5427ZM74.62 75.7029V70.2227C74.62 69.2427 74.23 68.2327 72.99 68.2327C71.41 68.2327 71.1 69.7828 71.1 70.5828V75.3428C71.1 76.1428 71.41 77.6929 72.99 77.6929C74.23 77.6929 74.62 76.6829 74.62 75.7029Z" fill="#00211B"/>
<path d="M85.6701 75.7727H87.61V75.9528C87.6477 76.4327 87.582 76.9149 87.4173 77.3671C87.2525 77.8194 86.9927 78.231 86.6552 78.5742C86.3177 78.9173 85.9104 79.1841 85.461 79.3564C85.0115 79.5287 84.5305 79.6024 84.0501 79.5727C83.5521 79.6036 83.0533 79.5288 82.5863 79.3532C82.1194 79.1776 81.6948 78.9053 81.3406 78.5539C80.9864 78.2026 80.7106 77.7802 80.5313 77.3146C80.3519 76.8491 80.2732 76.3509 80.3001 75.8527V69.9028C80.2801 69.4243 80.3604 68.9469 80.5359 68.5014C80.7114 68.0559 80.9782 67.6521 81.3191 67.3159C81.6601 66.9796 82.0676 66.7183 82.5155 66.549C82.9635 66.3797 83.442 66.3061 83.9201 66.3327C84.4112 66.3121 84.9014 66.3924 85.3604 66.5686C85.8194 66.7447 86.2374 67.0128 86.5888 67.3566C86.9401 67.7005 87.2173 68.1127 87.4032 68.5678C87.5892 69.0229 87.6801 69.5111 87.6701 70.0026V73.6728H82.25V75.7126C82.25 77.0826 82.8701 77.6828 84.0601 77.6828C85.2001 77.6828 85.69 76.9828 85.69 75.9228V75.7727H85.6701ZM85.73 72.2326V70.0327C85.7559 69.7955 85.7295 69.5557 85.6529 69.3298C85.5762 69.1039 85.4511 68.8975 85.2863 68.725C85.1215 68.5526 84.921 68.4183 84.6988 68.3315C84.4766 68.2447 84.2381 68.2075 84 68.2226C83.7544 68.2173 83.5106 68.2644 83.2846 68.3605C83.0586 68.4567 82.8556 68.6001 82.6891 68.7807C82.5227 68.9613 82.3965 69.1753 82.3191 69.4084C82.2417 69.6415 82.2147 69.8884 82.24 70.1328V72.2326H85.73Z" fill="#00211B"/>
<path d="M93.24 66.5427V68.5627C94.61 66.7027 95.8001 66.3628 96.8101 66.3428V68.5127H96.45C95.03 68.5127 93.25 69.0828 93.25 71.9028V79.3728H91.3101V66.5427H93.24Z" fill="#00211B"/>
<path d="M106.6 80.9229C106.631 81.4365 106.553 81.9509 106.37 82.4321C106.188 82.9133 105.905 83.3502 105.541 83.7141C105.178 84.078 104.741 84.3605 104.259 84.543C103.778 84.7255 103.264 84.8038 102.75 84.7727C102.278 84.8251 101.801 84.772 101.353 84.6172C100.904 84.4624 100.496 84.2096 100.157 83.8774C99.8181 83.5453 99.5574 83.1421 99.3936 82.6968C99.2299 82.2515 99.1671 81.7753 99.21 81.3027H101.07C101.069 81.5261 101.116 81.747 101.206 81.9512C101.297 82.1553 101.43 82.3381 101.596 82.4873C101.762 82.6365 101.958 82.749 102.171 82.8171C102.383 82.8853 102.608 82.9076 102.83 82.8828C103.065 82.8941 103.3 82.8578 103.52 82.7761C103.741 82.6945 103.943 82.569 104.114 82.4075C104.284 82.2459 104.421 82.0516 104.515 81.8359C104.609 81.6203 104.658 81.388 104.66 81.1528V77.9727C104.351 78.4199 103.939 78.7868 103.458 79.0425C102.978 79.2982 102.444 79.4356 101.9 79.4429C99.6301 79.4429 99.21 77.7127 99.21 76.4727V69.3127C99.21 68.0727 99.6201 66.3428 101.9 66.3428C102.444 66.348 102.979 66.4843 103.46 66.7402C103.94 66.9961 104.352 67.364 104.66 67.8127V66.5427H106.6V80.9229ZM104.66 75.2029V70.5728C104.66 69.7728 104.35 68.2227 102.77 68.2227C101.53 68.2227 101.14 69.2326 101.14 70.2126V75.5627C101.14 76.5427 101.53 77.5527 102.77 77.5527C104.35 77.5627 104.66 76.0129 104.66 75.2029Z" fill="#00211B"/>
<path d="M117.84 79.3728H115.9V78.1028C115.59 78.5501 115.178 78.9169 114.698 79.1726C114.218 79.4283 113.684 79.5655 113.14 79.5728C110.87 79.5728 110.45 77.8428 110.45 76.6028V66.5427H112.39V75.7029C112.39 76.6829 112.78 77.6929 114.02 77.6929C115.6 77.6929 115.91 76.1428 115.91 75.3428V66.5527H117.85V79.3728H117.84Z" fill="#00211B"/>
<path d="M121.69 66.5427H123.63V67.8127C123.94 67.3655 124.352 66.9986 124.832 66.7429C125.312 66.4872 125.846 66.35 126.39 66.3428C128.66 66.3428 129.08 68.0727 129.08 69.3127V79.3728H127.14V70.2126C127.14 69.2326 126.75 68.2227 125.51 68.2227C123.93 68.2227 123.62 69.7728 123.62 70.5728V79.3628H121.68V66.5427H121.69Z" fill="#00211B"/>
<path d="M135.2 62.6328V66.5427H137.01V68.0928H135.2V75.8728C135.156 76.1096 135.17 76.3535 135.242 76.5835C135.313 76.8135 135.439 77.0228 135.61 77.1931C135.78 77.3634 135.989 77.4897 136.219 77.561C136.449 77.6324 136.693 77.6468 136.93 77.6028H137.14V79.3628H136.57C136.119 79.4685 135.648 79.4579 135.202 79.3323C134.756 79.2066 134.349 78.97 134.02 78.6443C133.69 78.3186 133.448 77.9147 133.317 77.4702C133.186 77.0258 133.17 76.5552 133.27 76.1028V68.0828H131.9V66.5327H133.27V62.6228H135.2V62.6328Z" fill="#00211B"/>
<path d="M145.48 78.1029H145.45C145.133 78.5739 144.702 78.9562 144.196 79.2135C143.69 79.4707 143.127 79.5945 142.56 79.5728C140.52 79.5728 139.93 78.0227 139.93 75.9727C139.93 73.2527 140.81 71.7328 143.68 71.7328C144.285 71.7354 144.889 71.7689 145.49 71.8329V69.943C145.491 69.7088 145.444 69.4768 145.352 69.2613C145.26 69.0458 145.126 68.8511 144.956 68.6893C144.787 68.5275 144.586 68.4018 144.367 68.3199C144.148 68.238 143.914 68.2015 143.68 68.2127C143.239 68.1961 142.809 68.3517 142.48 68.6466C142.152 68.9414 141.951 69.3525 141.92 69.7928H140.06C140.055 69.3116 140.151 68.8346 140.341 68.3927C140.532 67.9507 140.813 67.5537 141.166 67.2269C141.519 66.9 141.937 66.6506 142.392 66.495C142.848 66.3393 143.331 66.2807 143.81 66.3228C146.78 66.3228 147.43 68.5229 147.43 70.1729V79.3529H145.49V78.1029H145.48ZM145.48 73.2628C145.043 73.1905 144.602 73.1472 144.16 73.1329C143.837 73.1134 143.514 73.1656 143.214 73.286C142.913 73.4064 142.644 73.5918 142.424 73.8289C142.204 74.0661 142.039 74.3491 141.942 74.6576C141.844 74.966 141.816 75.2924 141.86 75.6129C141.86 77.4229 142.4 77.9129 143.51 77.9129C144.066 77.8029 144.567 77.5017 144.925 77.0616C145.283 76.6215 145.476 76.07 145.47 75.5028V73.2628H145.48Z" fill="#00211B"/>
<path d="M156.2 69.9329C156.07 68.4829 155.27 68.1729 154.47 68.1729C153.51 68.1729 152.82 68.5328 152.82 69.8328C152.82 70.8428 153.52 71.2528 154.34 71.6428L155.94 72.4229C156.72 72.7764 157.356 73.3866 157.741 74.1519C158.126 74.9171 158.237 75.7914 158.056 76.6287C157.875 77.4659 157.412 78.2156 156.745 78.7532C156.078 79.2907 155.247 79.5836 154.39 79.5828C151.52 79.5828 150.7 77.6928 150.64 75.9128H152.6C152.7 77.2828 153.32 77.7727 154.33 77.7727C154.582 77.8067 154.839 77.7821 155.08 77.7007C155.321 77.6192 155.54 77.4832 155.72 77.3032C155.9 77.1232 156.036 76.904 156.118 76.6628C156.199 76.4217 156.224 76.1651 156.19 75.9128C156.19 74.9528 155.88 74.4628 154.56 73.8228L152.98 73.0427C152.298 72.797 151.718 72.3294 151.334 71.7146C150.949 71.0998 150.782 70.3737 150.86 69.6528C150.86 67.9228 152 66.3428 154.55 66.3428C157.37 66.3428 158.06 68.3329 158.12 69.9329H156.2Z" fill="#00211B"/>
<path d="M170.1 61.6328V63.5227H168.16V61.6328H170.1ZM168.16 66.5427H170.1V79.3728H168.16V66.5427Z" fill="#00211B"/>
<path d="M173.95 66.5427H175.89V67.8127C176.2 67.3655 176.612 66.9986 177.092 66.7429C177.572 66.4872 178.106 66.35 178.65 66.3428C180.92 66.3428 181.34 68.0727 181.34 69.3127V79.3728H179.4V70.2126C179.4 69.2326 179.01 68.2227 177.77 68.2227C176.19 68.2227 175.88 69.7728 175.88 70.5728V79.3628H173.94V66.5427H173.95Z" fill="#00211B"/>
<path d="M187.46 62.6328V66.5427H189.27V68.0928H187.46V75.8728C187.416 76.1096 187.43 76.3535 187.502 76.5835C187.573 76.8135 187.699 77.0228 187.87 77.1931C188.04 77.3634 188.249 77.4897 188.479 77.561C188.709 77.6324 188.953 77.6468 189.19 77.6028H189.4V79.3628H188.83C188.379 79.4685 187.908 79.4579 187.462 79.3323C187.016 79.2066 186.609 78.97 186.28 78.6443C185.95 78.3186 185.708 77.9147 185.577 77.4702C185.446 77.0258 185.43 76.5552 185.53 76.1028V68.0828H184.16V66.5327H185.53V62.6228H187.46V62.6328Z" fill="#00211B"/>
<path d="M197.69 75.7727H199.63V75.9528C199.667 76.4334 199.601 76.9163 199.436 77.3691C199.27 77.8219 199.009 78.2339 198.671 78.5771C198.332 78.9203 197.924 79.1868 197.474 79.3586C197.023 79.5304 196.541 79.6034 196.06 79.5727C195.562 79.6036 195.063 79.5288 194.596 79.3532C194.129 79.1776 193.705 78.9053 193.351 78.5539C192.996 78.2026 192.721 77.7802 192.541 77.3146C192.362 76.8491 192.283 76.3509 192.31 75.8527V69.9028C192.29 69.4243 192.37 68.9469 192.546 68.5014C192.721 68.0559 192.988 67.6521 193.329 67.3159C193.67 66.9796 194.078 66.7183 194.526 66.549C194.973 66.3797 195.452 66.3061 195.93 66.3327C196.421 66.3121 196.911 66.3924 197.37 66.5686C197.829 66.7447 198.247 67.0128 198.599 67.3566C198.95 67.7005 199.227 68.1127 199.413 68.5678C199.599 69.0229 199.69 69.5111 199.68 70.0026V73.6728H194.26V75.7126C194.26 77.0826 194.88 77.6828 196.07 77.6828C197.21 77.6828 197.7 76.9828 197.7 75.9228V75.7727H197.69ZM197.74 72.2326V70.0327C197.766 69.7955 197.74 69.5557 197.663 69.3298C197.586 69.1039 197.461 68.8975 197.296 68.725C197.131 68.5526 196.931 68.4183 196.709 68.3315C196.487 68.2447 196.248 68.2075 196.01 68.2226C195.764 68.2173 195.521 68.2644 195.295 68.3605C195.069 68.4567 194.866 68.6001 194.699 68.7807C194.533 68.9613 194.407 69.1753 194.329 69.4084C194.252 69.6415 194.225 69.8884 194.25 70.1328V72.2326H197.74Z" fill="#00211B"/>
<path d="M205.26 61.2627V76.1628C205.244 76.3533 205.27 76.5449 205.336 76.7244C205.402 76.9038 205.506 77.0668 205.641 77.2019C205.776 77.337 205.939 77.441 206.119 77.5068C206.298 77.5726 206.49 77.5985 206.68 77.5828H206.96V79.3628H206.37C205.975 79.4088 205.576 79.3685 205.198 79.2444C204.821 79.1203 204.475 78.9155 204.185 78.6443C203.895 78.3731 203.667 78.0419 203.517 77.6738C203.368 77.3057 203.301 76.9095 203.32 76.5127V61.2527H205.26V61.2627Z" fill="#00211B"/>
<path d="M211.77 61.6328V63.5227H209.83V61.6328H211.77ZM209.83 66.5427H211.77V79.3728H209.83V66.5427Z" fill="#00211B"/>
<path d="M223.01 80.9229C223.041 81.4365 222.963 81.9509 222.78 82.4321C222.598 82.9133 222.315 83.3502 221.951 83.7141C221.587 84.078 221.15 84.3605 220.669 84.543C220.188 84.7255 219.674 84.8038 219.16 84.7727C218.688 84.8251 218.211 84.772 217.763 84.6172C217.314 84.4624 216.906 84.2096 216.567 83.8774C216.228 83.5453 215.967 83.1421 215.803 82.6968C215.64 82.2515 215.577 81.7753 215.62 81.3027H217.48C217.479 81.5261 217.526 81.747 217.616 81.9512C217.707 82.1553 217.84 82.3381 218.006 82.4873C218.172 82.6365 218.368 82.749 218.581 82.8171C218.793 82.8853 219.018 82.9076 219.24 82.8828C219.475 82.8941 219.71 82.8578 219.93 82.7761C220.151 82.6945 220.353 82.569 220.524 82.4075C220.694 82.2459 220.831 82.0516 220.925 81.8359C221.019 81.6203 221.068 81.388 221.07 81.1528V77.9727C220.76 78.4199 220.348 78.7868 219.868 79.0425C219.388 79.2982 218.854 79.4356 218.31 79.4429C216.04 79.4429 215.62 77.7127 215.62 76.4727V69.3127C215.62 68.0727 216.03 66.3428 218.31 66.3428C218.854 66.348 219.389 66.4843 219.87 66.7402C220.35 66.9961 220.762 67.364 221.07 67.8127V66.5427H223.01V80.9229ZM221.07 75.2029V70.5728C221.07 69.7728 220.76 68.2227 219.18 68.2227C217.94 68.2227 217.55 69.2326 217.55 70.2126V75.5627C217.55 76.5427 217.94 77.5527 219.18 77.5527C220.76 77.5627 221.07 76.0129 221.07 75.2029Z" fill="#00211B"/>
<path d="M232.13 75.7727H234.07V75.9528C234.107 76.4334 234.041 76.9163 233.876 77.3691C233.71 77.8219 233.449 78.2339 233.111 78.5771C232.772 78.9203 232.364 79.1868 231.914 79.3586C231.463 79.5304 230.981 79.6034 230.5 79.5727C230.002 79.6036 229.503 79.5288 229.036 79.3532C228.569 79.1776 228.145 78.9053 227.791 78.5539C227.436 78.2026 227.161 77.7802 226.981 77.3146C226.802 76.8491 226.723 76.3509 226.75 75.8527V69.9028C226.73 69.4243 226.81 68.9469 226.986 68.5014C227.161 68.0559 227.428 67.6521 227.769 67.3159C228.11 66.9796 228.518 66.7183 228.966 66.549C229.414 66.3797 229.892 66.3061 230.37 66.3327C230.861 66.3121 231.351 66.3924 231.81 66.5686C232.269 66.7447 232.687 67.0128 233.039 67.3566C233.39 67.7005 233.667 68.1127 233.853 68.5678C234.039 69.0229 234.13 69.5111 234.12 70.0026V73.6728H228.7V75.7126C228.7 77.0826 229.32 77.6828 230.51 77.6828C231.65 77.6828 232.14 76.9828 232.14 75.9228V75.7727H232.13ZM232.18 72.2326V70.0327C232.206 69.7955 232.18 69.5557 232.103 69.3298C232.026 69.1039 231.901 68.8975 231.736 68.725C231.572 68.5526 231.371 68.4183 231.149 68.3315C230.927 68.2447 230.688 68.2075 230.45 68.2226C230.204 68.2173 229.961 68.2644 229.735 68.3605C229.509 68.4567 229.306 68.6001 229.139 68.7807C228.973 68.9613 228.846 69.1753 228.769 69.4084C228.692 69.6415 228.665 69.8884 228.69 70.1328V72.2326H232.18Z" fill="#00211B"/>
<path d="M237.76 66.5427H239.7V67.8127C240.01 67.3655 240.422 66.9986 240.902 66.7429C241.382 66.4872 241.916 66.35 242.46 66.3428C244.73 66.3428 245.15 68.0727 245.15 69.3127V79.3728H243.21V70.2126C243.21 69.2326 242.82 68.2227 241.58 68.2227C240 68.2227 239.69 69.7728 239.69 70.5728V79.3628H237.75V66.5427H237.76Z" fill="#00211B"/>
<path d="M251.27 62.6328V66.5427H253.08V68.0928H251.27V75.8728C251.226 76.1096 251.24 76.3535 251.312 76.5835C251.383 76.8135 251.509 77.0228 251.68 77.1931C251.85 77.3634 252.059 77.4897 252.289 77.561C252.519 77.6324 252.763 77.6468 253 77.6028H253.21V79.3628H252.64C252.189 79.4685 251.718 79.4579 251.272 79.3323C250.826 79.2066 250.419 78.97 250.09 78.6443C249.76 78.3186 249.518 77.9147 249.387 77.4702C249.256 77.0258 249.24 76.5552 249.34 76.1028V68.0828H247.97V66.5327H249.34V62.6228H251.27V62.6328Z" fill="#00211B"/>
<path d="M261.5 75.7727H263.44V75.9528C263.477 76.4334 263.411 76.9163 263.246 77.3691C263.08 77.8219 262.819 78.2339 262.481 78.5771C262.142 78.9203 261.734 79.1868 261.284 79.3586C260.833 79.5304 260.351 79.6034 259.87 79.5727C259.372 79.6036 258.873 79.5288 258.406 79.3532C257.939 79.1776 257.515 78.9053 257.161 78.5539C256.806 78.2026 256.531 77.7802 256.351 77.3146C256.172 76.8491 256.093 76.3509 256.12 75.8527V69.9028C256.1 69.4243 256.18 68.9469 256.356 68.5014C256.531 68.0559 256.798 67.6521 257.139 67.3159C257.48 66.9796 257.888 66.7183 258.336 66.549C258.784 66.3797 259.262 66.3061 259.74 66.3327C260.231 66.3121 260.721 66.3924 261.18 66.5686C261.639 66.7447 262.057 67.0128 262.409 67.3566C262.76 67.7005 263.037 68.1127 263.223 68.5678C263.409 69.0229 263.5 69.5111 263.49 70.0026V73.6728H258.07V75.7126C258.07 77.0826 258.69 77.6828 259.88 77.6828C261.02 77.6828 261.51 76.9828 261.51 75.9228V75.7727H261.5ZM261.55 72.2326V70.0327C261.576 69.7955 261.55 69.5557 261.473 69.3298C261.396 69.1039 261.271 68.8975 261.106 68.725C260.942 68.5526 260.741 68.4183 260.519 68.3315C260.297 68.2447 260.058 68.2075 259.82 68.2226C259.574 68.2173 259.331 68.2644 259.105 68.3605C258.879 68.4567 258.676 68.6001 258.509 68.7807C258.343 68.9613 258.216 69.1753 258.139 69.4084C258.062 69.6415 258.035 69.8884 258.06 70.1328V72.2326H261.55Z" fill="#00211B"/>
<path d="M272.07 69.9329C271.94 68.4829 271.14 68.1729 270.34 68.1729C269.38 68.1729 268.69 68.5328 268.69 69.8328C268.69 70.8428 269.39 71.2528 270.21 71.6428L271.81 72.4229C272.59 72.7764 273.226 73.3866 273.611 74.1519C273.996 74.9171 274.107 75.7914 273.926 76.6287C273.745 77.4659 273.282 78.2156 272.615 78.7532C271.948 79.2907 271.117 79.5836 270.26 79.5828C267.39 79.5828 266.57 77.6928 266.51 75.9128H268.47C268.57 77.2828 269.19 77.7727 270.2 77.7727C270.452 77.8067 270.709 77.7821 270.95 77.7007C271.191 77.6192 271.41 77.4832 271.59 77.3032C271.77 77.1232 271.906 76.904 271.988 76.6628C272.069 76.4217 272.094 76.1651 272.06 75.9128C272.06 74.9528 271.75 74.4628 270.43 73.8228L268.85 73.0427C268.168 72.797 267.588 72.3294 267.204 71.7146C266.819 71.0998 266.652 70.3737 266.73 69.6528C266.73 67.9228 267.87 66.3428 270.42 66.3428C273.24 66.3428 273.93 68.3329 273.99 69.9329H272.07Z" fill="#00211B"/>
<path d="M279.53 77.1729V79.3728H277.31V77.1729H279.53Z" fill="#00211B"/>
</svg>
