<svg width="135" height="77" viewBox="0 0 135 77" fill="none" xmlns="http://www.w3.org/2000/svg">
<path d="M9.77002 0.202881V17.0227C9.81223 18.4174 9.30183 19.7724 8.34998 20.7927C7.87244 21.2895 7.30159 21.687 6.67004 21.9626C5.95202 22.264 5.17851 22.4107 4.40002 22.3928C3.51178 22.4278 2.63359 22.1941 1.88 21.7227C1.2975 21.3539 0.763394 20.914 0.290039 20.4128L2.76001 18.4329C2.99067 18.6645 3.25753 18.8568 3.55005 19.0027C3.84084 19.1525 4.16289 19.2313 4.48999 19.2327C4.71055 19.2247 4.92912 19.1878 5.14001 19.1228C5.40666 19.0411 5.64999 18.8972 5.84998 18.7029C6.09628 18.4873 6.28822 18.2166 6.41003 17.9128C6.5693 17.4811 6.64397 17.0227 6.63 16.5627V0.172852H9.77002V0.202881Z" fill="#011C1C"/>
<path d="M13.51 22.2126V0.192871H16.66V10.2427H16.72L21.3199 0.192871H24.47L20.1801 9.00269L25.28 22.2029H21.9399L18.36 12.4329L16.66 15.6228V22.2126H13.51Z" fill="#011C1C"/>
<path d="M24.21 63.2028V65.9528C24.2171 67.2955 23.9519 68.6256 23.4301 69.8627C22.9202 71.0808 22.1876 72.1931 21.27 73.1428C20.3527 74.102 19.2596 74.8761 18.0501 75.4228C16.8031 75.9868 15.4485 76.2732 14.08 76.2626C12.8335 76.2561 11.5933 76.088 10.39 75.7626C9.14854 75.4346 7.99454 74.8371 7.01004 74.0126C5.96958 73.1248 5.12798 72.0276 4.54007 70.7927C3.83597 69.2088 3.50406 67.4847 3.56997 65.7526V41.2326C3.55707 39.8404 3.81168 38.4589 4.31997 37.1628C4.79757 35.9462 5.51903 34.8402 6.43997 33.9128C7.37743 32.9802 8.49291 32.2454 9.72 31.7526C11.0622 31.2193 12.4958 30.9543 13.94 30.9726C15.2967 30.9208 16.6491 31.1562 17.9087 31.6628C19.1684 32.1694 20.307 32.9361 21.25 33.9128C22.1817 34.9007 22.915 36.0582 23.4101 37.3227C23.9407 38.69 24.2053 40.1461 24.19 41.6127V44.1127H17.8101V41.9826C17.8383 40.81 17.4642 39.6631 16.75 38.7326C16.4169 38.2873 15.981 37.9294 15.4795 37.6891C14.978 37.4488 14.4258 37.3334 13.87 37.3527C12.29 37.3527 11.23 37.8427 10.71 38.8227C10.1507 39.9806 9.88302 41.2576 9.93008 42.5427V65.3127C9.88978 66.4545 10.1815 67.5834 10.77 68.5627C11.116 69.0275 11.578 69.3931 12.1098 69.623C12.6416 69.8529 13.2245 69.9391 13.8001 69.8727C14.2553 69.8682 14.7072 69.794 15.14 69.6528C15.6281 69.4994 16.0828 69.2552 16.48 68.9328C16.8944 68.5504 17.216 68.0783 17.4201 67.5527C17.6931 66.8558 17.8224 66.1109 17.8001 65.3627V63.1728H24.21V63.2028Z" fill="#00AA89"/>
<path d="M28.09 75.9028L38.03 31.3628H43.34L53.28 75.9028H46.91L45.03 66.3328H36.34L34.46 75.9028H28.09ZM43.84 60.3228L40.72 44.1829H40.6L37.48 60.3228H43.84Z" fill="#00AA89"/>
<path d="M57.71 75.9028V31.3628H63.83L73.45 58.2029H73.5699V31.3628H79.9399V75.9028H73.9399L64.1899 49.1228H64.0699V75.9028H57.71Z" fill="#00AA89"/>
<path d="M108.89 31.3528L99.77 75.8928H94.15L85.09 31.3528H91.84L96.9 62.4429H97.02L102.14 31.3528H108.89Z" fill="#00AA89"/>
<path d="M109.08 75.9028L119.02 31.3628H124.33L134.27 75.9028H127.89L126.01 66.3328H117.32L115.44 75.9028H109.08ZM124.83 60.3228L121.71 44.1829H121.59L118.47 60.3228H124.83Z" fill="#00AA89"/>
</svg>
