<svg width="259" height="77" viewBox="0 0 259 77" fill="none" xmlns="http://www.w3.org/2000/svg">
<path d="M11 6.54273H7.85004V5.83277C7.86624 5.17301 7.68894 4.52283 7.34003 3.96265C7.15025 3.69159 6.89203 3.47569 6.59164 3.33692C6.29126 3.19814 5.95945 3.14166 5.63003 3.17286C5.26346 3.15546 4.89942 3.24213 4.58002 3.42286C4.32196 3.58126 4.10043 3.79244 3.93002 4.04273C3.75804 4.3208 3.64252 4.63017 3.59003 4.95288C3.52903 5.30626 3.49892 5.66411 3.50003 6.02271C3.49831 6.38333 3.51499 6.74387 3.55002 7.10279C3.57492 7.37215 3.65311 7.63391 3.78003 7.87281C3.90978 8.11017 4.09506 8.31244 4.32004 8.46265C4.62272 8.664 4.94836 8.82873 5.29004 8.95288L7.70004 9.91285C8.31388 10.132 8.88801 10.4494 9.40002 10.8528C9.81777 11.1995 10.1642 11.624 10.42 12.1028C10.6602 12.6388 10.8154 13.2089 10.88 13.7927C10.9647 14.5062 11.0048 15.2244 11 15.9429C11.0085 16.8109 10.9146 17.6767 10.72 18.5227C10.5621 19.2538 10.2558 19.9448 9.82004 20.5527C9.37596 21.141 8.79146 21.6087 8.12002 21.9128C7.31291 22.2618 6.43896 22.4291 5.56003 22.4028C4.83068 22.4103 4.10697 22.2742 3.43002 22.0027C2.79482 21.7501 2.21676 21.3728 1.73004 20.8928C1.25685 20.4156 0.873996 19.8564 0.600035 19.2427C0.315389 18.5936 0.1722 17.8916 0.180022 17.1829V16.0027H3.33002V16.9927C3.32413 17.5546 3.50336 18.1028 3.84003 18.5527C4.04732 18.7989 4.31115 18.9911 4.60895 19.113C4.90675 19.2349 5.22964 19.2828 5.55002 19.2527C5.97877 19.2723 6.40633 19.1937 6.80002 19.0227C7.09351 18.8757 7.33449 18.6418 7.49002 18.3528C7.66162 18.0315 7.76062 17.6765 7.78003 17.3127C7.81003 16.9127 7.83002 16.4627 7.83002 15.9627C7.83473 15.4886 7.81471 15.0147 7.77002 14.5427C7.74786 14.229 7.66284 13.923 7.52002 13.6428C7.37721 13.4135 7.18184 13.2215 6.95004 13.0828C6.64774 12.9079 6.33365 12.7542 6.01004 12.6228L3.76004 11.6929C2.61152 11.3128 1.64092 10.5269 1.03003 9.48267C0.536197 8.40155 0.299998 7.22062 0.340026 6.03272C0.334318 5.23673 0.448942 4.4446 0.680022 3.68287C0.889378 2.98158 1.23612 2.32875 1.70004 1.7627C2.14434 1.21487 2.70896 0.776831 3.35004 0.48267C4.10085 0.146171 4.9175 -0.0178256 5.74002 0.00268934C6.47903 -0.00762071 7.21185 0.139114 7.89004 0.432865C8.51547 0.706172 9.08501 1.09255 9.57004 1.57276C10.0207 2.01675 10.3784 2.54612 10.6222 3.12989C10.866 3.71366 10.991 4.34002 10.99 4.97266V6.54273H11Z" fill="#011C1C"/>
<path d="M14.11 22.2126V0.192871H17.14L21.19 11.8528H21.25L25.27 0.192871H28.33V22.2126H25.18V8.82275H25.12L22 18.2827H20.42L17.33 8.82275H17.27V22.2126H14.11Z" fill="#011C1C"/>
<path d="M30.64 22.2126L35.55 0.192871H38.18L43.09 22.2126H39.94L39.01 17.4827H34.72L33.79 22.2126H30.64ZM38.42 14.5127L36.88 6.53271H36.82L35.28 14.5127H38.42Z" fill="#011C1C"/>
<path d="M45.41 22.2126V0.192871H50.48C54.19 0.192871 56.0434 2.34617 56.04 6.65283C56.0711 7.78579 55.8668 8.91269 55.44 9.96265C54.9992 10.9124 54.2528 11.6872 53.32 12.1628L56.72 22.2126H53.38L50.45 12.8127H48.57V22.2126H45.41ZM48.56 3.17285V10.0327H50.35C50.8046 10.0501 51.2577 9.9718 51.68 9.80273C51.9979 9.66145 52.2662 9.42814 52.45 9.13281C52.6284 8.80015 52.7436 8.43732 52.79 8.06274C52.91 7.08642 52.91 6.09913 52.79 5.1228C52.7385 4.73578 52.6128 4.36222 52.42 4.02271C52.1523 3.70364 51.8087 3.45692 51.4209 3.30493C51.0331 3.15294 50.6133 3.10067 50.2 3.15283H48.56V3.17285Z" fill="#011C1C"/>
<path d="M60.85 22.2126V3.16284H57.2V0.192871H67.64V3.16284H64V22.2126H60.85Z" fill="#011C1C"/>
<path d="M2.32004 75.9028V31.3628H11.63C13.4162 31.3138 15.1932 31.6337 16.85 32.3027C18.1962 32.8665 19.4014 33.7201 20.38 34.8027C21.296 35.8415 21.969 37.0714 22.35 38.4028C22.7487 39.7738 22.9474 41.1951 22.94 42.6228V44.2527C22.9587 45.2832 22.8648 46.3127 22.66 47.3228C22.4938 48.0915 22.2105 48.83 21.82 49.5127C21.0127 50.7755 19.8933 51.8088 18.57 52.5127C19.9955 53.1519 21.1622 54.2553 21.88 55.6428C22.6677 57.4111 23.0307 59.3391 22.94 61.2727V63.7727C22.94 67.6927 21.9934 70.6961 20.1 72.7827C18.2067 74.8694 15.1767 75.9128 11.01 75.9128H2.32004V75.9028ZM8.69003 37.3628V49.6228H11.56C13.68 49.6228 15.11 49.0927 15.84 48.0227C16.6569 46.6116 17.0363 44.9898 16.93 43.3628C17.046 41.7678 16.6157 40.1808 15.71 38.8628C14.9 37.8628 13.43 37.3628 11.3 37.3628H8.69003ZM8.69003 55.2527V69.5127H11.44C12.4796 69.5607 13.5163 69.3693 14.47 68.9529C15.1636 68.6058 15.7406 68.0635 16.13 67.3928C16.5251 66.6569 16.7602 65.8458 16.82 65.0127C16.9 64.0927 16.94 63.0927 16.94 62.0127C16.9516 61.0293 16.8881 60.0465 16.75 59.0728C16.652 58.3181 16.3965 57.5925 16 56.9429C15.5767 56.3574 14.9883 55.9117 14.31 55.6628C13.405 55.361 12.4536 55.222 11.5 55.2527H8.69003Z" fill="#00AA89"/>
<path d="M30.5 75.9028V31.3628H36.87V69.5227H49.49V75.9028H30.5Z" fill="#00AA89"/>
<path d="M52.31 75.9028L62.25 31.3628H67.56L77.5 75.9028H71.13L69.25 66.3328H60.56L58.68 75.9028H52.31ZM68.06 60.3228L64.94 44.1829H64.82L61.7 60.3228H68.06Z" fill="#00AA89"/>
<path d="M102.43 63.2028V65.9528C102.437 67.2955 102.172 68.6256 101.65 69.8627C101.14 71.0808 100.408 72.1931 99.49 73.1428C98.5727 74.102 97.4796 74.8761 96.2701 75.4228C95.0231 75.9868 93.6686 76.2732 92.3 76.2626C91.0536 76.2561 89.8133 76.088 88.61 75.7626C87.3685 75.4346 86.2145 74.8371 85.23 74.0126C84.1896 73.1248 83.348 72.0277 82.7601 70.7927C82.056 69.2088 81.7241 67.4847 81.79 65.7526V41.2326C81.7771 39.8404 82.0317 38.4589 82.54 37.1628C83.0177 35.9462 83.7391 34.8402 84.66 33.9128C85.5975 32.9802 86.713 32.2454 87.9401 31.7526C89.2822 31.2193 90.7159 30.9543 92.16 30.9726C93.5167 30.9208 94.8691 31.1562 96.1288 31.6628C97.3884 32.1694 98.527 32.9361 99.47 33.9128C100.402 34.9007 101.135 36.0582 101.63 37.3227C102.161 38.69 102.425 40.1461 102.41 41.6127V44.1127H96.04V41.9826C96.0683 40.81 95.6942 39.6631 94.98 38.7326C94.6469 38.2873 94.211 37.9294 93.7095 37.6891C93.208 37.4488 92.6558 37.3334 92.1 37.3527C90.52 37.3527 89.4601 37.8427 88.9401 38.8227C88.3808 39.9806 88.113 41.2576 88.16 42.5427V65.3127C88.1194 66.4545 88.4113 67.5835 89.0001 68.5627C89.346 69.0275 89.808 69.3931 90.3398 69.623C90.8716 69.8529 91.4545 69.9391 92.0301 69.8727C92.4854 69.8681 92.9372 69.794 93.3701 69.6528C93.8581 69.4994 94.3128 69.2551 94.7101 68.9328C95.1245 68.5504 95.446 68.0783 95.6501 67.5527C95.9231 66.8558 96.0524 66.1109 96.0301 65.3627V63.1728H102.43V63.2028Z" fill="#00AA89"/>
<path d="M109.18 75.9028V31.3628H115.55V51.6929H115.67L124.98 31.3628H131.35L122.66 49.1929L132.97 75.9028H126.22L119 56.1328L115.56 62.5728V75.9028H109.18Z" fill="#00AA89"/>
<path d="M150.56 75.9028V31.3628H159.87C161.656 31.3138 163.433 31.6337 165.09 32.3027C166.436 32.8665 167.641 33.7201 168.62 34.8027C169.536 35.8415 170.209 37.0714 170.59 38.4028C170.989 39.7738 171.187 41.1951 171.18 42.6228V44.2527C171.199 45.2832 171.105 46.3127 170.9 47.3228C170.734 48.0915 170.451 48.83 170.06 49.5127C169.253 50.7755 168.133 51.8088 166.81 52.5127C168.235 53.1519 169.402 54.2553 170.12 55.6428C170.908 57.4111 171.271 59.3391 171.18 61.2727V63.7727C171.18 67.6927 170.233 70.6961 168.34 72.7827C166.447 74.8694 163.417 75.9128 159.25 75.9128H150.56V75.9028ZM156.93 37.3628V49.6228H159.8C161.92 49.6228 163.35 49.0927 164.08 48.0227C164.897 46.6116 165.276 44.9898 165.17 43.3628C165.286 41.7678 164.856 40.1808 163.95 38.8628C163.14 37.8628 161.67 37.3628 159.54 37.3628H156.93ZM156.93 55.2527V69.5127H159.68C160.72 69.5607 161.756 69.3693 162.71 68.9529C163.404 68.6058 163.981 68.0635 164.37 67.3928C164.765 66.6569 165 65.8458 165.06 65.0127C165.14 64.0927 165.18 63.0927 165.18 62.0127C165.192 61.0293 165.128 60.0465 164.99 59.0728C164.892 58.3181 164.636 57.5925 164.24 56.9429C163.817 56.3574 163.228 55.9116 162.55 55.6628C161.645 55.361 160.694 55.2221 159.74 55.2527H156.93Z" fill="#00AA89"/>
<path d="M178.37 41.8628C178.336 40.2301 178.657 38.6094 179.31 37.1128C179.887 35.8 180.739 34.6268 181.81 33.6729C182.809 32.795 183.966 32.1161 185.22 31.6729C187.697 30.7529 190.423 30.7529 192.9 31.6729C194.165 32.1307 195.34 32.8077 196.37 33.6729C197.407 34.6434 198.237 35.8134 198.81 37.1128C199.458 38.6112 199.778 40.2306 199.75 41.8628V65.3828C199.796 67.0392 199.475 68.6852 198.81 70.2029C198.236 71.4672 197.405 72.5978 196.37 73.5227C195.357 74.4272 194.179 75.1268 192.9 75.5828C190.423 76.5027 187.697 76.5027 185.22 75.5828C183.959 75.1275 182.8 74.4273 181.81 73.5227C180.742 72.6138 179.889 71.4803 179.31 70.2029C178.649 68.6841 178.328 67.0388 178.37 65.3828V41.8628ZM184.74 65.3928C184.688 66.0205 184.776 66.6518 184.997 67.2415C185.219 67.8311 185.568 68.3642 186.02 68.8027C186.873 69.5074 187.944 69.8928 189.05 69.8928C190.156 69.8928 191.228 69.5074 192.08 68.8027C192.532 68.3642 192.881 67.8311 193.103 67.2415C193.324 66.6518 193.412 66.0205 193.36 65.3928V41.8728C193.412 41.2452 193.324 40.6138 193.103 40.0242C192.881 39.4346 192.532 38.9012 192.08 38.4627C191.239 37.738 190.16 37.35 189.05 37.3728C187.941 37.3542 186.863 37.7417 186.02 38.4627C185.568 38.9012 185.219 39.4346 184.997 40.0242C184.776 40.6138 184.688 41.2452 184.74 41.8728V65.3928Z" fill="#00AA89"/>
<path d="M206.55 41.8628C206.516 40.2301 206.837 38.6094 207.49 37.1128C208.067 35.8 208.919 34.6268 209.99 33.6729C210.989 32.795 212.146 32.1161 213.4 31.6729C215.877 30.7529 218.603 30.7529 221.08 31.6729C222.345 32.1307 223.52 32.8077 224.55 33.6729C225.587 34.6434 226.417 35.8134 226.99 37.1128C227.638 38.6112 227.958 40.2306 227.93 41.8628V65.3828C227.976 67.0392 227.655 68.6852 226.99 70.2029C226.416 71.4672 225.585 72.5978 224.55 73.5227C223.537 74.4272 222.359 75.1268 221.08 75.5828C218.603 76.5027 215.877 76.5027 213.4 75.5828C212.139 75.1275 210.98 74.4273 209.99 73.5227C208.922 72.6138 208.069 71.4803 207.49 70.2029C206.829 68.6841 206.508 67.0388 206.55 65.3828V41.8628ZM212.93 65.3928C212.878 66.0205 212.966 66.6518 213.187 67.2415C213.409 67.8311 213.758 68.3642 214.21 68.8027C215.063 69.5074 216.134 69.8928 217.24 69.8928C218.346 69.8928 219.418 69.5074 220.27 68.8027C220.722 68.3642 221.071 67.8311 221.293 67.2415C221.514 66.6518 221.602 66.0205 221.55 65.3928V41.8728C221.602 41.2452 221.514 40.6138 221.293 40.0242C221.071 39.4346 220.722 38.9012 220.27 38.4627C219.429 37.738 218.35 37.35 217.24 37.3728C216.131 37.3542 215.053 37.7417 214.21 38.4627C213.758 38.9012 213.409 39.4346 213.187 40.0242C212.966 40.6138 212.878 41.2452 212.93 41.8728V65.3928Z" fill="#00AA89"/>
<path d="M235.11 75.9028V31.3628H241.48V51.6929H241.6L250.91 31.3628H257.28L248.59 49.1929L258.9 75.9028H252.15L244.9 56.1328L241.46 62.5728V75.9028H235.11Z" fill="#00AA89"/>
</svg>
