<svg width="307" height="55" viewBox="0 0 307 55" fill="none" xmlns="http://www.w3.org/2000/svg">
<path d="M0.160026 5.78271C0.0809431 5.10097 0.155767 4.41022 0.37902 3.76123C0.602273 3.11224 0.968278 2.52153 1.45003 2.03271C2.3102 1.32784 3.38794 0.942627 4.50002 0.942627C5.6121 0.942627 6.68985 1.32784 7.55001 2.03271C8.03177 2.52153 8.39777 3.11224 8.62102 3.76123C8.84428 4.41022 8.9191 5.10097 8.84002 5.78271V14.7327C8.9191 15.4144 8.84428 16.1054 8.62102 16.7544C8.39777 17.4034 8.03177 17.9938 7.55001 18.4827C6.68985 19.1875 5.6121 19.5728 4.50002 19.5728C3.38794 19.5728 2.3102 19.1875 1.45003 18.4827C0.968278 17.9938 0.602273 17.4034 0.37902 16.7544C0.155767 16.1054 0.0809431 15.4144 0.160026 14.7327V5.78271ZM6.91003 5.36279C6.94574 5.01778 6.90412 4.66921 6.78823 4.34229C6.67234 4.01536 6.48506 3.71815 6.24001 3.47266C5.77134 3.03679 5.14976 2.80334 4.51003 2.82275C4.19297 2.81089 3.87669 2.86228 3.57967 2.97388C3.28266 3.08547 3.01083 3.25494 2.78002 3.47266C2.53439 3.71773 2.34673 4.01476 2.2308 4.3418C2.11486 4.66884 2.07358 5.01773 2.11001 5.36279V15.1428C2.07582 15.4908 2.11809 15.842 2.23382 16.1719C2.34955 16.5018 2.53596 16.8024 2.78002 17.0527C3.26739 17.4537 3.87892 17.6729 4.51003 17.6729C5.14114 17.6729 5.75264 17.4537 6.24001 17.0527C6.48357 16.802 6.66966 16.5015 6.78536 16.1716C6.90106 15.8418 6.9436 15.4907 6.91003 15.1428V5.36279Z" fill="#00211B"/>
<path d="M21.32 1.20288V16.1028C21.3043 16.2932 21.3302 16.4849 21.396 16.6643C21.4618 16.8437 21.5659 17.0067 21.701 17.1418C21.8361 17.277 21.9991 17.381 22.1785 17.4468C22.358 17.5126 22.5496 17.5385 22.74 17.5227H23.02V19.3027H22.43C22.0355 19.3488 21.6356 19.3084 21.2583 19.1843C20.8809 19.0603 20.5351 18.8554 20.2448 18.5842C19.9546 18.313 19.7269 17.9819 19.5775 17.6138C19.4282 17.2457 19.3608 16.8497 19.38 16.4529V1.19287H21.32V1.20288Z" fill="#00211B"/>
<path d="M27.83 1.56274V3.45288H25.89V1.56274H27.83ZM25.89 6.47266H27.83V19.3027H25.89V6.47266Z" fill="#00211B"/>
<path d="M35.43 19.3027H33.91L30.55 6.47266H32.59L34.73 15.4727H34.78L36.87 6.47266H38.83L35.43 19.3027Z" fill="#00211B"/>
<path d="M43.41 6.47266V8.49268C44.78 6.63268 45.97 6.29271 46.97 6.27271V8.44287H46.61C45.19 8.44287 43.41 9.01276 43.41 11.8328V19.3027H41.47V6.47266H43.41Z" fill="#00211B"/>
<path d="M49.27 9.89285C49.2882 8.92876 49.683 8.01006 50.3698 7.33328C51.0567 6.65651 51.9811 6.27543 52.9454 6.27151C53.9096 6.2676 54.8371 6.64112 55.5295 7.31229C56.2218 7.98346 56.624 8.89891 56.65 9.86282V15.8328C56.65 16.8114 56.2613 17.7499 55.5692 18.4419C54.8772 19.1339 53.9387 19.5227 52.96 19.5227C51.9814 19.5227 51.0428 19.1339 50.3508 18.4419C49.6588 17.7499 49.27 16.8114 49.27 15.8328V9.89285ZM54.72 10.2527C54.72 8.83272 53.92 8.15286 52.96 8.15286C52 8.15286 51.2 8.82272 51.2 10.2527V15.5327C51.2 16.8727 51.82 17.6228 52.96 17.6228C54.04 17.6228 54.72 16.9227 54.72 15.5327V10.2527Z" fill="#00211B"/>
<path d="M67.07 6.47266H69.01V7.74268C69.3196 7.29538 69.7316 6.92856 70.2117 6.67285C70.6918 6.41714 71.2261 6.27998 71.7701 6.27271C74.0401 6.27271 74.4601 8.00268 74.4601 9.24268V19.3027H72.5201V10.1428C72.5201 9.16282 72.13 8.15283 70.89 8.15283C69.31 8.15283 69 9.70269 69 10.5027V19.2927H67.06V6.47266H67.07Z" fill="#00211B"/>
<path d="M83.5801 15.7126H85.5201V15.8928C85.5578 16.3726 85.492 16.8548 85.3273 17.3071C85.1625 17.7593 84.9027 18.1709 84.5652 18.5141C84.2277 18.8573 83.8205 19.1241 83.371 19.2963C82.9216 19.4686 82.4405 19.5423 81.9601 19.5126C81.4621 19.5436 80.9633 19.4688 80.4963 19.2932C80.0294 19.1176 79.6049 18.8452 79.2507 18.4938C78.8965 18.1425 78.6206 17.7201 78.4413 17.2546C78.2619 16.789 78.1832 16.2908 78.2101 15.7927V9.84272C78.1901 9.36429 78.2704 8.88688 78.4459 8.44136C78.6214 7.99583 78.8882 7.59205 79.2292 7.25581C79.5701 6.91957 79.9777 6.65827 80.4256 6.48896C80.8735 6.31966 81.352 6.24601 81.8301 6.27266C82.3213 6.25207 82.8114 6.33239 83.2704 6.5085C83.7294 6.6846 84.1474 6.95273 84.4988 7.29658C84.8501 7.64043 85.1273 8.05268 85.3133 8.50776C85.4993 8.96284 85.5901 9.45131 85.5801 9.94282V13.6127H80.16V15.6528C80.16 17.0228 80.78 17.6228 81.97 17.6228C83.11 17.6228 83.6 16.9227 83.6 15.8627V15.7126H83.5801ZM83.6301 12.1628V9.9626C83.6559 9.72546 83.6296 9.48561 83.5529 9.25972C83.4763 9.03382 83.3512 8.82742 83.1863 8.65498C83.0215 8.48254 82.821 8.3482 82.5988 8.26142C82.3766 8.17465 82.1381 8.13767 81.9001 8.15278C81.6545 8.1475 81.4106 8.19453 81.1846 8.29072C80.9586 8.38691 80.7556 8.53001 80.5892 8.71064C80.4227 8.89128 80.2965 9.10522 80.2191 9.33833C80.1417 9.57144 80.1148 9.81837 80.1401 10.0627V12.1628H83.6301Z" fill="#00211B"/>
<path d="M96.6 20.8528C96.6311 21.3665 96.5528 21.8809 96.3703 22.3621C96.1879 22.8432 95.9053 23.2801 95.5414 23.644C95.1775 24.0079 94.7406 24.2907 94.2594 24.4731C93.7782 24.6556 93.2637 24.734 92.75 24.7029C92.2785 24.7552 91.8011 24.702 91.3526 24.5471C90.9041 24.3923 90.4957 24.1398 90.1569 23.8076C89.8181 23.4755 89.5573 23.072 89.3935 22.6267C89.2298 22.1814 89.1671 21.7052 89.2101 21.2327H91.07C91.07 21.4558 91.117 21.6766 91.2079 21.8804C91.2987 22.0841 91.4315 22.2665 91.5975 22.4155C91.7635 22.5646 91.9591 22.6769 92.1715 22.7454C92.3838 22.8138 92.6082 22.8368 92.8301 22.8127C93.065 22.8241 93.2997 22.7877 93.5203 22.7061C93.7409 22.6244 93.9427 22.4992 94.1136 22.3376C94.2845 22.1761 94.421 21.9815 94.5149 21.7659C94.6088 21.5502 94.6581 21.3179 94.66 21.0828V17.9028C94.3505 18.3501 93.9385 18.7169 93.4584 18.9727C92.9782 19.2284 92.444 19.3655 91.9001 19.3728C89.6301 19.3728 89.2101 17.6428 89.2101 16.4028V9.24268C89.2101 8.00268 89.6201 6.27271 91.9001 6.27271C92.4444 6.27791 92.9794 6.41428 93.4598 6.67017C93.9403 6.92605 94.3519 7.2939 94.66 7.74268V6.47266H96.6V20.8528ZM94.66 15.1428V10.5127C94.66 9.7127 94.3501 8.16284 92.7701 8.16284C91.5301 8.16284 91.1401 9.17283 91.1401 10.1528V15.5027C91.1401 16.4827 91.5301 17.4927 92.7701 17.4927C94.3501 17.4927 94.66 15.9428 94.66 15.1428Z" fill="#00211B"/>
<path d="M102.39 6.47266V8.49268C103.76 6.63268 104.95 6.29271 105.95 6.27271V8.44287H105.59C104.17 8.44287 102.39 9.01276 102.39 11.8328V19.3027H100.45V6.47266H102.39Z" fill="#00211B"/>
<path d="M108.25 9.89285C108.268 8.92876 108.663 8.01006 109.35 7.33328C110.037 6.65651 110.961 6.27543 111.925 6.27151C112.89 6.2676 113.817 6.64112 114.509 7.31229C115.202 7.98346 115.604 8.89891 115.63 9.86282V15.8328C115.63 16.8114 115.241 17.7499 114.549 18.4419C113.857 19.1339 112.919 19.5227 111.94 19.5227C110.961 19.5227 110.023 19.1339 109.331 18.4419C108.639 17.7499 108.25 16.8114 108.25 15.8328V9.89285ZM113.7 10.2527C113.7 8.83272 112.9 8.15286 111.94 8.15286C110.98 8.15286 110.18 8.82272 110.18 10.2527V15.5327C110.18 16.8727 110.8 17.6228 111.94 17.6228C113.02 17.6228 113.7 16.9227 113.7 15.5327V10.2527Z" fill="#00211B"/>
<path d="M126.05 6.47266H127.99V7.74268C128.3 7.29538 128.712 6.92856 129.192 6.67285C129.672 6.41714 130.206 6.27998 130.75 6.27271C133.02 6.27271 133.44 8.00268 133.44 9.24268V16.5327C133.44 17.7727 133.03 19.5027 130.75 19.5027C130.206 19.4975 129.671 19.3614 129.19 19.1055C128.71 18.8496 128.298 18.4815 127.99 18.0327V24.5728H126.05V6.47266ZM131.5 15.6328V10.1528C131.5 9.17283 131.11 8.16284 129.87 8.16284C128.29 8.16284 127.98 9.7127 127.98 10.5127V15.2727C127.98 16.0727 128.29 17.6228 129.87 17.6228C131.11 17.6228 131.5 16.6128 131.5 15.6328Z" fill="#00211B"/>
<path d="M142.61 18.0428H142.58C142.264 18.5138 141.832 18.8961 141.326 19.1534C140.82 19.4107 140.257 19.5344 139.69 19.5128C137.65 19.5128 137.06 17.9629 137.06 15.9129C137.06 13.1929 137.94 11.6729 140.81 11.6729C141.415 11.6756 142.019 11.7088 142.62 11.7728V9.8829C142.621 9.6487 142.574 9.41674 142.482 9.20126C142.39 8.98578 142.256 8.79131 142.086 8.62948C141.917 8.46766 141.717 8.34178 141.497 8.25985C141.278 8.17793 141.044 8.14166 140.81 8.15292C140.369 8.13626 139.939 8.29165 139.61 8.58651C139.282 8.88138 139.081 9.29244 139.05 9.73275H137.19C137.185 9.25154 137.281 8.77479 137.471 8.33285C137.662 7.89092 137.943 7.49368 138.296 7.16684C138.649 6.83999 139.067 6.59059 139.522 6.4349C139.978 6.27921 140.461 6.22061 140.94 6.26278C143.91 6.26278 144.56 8.46288 144.56 10.1129V19.2928H142.62V18.0428H142.61ZM142.61 13.203C142.173 13.1307 141.732 13.0872 141.29 13.0728C140.967 13.0533 140.644 13.1055 140.344 13.2259C140.043 13.3463 139.774 13.5319 139.554 13.7691C139.334 14.0063 139.169 14.2893 139.072 14.5977C138.974 14.9062 138.946 15.2323 138.99 15.5528C138.99 17.3628 139.53 17.8529 140.64 17.8529C141.197 17.7428 141.697 17.4416 142.055 17.0016C142.413 16.5615 142.606 16.0102 142.6 15.443V13.203H142.61Z" fill="#00211B"/>
<path d="M150.34 6.47266V8.49268C151.71 6.63268 152.9 6.29271 153.9 6.27271V8.44287H153.54C152.12 8.44287 150.34 9.01276 150.34 11.8328V19.3027H148.4V6.47266H150.34Z" fill="#00211B"/>
<path d="M161.42 18.0428H161.39C161.074 18.5138 160.642 18.8961 160.136 19.1534C159.63 19.4107 159.067 19.5344 158.5 19.5128C156.46 19.5128 155.87 17.9629 155.87 15.9129C155.87 13.1929 156.75 11.6729 159.62 11.6729C160.225 11.6756 160.829 11.7088 161.43 11.7728V9.8829C161.431 9.6487 161.384 9.41674 161.292 9.20126C161.2 8.98578 161.066 8.79131 160.896 8.62948C160.727 8.46766 160.527 8.34178 160.307 8.25985C160.088 8.17793 159.854 8.14166 159.62 8.15292C159.179 8.13626 158.749 8.29165 158.42 8.58651C158.092 8.88138 157.891 9.29244 157.86 9.73275H156C155.995 9.25154 156.091 8.77479 156.281 8.33285C156.472 7.89092 156.753 7.49368 157.106 7.16684C157.459 6.83999 157.877 6.59059 158.332 6.4349C158.788 6.27921 159.271 6.22061 159.75 6.26278C162.72 6.26278 163.37 8.46288 163.37 10.1129V19.2928H161.43V18.0428H161.42ZM161.42 13.203C160.983 13.1307 160.542 13.0872 160.1 13.0728C159.777 13.0533 159.454 13.1055 159.154 13.2259C158.853 13.3463 158.584 13.5319 158.364 13.7691C158.144 14.0063 157.979 14.2893 157.882 14.5977C157.784 14.9062 157.756 15.2323 157.8 15.5528C157.8 17.3628 158.34 17.8529 159.45 17.8529C160.007 17.7428 160.507 17.4416 160.865 17.0016C161.223 16.5615 161.416 16.0102 161.41 15.443V13.203H161.42Z" fill="#00211B"/>
<path d="M174.49 8.03271H173.09V6.48267H174.49V4.54272C174.49 2.65272 175.14 1.20288 178 1.20288H178.59V2.88281H178.05C177.04 2.88281 176.4 3.40282 176.4 4.64282V6.48267H178.57V8.03271H176.43V19.3127H174.49V8.03271Z" fill="#00211B"/>
<path d="M186.56 18.0428H186.53C186.214 18.5138 185.782 18.8961 185.276 19.1534C184.77 19.4107 184.207 19.5344 183.64 19.5128C181.6 19.5128 181.01 17.9629 181.01 15.9129C181.01 13.1929 181.89 11.6729 184.76 11.6729C185.365 11.6756 185.969 11.7088 186.57 11.7728V9.8829C186.571 9.6487 186.524 9.41674 186.432 9.20126C186.34 8.98578 186.206 8.79131 186.036 8.62948C185.867 8.46766 185.667 8.34178 185.447 8.25985C185.228 8.17793 184.994 8.14166 184.76 8.15292C184.319 8.13626 183.889 8.29165 183.56 8.58651C183.232 8.88138 183.031 9.29244 183 9.73275H181.14C181.135 9.25154 181.231 8.77479 181.421 8.33285C181.612 7.89092 181.893 7.49368 182.246 7.16684C182.599 6.83999 183.017 6.59059 183.472 6.4349C183.928 6.27921 184.411 6.22061 184.89 6.26278C187.86 6.26278 188.51 8.46288 188.51 10.1129V19.2928H186.57V18.0428H186.56ZM186.56 13.203C186.123 13.1307 185.682 13.0872 185.24 13.0728C184.917 13.0533 184.594 13.1055 184.294 13.2259C183.993 13.3463 183.724 13.5319 183.504 13.7691C183.284 14.0063 183.119 14.2893 183.022 14.5977C182.924 14.9062 182.896 15.2323 182.94 15.5528C182.94 17.3628 183.48 17.8529 184.59 17.8529C185.147 17.7428 185.647 17.4416 186.005 17.0016C186.363 16.5615 186.556 16.0102 186.55 15.443V13.203H186.56Z" fill="#00211B"/>
<path d="M191.96 6.47266H198.62V8.02271L193.71 17.6729H198.62V19.3027H191.62V17.7527L196.55 8.10278H191.95V6.47266H191.96Z" fill="#00211B"/>
<path d="M206.76 15.7126H208.7V15.8928C208.738 16.3726 208.672 16.8548 208.507 17.3071C208.343 17.7593 208.083 18.1709 207.745 18.5141C207.408 18.8573 207 19.1241 206.551 19.2963C206.102 19.4686 205.62 19.5423 205.14 19.5126C204.642 19.5436 204.143 19.4688 203.676 19.2932C203.209 19.1176 202.785 18.8452 202.431 18.4938C202.076 18.1425 201.801 17.7201 201.621 17.2546C201.442 16.789 201.363 16.2908 201.39 15.7927V9.84272C201.37 9.36429 201.45 8.88688 201.626 8.44136C201.801 7.99583 202.068 7.59205 202.409 7.25581C202.75 6.91957 203.158 6.65827 203.606 6.48896C204.054 6.31966 204.532 6.24601 205.01 6.27266C205.501 6.25207 205.991 6.33239 206.45 6.5085C206.909 6.6846 207.327 6.95273 207.679 7.29658C208.03 7.64043 208.307 8.05268 208.493 8.50776C208.679 8.96284 208.77 9.45131 208.76 9.94282V13.6127H203.34V15.6528C203.34 17.0228 203.96 17.6228 205.15 17.6228C206.29 17.6228 206.78 16.9227 206.78 15.8627V15.7126H206.76ZM206.81 12.1628V9.9626C206.836 9.72546 206.81 9.48561 206.733 9.25972C206.656 9.03382 206.531 8.82742 206.366 8.65498C206.202 8.48254 206.001 8.3482 205.779 8.26142C205.557 8.17465 205.318 8.13767 205.08 8.15278C204.834 8.1475 204.591 8.19453 204.365 8.29072C204.139 8.38691 203.936 8.53001 203.769 8.71064C203.603 8.89128 203.477 9.10522 203.399 9.33833C203.322 9.57144 203.295 9.81837 203.32 10.0627V12.1628H206.81Z" fill="#00211B"/>
<path d="M214.33 6.47266V8.49268C215.7 6.63268 216.89 6.29271 217.89 6.27271V8.44287H217.53C216.11 8.44287 214.33 9.01276 214.33 11.8328V19.3027H212.39V6.47266H214.33Z" fill="#00211B"/>
<path d="M234.61 19.3027H232.67V18.0327C232.36 18.48 231.948 18.8468 231.468 19.1025C230.988 19.3582 230.454 19.4954 229.91 19.5027C227.64 19.5027 227.22 17.7727 227.22 16.5327V9.24268C227.22 8.00268 227.63 6.27271 229.91 6.27271C230.454 6.27791 230.989 6.41428 231.47 6.67017C231.95 6.92605 232.362 7.2939 232.67 7.74268V1.20288H234.61V19.3027ZM232.67 15.2727V10.5127C232.67 9.7127 232.36 8.16284 230.78 8.16284C229.54 8.16284 229.15 9.17283 229.15 10.1528V15.6328C229.15 16.6128 229.54 17.6228 230.78 17.6228C232.36 17.6228 232.67 16.0727 232.67 15.2727Z" fill="#00211B"/>
<path d="M240.39 1.56274V3.45288H238.45V1.56274H240.39ZM238.46 6.47266H240.4V19.3027H238.46V6.47266Z" fill="#00211B"/>
<path d="M244.24 6.47266H246.18V7.74268C246.49 7.29538 246.902 6.92856 247.382 6.67285C247.862 6.41714 248.396 6.27998 248.94 6.27271C251.21 6.27271 251.63 8.00268 251.63 9.24268V19.3027H249.69V10.1428C249.69 9.16282 249.3 8.15283 248.06 8.15283C246.48 8.15283 246.17 9.70269 246.17 10.5027V19.2927H244.23V6.47266H244.24Z" fill="#00211B"/>
<path d="M255.48 1.20288H257.42V7.74268C257.73 7.29538 258.142 6.92856 258.622 6.67285C259.102 6.41714 259.636 6.27998 260.18 6.27271C262.45 6.27271 262.87 8.00268 262.87 9.24268V19.3027H260.93V10.1428C260.93 9.16282 260.54 8.15283 259.3 8.15283C257.72 8.15283 257.41 9.70269 257.41 10.5027V19.2927H255.47V1.20288H255.48Z" fill="#00211B"/>
<path d="M271.99 15.7126H273.93V15.8928C273.968 16.3726 273.902 16.8548 273.737 17.3071C273.573 17.7593 273.313 18.1709 272.975 18.5141C272.638 18.8573 272.23 19.1241 271.781 19.2963C271.332 19.4686 270.85 19.5423 270.37 19.5126C269.872 19.5436 269.373 19.4688 268.906 19.2932C268.439 19.1176 268.015 18.8452 267.661 18.4938C267.306 18.1425 267.031 17.7201 266.851 17.2546C266.672 16.789 266.593 16.2908 266.62 15.7927V9.84272C266.6 9.36429 266.68 8.88688 266.856 8.44136C267.031 7.99583 267.298 7.59205 267.639 7.25581C267.98 6.91957 268.388 6.65827 268.836 6.48896C269.284 6.31966 269.762 6.24601 270.24 6.27266C270.731 6.25207 271.221 6.33239 271.68 6.5085C272.139 6.6846 272.557 6.95273 272.909 7.29658C273.26 7.64043 273.537 8.05268 273.723 8.50776C273.909 8.96284 274 9.45131 273.99 9.94282V13.6127H268.57V15.6528C268.57 17.0228 269.19 17.6228 270.38 17.6228C271.52 17.6228 272.01 16.9227 272.01 15.8627V15.7126H271.99ZM272.04 12.1628V9.9626C272.066 9.72546 272.04 9.48561 271.963 9.25972C271.886 9.03382 271.761 8.82742 271.596 8.65498C271.432 8.48254 271.231 8.3482 271.009 8.26142C270.787 8.17465 270.548 8.13767 270.31 8.15278C270.064 8.1475 269.821 8.19453 269.595 8.29072C269.369 8.38691 269.166 8.53001 268.999 8.71064C268.833 8.89128 268.707 9.10522 268.629 9.33833C268.552 9.57144 268.525 9.81837 268.55 10.0627V12.1628H272.04Z" fill="#00211B"/>
<path d="M279.56 1.56274V3.45288H277.62V1.56274H279.56ZM277.62 6.47266H279.56V19.3027H277.62V6.47266Z" fill="#00211B"/>
<path d="M285.34 6.47266V8.49268C286.71 6.63268 287.9 6.29271 288.9 6.27271V8.44287H288.54C287.12 8.44287 285.34 9.01276 285.34 11.8328V19.3027H283.4V6.47266H285.34Z" fill="#00211B"/>
<path d="M291.21 9.89285C291.228 8.92876 291.623 8.01006 292.31 7.33328C292.997 6.65651 293.921 6.27543 294.885 6.27151C295.85 6.2676 296.777 6.64112 297.469 7.31229C298.162 7.98346 298.564 8.89891 298.59 9.86282V15.8328C298.59 16.8114 298.201 17.7499 297.509 18.4419C296.817 19.1339 295.879 19.5227 294.9 19.5227C293.921 19.5227 292.983 19.1339 292.291 18.4419C291.599 17.7499 291.21 16.8114 291.21 15.8328V9.89285ZM296.66 10.2527C296.66 8.83272 295.86 8.15286 294.9 8.15286C293.94 8.15286 293.14 8.82272 293.14 10.2527V15.5327C293.14 16.8727 293.76 17.6228 294.9 17.6228C295.98 17.6228 296.66 16.9227 296.66 15.5327V10.2527Z" fill="#00211B"/>
<path d="M2.07004 31.5928V33.4827H0.130035V31.5928H2.07004ZM0.140045 36.5127H2.08002V49.3428H0.140045V36.5127Z" fill="#00211B"/>
<path d="M5.92004 36.5127H7.86002V37.7827C8.16957 37.3354 8.5816 36.9686 9.06171 36.7129C9.54182 36.4572 10.0761 36.32 10.62 36.3127C12.89 36.3127 13.31 38.0427 13.31 39.2827V49.3428H11.37V40.1829C11.37 39.2029 10.98 38.1929 9.74002 38.1929C8.16002 38.1929 7.85004 39.7427 7.85004 40.5427V49.3328H5.91003V36.5127H5.92004Z" fill="#00211B"/>
<path d="M19.43 32.6028V36.5127H21.24V38.0627H19.43V45.8428C19.3861 46.0796 19.4004 46.3234 19.4718 46.5535C19.5432 46.7835 19.6694 46.9928 19.8398 47.1631C20.0101 47.3334 20.2193 47.4596 20.4493 47.531C20.6793 47.6024 20.9232 47.6167 21.16 47.5728H21.37V49.3328H20.8C20.3488 49.4384 19.8782 49.4279 19.4322 49.3022C18.9862 49.1766 18.5793 48.9399 18.2497 48.6143C17.92 48.2886 17.6783 47.8846 17.5472 47.4402C17.4161 46.9957 17.3999 46.5252 17.5 46.0728V38.0527H16.13V36.5027H17.5V32.5928H19.43V32.6028Z" fill="#00211B"/>
<path d="M29.66 45.7426H31.6V45.9228C31.6377 46.4026 31.572 46.8849 31.4073 47.3371C31.2425 47.7894 30.9826 48.201 30.6451 48.5441C30.3077 48.8873 29.9004 49.1541 29.451 49.3264C29.0016 49.4986 28.5204 49.5723 28.04 49.5427C27.5421 49.5736 27.0433 49.4988 26.5763 49.3232C26.1093 49.1476 25.6848 48.8752 25.3306 48.5239C24.9764 48.1725 24.7006 47.7502 24.5213 47.2846C24.3419 46.8191 24.2631 46.3209 24.29 45.8227V39.8728C24.27 39.3943 24.3504 38.9169 24.5259 38.4714C24.7014 38.0259 24.9682 37.6221 25.3092 37.2858C25.6501 36.9496 26.0577 36.6883 26.5056 36.519C26.9535 36.3497 27.4319 36.276 27.91 36.3027C28.4012 36.2821 28.8914 36.3624 29.3504 36.5385C29.8094 36.7146 30.2274 36.9828 30.5788 37.3266C30.9301 37.6705 31.2073 38.0827 31.3933 38.5378C31.5792 38.9929 31.67 39.4811 31.66 39.9726V43.6428H26.24V45.6828C26.24 47.0528 26.86 47.6528 28.05 47.6528C29.19 47.6528 29.68 46.9528 29.68 45.8928V45.7426H29.66ZM29.72 42.2028V40.0026C29.7459 39.7655 29.7196 39.5256 29.6429 39.2998C29.5663 39.0739 29.4412 38.8675 29.2763 38.695C29.1115 38.5226 28.911 38.3882 28.6888 38.3015C28.4666 38.2147 28.2281 38.1777 27.99 38.1928C27.7444 38.1875 27.5005 38.2346 27.2745 38.3308C27.0485 38.427 26.8456 38.57 26.6791 38.7507C26.5127 38.9313 26.3865 39.1453 26.3091 39.3784C26.2317 39.6115 26.2047 39.8584 26.23 40.1027V42.2028H29.72Z" fill="#00211B"/>
<path d="M37.23 31.2327V46.1328C37.2143 46.3233 37.2402 46.5149 37.306 46.6943C37.3718 46.8738 37.4759 47.0367 37.611 47.1719C37.7461 47.307 37.9091 47.411 38.0885 47.4768C38.268 47.5426 38.4596 47.5685 38.65 47.5527H38.93V49.3328H38.34C37.9455 49.3788 37.5456 49.3384 37.1682 49.2144C36.7909 49.0903 36.4451 48.8855 36.1548 48.6143C35.8646 48.343 35.6369 48.0119 35.4876 47.6438C35.3382 47.2757 35.2708 46.8794 35.29 46.4827V31.2227H37.23V31.2327Z" fill="#00211B"/>
<path d="M43.74 31.5928V33.4827H41.8V31.5928H43.74ZM41.81 36.5127H43.75V49.3428H41.81V36.5127Z" fill="#00211B"/>
<path d="M54.98 50.8928C55.0111 51.4065 54.9328 51.9209 54.7503 52.4021C54.5679 52.8833 54.2853 53.3202 53.9214 53.6841C53.5575 54.048 53.1205 54.3307 52.6393 54.5132C52.1582 54.6957 51.6437 54.7738 51.13 54.7427C50.6585 54.795 50.1811 54.742 49.7326 54.5872C49.2841 54.4323 48.8757 54.1795 48.5369 53.8474C48.198 53.5153 47.9373 53.1121 47.7735 52.6667C47.6098 52.2214 47.5471 51.7452 47.59 51.2727H49.45C49.4492 51.4961 49.4957 51.717 49.5863 51.9211C49.6769 52.1253 49.8097 52.3081 49.9759 52.4573C50.1421 52.6065 50.338 52.719 50.5507 52.7871C50.7634 52.8553 50.9881 52.8776 51.21 52.8528C51.4449 52.8641 51.6797 52.8277 51.9003 52.7461C52.1209 52.6644 52.3226 52.5393 52.4935 52.3777C52.6644 52.2161 52.801 52.0215 52.8949 51.8059C52.9888 51.5903 53.0382 51.358 53.04 51.1228V47.9429C52.7305 48.3902 52.3185 48.7567 51.8384 49.0125C51.3582 49.2682 50.8239 49.4056 50.28 49.4128C48.01 49.4128 47.59 47.6829 47.59 46.4429V39.2827C47.59 38.0427 48 36.3127 50.28 36.3127C50.8243 36.318 51.3594 36.4543 51.8398 36.7102C52.3203 36.9661 52.732 37.3339 53.04 37.7827V36.5127H54.98V50.8928ZM53.04 45.1729V40.5427C53.04 39.7427 52.73 38.1929 51.15 38.1929C49.91 38.1929 49.52 39.2029 49.52 40.1829V45.5327C49.52 46.5127 49.91 47.5227 51.15 47.5227C52.73 47.5227 53.04 45.9729 53.04 45.1729Z" fill="#00211B"/>
<path d="M64.1 45.7426H66.04V45.9228C66.0777 46.4026 66.012 46.8849 65.8473 47.3371C65.6825 47.7894 65.4227 48.201 65.0852 48.5441C64.7477 48.8873 64.3404 49.1541 63.891 49.3264C63.4416 49.4986 62.9604 49.5723 62.48 49.5427C61.9821 49.5736 61.4833 49.4988 61.0163 49.3232C60.5493 49.1476 60.1248 48.8752 59.7706 48.5239C59.4164 48.1725 59.1406 47.7502 58.9612 47.2846C58.7819 46.8191 58.7031 46.3209 58.73 45.8227V39.8728C58.71 39.3943 58.7904 38.9169 58.9659 38.4714C59.1414 38.0259 59.4082 37.6221 59.7492 37.2858C60.0901 36.9496 60.4977 36.6883 60.9456 36.519C61.3935 36.3497 61.8719 36.276 62.35 36.3027C62.8412 36.2821 63.3314 36.3624 63.7904 36.5385C64.2494 36.7146 64.6674 36.9828 65.0188 37.3266C65.3701 37.6705 65.6473 38.0827 65.8333 38.5378C66.0192 38.9929 66.11 39.4811 66.1 39.9726V43.6428H60.68V45.6828C60.68 47.0528 61.3 47.6528 62.49 47.6528C63.63 47.6528 64.12 46.9528 64.12 45.8928V45.7426H64.1ZM64.1501 42.2028V40.0026C64.1759 39.7655 64.1495 39.5256 64.0729 39.2998C63.9963 39.0739 63.8711 38.8675 63.7063 38.695C63.5415 38.5226 63.341 38.3882 63.1188 38.3015C62.8966 38.2147 62.6581 38.1777 62.42 38.1928C62.1745 38.1875 61.9306 38.2346 61.7046 38.3308C61.4785 38.427 61.2756 38.57 61.1091 38.7507C60.9427 38.9313 60.8165 39.1453 60.7391 39.3784C60.6617 39.6115 60.6347 39.8584 60.66 40.1027V42.2028H64.1501Z" fill="#00211B"/>
<path d="M69.73 36.5127H71.67V37.7827C71.9796 37.3354 72.3916 36.9686 72.8717 36.7129C73.3518 36.4572 73.8861 36.32 74.43 36.3127C76.7 36.3127 77.12 38.0427 77.12 39.2827V49.3428H75.18V40.1829C75.18 39.2029 74.79 38.1929 73.55 38.1929C71.97 38.1929 71.66 39.7427 71.66 40.5427V49.3328H69.72V36.5127H69.73Z" fill="#00211B"/>
<path d="M83.24 32.6028V36.5127H85.05V38.0627H83.24V45.8428C83.196 46.0796 83.2104 46.3234 83.2818 46.5535C83.3531 46.7835 83.4794 46.9928 83.6497 47.1631C83.8201 47.3334 84.0292 47.4596 84.2592 47.531C84.4893 47.6024 84.7332 47.6167 84.97 47.5728H85.18V49.3328H84.61C84.1588 49.4384 83.6882 49.4279 83.2422 49.3022C82.7962 49.1766 82.3893 48.9399 82.0597 48.6143C81.73 48.2886 81.4883 47.8846 81.3572 47.4402C81.2261 46.9957 81.2099 46.5252 81.31 46.0728V38.0527H79.94V36.5027H81.31V32.5928H83.24V32.6028Z" fill="#00211B"/>
<path d="M93.47 45.7426H95.41V45.9228C95.4477 46.4026 95.382 46.8849 95.2173 47.3371C95.0525 47.7894 94.7927 48.201 94.4552 48.5441C94.1177 48.8873 93.7105 49.1541 93.261 49.3264C92.8116 49.4986 92.3304 49.5723 91.85 49.5427C91.3521 49.5736 90.8533 49.4988 90.3863 49.3232C89.9193 49.1476 89.4948 48.8752 89.1406 48.5239C88.7864 48.1725 88.5106 47.7502 88.3313 47.2846C88.1519 46.8191 88.0731 46.3209 88.1 45.8227V39.8728C88.08 39.3943 88.1604 38.9169 88.3359 38.4714C88.5115 38.0259 88.7782 37.6221 89.1192 37.2858C89.4601 36.9496 89.8677 36.6883 90.3156 36.519C90.7635 36.3497 91.2419 36.276 91.72 36.3027C92.2112 36.2821 92.7014 36.3624 93.1604 36.5385C93.6194 36.7146 94.0374 36.9828 94.3888 37.3266C94.7401 37.6705 95.0173 38.0827 95.2033 38.5378C95.3893 38.9929 95.48 39.4811 95.47 39.9726V43.6428H90.05V45.6828C90.05 47.0528 90.67 47.6528 91.86 47.6528C93 47.6528 93.49 46.9528 93.49 45.8928V45.7426H93.47ZM93.5301 42.2028V40.0026C93.5559 39.7655 93.5296 39.5256 93.4529 39.2998C93.3763 39.0739 93.2512 38.8675 93.0864 38.695C92.9215 38.5226 92.721 38.3882 92.4988 38.3015C92.2766 38.2147 92.0381 38.1777 91.8 38.1928C91.5545 38.1875 91.3106 38.2346 91.0846 38.3308C90.8586 38.427 90.6556 38.57 90.4891 38.7507C90.3227 38.9313 90.1966 39.1453 90.1191 39.3784C90.0417 39.6115 90.0147 39.8584 90.04 40.1027V42.2028H93.5301Z" fill="#00211B"/>
<path d="M111.04 45.7426H112.98V45.9228C113.018 46.4026 112.952 46.8849 112.787 47.3371C112.623 47.7894 112.363 48.201 112.025 48.5441C111.688 48.8873 111.28 49.1541 110.831 49.3264C110.382 49.4986 109.9 49.5723 109.42 49.5427C108.922 49.5736 108.423 49.4988 107.956 49.3232C107.489 49.1476 107.065 48.8752 106.711 48.5239C106.356 48.1725 106.081 47.7502 105.901 47.2846C105.722 46.8191 105.643 46.3209 105.67 45.8227V39.8728C105.65 39.3943 105.73 38.9169 105.906 38.4714C106.081 38.0259 106.348 37.6221 106.689 37.2858C107.03 36.9496 107.438 36.6883 107.886 36.519C108.334 36.3497 108.812 36.276 109.29 36.3027C109.781 36.2821 110.271 36.3624 110.73 36.5385C111.189 36.7146 111.607 36.9828 111.959 37.3266C112.31 37.6705 112.587 38.0827 112.773 38.5378C112.959 38.9929 113.05 39.4811 113.04 39.9726V43.6428H107.62V45.6828C107.62 47.0528 108.24 47.6528 109.43 47.6528C110.57 47.6528 111.06 46.9528 111.06 45.8928V45.7426H111.04ZM111.09 42.2028V40.0026C111.116 39.7655 111.09 39.5256 111.013 39.2998C110.936 39.0739 110.811 38.8675 110.646 38.695C110.482 38.5226 110.281 38.3882 110.059 38.3015C109.837 38.2147 109.598 38.1777 109.36 38.1928C109.114 38.1875 108.871 38.2346 108.645 38.3308C108.419 38.427 108.216 38.57 108.049 38.7507C107.883 38.9313 107.757 39.1453 107.679 39.3784C107.602 39.6115 107.575 39.8584 107.6 40.1027V42.2028H111.09Z" fill="#00211B"/>
<path d="M116.67 36.5127H118.61V37.7827C118.92 37.3354 119.332 36.9686 119.812 36.7129C120.292 36.4572 120.826 36.32 121.37 36.3127C123.64 36.3127 124.06 38.0427 124.06 39.2827V49.3428H122.12V40.1829C122.12 39.2029 121.73 38.1929 120.49 38.1929C118.91 38.1929 118.6 39.7427 118.6 40.5427V49.3328H116.66V36.5127H116.67Z" fill="#00211B"/>
<path d="M130.18 32.6028V36.5127H131.99V38.0627H130.18V45.8428C130.136 46.0796 130.15 46.3234 130.222 46.5535C130.293 46.7835 130.419 46.9928 130.59 47.1631C130.76 47.3334 130.969 47.4596 131.199 47.531C131.429 47.6024 131.673 47.6167 131.91 47.5728H132.12V49.3328H131.55C131.099 49.4384 130.628 49.4279 130.182 49.3022C129.736 49.1766 129.329 48.9399 129 48.6143C128.67 48.2886 128.428 47.8846 128.297 47.4402C128.166 46.9957 128.15 46.5252 128.25 46.0728V38.0527H126.88V36.5027H128.25V32.5928H130.18V32.6028Z" fill="#00211B"/>
<path d="M137.08 36.5127V38.5327C138.45 36.6727 139.64 36.3327 140.64 36.3127V38.4827H140.28C138.86 38.4827 137.08 39.0528 137.08 41.8728V49.3428H135.14V36.5127H137.08Z" fill="#00211B"/>
<path d="M148.32 45.7426H150.26V45.9228C150.298 46.4026 150.232 46.8849 150.067 47.3371C149.903 47.7894 149.643 48.201 149.305 48.5441C148.968 48.8873 148.561 49.1541 148.111 49.3264C147.662 49.4986 147.18 49.5723 146.7 49.5427C146.202 49.5736 145.703 49.4988 145.236 49.3232C144.769 49.1476 144.345 48.8752 143.991 48.5239C143.636 48.1725 143.361 47.7502 143.181 47.2846C143.002 46.8191 142.923 46.3209 142.95 45.8227V39.8728C142.93 39.3943 143.01 38.9169 143.186 38.4714C143.361 38.0259 143.628 37.6221 143.969 37.2858C144.31 36.9496 144.718 36.6883 145.166 36.519C145.614 36.3497 146.092 36.276 146.57 36.3027C147.061 36.2821 147.551 36.3624 148.01 36.5385C148.469 36.7146 148.887 36.9828 149.239 37.3266C149.59 37.6705 149.867 38.0827 150.053 38.5378C150.239 38.9929 150.33 39.4811 150.32 39.9726V43.6428H144.9V45.6828C144.9 47.0528 145.52 47.6528 146.71 47.6528C147.85 47.6528 148.34 46.9528 148.34 45.8928V45.7426H148.32ZM148.37 42.2028V40.0026C148.396 39.7655 148.37 39.5256 148.293 39.2998C148.216 39.0739 148.091 38.8675 147.926 38.695C147.762 38.5226 147.561 38.3882 147.339 38.3015C147.117 38.2147 146.878 38.1777 146.64 38.1928C146.394 38.1875 146.151 38.2346 145.925 38.3308C145.699 38.427 145.496 38.57 145.329 38.7507C145.163 38.9313 145.037 39.1453 144.959 39.3784C144.882 39.6115 144.855 39.8584 144.88 40.1027V42.2028H148.37Z" fill="#00211B"/>
<path d="M161.34 50.8928C161.371 51.4065 161.293 51.9209 161.11 52.4021C160.928 52.8833 160.645 53.3202 160.281 53.6841C159.918 54.048 159.481 54.3307 158.999 54.5132C158.518 54.6957 158.004 54.7738 157.49 54.7427C157.018 54.795 156.541 54.742 156.093 54.5872C155.644 54.4323 155.236 54.1795 154.897 53.8474C154.558 53.5153 154.297 53.1121 154.134 52.6667C153.97 52.2214 153.907 51.7452 153.95 51.2727H155.81C155.809 51.4961 155.856 51.717 155.946 51.9211C156.037 52.1253 156.17 52.3081 156.336 52.4573C156.502 52.6065 156.698 52.719 156.911 52.7871C157.123 52.8553 157.348 52.8776 157.57 52.8528C157.805 52.8641 158.04 52.8277 158.26 52.7461C158.481 52.6644 158.683 52.5393 158.854 52.3777C159.024 52.2161 159.161 52.0215 159.255 51.8059C159.349 51.5903 159.398 51.358 159.4 51.1228V47.9429C159.091 48.3902 158.678 48.7567 158.198 49.0125C157.718 49.2682 157.184 49.4056 156.64 49.4128C154.37 49.4128 153.95 47.6829 153.95 46.4429V39.2827C153.95 38.0427 154.36 36.3127 156.64 36.3127C157.184 36.318 157.719 36.4543 158.2 36.7102C158.68 36.9661 159.092 37.3339 159.4 37.7827V36.5127H161.34V50.8928ZM159.4 45.1729V40.5427C159.4 39.7427 159.09 38.1929 157.51 38.1929C156.27 38.1929 155.88 39.2029 155.88 40.1829V45.5327C155.88 46.5127 156.27 47.5227 157.51 47.5227C159.09 47.5227 159.4 45.9729 159.4 45.1729Z" fill="#00211B"/>
<path d="M172.58 49.3428H170.64V48.0728C170.33 48.52 169.918 48.8869 169.438 49.1426C168.958 49.3983 168.424 49.5354 167.88 49.5427C165.61 49.5427 165.19 47.8128 165.19 46.5728V36.5127H167.13V45.6729C167.13 46.6529 167.52 47.6628 168.76 47.6628C170.34 47.6628 170.65 46.1127 170.65 45.3127V36.5227H172.59V49.3428H172.58Z" fill="#00211B"/>
<path d="M181.7 45.7426H183.64V45.9228C183.678 46.4026 183.612 46.8849 183.447 47.3371C183.283 47.7894 183.023 48.201 182.685 48.5441C182.348 48.8873 181.94 49.1541 181.491 49.3264C181.042 49.4986 180.56 49.5723 180.08 49.5427C179.582 49.5736 179.083 49.4988 178.616 49.3232C178.149 49.1476 177.725 48.8752 177.371 48.5239C177.016 48.1725 176.741 47.7502 176.561 47.2846C176.382 46.8191 176.303 46.3209 176.33 45.8227V39.8728C176.31 39.3943 176.39 38.9169 176.566 38.4714C176.741 38.0259 177.008 37.6221 177.349 37.2858C177.69 36.9496 178.098 36.6883 178.546 36.519C178.994 36.3497 179.472 36.276 179.95 36.3027C180.441 36.2821 180.931 36.3624 181.39 36.5385C181.849 36.7146 182.267 36.9828 182.619 37.3266C182.97 37.6705 183.247 38.0827 183.433 38.5378C183.619 38.9929 183.71 39.4811 183.7 39.9726V43.6428H178.28V45.6828C178.28 47.0528 178.9 47.6528 180.09 47.6528C181.23 47.6528 181.72 46.9528 181.72 45.8928V45.7426H181.7ZM181.75 42.2028V40.0026C181.776 39.7655 181.75 39.5256 181.673 39.2998C181.596 39.0739 181.471 38.8675 181.306 38.695C181.142 38.5226 180.941 38.3882 180.719 38.3015C180.497 38.2147 180.258 38.1777 180.02 38.1928C179.774 38.1875 179.531 38.2346 179.305 38.3308C179.079 38.427 178.876 38.57 178.709 38.7507C178.543 38.9313 178.417 39.1453 178.339 39.3784C178.262 39.6115 178.235 39.8584 178.26 40.1027V42.2028H181.75Z" fill="#00211B"/>
<path d="M193.99 36.5127H195.93V37.7827C196.24 37.3354 196.652 36.9686 197.132 36.7129C197.612 36.4572 198.146 36.32 198.69 36.3127C200.96 36.3127 201.38 38.0427 201.38 39.2827V49.3428H199.44V40.1829C199.44 39.2029 199.05 38.1929 197.81 38.1929C196.23 38.1929 195.92 39.7427 195.92 40.5427V49.3328H193.98V36.5127H193.99Z" fill="#00211B"/>
<path d="M210.55 48.0728H210.52C210.204 48.5439 209.772 48.9262 209.266 49.1834C208.76 49.4407 208.197 49.5644 207.63 49.5428C205.59 49.5428 205 47.993 205 45.943C205 43.223 205.88 41.703 208.75 41.703C209.355 41.7056 209.959 41.7388 210.56 41.8028V39.9129C210.561 39.6787 210.514 39.4468 210.422 39.2313C210.33 39.0158 210.196 38.8213 210.026 38.6595C209.857 38.4977 209.657 38.3718 209.437 38.2899C209.218 38.208 208.984 38.1717 208.75 38.1829C208.309 38.1663 207.879 38.3217 207.55 38.6165C207.222 38.9114 207.021 39.3225 206.99 39.7628H205.13C205.125 39.2816 205.221 38.8048 205.411 38.3629C205.602 37.9209 205.883 37.5237 206.236 37.1969C206.589 36.87 207.007 36.6206 207.462 36.4649C207.918 36.3092 208.401 36.2506 208.88 36.2928C211.85 36.2928 212.5 38.4929 212.5 40.1429V49.3228H210.56V48.0728H210.55ZM210.55 43.2328C210.113 43.1605 209.672 43.1172 209.23 43.1029C208.907 43.0833 208.584 43.1356 208.284 43.2559C207.983 43.3763 207.714 43.5617 207.494 43.7989C207.274 44.0361 207.109 44.3193 207.012 44.6278C206.914 44.9362 206.886 45.2623 206.93 45.5829C206.93 47.3929 207.47 47.8829 208.58 47.8829C209.137 47.7728 209.637 47.4717 209.995 47.0316C210.353 46.5915 210.546 46.04 210.54 45.4727V43.2328H210.55Z" fill="#00211B"/>
<path d="M227.94 39.8928C227.81 38.4428 227.01 38.1328 226.21 38.1328C225.25 38.1328 224.56 38.4927 224.56 39.7927C224.56 40.8027 225.26 41.2128 226.08 41.6028L227.68 42.3828C228.46 42.7364 229.096 43.3465 229.481 44.1118C229.866 44.8771 229.977 45.7513 229.796 46.5886C229.615 47.4259 229.152 48.1758 228.485 48.7134C227.818 49.2509 226.987 49.5435 226.13 49.5427C223.26 49.5427 222.44 47.6528 222.38 45.8728H224.34C224.44 47.2428 225.06 47.7327 226.07 47.7327C226.322 47.7666 226.579 47.7421 226.82 47.6606C227.061 47.5792 227.28 47.4432 227.46 47.2632C227.64 47.0832 227.776 46.864 227.858 46.6228C227.939 46.3816 227.964 46.1251 227.93 45.8728C227.93 44.9128 227.62 44.4227 226.3 43.7827L224.72 43.0027C224.038 42.7569 223.458 42.2893 223.074 41.6746C222.689 41.0598 222.522 40.3337 222.6 39.6128C222.6 37.8828 223.74 36.3027 226.29 36.3027C229.11 36.3027 229.8 38.2928 229.85 39.8928H227.94Z" fill="#00211B"/>
<path d="M240.62 49.3428H238.68V48.0728C238.37 48.52 237.958 48.8869 237.478 49.1426C236.998 49.3983 236.464 49.5354 235.92 49.5427C233.65 49.5427 233.23 47.8128 233.23 46.5728V36.5127H235.17V45.6729C235.17 46.6529 235.56 47.6628 236.8 47.6628C238.38 47.6628 238.69 46.1127 238.69 45.3127V36.5227H240.63V49.3428H240.62Z" fill="#00211B"/>
<path d="M249.8 48.0728H249.77C249.454 48.5439 249.022 48.9262 248.516 49.1834C248.01 49.4407 247.447 49.5644 246.88 49.5428C244.84 49.5428 244.25 47.993 244.25 45.943C244.25 43.223 245.13 41.703 248 41.703C248.605 41.7056 249.209 41.7388 249.81 41.8028V39.9129C249.811 39.6787 249.764 39.4468 249.672 39.2313C249.58 39.0158 249.446 38.8213 249.276 38.6595C249.107 38.4977 248.907 38.3718 248.687 38.2899C248.468 38.208 248.234 38.1717 248 38.1829C247.559 38.1663 247.129 38.3217 246.8 38.6165C246.472 38.9114 246.271 39.3225 246.24 39.7628H244.38C244.375 39.2816 244.471 38.8048 244.661 38.3629C244.852 37.9209 245.133 37.5237 245.486 37.1969C245.839 36.87 246.257 36.6206 246.712 36.4649C247.168 36.3092 247.651 36.2506 248.13 36.2928C251.1 36.2928 251.75 38.4929 251.75 40.1429V49.3228H249.81V48.0728H249.8ZM249.8 43.2328C249.363 43.1605 248.922 43.1172 248.48 43.1029C248.157 43.0833 247.834 43.1356 247.534 43.2559C247.233 43.3763 246.964 43.5617 246.744 43.7989C246.524 44.0361 246.359 44.3193 246.262 44.6278C246.164 44.9362 246.136 45.2623 246.18 45.5829C246.18 47.3929 246.72 47.8829 247.83 47.8829C248.387 47.7728 248.887 47.4717 249.245 47.0316C249.603 46.5915 249.796 46.04 249.79 45.4727V43.2328H249.8Z" fill="#00211B"/>
<path d="M267.7 45.4028H269.64V45.9228C269.608 46.9049 269.193 47.8353 268.482 48.5141C267.772 49.1929 266.823 49.5658 265.841 49.5527C264.858 49.5396 263.92 49.1416 263.228 48.4441C262.536 47.7466 262.145 46.8053 262.14 45.8227V40.0027C262.116 39.5062 262.198 39.0103 262.378 38.5473C262.559 38.0844 262.835 37.6647 263.189 37.3157C263.543 36.9666 263.966 36.696 264.432 36.5215C264.897 36.3469 265.394 36.2724 265.89 36.3027C266.378 36.2662 266.869 36.3327 267.329 36.498C267.79 36.6633 268.211 36.9236 268.565 37.2622C268.918 37.6007 269.197 38.0099 269.382 38.4631C269.567 38.9163 269.655 39.4035 269.64 39.8928V40.4626H267.7V40.2827C267.7 38.8327 266.87 38.1828 265.89 38.1828C264.88 38.1828 264.08 38.8327 264.08 40.2827V45.5627C264.08 46.9327 264.7 47.6528 265.89 47.6528C267.03 47.6528 267.7 46.9527 267.7 45.5627V45.4028Z" fill="#00211B"/>
<path d="M277.88 48.0728H277.85C277.534 48.5439 277.102 48.9262 276.596 49.1834C276.09 49.4407 275.527 49.5644 274.96 49.5428C272.92 49.5428 272.33 47.993 272.33 45.943C272.33 43.223 273.21 41.703 276.08 41.703C276.685 41.7056 277.289 41.7388 277.89 41.8028V39.9129C277.891 39.6787 277.844 39.4468 277.752 39.2313C277.66 39.0158 277.526 38.8213 277.356 38.6595C277.187 38.4977 276.987 38.3718 276.767 38.2899C276.548 38.208 276.314 38.1717 276.08 38.1829C275.639 38.1663 275.209 38.3217 274.88 38.6165C274.552 38.9114 274.351 39.3225 274.32 39.7628H272.46C272.455 39.2816 272.551 38.8048 272.741 38.3629C272.932 37.9209 273.213 37.5237 273.566 37.1969C273.919 36.87 274.337 36.6206 274.792 36.4649C275.248 36.3092 275.731 36.2506 276.21 36.2928C279.18 36.2928 279.83 38.4929 279.83 40.1429V49.3228H277.89V48.0728H277.88ZM277.88 43.2328C277.443 43.1605 277.002 43.1172 276.56 43.1029C276.237 43.0833 275.914 43.1356 275.614 43.2559C275.313 43.3763 275.044 43.5617 274.824 43.7989C274.604 44.0361 274.439 44.3193 274.342 44.6278C274.244 44.9362 274.216 45.2623 274.26 45.5829C274.26 47.3929 274.8 47.8829 275.91 47.8829C276.466 47.7728 276.967 47.4717 277.325 47.0316C277.683 46.5915 277.876 46.04 277.87 45.4727V43.2328H277.88Z" fill="#00211B"/>
<path d="M288.6 39.8928C288.47 38.4428 287.67 38.1328 286.87 38.1328C285.91 38.1328 285.22 38.4927 285.22 39.7927C285.22 40.8027 285.92 41.2128 286.74 41.6028L288.34 42.3828C289.12 42.7364 289.756 43.3465 290.141 44.1118C290.526 44.8771 290.637 45.7513 290.456 46.5886C290.275 47.4259 289.812 48.1758 289.145 48.7134C288.478 49.2509 287.647 49.5435 286.79 49.5427C283.92 49.5427 283.1 47.6528 283.04 45.8728H285C285.1 47.2428 285.72 47.7327 286.73 47.7327C286.982 47.7666 287.239 47.7421 287.48 47.6606C287.721 47.5792 287.94 47.4432 288.12 47.2632C288.3 47.0832 288.436 46.864 288.518 46.6228C288.599 46.3816 288.624 46.1251 288.59 45.8728C288.59 44.9128 288.28 44.4227 286.96 43.7827L285.38 43.0027C284.698 42.7569 284.118 42.2893 283.734 41.6746C283.349 41.0598 283.182 40.3337 283.26 39.6128C283.26 37.8828 284.4 36.3027 286.95 36.3027C289.77 36.3027 290.46 38.2928 290.51 39.8928H288.6Z" fill="#00211B"/>
<path d="M298.96 48.0728H298.93C298.614 48.5439 298.182 48.9262 297.676 49.1834C297.17 49.4407 296.607 49.5644 296.04 49.5428C294 49.5428 293.41 47.993 293.41 45.943C293.41 43.223 294.29 41.703 297.16 41.703C297.765 41.7056 298.369 41.7388 298.97 41.8028V39.9129C298.971 39.6787 298.924 39.4468 298.832 39.2313C298.74 39.0158 298.606 38.8213 298.436 38.6595C298.267 38.4977 298.067 38.3718 297.847 38.2899C297.628 38.208 297.394 38.1717 297.16 38.1829C296.719 38.1663 296.289 38.3217 295.96 38.6165C295.632 38.9114 295.431 39.3225 295.4 39.7628H293.54C293.535 39.2816 293.631 38.8048 293.821 38.3629C294.012 37.9209 294.293 37.5237 294.646 37.1969C294.999 36.87 295.417 36.6206 295.872 36.4649C296.328 36.3092 296.811 36.2506 297.29 36.2928C300.26 36.2928 300.91 38.4929 300.91 40.1429V49.3228H298.97V48.0728H298.96ZM298.96 43.2328C298.523 43.1605 298.082 43.1172 297.64 43.1029C297.317 43.0833 296.994 43.1356 296.694 43.2559C296.393 43.3763 296.124 43.5617 295.904 43.7989C295.684 44.0361 295.519 44.3193 295.422 44.6278C295.324 44.9362 295.296 45.2623 295.34 45.5829C295.34 47.3929 295.88 47.8829 296.99 47.8829C297.547 47.7728 298.047 47.4717 298.405 47.0316C298.763 46.5915 298.956 46.04 298.95 45.4727V43.2328H298.96Z" fill="#00211B"/>
<path d="M306.92 47.1428V49.3428H304.7V47.1428H306.92Z" fill="#00211B"/>
</svg>
