<svg width="306" height="184" viewBox="0 0 306 184" fill="none" xmlns="http://www.w3.org/2000/svg">
<path d="M3.68002 22.2126V3.16284H0.0300293V0.192871H10.47V3.16284H6.82004V22.2126H3.68002Z" fill="#011C1C"/>
<path d="M12.64 22.2126V0.192871H17.71C21.42 0.192871 23.2734 2.34617 23.27 6.65283C23.3011 7.78579 23.0968 8.91269 22.67 9.96265C22.2293 10.9124 21.4828 11.6872 20.55 12.1628L23.95 22.2126H20.61L17.68 12.8127H15.8V22.2126H12.64ZM15.79 3.17285V10.0327H17.58C18.0346 10.0501 18.4877 9.9718 18.91 9.80273C19.2279 9.66145 19.4962 9.42814 19.68 9.13281C19.8583 8.80015 19.9736 8.43732 20.02 8.06274C20.14 7.08642 20.14 6.09913 20.02 5.1228C19.9684 4.73578 19.8428 4.36222 19.65 4.02271C19.3822 3.70364 19.0387 3.45692 18.6509 3.30493C18.263 3.15294 17.8433 3.10067 17.43 3.15283H15.79V3.17285Z" fill="#011C1C"/>
<path d="M26.57 22.2126V0.192871H35.96V3.16284H29.72V9.6228H35.16V12.5928H29.72V19.0527H35.96V22.2029H26.57V22.2126Z" fill="#011C1C"/>
<path d="M38.86 22.2126V0.192871H42.01V22.2126H38.86Z" fill="#011C1C"/>
<path d="M45.72 22.2126V0.192871H48.75L53.51 13.4626H53.57V0.192871H56.72V22.2126H53.75L48.93 8.98267H48.87V22.2126H45.72Z" fill="#011C1C"/>
<path d="M58.91 22.2126L63.82 0.192871H66.45L71.36 22.2126H68.2101L67.2801 17.4827H62.99L62.06 22.2126H58.91ZM66.69 14.5127L65.15 6.53271H65.09L63.55 14.5127H66.69Z" fill="#011C1C"/>
<path d="M73.67 22.2126V0.192871H76.7L80.75 11.8528H80.81L84.83 0.192871H87.89V22.2126H84.74V8.82275H84.68L81.56 18.2827H79.98L76.89 8.82275H76.83V22.2126H73.67Z" fill="#011C1C"/>
<path d="M91.62 22.2126V0.192871H101.01V3.16284H94.7701V9.6228H100.21V12.5928H94.7701V19.0527H101.01V22.2029H91.62V22.2126Z" fill="#011C1C"/>
<path d="M103.7 22.2126V0.192871H106.73L111.49 13.4626H111.55V0.192871H114.7V22.2126H111.73L106.91 8.98267H106.85V22.2126H103.7Z" fill="#011C1C"/>
<path d="M120.38 22.2126V3.16284H116.73V0.192871H127.17V3.16284H123.52V22.2126H120.38Z" fill="#011C1C"/>
<path d="M128.78 5.39279C128.762 4.58545 128.919 3.7837 129.24 3.04269C129.525 2.39272 129.948 1.81267 130.48 1.34274C130.975 0.912867 131.544 0.577333 132.16 0.35275C133.386 -0.100656 134.734 -0.100656 135.96 0.35275C136.584 0.579268 137.163 0.914428 137.67 1.34274C138.183 1.82239 138.595 2.40051 138.88 3.04269C139.201 3.7837 139.358 4.58545 139.34 5.39279V17.0227C139.364 17.8402 139.207 18.653 138.88 19.4028C138.598 20.0292 138.185 20.5882 137.67 21.0427C136.929 21.6935 136.025 22.1319 135.055 22.3115C134.086 22.491 133.085 22.405 132.16 22.0627C131.538 21.8375 130.967 21.4907 130.48 21.0427C129.953 20.5925 129.529 20.033 129.24 19.4028C128.913 18.653 128.756 17.8402 128.78 17.0227V5.39279ZM131.93 17.0227C131.905 17.3333 131.949 17.6457 132.057 17.9377C132.166 18.2297 132.338 18.4941 132.56 18.7126C132.982 19.0617 133.512 19.2529 134.06 19.2529C134.608 19.2529 135.138 19.0617 135.56 18.7126C135.784 18.4954 135.957 18.231 136.066 17.9387C136.175 17.6464 136.217 17.3335 136.19 17.0227V5.39279C136.215 5.08216 136.171 4.76975 136.063 4.47775C135.954 4.18575 135.782 3.92134 135.56 3.70285C135.138 3.35375 134.608 3.16256 134.06 3.16256C133.512 3.16256 132.982 3.35375 132.56 3.70285C132.336 3.92006 132.163 4.18444 132.054 4.47677C131.945 4.76911 131.903 5.08198 131.93 5.39279V17.0227Z" fill="#011C1C"/>
<path d="M159.42 15.9429V17.3028C159.423 17.966 159.29 18.6228 159.03 19.2327C158.517 20.4486 157.568 21.4292 156.37 21.9827C155.755 22.264 155.086 22.4076 154.41 22.4029C153.795 22.402 153.183 22.3179 152.59 22.1529C151.975 21.9936 151.403 21.6959 150.92 21.2828C150.406 20.8443 149.991 20.3027 149.7 19.6929C149.353 18.9102 149.189 18.0586 149.22 17.2029V5.08283C149.212 4.39522 149.338 3.71263 149.59 3.07282C149.828 2.46716 150.188 1.91686 150.647 1.45587C151.106 0.994885 151.655 0.633082 152.26 0.392886C152.921 0.126691 153.628 -0.00600146 154.34 0.0027494C155.01 -0.0237934 155.678 0.0917158 156.3 0.341617C156.922 0.591517 157.485 0.970352 157.95 1.45294C158.412 1.94235 158.775 2.51607 159.02 3.14289C159.284 3.81811 159.417 4.53765 159.41 5.26276V6.50275H156.26V5.45294C156.27 4.87184 156.083 4.30431 155.73 3.84284C155.566 3.6234 155.351 3.44684 155.104 3.32843C154.856 3.21003 154.584 3.15335 154.31 3.16291C154.007 3.12314 153.7 3.17077 153.423 3.30011C153.147 3.42946 152.913 3.6351 152.75 3.89289C152.47 4.46468 152.336 5.09662 152.36 5.73273V16.9927C152.341 17.5588 152.487 18.1182 152.78 18.6028C152.953 18.8317 153.181 19.0119 153.444 19.1258C153.707 19.2397 153.995 19.2834 154.28 19.2527C154.504 19.2488 154.727 19.2119 154.94 19.1429C155.183 19.0712 155.408 18.9484 155.6 18.7828C155.803 18.5943 155.961 18.3617 156.06 18.1028C156.193 17.7587 156.258 17.3917 156.25 17.0228V15.9429H159.42Z" fill="#011C1C"/>
<path d="M162.57 5.39279C162.552 4.58545 162.709 3.7837 163.03 3.04269C163.315 2.39272 163.738 1.81267 164.27 1.34274C164.765 0.912867 165.334 0.577333 165.95 0.35275C167.176 -0.100656 168.524 -0.100656 169.75 0.35275C170.374 0.579268 170.953 0.914428 171.46 1.34274C171.973 1.82239 172.385 2.40051 172.67 3.04269C172.991 3.7837 173.148 4.58545 173.13 5.39279V17.0227C173.154 17.8402 172.997 18.653 172.67 19.4028C172.388 20.0292 171.975 20.5882 171.46 21.0427C170.719 21.6935 169.815 22.1319 168.845 22.3115C167.876 22.491 166.875 22.405 165.95 22.0627C165.328 21.8375 164.757 21.4907 164.27 21.0427C163.743 20.5925 163.319 20.033 163.03 19.4028C162.703 18.653 162.546 17.8402 162.57 17.0227V5.39279ZM165.72 17.0227C165.695 17.3333 165.739 17.6457 165.847 17.9377C165.956 18.2297 166.128 18.4941 166.35 18.7126C166.772 19.0617 167.302 19.2529 167.85 19.2529C168.398 19.2529 168.928 19.0617 169.35 18.7126C169.574 18.4954 169.747 18.231 169.856 17.9387C169.965 17.6464 170.007 17.3335 169.98 17.0227V5.39279C170.005 5.08216 169.961 4.76975 169.853 4.47775C169.744 4.18575 169.572 3.92134 169.35 3.70285C168.928 3.35375 168.398 3.16256 167.85 3.16256C167.302 3.16256 166.772 3.35375 166.35 3.70285C166.126 3.92006 165.953 4.18444 165.844 4.47677C165.735 4.76911 165.693 5.08198 165.72 5.39279V17.0227Z" fill="#011C1C"/>
<path d="M176.69 22.2126V0.192871H179.72L183.77 11.8528H183.83L187.85 0.192871H190.91V22.2126H187.76V8.82275H187.7L184.58 18.2827H183L179.91 8.82275H179.85V22.2126H176.69Z" fill="#011C1C"/>
<path d="M194.64 22.2127V0.192928H199.37C200.147 0.178074 200.921 0.292829 201.66 0.532772C202.349 0.779227 202.965 1.19535 203.45 1.74273C203.987 2.31378 204.369 3.01258 204.56 3.77276C204.796 4.80208 204.9 5.85733 204.87 6.9129C204.879 7.74941 204.822 8.58534 204.7 9.4129C204.591 10.0961 204.342 10.7495 203.97 11.3328C203.552 12.0382 202.955 12.621 202.24 13.0228C201.359 13.4585 200.382 13.665 199.4 13.6229H197.79V22.2227H194.64V22.2127ZM197.79 3.17291V10.6529H199.3C199.809 10.6809 200.317 10.5848 200.78 10.3729C201.113 10.2054 201.383 9.93545 201.55 9.60284C201.724 9.24673 201.823 8.85856 201.84 8.4627C201.87 8.0127 201.89 7.50293 201.89 6.94293C201.89 6.42293 201.88 5.94271 201.86 5.47271C201.851 5.05118 201.756 4.63598 201.58 4.25274C201.425 3.91388 201.166 3.63371 200.84 3.45294C200.398 3.24021 199.909 3.1438 199.42 3.17291H197.79Z" fill="#011C1C"/>
<path d="M207.98 22.2126V0.192871H211.13V19.0527H217.37V22.2029H207.98V22.2126Z" fill="#011C1C"/>
<path d="M220.18 22.2126V0.192871H229.57V3.16284H223.33V9.6228H228.77V12.5928H223.33V19.0527H229.57V22.2029H220.18V22.2126Z" fill="#011C1C"/>
<path d="M234.45 22.2126V3.16284H230.8V0.192871H241.24V3.16284H237.59V22.2126H234.45Z" fill="#011C1C"/>
<path d="M242.85 5.39279C242.832 4.58545 242.989 3.7837 243.31 3.04269C243.595 2.39272 244.018 1.81267 244.55 1.34274C245.045 0.912867 245.614 0.577333 246.23 0.35275C247.456 -0.100656 248.804 -0.100656 250.03 0.35275C250.654 0.579268 251.233 0.914428 251.74 1.34274C252.253 1.82239 252.665 2.40051 252.95 3.04269C253.271 3.7837 253.428 4.58545 253.41 5.39279V17.0227C253.434 17.8402 253.277 18.653 252.95 19.4028C252.668 20.0292 252.255 20.5882 251.74 21.0427C250.999 21.6935 250.095 22.1319 249.125 22.3115C248.156 22.491 247.155 22.405 246.23 22.0627C245.608 21.8375 245.037 21.4907 244.55 21.0427C244.023 20.5925 243.599 20.033 243.31 19.4028C242.983 18.653 242.826 17.8402 242.85 17.0227V5.39279ZM246 17.0227C245.975 17.3333 246.019 17.6457 246.127 17.9377C246.236 18.2297 246.408 18.4941 246.63 18.7126C247.052 19.0617 247.582 19.2529 248.13 19.2529C248.678 19.2529 249.208 19.0617 249.63 18.7126C249.854 18.4954 250.027 18.231 250.136 17.9387C250.245 17.6464 250.287 17.3335 250.26 17.0227V5.39279C250.285 5.08216 250.241 4.76975 250.133 4.47775C250.024 4.18575 249.852 3.92134 249.63 3.70285C249.208 3.35375 248.678 3.16256 248.13 3.16256C247.582 3.16256 247.052 3.35375 246.63 3.70285C246.406 3.92006 246.233 4.18444 246.124 4.47677C246.015 4.76911 245.973 5.08198 246 5.39279V17.0227Z" fill="#011C1C"/>
<path d="M23.75 44.1829H17.38V42.7427C17.4152 41.4058 17.0571 40.0881 16.35 38.9529C15.9628 38.4053 15.4383 37.9691 14.8293 37.6883C14.2202 37.4074 13.548 37.2917 12.88 37.3528C12.1408 37.3205 11.407 37.4936 10.76 37.8528C10.2363 38.1674 9.78883 38.5943 9.45005 39.1028C9.10954 39.6724 8.87571 40.2994 8.76005 40.9529C8.62972 41.6655 8.5661 42.3885 8.57005 43.1128C8.57005 43.9928 8.60004 44.7228 8.66004 45.3028C8.70994 45.8491 8.86981 46.3798 9.13005 46.8628C9.3959 47.3389 9.76912 47.7463 10.22 48.0528C10.8373 48.4586 11.4981 48.794 12.19 49.0528L17.06 50.9927C18.3035 51.4369 19.4656 52.0823 20.5 52.9029C21.3503 53.5987 22.051 54.4593 22.56 55.4329C23.0412 56.5165 23.3581 57.6657 23.5 58.8428C23.6787 60.2858 23.7622 61.739 23.75 63.1929C23.7619 64.9485 23.5741 66.6998 23.19 68.4129C22.8704 69.888 22.2546 71.2826 21.38 72.5127C20.4811 73.7024 19.2984 74.6478 17.94 75.2627C16.3049 75.9745 14.5326 76.3159 12.75 76.2627C11.2744 76.2753 9.81046 76.0003 8.44004 75.4529C7.15346 74.9424 5.98335 74.1771 5.00004 73.2029C4.0357 72.2399 3.26212 71.1032 2.72004 69.8528C2.15167 68.5403 1.86549 67.1231 1.88005 65.6929V63.3128H8.25004V65.3128C8.23844 66.4504 8.60026 67.5604 9.28004 68.4727C9.70011 68.9723 10.2357 69.362 10.8404 69.6077C11.4451 69.8534 12.1006 69.9478 12.75 69.8829C13.6184 69.9241 14.4844 69.7632 15.28 69.4129C15.8693 69.1114 16.359 68.646 16.69 68.0728C17.041 67.4256 17.2426 66.708 17.28 65.9727C17.34 65.1627 17.37 64.2527 17.37 63.2527C17.3793 62.2913 17.3393 61.3302 17.25 60.3728C17.2021 59.7428 17.0323 59.1281 16.75 58.5628C16.4548 58.1025 16.0579 57.716 15.59 57.4329C14.9746 57.0781 14.3366 56.7639 13.68 56.4927L9.12004 54.6128C6.37004 53.4828 4.5267 51.9929 3.59004 50.1429C2.57943 47.9589 2.09643 45.5679 2.18003 43.1629C2.1714 41.554 2.40398 39.9528 2.87004 38.4129C3.28907 36.9943 3.98968 35.6746 4.93003 34.5328C5.83665 33.429 6.97757 32.541 8.27003 31.9329C9.78997 31.25 11.4443 30.9182 13.11 30.9627C14.6029 30.9429 16.0828 31.2431 17.4501 31.8428C18.7181 32.3983 19.8738 33.1813 20.86 34.1529C21.7705 35.0522 22.4932 36.1236 22.9859 37.3047C23.4786 38.4859 23.7316 39.753 23.7301 41.0328V44.1829H23.75Z" fill="#00AA89"/>
<path d="M30.06 75.9028V31.3628H36.18L44.37 54.9529H44.49L52.61 31.3628H58.8V75.9028H52.43V48.8127H52.31L46 67.9529H42.81L36.56 48.8127H36.44V75.9028H30.06Z" fill="#00AA89"/>
<path d="M63.5 75.9028L73.44 31.3628H78.75L88.69 75.9028H82.32L80.44 66.3328H71.75L69.87 75.9028H63.5ZM79.25 60.3228L76.13 44.1829H76L72.88 60.3228H79.25Z" fill="#00AA89"/>
<path d="M93.37 75.9028V31.3628H103.62C111.12 31.3628 114.87 35.7229 114.87 44.4429C114.933 46.7334 114.517 49.0118 113.65 51.1328C112.763 53.052 111.255 54.6162 109.37 55.5728L116.24 75.9028H109.49L103.55 56.8828H99.74V75.9028H93.37ZM99.74 37.3628V51.2527H103.36C104.28 51.2885 105.197 51.1284 106.05 50.7827C106.689 50.4972 107.231 50.0317 107.61 49.4429C107.97 48.7711 108.204 48.0388 108.3 47.2827C108.432 46.2983 108.495 45.3059 108.49 44.3127C108.501 43.3194 108.437 42.3267 108.3 41.3428C108.2 40.5603 107.945 39.8057 107.55 39.1228C106.76 37.9528 105.26 37.3695 103.05 37.3728H99.74V37.3628Z" fill="#00AA89"/>
<path d="M124.62 75.9028V37.3628H117.25V31.3528H138.37V37.3628H131V75.9028H124.62Z" fill="#00AA89"/>
<path d="M155.93 75.9028V31.3628H162.05L170.24 54.9529H170.36L178.48 31.3628H184.67V75.9028H178.3V48.8127H178.18L171.87 67.9529H168.68L162.43 48.8127H162.31V75.9028H155.93Z" fill="#00AA89"/>
<path d="M191.86 41.8628C191.826 40.2301 192.147 38.6094 192.8 37.1128C193.377 35.8 194.229 34.6268 195.3 33.6729C196.299 32.795 197.456 32.1161 198.71 31.6729C201.187 30.7529 203.913 30.7529 206.39 31.6729C207.655 32.1307 208.83 32.8077 209.86 33.6729C210.897 34.6434 211.727 35.8134 212.3 37.1128C212.948 38.6112 213.268 40.2306 213.24 41.8628V65.3828C213.286 67.0392 212.965 68.6852 212.3 70.2029C211.726 71.4672 210.895 72.5978 209.86 73.5227C208.847 74.4272 207.669 75.1268 206.39 75.5828C203.913 76.5027 201.187 76.5027 198.71 75.5828C197.449 75.1275 196.29 74.4273 195.3 73.5227C194.232 72.6138 193.379 71.4803 192.8 70.2029C192.139 68.6841 191.818 67.0388 191.86 65.3828V41.8628ZM198.23 65.3928C198.178 66.0205 198.266 66.6518 198.487 67.2415C198.709 67.8311 199.058 68.3642 199.51 68.8027C200.363 69.5074 201.434 69.8928 202.54 69.8928C203.646 69.8928 204.718 69.5074 205.57 68.8027C206.022 68.3642 206.371 67.8311 206.593 67.2415C206.814 66.6518 206.902 66.0205 206.85 65.3928V41.8728C206.902 41.2452 206.814 40.6138 206.593 40.0242C206.371 39.4346 206.022 38.9012 205.57 38.4627C204.729 37.738 203.65 37.35 202.54 37.3728C201.431 37.3542 200.353 37.7417 199.51 38.4627C199.058 38.9012 198.709 39.4346 198.487 40.0242C198.266 40.6138 198.178 41.2452 198.23 41.8728V65.3928Z" fill="#00AA89"/>
<path d="M220.17 75.9028V31.3628H226.29L235.91 58.2029H236.03V31.3628H242.4V75.9028H236.4L226.65 49.1228H226.53V75.9028H220.17Z" fill="#00AA89"/>
<path d="M249.73 75.9028V31.3628H268.73V37.3728H256.1V50.4529H267.1V56.4626H256.1V69.5327H268.72V75.9128H249.73V75.9028Z" fill="#00AA89"/>
<path d="M280.35 75.9028V57.0728L271.6 31.3628H278.35L283.47 49.0627H283.59L288.71 31.3628H295.46L286.71 57.0728V75.9028H280.35Z" fill="#00AA89"/>
<path d="M0.870033 103.403C0.852793 102.924 0.938238 102.446 1.12064 102.002C1.30305 101.559 1.57821 101.159 1.92765 100.831C2.27709 100.502 2.69276 100.252 3.14677 100.097C3.60077 99.9422 4.08263 99.8863 4.56004 99.9329C6.27004 99.9329 8.41004 100.553 8.41004 103.293V105.803C8.41004 106.943 8.20003 108.333 6.55003 108.883C8.38003 109.373 8.41004 110.923 8.41004 111.883V114.853C8.41004 116.893 7.27005 118.553 4.51005 118.553C3.14005 118.553 0.870033 117.953 0.870033 115.193V113.153H2.81004V114.523C2.81004 115.403 3.07005 116.673 4.67005 116.673C5.52005 116.673 6.48005 116.283 6.48005 114.683V111.763C6.51308 111.508 6.48812 111.25 6.40708 111.007C6.32605 110.763 6.19104 110.541 6.01212 110.358C5.83321 110.174 5.61502 110.033 5.37394 109.946C5.13286 109.858 4.87513 109.827 4.62003 109.853H4.00004V108.123H4.65003C4.90579 108.129 5.15983 108.08 5.39521 107.98C5.63059 107.879 5.84192 107.73 6.01508 107.542C6.18825 107.353 6.31928 107.13 6.39945 106.887C6.47963 106.644 6.50712 106.387 6.48005 106.133V103.723C6.49409 103.471 6.4548 103.219 6.36478 102.983C6.27477 102.748 6.13603 102.534 5.95765 102.355C5.77927 102.177 5.56526 102.038 5.3296 101.948C5.09393 101.858 4.84192 101.819 4.59003 101.833C3.12003 101.833 2.81004 103.283 2.81004 104.053V105.273H0.870033V103.403Z" fill="#00211B"/>
<path d="M20.78 105.473V106.743C21.0817 106.292 21.4893 105.923 21.967 105.666C22.4447 105.41 22.9779 105.275 23.52 105.273C24.0401 105.238 24.5587 105.36 25.0095 105.621C25.4602 105.883 25.8225 106.274 26.05 106.743C26.3475 106.277 26.7612 105.896 27.2504 105.638C27.7396 105.381 28.2874 105.254 28.84 105.273C30.62 105.273 31.47 106.493 31.47 108.303V118.313H29.53V109.153C29.53 108.043 29.07 107.163 27.9 107.163C26.69 107.163 26.12 108.273 26.12 109.513V118.303H24.18V109.143C24.18 108.343 23.87 107.153 22.58 107.153C21.34 107.153 20.77 108.313 20.77 109.503V118.293H18.83V105.463H20.78V105.473Z" fill="#00211B"/>
<path d="M35.23 108.893C35.2482 107.929 35.6429 107.01 36.3298 106.333C37.0167 105.656 37.9411 105.275 38.9054 105.271C39.8696 105.268 40.7971 105.641 41.4895 106.312C42.1818 106.983 42.584 107.899 42.61 108.863V114.833C42.61 115.811 42.2213 116.75 41.5293 117.442C40.8373 118.134 39.8987 118.523 38.92 118.523C37.9414 118.523 37.0028 118.134 36.3108 117.442C35.6188 116.75 35.23 115.811 35.23 114.833V108.893ZM40.68 109.253C40.68 107.833 39.88 107.153 38.92 107.153C37.96 107.153 37.16 107.823 37.16 109.253V114.533C37.16 115.873 37.78 116.623 38.92 116.623C40 116.623 40.68 115.923 40.68 114.533V109.253ZM39.26 103.353H38.25L39.44 100.193H41.53L39.26 103.353Z" fill="#00211B"/>
<path d="M53.75 118.303H51.81V117.033C51.5005 117.48 51.0884 117.847 50.6083 118.103C50.1282 118.358 49.5939 118.495 49.05 118.503C46.78 118.503 46.36 116.773 46.36 115.533V108.243C46.36 107.003 46.77 105.273 49.05 105.273C49.5943 105.278 50.1294 105.414 50.6098 105.67C51.0903 105.926 51.502 106.294 51.81 106.743V100.203H53.75V118.303ZM51.81 114.273V109.513C51.81 108.713 51.5 107.163 49.92 107.163C48.68 107.163 48.29 108.173 48.29 109.153V114.633C48.29 115.613 48.68 116.623 49.92 116.623C51.5 116.623 51.81 115.073 51.81 114.273Z" fill="#00211B"/>
<path d="M64.99 118.303H63.05V117.033C62.7405 117.48 62.3285 117.847 61.8484 118.103C61.3682 118.358 60.834 118.495 60.29 118.503C58.02 118.503 57.6 116.773 57.6 115.533V105.473H59.54V114.633C59.54 115.613 59.93 116.623 61.17 116.623C62.75 116.623 63.06 115.073 63.06 114.273V105.483H65V118.303H64.99Z" fill="#00211B"/>
<path d="M70.77 100.203V115.103C70.7543 115.293 70.7802 115.485 70.846 115.664C70.9117 115.844 71.0158 116.007 71.1509 116.142C71.2861 116.277 71.449 116.381 71.6285 116.447C71.8079 116.513 71.9995 116.538 72.19 116.523H72.47V118.303H71.88C71.4855 118.349 71.0856 118.308 70.7083 118.184C70.3309 118.06 69.9851 117.855 69.6948 117.584C69.4046 117.313 69.1769 116.982 69.0275 116.614C68.8782 116.246 68.8108 115.85 68.83 115.453V100.193H70.77V100.203Z" fill="#00211B"/>
<path d="M75.24 108.893C75.2582 107.929 75.653 107.01 76.3398 106.333C77.0267 105.657 77.9511 105.275 78.9154 105.272C79.8796 105.268 80.8071 105.641 81.4995 106.312C82.1918 106.983 82.594 107.899 82.62 108.863V114.833C82.62 115.811 82.2313 116.75 81.5393 117.442C80.8473 118.134 79.9087 118.523 78.93 118.523C77.9514 118.523 77.0128 118.134 76.3208 117.442C75.6288 116.75 75.24 115.811 75.24 114.833V108.893ZM80.69 109.253C80.69 107.833 79.89 107.153 78.93 107.153C77.97 107.153 77.17 107.823 77.17 109.253V114.533C77.17 115.873 77.79 116.623 78.93 116.623C80.01 116.623 80.69 115.923 80.69 114.533V109.253Z" fill="#00211B"/>
<path d="M91.31 108.863C91.18 107.413 90.38 107.103 89.58 107.103C88.62 107.103 87.93 107.463 87.93 108.763C87.93 109.773 88.63 110.183 89.45 110.573L91.05 111.353C91.8303 111.706 92.4659 112.316 92.8509 113.082C93.2359 113.847 93.3471 114.721 93.1658 115.559C92.9845 116.396 92.5219 117.146 91.8548 117.683C91.1878 118.221 90.3567 118.514 89.5 118.513C86.63 118.513 85.81 116.623 85.75 114.843H87.7101C87.8101 116.213 88.43 116.703 89.44 116.703C89.6923 116.737 89.949 116.712 90.1902 116.631C90.4313 116.549 90.6504 116.413 90.8304 116.233C91.0104 116.053 91.1464 115.834 91.2279 115.593C91.3093 115.352 91.334 115.095 91.3 114.843C91.3 113.883 90.99 113.393 89.67 112.753L88.0901 111.973C87.4079 111.727 86.8281 111.259 86.4436 110.645C86.0592 110.03 85.8923 109.304 85.97 108.583C85.97 106.853 87.11 105.273 89.66 105.273C92.48 105.273 93.17 107.263 93.22 108.863H91.31Z" fill="#00211B"/>
<path d="M108.72 114.373H110.66V114.893C110.628 115.875 110.213 116.805 109.502 117.484C108.792 118.163 107.843 118.536 106.861 118.523C105.878 118.51 104.94 118.112 104.248 117.414C103.556 116.717 103.165 115.775 103.16 114.793V108.973C103.136 108.476 103.218 107.98 103.398 107.517C103.579 107.054 103.855 106.635 104.209 106.286C104.563 105.937 104.986 105.666 105.452 105.491C105.917 105.317 106.414 105.242 106.91 105.273C107.398 105.236 107.889 105.303 108.35 105.468C108.81 105.633 109.231 105.894 109.585 106.232C109.939 106.571 110.217 106.98 110.402 107.433C110.587 107.886 110.675 108.373 110.66 108.863V109.433H108.72V109.253C108.72 107.803 107.89 107.153 106.91 107.153C105.9 107.153 105.1 107.803 105.1 109.253V114.533C105.1 115.903 105.72 116.623 106.91 116.623C108.05 116.623 108.72 115.923 108.72 114.533V114.373Z" fill="#00211B"/>
<path d="M113.74 108.893C113.758 107.929 114.153 107.01 114.84 106.333C115.527 105.657 116.451 105.275 117.415 105.272C118.38 105.268 119.307 105.641 119.999 106.312C120.692 106.983 121.094 107.899 121.12 108.863V114.833C121.12 115.811 120.731 116.75 120.039 117.442C119.347 118.134 118.409 118.523 117.43 118.523C116.451 118.523 115.513 118.134 114.821 117.442C114.129 116.75 113.74 115.811 113.74 114.833V108.893ZM119.19 109.253C119.19 107.833 118.39 107.153 117.43 107.153C116.47 107.153 115.67 107.823 115.67 109.253V114.533C115.67 115.873 116.29 116.623 117.43 116.623C118.51 116.623 119.19 115.923 119.19 114.533V109.253Z" fill="#00211B"/>
<path d="M126.81 105.473V106.743C127.112 106.292 127.519 105.923 127.997 105.666C128.475 105.41 129.008 105.275 129.55 105.273C130.07 105.238 130.589 105.36 131.039 105.621C131.49 105.883 131.853 106.274 132.08 106.743C132.378 106.277 132.791 105.896 133.28 105.638C133.77 105.381 134.317 105.254 134.87 105.273C136.65 105.273 137.5 106.493 137.5 108.303V118.313H135.56V109.153C135.56 108.043 135.1 107.163 133.93 107.163C132.72 107.163 132.15 108.273 132.15 109.513V118.303H130.21V109.143C130.21 108.343 129.9 107.153 128.61 107.153C127.37 107.153 126.8 108.313 126.8 109.503V118.293H124.86V105.463H126.81V105.473Z" fill="#00211B"/>
<path d="M141.35 105.473H143.29V106.743C143.6 106.295 144.012 105.929 144.492 105.673C144.972 105.417 145.506 105.28 146.05 105.273C148.32 105.273 148.74 107.003 148.74 108.243V115.533C148.74 116.773 148.33 118.503 146.05 118.503C145.506 118.497 144.971 118.361 144.49 118.105C144.01 117.85 143.598 117.481 143.29 117.033V123.573H141.35V105.473ZM146.8 114.633V109.153C146.8 108.173 146.41 107.163 145.17 107.163C143.59 107.163 143.28 108.713 143.28 109.513V114.273C143.28 115.073 143.59 116.623 145.17 116.623C146.42 116.623 146.8 115.613 146.8 114.633Z" fill="#00211B"/>
<path d="M154.53 100.203V115.103C154.514 115.293 154.54 115.485 154.606 115.664C154.672 115.844 154.776 116.007 154.911 116.142C155.046 116.277 155.209 116.381 155.388 116.447C155.568 116.513 155.76 116.538 155.95 116.523H156.23V118.303H155.64C155.245 118.349 154.846 118.308 154.468 118.184C154.091 118.06 153.745 117.855 153.455 117.584C153.165 117.313 152.937 116.982 152.788 116.614C152.638 116.246 152.571 115.85 152.59 115.453V100.193H154.53V100.203Z" fill="#00211B"/>
<path d="M164.37 114.713H166.31V114.893C166.348 115.373 166.282 115.855 166.117 116.307C165.953 116.759 165.693 117.171 165.355 117.514C165.018 117.857 164.61 118.124 164.161 118.296C163.712 118.469 163.23 118.542 162.75 118.513C162.252 118.544 161.753 118.469 161.286 118.293C160.819 118.118 160.395 117.845 160.041 117.494C159.686 117.142 159.411 116.72 159.231 116.255C159.052 115.789 158.973 115.291 159 114.793V108.843C158.98 108.364 159.06 107.887 159.236 107.441C159.411 106.996 159.678 106.592 160.019 106.256C160.36 105.92 160.768 105.658 161.216 105.489C161.664 105.32 162.142 105.246 162.62 105.273C163.111 105.252 163.601 105.332 164.06 105.508C164.519 105.685 164.937 105.953 165.289 106.297C165.64 106.64 165.917 107.053 166.103 107.508C166.289 107.963 166.38 108.451 166.37 108.943V112.613H160.95V114.653C160.95 116.023 161.57 116.623 162.76 116.623C163.9 116.623 164.39 115.923 164.39 114.863V114.713H164.37ZM164.42 111.163V108.963C164.446 108.725 164.42 108.486 164.343 108.26C164.266 108.034 164.141 107.827 163.976 107.655C163.812 107.483 163.611 107.348 163.389 107.261C163.167 107.175 162.928 107.138 162.69 107.153C162.444 107.148 162.201 107.195 161.975 107.291C161.749 107.387 161.546 107.53 161.379 107.711C161.213 107.891 161.087 108.105 161.009 108.338C160.932 108.571 160.905 108.818 160.93 109.063V111.163H164.42Z" fill="#00211B"/>
<path d="M172.28 101.573V105.483H174.09V107.033H172.28V114.813C172.236 115.05 172.25 115.293 172.322 115.523C172.393 115.753 172.519 115.963 172.69 116.133C172.86 116.303 173.069 116.43 173.299 116.501C173.529 116.572 173.773 116.587 174.01 116.543H174.22V118.303H173.65C173.199 118.408 172.728 118.398 172.282 118.272C171.836 118.147 171.429 117.91 171.1 117.584C170.77 117.259 170.528 116.855 170.397 116.41C170.266 115.966 170.25 115.495 170.35 115.043V107.023H168.98V105.473H170.35V101.563H172.28V101.573Z" fill="#00211B"/>
<path d="M177.13 108.893C177.148 107.929 177.543 107.01 178.23 106.333C178.917 105.657 179.841 105.275 180.805 105.272C181.77 105.268 182.697 105.641 183.389 106.312C184.082 106.983 184.484 107.899 184.51 108.863V114.833C184.51 115.811 184.121 116.75 183.429 117.442C182.737 118.134 181.799 118.523 180.82 118.523C179.841 118.523 178.903 118.134 178.211 117.442C177.519 116.75 177.13 115.811 177.13 114.833V108.893ZM182.58 109.253C182.58 107.833 181.78 107.153 180.82 107.153C179.86 107.153 179.06 107.823 179.06 109.253V114.533C179.06 115.873 179.68 116.623 180.82 116.623C181.9 116.623 182.58 115.923 182.58 114.533V109.253Z" fill="#00211B"/>
<path d="M193.2 108.863C193.07 107.413 192.27 107.103 191.47 107.103C190.51 107.103 189.82 107.463 189.82 108.763C189.82 109.773 190.52 110.183 191.34 110.573L192.94 111.353C193.72 111.706 194.356 112.316 194.741 113.082C195.126 113.847 195.237 114.721 195.056 115.559C194.875 116.396 194.412 117.146 193.745 117.683C193.078 118.221 192.247 118.514 191.39 118.513C188.52 118.513 187.7 116.623 187.64 114.843H189.6C189.7 116.213 190.32 116.703 191.33 116.703C191.582 116.737 191.839 116.712 192.08 116.631C192.321 116.549 192.54 116.413 192.72 116.233C192.9 116.053 193.036 115.834 193.118 115.593C193.199 115.352 193.224 115.095 193.19 114.843C193.19 113.883 192.88 113.393 191.56 112.753L189.98 111.973C189.298 111.727 188.718 111.259 188.334 110.645C187.949 110.03 187.782 109.304 187.86 108.583C187.86 106.853 189 105.273 191.55 105.273C194.37 105.273 195.06 107.263 195.11 108.863H193.2Z" fill="#00211B"/>
<path d="M205.16 105.473H207.1V106.743C207.41 106.295 207.822 105.929 208.302 105.673C208.782 105.417 209.316 105.28 209.86 105.273C212.13 105.273 212.55 107.003 212.55 108.243V115.533C212.55 116.773 212.14 118.503 209.86 118.503C209.316 118.497 208.781 118.361 208.3 118.105C207.82 117.85 207.408 117.481 207.1 117.033V123.573H205.16V105.473ZM210.61 114.633V109.153C210.61 108.173 210.22 107.163 208.98 107.163C207.4 107.163 207.09 108.713 207.09 109.513V114.273C207.09 115.073 207.4 116.623 208.98 116.623C210.23 116.623 210.61 115.613 210.61 114.633Z" fill="#00211B"/>
<path d="M221.72 117.043H221.69C221.374 117.514 220.942 117.896 220.436 118.153C219.93 118.411 219.367 118.534 218.8 118.513C216.76 118.513 216.17 116.963 216.17 114.913C216.17 112.193 217.05 110.673 219.92 110.673C220.525 110.676 221.129 110.709 221.73 110.773V108.883C221.731 108.649 221.684 108.417 221.592 108.201C221.5 107.986 221.366 107.791 221.196 107.629C221.027 107.468 220.827 107.342 220.607 107.26C220.388 107.178 220.154 107.142 219.92 107.153C219.479 107.136 219.049 107.292 218.72 107.587C218.392 107.881 218.191 108.292 218.16 108.733H216.3C216.295 108.252 216.391 107.775 216.581 107.333C216.772 106.891 217.053 106.494 217.406 106.167C217.759 105.84 218.177 105.591 218.632 105.435C219.088 105.279 219.571 105.221 220.05 105.263C223.02 105.263 223.67 107.463 223.67 109.113V118.293H221.73V117.043H221.72ZM221.72 112.203C221.283 112.131 220.842 112.087 220.4 112.073C220.077 112.053 219.754 112.106 219.454 112.226C219.153 112.346 218.884 112.532 218.664 112.769C218.444 113.006 218.279 113.289 218.182 113.598C218.084 113.906 218.056 114.232 218.1 114.553C218.1 116.363 218.64 116.853 219.75 116.853C220.307 116.743 220.807 116.442 221.165 116.002C221.523 115.561 221.716 115.01 221.71 114.443V112.203H221.72Z" fill="#00211B"/>
<path d="M229.45 105.473V107.493C230.82 105.633 232.01 105.293 233.01 105.273V107.443H232.65C231.23 107.443 229.45 108.013 229.45 110.833V118.303H227.51V105.473H229.45Z" fill="#00211B"/>
<path d="M240.53 117.043H240.5C240.184 117.514 239.752 117.896 239.246 118.153C238.74 118.411 238.177 118.534 237.61 118.513C235.57 118.513 234.98 116.963 234.98 114.913C234.98 112.193 235.86 110.673 238.73 110.673C239.335 110.676 239.939 110.709 240.54 110.773V108.883C240.541 108.649 240.494 108.417 240.402 108.201C240.31 107.986 240.176 107.791 240.006 107.629C239.837 107.468 239.637 107.342 239.417 107.26C239.198 107.178 238.964 107.142 238.73 107.153C238.289 107.136 237.859 107.292 237.53 107.587C237.202 107.881 237.001 108.292 236.97 108.733H235.11C235.105 108.252 235.201 107.775 235.391 107.333C235.582 106.891 235.863 106.494 236.216 106.167C236.569 105.84 236.987 105.591 237.442 105.435C237.898 105.279 238.381 105.221 238.86 105.263C241.83 105.263 242.48 107.463 242.48 109.113V118.293H240.54V117.043H240.53ZM240.53 112.203C240.093 112.131 239.652 112.087 239.21 112.073C238.887 112.053 238.564 112.106 238.264 112.226C237.963 112.346 237.694 112.532 237.474 112.769C237.254 113.006 237.089 113.289 236.992 113.598C236.894 113.906 236.866 114.232 236.91 114.553C236.91 116.363 237.45 116.853 238.56 116.853C239.117 116.743 239.617 116.442 239.975 116.002C240.333 115.561 240.526 115.01 240.52 114.443V112.203H240.53Z" fill="#00211B"/>
<path d="M256.73 118.303H255.21L251.85 105.473H253.89L256.03 114.473H256.08L258.17 105.473H260.13L256.73 118.303Z" fill="#00211B"/>
<path d="M262.67 108.893C262.688 107.929 263.083 107.01 263.77 106.333C264.457 105.657 265.381 105.275 266.345 105.272C267.31 105.268 268.237 105.641 268.929 106.312C269.622 106.983 270.024 107.899 270.05 108.863V114.833C270.05 115.811 269.661 116.75 268.969 117.442C268.277 118.134 267.339 118.523 266.36 118.523C265.381 118.523 264.443 118.134 263.751 117.442C263.059 116.75 262.67 115.811 262.67 114.833V108.893ZM268.12 109.253C268.12 107.833 267.32 107.153 266.36 107.153C265.4 107.153 264.6 107.823 264.6 109.253V114.533C264.6 115.873 265.22 116.623 266.36 116.623C267.44 116.623 268.12 115.923 268.12 114.533V109.253Z" fill="#00211B"/>
<path d="M279.25 114.373H281.19V114.893C281.158 115.875 280.743 116.805 280.032 117.484C279.322 118.163 278.373 118.536 277.391 118.523C276.408 118.51 275.47 118.112 274.778 117.414C274.086 116.717 273.695 115.775 273.69 114.793V108.973C273.666 108.476 273.747 107.98 273.928 107.517C274.109 107.054 274.385 106.635 274.739 106.286C275.093 105.937 275.516 105.666 275.982 105.491C276.447 105.317 276.944 105.242 277.44 105.273C277.928 105.236 278.419 105.303 278.879 105.468C279.34 105.633 279.761 105.894 280.115 106.232C280.468 106.571 280.747 106.98 280.932 107.433C281.117 107.886 281.205 108.373 281.19 108.863V109.433H279.25V109.253C279.25 107.803 278.42 107.153 277.44 107.153C276.43 107.153 275.63 107.803 275.63 109.253V114.533C275.63 115.903 276.25 116.623 277.44 116.623C278.58 116.623 279.25 115.923 279.25 114.533V114.373Z" fill="#00211B"/>
<path d="M289.64 114.713H291.58V114.893C291.618 115.373 291.552 115.855 291.387 116.307C291.223 116.759 290.963 117.171 290.625 117.514C290.288 117.857 289.88 118.124 289.431 118.296C288.982 118.469 288.5 118.542 288.02 118.513C287.522 118.544 287.023 118.469 286.556 118.293C286.089 118.118 285.665 117.845 285.311 117.494C284.956 117.143 284.681 116.72 284.501 116.255C284.322 115.789 284.243 115.291 284.27 114.793V108.843C284.25 108.364 284.33 107.887 284.506 107.441C284.681 106.996 284.948 106.592 285.289 106.256C285.63 105.92 286.038 105.658 286.486 105.489C286.934 105.32 287.412 105.246 287.89 105.273C288.381 105.252 288.871 105.332 289.33 105.509C289.789 105.685 290.207 105.953 290.559 106.297C290.91 106.64 291.187 107.053 291.373 107.508C291.559 107.963 291.65 108.451 291.64 108.943V112.613H286.22V114.653C286.22 116.023 286.84 116.623 288.03 116.623C289.17 116.623 289.66 115.923 289.66 114.863V114.713H289.64ZM286.46 103.153H285.27L286.59 100.203H289.28L290.57 103.153H289.38L287.93 101.343L286.46 103.153ZM289.69 111.163V108.963C289.716 108.726 289.69 108.486 289.613 108.26C289.536 108.034 289.411 107.827 289.246 107.655C289.082 107.483 288.881 107.348 288.659 107.261C288.437 107.175 288.198 107.138 287.96 107.153C287.715 107.148 287.471 107.195 287.245 107.291C287.019 107.387 286.816 107.53 286.649 107.711C286.483 107.891 286.357 108.105 286.279 108.338C286.202 108.571 286.175 108.818 286.2 109.063V111.163H289.69Z" fill="#00211B"/>
<path d="M6.27002 147.073H6.24002C5.92354 147.544 5.49189 147.926 4.98608 148.183C4.48027 148.441 3.91711 148.564 3.35004 148.543C1.31004 148.543 0.720032 146.993 0.720032 144.943C0.720032 142.223 1.60003 140.703 4.47003 140.703C5.07467 140.706 5.67878 140.739 6.28003 140.803V138.913C6.28071 138.679 6.23375 138.447 6.142 138.231C6.05025 138.016 5.91561 137.821 5.74631 137.66C5.577 137.498 5.37654 137.372 5.15714 137.29C4.93773 137.208 4.70396 137.172 4.47003 137.183C4.02895 137.166 3.59869 137.322 3.27023 137.617C2.94178 137.911 2.74086 138.322 2.71002 138.763H0.850037C0.845114 138.282 0.940982 137.805 1.13147 137.363C1.32196 136.921 1.60283 136.524 1.95605 136.197C2.30928 135.87 2.72701 135.621 3.18237 135.465C3.63773 135.309 4.12065 135.251 4.60004 135.293C7.57004 135.293 8.22003 137.493 8.22003 139.143V148.323H6.28003V147.073H6.27002ZM6.27002 142.233C5.83335 142.161 5.39242 142.117 4.95004 142.103C4.62715 142.083 4.30394 142.136 4.00369 142.256C3.70344 142.376 3.43362 142.562 3.21365 142.799C2.99369 143.036 2.82903 143.319 2.73157 143.628C2.63411 143.936 2.60626 144.262 2.65002 144.583C2.65002 146.393 3.19002 146.883 4.30002 146.883C4.8565 146.773 5.35701 146.472 5.71494 146.032C6.07286 145.591 6.26569 145.04 6.26004 144.473V142.233H6.27002Z" fill="#00211B"/>
<path d="M12.05 135.513H13.99V136.783C14.2996 136.335 14.7116 135.969 15.1917 135.713C15.6718 135.457 16.2061 135.32 16.75 135.313C19.02 135.313 19.44 137.043 19.44 138.283V145.573C19.44 146.813 19.03 148.543 16.75 148.543C16.2057 148.538 15.6707 148.401 15.1902 148.145C14.7098 147.889 14.2981 147.522 13.99 147.073V153.613H12.05V135.513ZM17.5 144.663V139.183C17.5 138.203 17.11 137.193 15.87 137.193C14.29 137.193 13.98 138.743 13.98 139.543V144.303C13.98 145.103 14.29 146.653 15.87 146.653C17.12 146.653 17.5 145.653 17.5 144.663Z" fill="#00211B"/>
<path d="M25.23 135.513V137.533C26.6 135.673 27.79 135.333 28.79 135.313V137.483H28.43C27.01 137.483 25.23 138.053 25.23 140.873V148.343H23.29V135.513H25.23Z" fill="#00211B"/>
<path d="M36.47 144.743H38.41V144.923C38.4477 145.403 38.382 145.885 38.2172 146.337C38.0525 146.789 37.7926 147.201 37.4551 147.544C37.1176 147.887 36.7104 148.154 36.261 148.326C35.8116 148.499 35.3304 148.572 34.85 148.543C34.3521 148.574 33.8533 148.499 33.3863 148.323C32.9193 148.148 32.4948 147.875 32.1406 147.524C31.7864 147.173 31.5106 146.75 31.3313 146.285C31.1519 145.819 31.0731 145.321 31.1 144.823V138.873C31.08 138.394 31.1604 137.917 31.3359 137.471C31.5114 137.026 31.7782 136.622 32.1192 136.286C32.4601 135.95 32.8677 135.688 33.3156 135.519C33.7635 135.35 34.2419 135.276 34.72 135.303C35.2112 135.282 35.7014 135.362 36.1604 135.539C36.6193 135.715 37.0374 135.983 37.3888 136.327C37.7401 136.67 38.0173 137.083 38.2033 137.538C38.3892 137.993 38.48 138.481 38.47 138.973V142.643H33.05V144.683C33.05 146.053 33.67 146.653 34.86 146.653C36 146.653 36.49 145.953 36.49 144.893V144.743H36.47ZM36.52 141.203V139.003C36.5459 138.765 36.5195 138.526 36.4429 138.3C36.3663 138.074 36.2411 137.867 36.0763 137.695C35.9115 137.523 35.711 137.388 35.4888 137.301C35.2666 137.215 35.0281 137.178 34.79 137.193C34.5445 137.188 34.3006 137.235 34.0745 137.331C33.8485 137.427 33.6456 137.57 33.4791 137.751C33.3127 137.931 33.1865 138.145 33.1091 138.378C33.0317 138.611 33.0047 138.858 33.03 139.103V141.203H36.52Z" fill="#00211B"/>
<path d="M42.1 135.513H44.04V136.783C44.3496 136.335 44.7616 135.969 45.2417 135.713C45.7218 135.457 46.2561 135.32 46.8 135.313C49.07 135.313 49.49 137.043 49.49 138.283V148.343H47.55V139.183C47.55 138.203 47.16 137.193 45.92 137.193C44.34 137.193 44.03 138.743 44.03 139.543V148.333H42.09V135.513H42.1Z" fill="#00211B"/>
<path d="M60.72 148.343H58.78V147.073C58.4705 147.52 58.0584 147.887 57.5783 148.143C57.0982 148.398 56.5639 148.535 56.02 148.543C53.75 148.543 53.33 146.813 53.33 145.573V138.283C53.33 137.043 53.74 135.313 56.02 135.313C56.5643 135.318 57.0994 135.454 57.5798 135.71C58.0603 135.966 58.472 136.334 58.78 136.783V130.243H60.72V148.343ZM58.79 144.303V139.543C58.79 138.743 58.48 137.193 56.9 137.193C55.66 137.193 55.27 138.203 55.27 139.183V144.663C55.27 145.643 55.66 146.653 56.9 146.653C58.48 146.653 58.79 145.103 58.79 144.303Z" fill="#00211B"/>
<path d="M69.8401 144.743H71.7801V144.923C71.8178 145.403 71.752 145.885 71.5872 146.337C71.4225 146.789 71.1626 147.201 70.8252 147.544C70.4877 147.887 70.0804 148.154 69.631 148.326C69.1816 148.499 68.7004 148.572 68.22 148.543C67.7221 148.574 67.2233 148.499 66.7563 148.323C66.2893 148.148 65.8648 147.875 65.5106 147.524C65.1564 147.173 64.8806 146.75 64.7013 146.285C64.5219 145.819 64.4431 145.321 64.47 144.823V138.873C64.45 138.394 64.5304 137.917 64.7059 137.471C64.8814 137.026 65.1482 136.622 65.4892 136.286C65.8301 135.95 66.2376 135.688 66.6856 135.519C67.1335 135.35 67.6119 135.276 68.0901 135.303C68.5812 135.282 69.0714 135.362 69.5304 135.539C69.9893 135.715 70.4074 135.983 70.7588 136.327C71.1101 136.67 71.3873 137.083 71.5733 137.538C71.7592 137.993 71.85 138.481 71.8401 138.973V142.643H66.42V144.683C66.42 146.053 67.04 146.653 68.23 146.653C69.37 146.653 69.86 145.953 69.86 144.893V144.743H69.8401ZM69.9 141.203V139.003C69.9259 138.765 69.8995 138.526 69.8229 138.3C69.7463 138.074 69.6211 137.867 69.4563 137.695C69.2915 137.523 69.091 137.388 68.8688 137.301C68.6466 137.215 68.4081 137.178 68.17 137.193C67.9244 137.188 67.6806 137.235 67.4546 137.331C67.2285 137.427 67.0255 137.57 66.8591 137.751C66.6926 137.931 66.5665 138.145 66.4891 138.378C66.4117 138.611 66.3847 138.858 66.41 139.103V141.203H69.9Z" fill="#00211B"/>
<path d="M77.41 135.513V137.533C78.78 135.673 79.97 135.333 80.97 135.313V137.483H80.61C79.19 137.483 77.41 138.053 77.41 140.873V148.343H75.47V135.513H77.41Z" fill="#00211B"/>
<path d="M95.63 147.073H95.6C95.2835 147.544 94.8519 147.926 94.3461 148.183C93.8403 148.441 93.2771 148.564 92.7101 148.543C90.6701 148.543 90.08 146.993 90.08 144.943C90.08 142.223 90.96 140.703 93.83 140.703C94.4347 140.706 95.0388 140.739 95.64 140.803V138.913C95.6407 138.679 95.5937 138.447 95.502 138.231C95.4102 138.016 95.2756 137.821 95.1063 137.66C94.937 137.498 94.7365 137.372 94.5171 137.29C94.2977 137.208 94.064 137.172 93.83 137.183C93.389 137.166 92.9587 137.322 92.6302 137.617C92.3018 137.911 92.1009 138.322 92.07 138.763H90.2101C90.2051 138.282 90.301 137.805 90.4915 137.363C90.682 136.921 90.9629 136.524 91.3161 136.197C91.6693 135.87 92.087 135.621 92.5424 135.465C92.9978 135.309 93.4807 135.251 93.9601 135.293C96.9301 135.293 97.58 137.493 97.58 139.143V148.323H95.64V147.073H95.63ZM95.63 142.233C95.1934 142.16 94.7524 142.117 94.31 142.103C93.9871 142.083 93.6639 142.136 93.3637 142.256C93.0634 142.376 92.7936 142.562 92.5736 142.799C92.3537 143.036 92.189 143.319 92.0916 143.628C91.9941 143.936 91.9663 144.262 92.01 144.583C92.01 146.393 92.55 146.883 93.66 146.883C94.2165 146.773 94.717 146.472 95.0749 146.032C95.4328 145.591 95.6257 145.04 95.62 144.473V142.233H95.63Z" fill="#00211B"/>
<path d="M113.53 144.403H115.47V144.923C115.438 145.905 115.023 146.835 114.312 147.514C113.602 148.193 112.653 148.566 111.671 148.553C110.688 148.54 109.75 148.142 109.058 147.444C108.366 146.747 107.975 145.805 107.97 144.823V139.003C107.946 138.506 108.028 138.01 108.208 137.547C108.389 137.084 108.665 136.665 109.019 136.316C109.373 135.967 109.796 135.696 110.262 135.521C110.727 135.347 111.224 135.272 111.72 135.303C112.208 135.266 112.699 135.333 113.16 135.498C113.62 135.663 114.041 135.924 114.395 136.262C114.748 136.601 115.027 137.01 115.212 137.463C115.397 137.916 115.485 138.403 115.47 138.893V139.463H113.53V139.283C113.53 137.833 112.7 137.183 111.72 137.183C110.71 137.183 109.91 137.833 109.91 139.283V144.563C109.91 145.933 110.53 146.653 111.72 146.653C112.86 146.653 113.53 145.953 113.53 144.563V144.403Z" fill="#00211B"/>
<path d="M120.58 135.513V137.533C121.95 135.673 123.14 135.333 124.14 135.313V137.483H123.78C122.36 137.483 120.58 138.053 120.58 140.873V148.343H118.64V135.513H120.58Z" fill="#00211B"/>
<path d="M128.75 130.593V132.483H126.81V130.593H128.75ZM126.81 135.513H128.75V148.343H126.81V135.513Z" fill="#00211B"/>
<path d="M137.92 147.073H137.89C137.574 147.544 137.142 147.926 136.636 148.183C136.13 148.441 135.567 148.564 135 148.543C132.96 148.543 132.37 146.993 132.37 144.943C132.37 142.223 133.25 140.703 136.12 140.703C136.725 140.706 137.329 140.739 137.93 140.803V138.913C137.931 138.679 137.884 138.447 137.792 138.231C137.7 138.016 137.566 137.821 137.396 137.66C137.227 137.498 137.027 137.372 136.807 137.29C136.588 137.208 136.354 137.172 136.12 137.183C135.679 137.166 135.249 137.322 134.92 137.617C134.592 137.911 134.391 138.322 134.36 138.763H132.5C132.495 138.282 132.591 137.805 132.781 137.363C132.972 136.921 133.253 136.524 133.606 136.197C133.959 135.87 134.377 135.621 134.832 135.465C135.288 135.309 135.771 135.251 136.25 135.293C139.22 135.293 139.87 137.493 139.87 139.143V148.323H137.93V147.073H137.92ZM137.92 142.233C137.483 142.16 137.042 142.117 136.6 142.103C136.277 142.083 135.954 142.136 135.654 142.256C135.353 142.376 135.084 142.562 134.864 142.799C134.644 143.036 134.479 143.319 134.382 143.628C134.284 143.936 134.256 144.262 134.3 144.583C134.3 146.393 134.84 146.883 135.95 146.883C136.507 146.773 137.007 146.472 137.365 146.032C137.723 145.591 137.916 145.04 137.91 144.473V142.233H137.92Z" fill="#00211B"/>
<path d="M145.64 135.513V137.533C147.01 135.673 148.2 135.333 149.2 135.313V137.483H148.84C147.42 137.483 145.64 138.053 145.64 140.873V148.343H143.7V135.513H145.64Z" fill="#00211B"/>
<path d="M154.04 146.143V148.573L151.82 150.563V146.143H154.04Z" fill="#00211B"/>
<path d="M166.69 135.513V137.533C168.06 135.673 169.25 135.333 170.25 135.313V137.483H169.89C168.47 137.483 166.69 138.053 166.69 140.873V148.343H164.75V135.513H166.69Z" fill="#00211B"/>
<path d="M177.93 144.743H179.87V144.923C179.908 145.403 179.842 145.885 179.677 146.337C179.513 146.789 179.253 147.201 178.915 147.544C178.578 147.887 178.17 148.154 177.721 148.326C177.272 148.499 176.79 148.572 176.31 148.543C175.812 148.574 175.313 148.499 174.846 148.323C174.379 148.148 173.955 147.875 173.601 147.524C173.246 147.173 172.971 146.75 172.791 146.285C172.612 145.819 172.533 145.321 172.56 144.823V138.873C172.54 138.394 172.62 137.917 172.796 137.471C172.971 137.026 173.238 136.622 173.579 136.286C173.92 135.95 174.328 135.688 174.776 135.519C175.224 135.35 175.702 135.276 176.18 135.303C176.671 135.282 177.161 135.362 177.62 135.539C178.079 135.715 178.497 135.983 178.849 136.327C179.2 136.67 179.477 137.083 179.663 137.538C179.849 137.993 179.94 138.481 179.93 138.973V142.643H174.51V144.683C174.51 146.053 175.13 146.653 176.32 146.653C177.46 146.653 177.95 145.953 177.95 144.893V144.743H177.93ZM177.98 141.203V139.003C178.006 138.765 177.98 138.526 177.903 138.3C177.826 138.074 177.701 137.867 177.536 137.695C177.372 137.523 177.171 137.388 176.949 137.301C176.727 137.215 176.488 137.178 176.25 137.193C176.004 137.188 175.761 137.235 175.535 137.331C175.309 137.427 175.106 137.57 174.939 137.751C174.773 137.931 174.647 138.145 174.569 138.378C174.492 138.611 174.465 138.858 174.49 139.103V141.203H177.98Z" fill="#00211B"/>
<path d="M189.02 144.403H190.96V144.923C190.928 145.905 190.513 146.835 189.802 147.514C189.092 148.193 188.143 148.566 187.161 148.553C186.178 148.54 185.24 148.142 184.548 147.444C183.856 146.747 183.465 145.805 183.46 144.823V139.003C183.436 138.506 183.518 138.01 183.698 137.547C183.879 137.084 184.155 136.665 184.509 136.316C184.863 135.967 185.286 135.696 185.752 135.521C186.217 135.347 186.714 135.272 187.21 135.303C187.698 135.266 188.189 135.333 188.649 135.498C189.11 135.663 189.531 135.924 189.885 136.262C190.238 136.601 190.517 137.01 190.702 137.463C190.887 137.916 190.975 138.403 190.96 138.893V139.463H189.02V139.283C189.02 137.833 188.19 137.183 187.21 137.183C186.2 137.183 185.4 137.833 185.4 139.283V144.563C185.4 145.933 186.02 146.653 187.21 146.653C188.35 146.653 189.02 145.953 189.02 144.563V144.403Z" fill="#00211B"/>
<path d="M196.07 135.513V137.533C197.44 135.673 198.63 135.333 199.63 135.313V137.483H199.27C197.85 137.483 196.07 138.053 196.07 140.873V148.343H194.13V135.513H196.07Z" fill="#00211B"/>
<path d="M204.23 130.593V132.483H202.29V130.593H204.23ZM202.29 135.513H204.23V148.343H202.29V135.513Z" fill="#00211B"/>
<path d="M213.4 147.073H213.37C213.054 147.544 212.622 147.926 212.116 148.183C211.61 148.441 211.047 148.564 210.48 148.543C208.44 148.543 207.85 146.993 207.85 144.943C207.85 142.223 208.73 140.703 211.6 140.703C212.205 140.706 212.809 140.739 213.41 140.803V138.913C213.411 138.679 213.364 138.447 213.272 138.231C213.18 138.016 213.046 137.821 212.876 137.66C212.707 137.498 212.507 137.372 212.287 137.29C212.068 137.208 211.834 137.172 211.6 137.183C211.159 137.166 210.729 137.322 210.4 137.617C210.072 137.911 209.871 138.322 209.84 138.763H207.98C207.975 138.282 208.071 137.805 208.261 137.363C208.452 136.921 208.733 136.524 209.086 136.197C209.439 135.87 209.857 135.621 210.312 135.465C210.768 135.309 211.251 135.251 211.73 135.293C214.7 135.293 215.35 137.493 215.35 139.143V148.323H213.41V147.073H213.4ZM213.4 142.233C212.963 142.16 212.522 142.117 212.08 142.103C211.757 142.083 211.434 142.136 211.134 142.256C210.833 142.376 210.564 142.562 210.344 142.799C210.124 143.036 209.959 143.319 209.862 143.628C209.764 143.936 209.736 144.262 209.78 144.583C209.78 146.393 210.32 146.883 211.43 146.883C211.987 146.773 212.487 146.472 212.845 146.032C213.203 145.591 213.396 145.04 213.39 144.473V142.233H213.4Z" fill="#00211B"/>
<path d="M221.13 135.513V137.533C222.5 135.673 223.69 135.333 224.69 135.313V137.483H224.33C222.91 137.483 221.13 138.053 221.13 140.873V148.343H219.19V135.513H221.13Z" fill="#00211B"/>
<path d="M229.52 146.143V148.573L227.3 150.563V146.143H229.52Z" fill="#00211B"/>
<path d="M245.51 144.743H247.45V144.923C247.488 145.403 247.422 145.885 247.257 146.337C247.093 146.789 246.833 147.201 246.495 147.544C246.158 147.887 245.75 148.154 245.301 148.326C244.852 148.499 244.37 148.572 243.89 148.543C243.392 148.574 242.893 148.499 242.426 148.323C241.959 148.148 241.535 147.875 241.181 147.524C240.826 147.173 240.551 146.75 240.371 146.285C240.192 145.819 240.113 145.321 240.14 144.823V138.873C240.12 138.394 240.2 137.917 240.376 137.471C240.551 137.026 240.818 136.622 241.159 136.286C241.5 135.95 241.908 135.688 242.356 135.519C242.804 135.35 243.282 135.276 243.76 135.303C244.251 135.282 244.741 135.362 245.2 135.539C245.659 135.715 246.077 135.983 246.429 136.327C246.78 136.67 247.057 137.083 247.243 137.538C247.429 137.993 247.52 138.481 247.51 138.973V142.643H242.09V144.683C242.09 146.053 242.71 146.653 243.9 146.653C245.04 146.653 245.53 145.953 245.53 144.893V144.743H245.51ZM245.57 141.203V139.003C245.596 138.765 245.57 138.526 245.493 138.3C245.416 138.074 245.291 137.867 245.126 137.695C244.962 137.523 244.761 137.388 244.539 137.301C244.317 137.215 244.078 137.178 243.84 137.193C243.595 137.188 243.351 137.235 243.125 137.331C242.899 137.427 242.696 137.57 242.529 137.751C242.363 137.931 242.237 138.145 242.159 138.378C242.082 138.611 242.055 138.858 242.08 139.103V141.203H245.57Z" fill="#00211B"/>
<path d="M256.08 138.893C255.95 137.443 255.15 137.133 254.35 137.133C253.39 137.133 252.7 137.493 252.7 138.793C252.7 139.803 253.4 140.213 254.22 140.603L255.82 141.383C256.6 141.736 257.236 142.347 257.621 143.112C258.006 143.877 258.117 144.751 257.936 145.589C257.755 146.426 257.292 147.176 256.625 147.713C255.958 148.251 255.127 148.544 254.27 148.543C251.4 148.543 250.58 146.653 250.52 144.873H252.48C252.58 146.243 253.2 146.733 254.21 146.733C254.462 146.767 254.719 146.742 254.96 146.661C255.201 146.579 255.42 146.443 255.6 146.263C255.78 146.083 255.916 145.864 255.998 145.623C256.079 145.382 256.104 145.125 256.07 144.873C256.07 143.913 255.76 143.423 254.44 142.783L252.86 142.003C252.178 141.757 251.598 141.289 251.214 140.675C250.829 140.06 250.662 139.334 250.74 138.613C250.74 136.883 251.88 135.303 254.43 135.303C257.25 135.303 257.94 137.293 257.99 138.893H256.08Z" fill="#00211B"/>
<path d="M266.83 144.403H268.77V144.923C268.738 145.905 268.323 146.835 267.612 147.514C266.902 148.193 265.953 148.566 264.971 148.553C263.988 148.54 263.05 148.142 262.358 147.444C261.666 146.747 261.275 145.805 261.27 144.823V139.003C261.246 138.506 261.328 138.01 261.508 137.547C261.689 137.084 261.965 136.665 262.319 136.316C262.673 135.967 263.096 135.696 263.562 135.521C264.027 135.347 264.524 135.272 265.02 135.303C265.508 135.266 265.999 135.333 266.459 135.498C266.92 135.663 267.341 135.924 267.695 136.262C268.048 136.601 268.327 137.01 268.512 137.463C268.697 137.916 268.785 138.403 268.77 138.893V139.463H266.83V139.283C266.83 137.833 266 137.183 265.02 137.183C264.01 137.183 263.21 137.833 263.21 139.283V144.563C263.21 145.933 263.83 146.653 265.02 146.653C266.16 146.653 266.83 145.953 266.83 144.563V144.403Z" fill="#00211B"/>
<path d="M277.01 147.073H276.98C276.664 147.544 276.232 147.926 275.726 148.183C275.22 148.441 274.657 148.564 274.09 148.543C272.05 148.543 271.46 146.993 271.46 144.943C271.46 142.223 272.34 140.703 275.21 140.703C275.815 140.706 276.419 140.739 277.02 140.803V138.913C277.021 138.679 276.974 138.447 276.882 138.231C276.79 138.016 276.656 137.821 276.486 137.66C276.317 137.498 276.117 137.372 275.897 137.29C275.678 137.208 275.444 137.172 275.21 137.183C274.769 137.166 274.339 137.322 274.01 137.617C273.682 137.911 273.481 138.322 273.45 138.763H271.59C271.585 138.282 271.681 137.805 271.871 137.363C272.062 136.921 272.343 136.524 272.696 136.197C273.049 135.87 273.467 135.621 273.922 135.465C274.378 135.309 274.861 135.251 275.34 135.293C278.31 135.293 278.96 137.493 278.96 139.143V148.323H277.02V147.073H277.01ZM277.01 142.233C276.573 142.16 276.132 142.117 275.69 142.103C275.367 142.083 275.044 142.136 274.744 142.256C274.443 142.376 274.174 142.562 273.954 142.799C273.734 143.036 273.569 143.319 273.472 143.628C273.374 143.936 273.346 144.262 273.39 144.583C273.39 146.393 273.93 146.883 275.04 146.883C275.596 146.773 276.097 146.472 276.455 146.032C276.813 145.591 277.006 145.04 277 144.473V142.233H277.01Z" fill="#00211B"/>
<path d="M284.73 130.233V145.133C284.714 145.323 284.74 145.515 284.806 145.694C284.872 145.874 284.976 146.037 285.111 146.172C285.246 146.307 285.409 146.411 285.589 146.477C285.768 146.543 285.96 146.568 286.15 146.553H286.43V148.333H285.84C285.445 148.379 285.046 148.338 284.668 148.214C284.291 148.09 283.945 147.885 283.655 147.614C283.365 147.343 283.137 147.012 282.987 146.644C282.838 146.276 282.771 145.879 282.79 145.483V130.223H284.73V130.233Z" fill="#00211B"/>
<path d="M294.62 147.073H294.59C294.274 147.544 293.842 147.926 293.336 148.183C292.83 148.441 292.267 148.564 291.7 148.543C289.66 148.543 289.07 146.993 289.07 144.943C289.07 142.223 289.95 140.703 292.82 140.703C293.425 140.706 294.029 140.739 294.63 140.803V138.913C294.631 138.679 294.584 138.447 294.492 138.231C294.4 138.016 294.266 137.821 294.096 137.66C293.927 137.498 293.727 137.372 293.507 137.29C293.288 137.208 293.054 137.172 292.82 137.183C292.379 137.166 291.949 137.322 291.62 137.617C291.292 137.911 291.091 138.322 291.06 138.763H289.2C289.195 138.282 289.291 137.805 289.481 137.363C289.672 136.921 289.953 136.524 290.306 136.197C290.659 135.87 291.077 135.621 291.532 135.465C291.988 135.309 292.471 135.251 292.95 135.293C295.92 135.293 296.57 137.493 296.57 139.143V148.323H294.63V147.073H294.62ZM294.62 142.233C294.183 142.16 293.742 142.117 293.3 142.103C292.977 142.083 292.654 142.136 292.354 142.256C292.053 142.376 291.784 142.562 291.564 142.799C291.344 143.036 291.179 143.319 291.082 143.628C290.984 143.936 290.956 144.262 291 144.583C291 146.393 291.54 146.883 292.65 146.883C293.207 146.773 293.707 146.472 294.065 146.032C294.423 145.591 294.616 145.04 294.61 144.473V142.233H294.62Z" fill="#00211B"/>
<path d="M302.35 135.513V137.533C303.72 135.673 304.91 135.333 305.91 135.313V137.483H305.55C304.13 137.483 302.35 138.053 302.35 140.873V148.343H300.41V135.513H302.35Z" fill="#00211B"/>
<path d="M6.21002 174.773H8.15002V174.953C8.18772 175.433 8.12197 175.915 7.95724 176.367C7.79251 176.819 7.53264 177.231 7.19515 177.574C6.85767 177.917 6.45046 178.184 6.00103 178.356C5.5516 178.529 5.07042 178.602 4.59002 178.573C4.09209 178.604 3.59324 178.529 3.12628 178.353C2.65931 178.178 2.23479 177.905 1.88061 177.554C1.52642 177.203 1.2506 176.78 1.07125 176.315C0.891908 175.849 0.813101 175.351 0.840021 174.853V168.903C0.820024 168.424 0.90037 167.947 1.07589 167.501C1.25141 167.056 1.51824 166.652 1.85919 166.316C2.20013 165.98 2.60767 165.718 3.0556 165.549C3.50352 165.38 3.9819 165.306 4.46002 165.333C4.95119 165.312 5.4414 165.392 5.90038 165.569C6.35937 165.745 6.7774 166.013 7.12875 166.357C7.4801 166.7 7.7573 167.113 7.94326 167.568C8.12922 168.023 8.22001 168.511 8.21002 169.003V172.673H2.79003V174.713C2.79003 176.083 3.41003 176.683 4.60003 176.683C5.74003 176.683 6.23004 175.983 6.23004 174.923V174.773H6.21002ZM6.27001 171.233V169.033C6.29586 168.796 6.26954 168.556 6.1929 168.33C6.11625 168.104 5.99114 167.897 5.82632 167.725C5.6615 167.553 5.46096 167.418 5.23876 167.331C5.01656 167.245 4.77809 167.207 4.54003 167.223C4.29446 167.217 4.05056 167.264 3.82455 167.361C3.59853 167.457 3.39557 167.6 3.22912 167.781C3.06267 167.961 2.93652 168.175 2.85909 168.408C2.78167 168.642 2.75472 168.888 2.78002 169.133V171.233H6.27001Z" fill="#00211B"/>
<path d="M23.96 174.443H25.9V174.963C25.8684 175.945 25.4527 176.875 24.7423 177.554C24.0318 178.233 23.0834 178.606 22.1009 178.593C21.1185 178.58 20.1803 178.182 19.4883 177.484C18.7962 176.787 18.4054 175.845 18.4 174.863V169.043C18.3763 168.546 18.4575 168.05 18.6383 167.587C18.819 167.124 19.0953 166.705 19.4491 166.356C19.8029 166.007 20.2263 165.736 20.6916 165.562C21.157 165.387 21.6539 165.312 22.15 165.343C22.6382 165.306 23.1286 165.373 23.5895 165.538C24.0503 165.703 24.4712 165.964 24.8249 166.302C25.1785 166.641 25.457 167.05 25.6422 167.503C25.8274 167.956 25.9153 168.444 25.9 168.933V169.503H23.96V169.323C23.96 167.873 23.13 167.223 22.15 167.223C21.14 167.223 20.34 167.873 20.34 169.323V174.603C20.34 175.973 20.96 176.693 22.15 176.693C23.29 176.693 23.96 175.993 23.96 174.603V174.443Z" fill="#00211B"/>
<path d="M34.14 177.103H34.11C33.7935 177.574 33.3619 177.956 32.8561 178.213C32.3503 178.471 31.7871 178.594 31.22 178.573C29.18 178.573 28.59 177.023 28.59 174.973C28.59 172.253 29.47 170.733 32.34 170.733C32.9447 170.735 33.5488 170.769 34.15 170.833V168.943C34.1507 168.709 34.1037 168.477 34.012 168.261C33.9202 168.046 33.7856 167.851 33.6163 167.689C33.447 167.527 33.2466 167.402 33.0272 167.32C32.8078 167.238 32.574 167.201 32.34 167.213C31.8989 167.196 31.4687 167.352 31.1402 167.647C30.8118 167.941 30.6109 168.352 30.58 168.793H28.72C28.7151 168.312 28.811 167.835 29.0015 167.393C29.192 166.951 29.4728 166.554 29.826 166.227C30.1793 165.9 30.597 165.651 31.0524 165.495C31.5077 165.339 31.9906 165.281 32.47 165.323C35.44 165.323 36.09 167.523 36.09 169.173V178.353H34.15V177.103H34.14ZM34.14 172.263C33.7034 172.191 33.2624 172.147 32.82 172.133C32.4971 172.113 32.1739 172.166 31.8737 172.286C31.5734 172.406 31.3036 172.592 31.0836 172.829C30.8637 173.066 30.6991 173.349 30.6016 173.658C30.5041 173.966 30.4763 174.292 30.52 174.613C30.52 176.423 31.06 176.913 32.17 176.913C32.7265 176.803 33.227 176.502 33.5849 176.062C33.9429 175.622 34.1357 175.07 34.13 174.503V172.263H34.14Z" fill="#00211B"/>
<path d="M39.93 165.543H41.87V166.813C42.1796 166.365 42.5916 165.999 43.0717 165.743C43.5518 165.487 44.0861 165.35 44.63 165.343C46.9 165.343 47.32 167.073 47.32 168.313V175.603C47.32 176.843 46.91 178.573 44.63 178.573C44.0857 178.568 43.5507 178.431 43.0702 178.175C42.5898 177.919 42.1781 177.552 41.87 177.103V183.643H39.93V165.543ZM45.38 174.703V169.223C45.38 168.243 44.99 167.233 43.75 167.233C42.17 167.233 41.86 168.783 41.86 169.583V174.343C41.86 175.143 42.17 176.693 43.75 176.693C44.99 176.693 45.38 175.683 45.38 174.703Z" fill="#00211B"/>
<path d="M53.44 161.633V165.543H55.25V167.093H53.44V174.873C53.3961 175.11 53.4104 175.353 53.4818 175.583C53.5531 175.814 53.6794 176.023 53.8497 176.193C54.02 176.363 54.2292 176.49 54.4593 176.561C54.6893 176.632 54.9332 176.647 55.17 176.603H55.38V178.363H54.81C54.3588 178.468 53.8882 178.458 53.4422 178.332C52.9962 178.207 52.5893 177.97 52.2596 177.644C51.93 177.319 51.6883 176.915 51.5572 176.47C51.4261 176.026 51.4099 175.555 51.51 175.103V167.083H50.14V165.533H51.51V161.623H53.44V161.633Z" fill="#00211B"/>
<path d="M63.72 177.103H63.69C63.3735 177.574 62.9419 177.956 62.4361 178.213C61.9303 178.471 61.3671 178.594 60.8 178.573C58.76 178.573 58.17 177.023 58.17 174.973C58.17 172.253 59.05 170.733 61.92 170.733C62.5247 170.735 63.1288 170.769 63.73 170.833V168.943C63.7307 168.709 63.6837 168.477 63.592 168.261C63.5002 168.046 63.3656 167.851 63.1963 167.689C63.027 167.527 62.8266 167.402 62.6071 167.32C62.3877 167.238 62.154 167.201 61.92 167.213C61.479 167.196 61.0487 167.352 60.7202 167.647C60.3918 167.941 60.1909 168.352 60.16 168.793H58.3C58.2951 168.312 58.391 167.835 58.5815 167.393C58.7719 166.951 59.0528 166.554 59.4061 166.227C59.7593 165.9 60.177 165.651 60.6324 165.495C61.0877 165.339 61.5706 165.281 62.05 165.323C65.02 165.323 65.67 167.523 65.67 169.173V178.353H63.73V177.103H63.72ZM63.72 172.263C63.2834 172.191 62.8424 172.147 62.4 172.133C62.0771 172.113 61.7539 172.166 61.4537 172.286C61.1534 172.406 60.8836 172.592 60.6636 172.829C60.4437 173.066 60.279 173.349 60.1816 173.658C60.0841 173.966 60.0563 174.292 60.1 174.613C60.1 176.423 60.64 176.913 61.75 176.913C62.3065 176.803 62.807 176.502 63.1649 176.062C63.5229 175.622 63.7157 175.07 63.71 174.503V172.263H63.72Z" fill="#00211B"/>
<path d="M71.45 165.543V167.563C72.82 165.703 74.01 165.363 75.01 165.343V167.513H74.6501C73.2301 167.513 71.45 168.083 71.45 170.903V178.373H69.51V165.543H71.45Z" fill="#00211B"/>
<path d="M86.2701 160.633V162.523H84.33V160.633H86.2701ZM84.3401 165.543H86.2801V178.373H84.3401V165.543Z" fill="#00211B"/>
<path d="M90.12 165.543H92.06V166.813C92.3696 166.365 92.7816 165.999 93.2617 165.743C93.7418 165.487 94.2761 165.35 94.82 165.343C97.09 165.343 97.51 167.073 97.51 168.313V178.373H95.57V169.213C95.57 168.233 95.18 167.223 93.94 167.223C92.36 167.223 92.05 168.773 92.05 169.573V178.363H90.11V165.543H90.12Z" fill="#00211B"/>
<path d="M105.11 178.373H103.59L100.23 165.543H102.27L104.41 174.543H104.46L106.55 165.543H108.51L105.11 178.373Z" fill="#00211B"/>
<path d="M116.42 174.773H118.36V174.953C118.398 175.433 118.332 175.915 118.167 176.367C118.003 176.819 117.743 177.231 117.405 177.574C117.068 177.917 116.66 178.184 116.211 178.356C115.762 178.529 115.28 178.602 114.8 178.573C114.302 178.604 113.803 178.529 113.336 178.353C112.869 178.178 112.445 177.905 112.091 177.554C111.736 177.203 111.461 176.78 111.281 176.315C111.102 175.849 111.023 175.351 111.05 174.853V168.903C111.03 168.424 111.11 167.947 111.286 167.501C111.461 167.056 111.728 166.652 112.069 166.316C112.41 165.98 112.818 165.718 113.266 165.549C113.714 165.38 114.192 165.306 114.67 165.333C115.161 165.312 115.651 165.392 116.11 165.569C116.569 165.745 116.987 166.013 117.339 166.357C117.69 166.7 117.967 167.113 118.153 167.568C118.339 168.023 118.43 168.511 118.42 169.003V172.673H113V174.713C113 176.083 113.62 176.683 114.81 176.683C115.95 176.683 116.44 175.983 116.44 174.923V174.773H116.42ZM116.47 171.233V169.033C116.496 168.796 116.47 168.556 116.393 168.33C116.316 168.104 116.191 167.897 116.026 167.725C115.862 167.553 115.661 167.418 115.439 167.331C115.217 167.245 114.978 167.207 114.74 167.223C114.494 167.217 114.251 167.264 114.025 167.361C113.799 167.457 113.596 167.6 113.429 167.781C113.263 167.961 113.137 168.175 113.059 168.408C112.982 168.642 112.955 168.888 112.98 169.133V171.233H116.47Z" fill="#00211B"/>
<path d="M126.99 168.933C126.86 167.483 126.06 167.173 125.26 167.173C124.3 167.173 123.61 167.533 123.61 168.833C123.61 169.843 124.31 170.253 125.13 170.643L126.73 171.423C127.51 171.776 128.146 172.387 128.531 173.152C128.916 173.917 129.027 174.791 128.846 175.629C128.665 176.466 128.202 177.216 127.535 177.753C126.868 178.291 126.037 178.584 125.18 178.583C122.31 178.583 121.49 176.693 121.43 174.913H123.39C123.49 176.283 124.11 176.773 125.12 176.773C125.372 176.807 125.629 176.782 125.87 176.701C126.111 176.619 126.33 176.483 126.51 176.303C126.69 176.123 126.826 175.904 126.908 175.663C126.989 175.422 127.014 175.165 126.98 174.913C126.98 173.953 126.67 173.463 125.35 172.823L123.77 172.043C123.088 171.797 122.508 171.329 122.124 170.715C121.739 170.1 121.572 169.374 121.65 168.653C121.65 166.923 122.79 165.343 125.34 165.343C128.16 165.343 128.85 167.333 128.9 168.933H126.99Z" fill="#00211B"/>
<path d="M134.56 161.633V165.543H136.37V167.093H134.56V174.873C134.516 175.11 134.53 175.353 134.602 175.583C134.673 175.814 134.799 176.023 134.97 176.193C135.14 176.363 135.349 176.49 135.579 176.561C135.809 176.632 136.053 176.647 136.29 176.603H136.5V178.363H135.93C135.479 178.468 135.008 178.458 134.562 178.332C134.116 178.207 133.709 177.97 133.38 177.644C133.05 177.319 132.808 176.915 132.677 176.47C132.546 176.026 132.53 175.555 132.63 175.103V167.083H131.26V165.533H132.63V161.623H134.56V161.633Z" fill="#00211B"/>
<path d="M141.46 160.633V162.523H139.52V160.633H141.46ZM139.52 165.543H141.46V178.373H139.52V165.543Z" fill="#00211B"/>
<path d="M147.24 165.543V166.813C147.542 166.362 147.949 165.993 148.427 165.736C148.905 165.48 149.438 165.345 149.98 165.343C150.5 165.308 151.019 165.429 151.469 165.691C151.92 165.953 152.282 166.344 152.51 166.813C152.808 166.347 153.221 165.966 153.71 165.708C154.2 165.45 154.747 165.325 155.3 165.343C157.08 165.343 157.93 166.563 157.93 168.373V178.383H156V169.223C156 168.113 155.54 167.233 154.37 167.233C153.16 167.233 152.59 168.343 152.59 169.583V178.373H150.65V169.213C150.65 168.413 150.34 167.223 149.05 167.223C147.81 167.223 147.24 168.383 147.24 169.573V178.363H145.3V165.533H147.24V165.543Z" fill="#00211B"/>
<path d="M167.06 174.773H169V174.953C169.038 175.433 168.972 175.915 168.807 176.367C168.643 176.819 168.383 177.231 168.045 177.574C167.708 177.917 167.3 178.184 166.851 178.356C166.402 178.529 165.92 178.602 165.44 178.573C164.942 178.604 164.443 178.529 163.976 178.353C163.509 178.178 163.085 177.905 162.731 177.554C162.376 177.203 162.101 176.78 161.921 176.315C161.742 175.849 161.663 175.351 161.69 174.853V168.903C161.67 168.424 161.75 167.947 161.926 167.501C162.101 167.056 162.368 166.652 162.709 166.316C163.05 165.98 163.458 165.718 163.906 165.549C164.354 165.38 164.832 165.306 165.31 165.333C165.801 165.312 166.291 165.392 166.75 165.569C167.209 165.745 167.627 166.013 167.979 166.357C168.33 166.7 168.607 167.113 168.793 167.568C168.979 168.023 169.07 168.511 169.06 169.003V172.673H163.64V174.713C163.64 176.083 164.26 176.683 165.45 176.683C166.59 176.683 167.08 175.983 167.08 174.923V174.773H167.06ZM167.11 171.233V169.033C167.136 168.796 167.11 168.556 167.033 168.33C166.956 168.104 166.831 167.897 166.666 167.725C166.502 167.553 166.301 167.418 166.079 167.331C165.857 167.245 165.618 167.207 165.38 167.223C165.134 167.217 164.891 167.264 164.665 167.361C164.439 167.457 164.236 167.6 164.069 167.781C163.903 167.961 163.777 168.175 163.699 168.408C163.622 168.642 163.595 168.888 163.62 169.133V171.233H167.11Z" fill="#00211B"/>
<path d="M172.69 165.543H174.63V166.813C174.94 166.365 175.352 165.999 175.832 165.743C176.312 165.487 176.846 165.35 177.39 165.343C179.66 165.343 180.08 167.073 180.08 168.313V178.373H178.14V169.213C178.14 168.233 177.75 167.223 176.51 167.223C174.93 167.223 174.62 168.773 174.62 169.573V178.363H172.68V165.543H172.69Z" fill="#00211B"/>
<path d="M186.2 161.633V165.543H188.01V167.093H186.2V174.873C186.156 175.11 186.17 175.353 186.242 175.583C186.313 175.814 186.439 176.023 186.61 176.193C186.78 176.363 186.989 176.49 187.219 176.561C187.449 176.632 187.693 176.647 187.93 176.603H188.14V178.363H187.57C187.119 178.468 186.648 178.458 186.202 178.332C185.756 178.207 185.349 177.97 185.02 177.644C184.69 177.319 184.448 176.915 184.317 176.47C184.186 176.026 184.17 175.555 184.27 175.103V167.083H182.9V165.533H184.27V161.623H186.2V161.633Z" fill="#00211B"/>
<path d="M191.06 168.953C191.078 167.989 191.473 167.07 192.16 166.393C192.847 165.717 193.771 165.335 194.735 165.331C195.7 165.327 196.627 165.701 197.319 166.372C198.012 167.044 198.414 167.959 198.44 168.923V174.893C198.44 175.872 198.051 176.81 197.359 177.502C196.667 178.194 195.729 178.583 194.75 178.583C193.771 178.583 192.833 178.194 192.141 177.502C191.449 176.81 191.06 175.872 191.06 174.893V168.953ZM196.51 169.323C196.51 167.903 195.71 167.223 194.75 167.223C193.79 167.223 192.99 167.893 192.99 169.323V174.603C192.99 175.943 193.61 176.693 194.75 176.693C195.83 176.693 196.51 175.993 196.51 174.603V169.323Z" fill="#00211B"/>
<path d="M204.36 176.173V178.373H202.14V176.173H204.36Z" fill="#00211B"/>
</svg>
