<svg width="296" height="77" viewBox="0 0 296 77" fill="none" xmlns="http://www.w3.org/2000/svg">
<path d="M3.68002 22.2126V3.16284H0.0300293V0.192871H10.47V3.16284H6.82004V22.2126H3.68002Z" fill="#011C1C"/>
<path d="M12.64 22.2126V0.192871H17.71C21.42 0.192871 23.2734 2.34617 23.27 6.65283C23.3011 7.78579 23.0968 8.91269 22.67 9.96265C22.2293 10.9124 21.4828 11.6872 20.55 12.1628L23.95 22.2126H20.61L17.68 12.8127H15.8V22.2126H12.64ZM15.79 3.17285V10.0327H17.58C18.0346 10.0501 18.4877 9.9718 18.91 9.80273C19.2279 9.66145 19.4962 9.42814 19.68 9.13281C19.8583 8.80015 19.9736 8.43732 20.02 8.06274C20.14 7.08642 20.14 6.09913 20.02 5.1228C19.9684 4.73578 19.8428 4.36222 19.65 4.02271C19.3822 3.70364 19.0387 3.45692 18.6509 3.30493C18.263 3.15294 17.8433 3.10067 17.43 3.15283H15.79V3.17285Z" fill="#011C1C"/>
<path d="M26.57 22.2126V0.192871H35.96V3.16284H29.72V9.6228H35.16V12.5928H29.72V19.0527H35.96V22.2029H26.57V22.2126Z" fill="#011C1C"/>
<path d="M38.86 22.2126V0.192871H42.01V22.2126H38.86Z" fill="#011C1C"/>
<path d="M45.72 22.2126V0.192871H48.75L53.51 13.4626H53.57V0.192871H56.72V22.2126H53.75L48.93 8.98267H48.87V22.2126H45.72Z" fill="#011C1C"/>
<path d="M58.91 22.2126L63.82 0.192871H66.45L71.36 22.2126H68.2101L67.2801 17.4827H62.99L62.06 22.2126H58.91ZM66.69 14.5127L65.15 6.53271H65.09L63.55 14.5127H66.69Z" fill="#011C1C"/>
<path d="M73.67 22.2126V0.192871H76.7L80.75 11.8528H80.81L84.83 0.192871H87.89V22.2126H84.74V8.82275H84.68L81.56 18.2827H79.98L76.89 8.82275H76.83V22.2126H73.67Z" fill="#011C1C"/>
<path d="M91.62 22.2126V0.192871H101.01V3.16284H94.7701V9.6228H100.21V12.5928H94.7701V19.0527H101.01V22.2029H91.62V22.2126Z" fill="#011C1C"/>
<path d="M103.7 22.2126V0.192871H106.73L111.49 13.4626H111.55V0.192871H114.7V22.2126H111.73L106.91 8.98267H106.85V22.2126H103.7Z" fill="#011C1C"/>
<path d="M120.38 22.2126V3.16284H116.73V0.192871H127.17V3.16284H123.52V22.2126H120.38Z" fill="#011C1C"/>
<path d="M128.78 5.39279C128.762 4.58545 128.919 3.7837 129.24 3.04269C129.525 2.39272 129.948 1.81267 130.48 1.34274C130.975 0.912867 131.544 0.577333 132.16 0.35275C133.386 -0.100656 134.734 -0.100656 135.96 0.35275C136.584 0.579268 137.163 0.914428 137.67 1.34274C138.183 1.82239 138.595 2.40051 138.88 3.04269C139.201 3.7837 139.358 4.58545 139.34 5.39279V17.0227C139.364 17.8402 139.207 18.653 138.88 19.4028C138.598 20.0292 138.185 20.5882 137.67 21.0427C136.929 21.6935 136.025 22.1319 135.055 22.3115C134.086 22.491 133.085 22.405 132.16 22.0627C131.538 21.8375 130.967 21.4907 130.48 21.0427C129.953 20.5925 129.529 20.033 129.24 19.4028C128.913 18.653 128.756 17.8402 128.78 17.0227V5.39279ZM131.93 17.0227C131.905 17.3333 131.949 17.6457 132.057 17.9377C132.166 18.2297 132.338 18.4941 132.56 18.7126C132.982 19.0617 133.512 19.2529 134.06 19.2529C134.608 19.2529 135.138 19.0617 135.56 18.7126C135.784 18.4954 135.957 18.231 136.066 17.9387C136.175 17.6464 136.217 17.3335 136.19 17.0227V5.39279C136.215 5.08216 136.171 4.76975 136.063 4.47775C135.954 4.18575 135.782 3.92134 135.56 3.70285C135.138 3.35375 134.608 3.16256 134.06 3.16256C133.512 3.16256 132.982 3.35375 132.56 3.70285C132.336 3.92006 132.163 4.18444 132.054 4.47677C131.945 4.76911 131.903 5.08198 131.93 5.39279V17.0227Z" fill="#011C1C"/>
<path d="M159.42 15.9429V17.3028C159.423 17.966 159.29 18.6228 159.03 19.2327C158.517 20.4486 157.568 21.4292 156.37 21.9827C155.755 22.264 155.086 22.4076 154.41 22.4029C153.795 22.402 153.183 22.3179 152.59 22.1529C151.975 21.9936 151.403 21.6959 150.92 21.2828C150.406 20.8443 149.991 20.3027 149.7 19.6929C149.353 18.9102 149.189 18.0586 149.22 17.2029V5.08283C149.212 4.39522 149.338 3.71263 149.59 3.07282C149.828 2.46716 150.188 1.91686 150.647 1.45587C151.106 0.994885 151.655 0.633082 152.26 0.392886C152.921 0.126691 153.628 -0.00600146 154.34 0.0027494C155.01 -0.0237934 155.678 0.0917158 156.3 0.341617C156.922 0.591517 157.485 0.970352 157.95 1.45294C158.412 1.94235 158.775 2.51607 159.02 3.14289C159.284 3.81811 159.417 4.53765 159.41 5.26276V6.50275H156.26V5.45294C156.27 4.87184 156.083 4.30431 155.73 3.84284C155.566 3.6234 155.351 3.44684 155.104 3.32843C154.856 3.21003 154.584 3.15335 154.31 3.16291C154.007 3.12314 153.7 3.17077 153.423 3.30011C153.147 3.42946 152.913 3.6351 152.75 3.89289C152.47 4.46468 152.336 5.09662 152.36 5.73273V16.9927C152.341 17.5588 152.487 18.1182 152.78 18.6028C152.953 18.8317 153.181 19.0119 153.444 19.1258C153.707 19.2397 153.995 19.2834 154.28 19.2527C154.504 19.2488 154.727 19.2119 154.94 19.1429C155.183 19.0712 155.408 18.9484 155.6 18.7828C155.803 18.5943 155.961 18.3617 156.06 18.1028C156.193 17.7587 156.258 17.3917 156.25 17.0228V15.9429H159.42Z" fill="#011C1C"/>
<path d="M162.57 5.39279C162.552 4.58545 162.709 3.7837 163.03 3.04269C163.315 2.39272 163.738 1.81267 164.27 1.34274C164.765 0.912867 165.334 0.577333 165.95 0.35275C167.176 -0.100656 168.524 -0.100656 169.75 0.35275C170.374 0.579268 170.953 0.914428 171.46 1.34274C171.973 1.82239 172.385 2.40051 172.67 3.04269C172.991 3.7837 173.148 4.58545 173.13 5.39279V17.0227C173.154 17.8402 172.997 18.653 172.67 19.4028C172.388 20.0292 171.975 20.5882 171.46 21.0427C170.719 21.6935 169.815 22.1319 168.845 22.3115C167.876 22.491 166.875 22.405 165.95 22.0627C165.328 21.8375 164.757 21.4907 164.27 21.0427C163.743 20.5925 163.319 20.033 163.03 19.4028C162.703 18.653 162.546 17.8402 162.57 17.0227V5.39279ZM165.72 17.0227C165.695 17.3333 165.739 17.6457 165.847 17.9377C165.956 18.2297 166.128 18.4941 166.35 18.7126C166.772 19.0617 167.302 19.2529 167.85 19.2529C168.398 19.2529 168.928 19.0617 169.35 18.7126C169.574 18.4954 169.747 18.231 169.856 17.9387C169.965 17.6464 170.007 17.3335 169.98 17.0227V5.39279C170.005 5.08216 169.961 4.76975 169.853 4.47775C169.744 4.18575 169.572 3.92134 169.35 3.70285C168.928 3.35375 168.398 3.16256 167.85 3.16256C167.302 3.16256 166.772 3.35375 166.35 3.70285C166.126 3.92006 165.953 4.18444 165.844 4.47677C165.735 4.76911 165.693 5.08198 165.72 5.39279V17.0227Z" fill="#011C1C"/>
<path d="M176.69 22.2126V0.192871H179.72L183.77 11.8528H183.83L187.85 0.192871H190.91V22.2126H187.76V8.82275H187.7L184.58 18.2827H183L179.91 8.82275H179.85V22.2126H176.69Z" fill="#011C1C"/>
<path d="M194.64 22.2127V0.192928H199.37C200.147 0.178074 200.921 0.292829 201.66 0.532772C202.349 0.779227 202.965 1.19535 203.45 1.74273C203.987 2.31378 204.369 3.01258 204.56 3.77276C204.796 4.80208 204.9 5.85733 204.87 6.9129C204.879 7.74941 204.822 8.58534 204.7 9.4129C204.591 10.0961 204.342 10.7495 203.97 11.3328C203.552 12.0382 202.955 12.621 202.24 13.0228C201.359 13.4585 200.382 13.665 199.4 13.6229H197.79V22.2227H194.64V22.2127ZM197.79 3.17291V10.6529H199.3C199.809 10.6809 200.317 10.5848 200.78 10.3729C201.113 10.2054 201.383 9.93545 201.55 9.60284C201.724 9.24673 201.823 8.85856 201.84 8.4627C201.87 8.0127 201.89 7.50293 201.89 6.94293C201.89 6.42293 201.88 5.94271 201.86 5.47271C201.851 5.05118 201.756 4.63598 201.58 4.25274C201.425 3.91388 201.166 3.63371 200.84 3.45294C200.398 3.24021 199.909 3.1438 199.42 3.17291H197.79Z" fill="#011C1C"/>
<path d="M207.98 22.2126V0.192871H211.13V19.0527H217.37V22.2029H207.98V22.2126Z" fill="#011C1C"/>
<path d="M220.18 22.2126V0.192871H229.57V3.16284H223.33V9.6228H228.77V12.5928H223.33V19.0527H229.57V22.2029H220.18V22.2126Z" fill="#011C1C"/>
<path d="M234.45 22.2126V3.16284H230.8V0.192871H241.24V3.16284H237.59V22.2126H234.45Z" fill="#011C1C"/>
<path d="M242.85 5.39279C242.832 4.58545 242.989 3.7837 243.31 3.04269C243.595 2.39272 244.018 1.81267 244.55 1.34274C245.045 0.912867 245.614 0.577333 246.23 0.35275C247.456 -0.100656 248.804 -0.100656 250.03 0.35275C250.654 0.579268 251.233 0.914428 251.74 1.34274C252.253 1.82239 252.665 2.40051 252.95 3.04269C253.271 3.7837 253.428 4.58545 253.41 5.39279V17.0227C253.434 17.8402 253.277 18.653 252.95 19.4028C252.668 20.0292 252.255 20.5882 251.74 21.0427C250.999 21.6935 250.095 22.1319 249.125 22.3115C248.156 22.491 247.155 22.405 246.23 22.0627C245.608 21.8375 245.037 21.4907 244.55 21.0427C244.023 20.5925 243.599 20.033 243.31 19.4028C242.983 18.653 242.826 17.8402 242.85 17.0227V5.39279ZM246 17.0227C245.975 17.3333 246.019 17.6457 246.127 17.9377C246.236 18.2297 246.408 18.4941 246.63 18.7126C247.052 19.0617 247.582 19.2529 248.13 19.2529C248.678 19.2529 249.208 19.0617 249.63 18.7126C249.854 18.4954 250.027 18.231 250.136 17.9387C250.245 17.6464 250.287 17.3335 250.26 17.0227V5.39279C250.285 5.08216 250.241 4.76975 250.133 4.47775C250.024 4.18575 249.852 3.92134 249.63 3.70285C249.208 3.35375 248.678 3.16256 248.13 3.16256C247.582 3.16256 247.052 3.35375 246.63 3.70285C246.406 3.92006 246.233 4.18444 246.124 4.47677C246.015 4.76911 245.973 5.08198 246 5.39279V17.0227Z" fill="#011C1C"/>
<path d="M23.75 44.1829H17.38V42.7427C17.4152 41.4058 17.0571 40.0881 16.35 38.9529C15.9628 38.4053 15.4383 37.9691 14.8293 37.6883C14.2202 37.4074 13.548 37.2917 12.88 37.3528C12.1408 37.3205 11.407 37.4936 10.76 37.8528C10.2363 38.1674 9.78883 38.5943 9.45005 39.1028C9.10954 39.6724 8.87571 40.2994 8.76005 40.9529C8.62972 41.6655 8.5661 42.3885 8.57005 43.1128C8.57005 43.9928 8.60004 44.7228 8.66004 45.3028C8.70994 45.8491 8.86981 46.3798 9.13005 46.8628C9.3959 47.3389 9.76912 47.7463 10.22 48.0528C10.8373 48.4586 11.4981 48.794 12.19 49.0528L17.06 50.9927C18.3035 51.4369 19.4656 52.0823 20.5 52.9029C21.3503 53.5987 22.051 54.4593 22.56 55.4329C23.0412 56.5165 23.3581 57.6657 23.5 58.8428C23.6787 60.2858 23.7622 61.739 23.75 63.1929C23.7619 64.9485 23.5741 66.6998 23.19 68.4129C22.8704 69.888 22.2546 71.2826 21.38 72.5127C20.4811 73.7024 19.2984 74.6478 17.94 75.2627C16.3049 75.9745 14.5326 76.3159 12.75 76.2627C11.2744 76.2753 9.81046 76.0003 8.44004 75.4529C7.15346 74.9424 5.98335 74.1771 5.00004 73.2029C4.0357 72.2399 3.26212 71.1032 2.72004 69.8528C2.15167 68.5403 1.86549 67.1231 1.88005 65.6929V63.3128H8.25004V65.3128C8.23844 66.4504 8.60026 67.5604 9.28004 68.4727C9.70011 68.9723 10.2357 69.362 10.8404 69.6077C11.4451 69.8534 12.1006 69.9478 12.75 69.8829C13.6184 69.9241 14.4844 69.7632 15.28 69.4129C15.8693 69.1114 16.359 68.646 16.69 68.0728C17.041 67.4256 17.2426 66.708 17.28 65.9727C17.34 65.1627 17.37 64.2527 17.37 63.2527C17.3793 62.2913 17.3393 61.3302 17.25 60.3728C17.2021 59.7428 17.0323 59.1281 16.75 58.5628C16.4548 58.1025 16.0579 57.716 15.59 57.4329C14.9746 57.0781 14.3366 56.7639 13.68 56.4927L9.12004 54.6128C6.37004 53.4828 4.5267 51.9929 3.59004 50.1429C2.57943 47.9589 2.09643 45.5679 2.18003 43.1629C2.1714 41.554 2.40398 39.9528 2.87004 38.4129C3.28907 36.9943 3.98968 35.6746 4.93003 34.5328C5.83665 33.429 6.97757 32.541 8.27003 31.9329C9.78997 31.25 11.4443 30.9182 13.11 30.9627C14.6029 30.9429 16.0828 31.2431 17.4501 31.8428C18.7181 32.3983 19.8738 33.1813 20.86 34.1529C21.7705 35.0522 22.4932 36.1236 22.9859 37.3047C23.4786 38.4859 23.7316 39.753 23.7301 41.0328V44.1829H23.75Z" fill="#00AA89"/>
<path d="M30.06 75.9028V31.3628H36.18L44.37 54.9529H44.49L52.61 31.3628H58.8V75.9028H52.43V48.8127H52.31L46 67.9529H42.81L36.56 48.8127H36.44V75.9028H30.06Z" fill="#00AA89"/>
<path d="M63.5 75.9028L73.44 31.3628H78.75L88.69 75.9028H82.32L80.44 66.3328H71.75L69.87 75.9028H63.5ZM79.25 60.3228L76.13 44.1829H76L72.88 60.3228H79.25Z" fill="#00AA89"/>
<path d="M93.37 75.9028V31.3628H103.62C111.12 31.3628 114.87 35.7229 114.87 44.4429C114.933 46.7334 114.517 49.0118 113.65 51.1328C112.763 53.052 111.255 54.6162 109.37 55.5728L116.24 75.9028H109.49L103.55 56.8828H99.74V75.9028H93.37ZM99.74 37.3628V51.2527H103.36C104.28 51.2885 105.197 51.1284 106.05 50.7827C106.689 50.4972 107.231 50.0317 107.61 49.4429C107.97 48.7711 108.204 48.0388 108.3 47.2827C108.432 46.2983 108.495 45.3059 108.49 44.3127C108.501 43.3194 108.437 42.3267 108.3 41.3428C108.2 40.5603 107.945 39.8057 107.55 39.1228C106.76 37.9528 105.26 37.3695 103.05 37.3728H99.74V37.3628Z" fill="#00AA89"/>
<path d="M124.62 75.9028V37.3628H117.25V31.3528H138.37V37.3628H131V75.9028H124.62Z" fill="#00AA89"/>
<path d="M155.93 75.9028V31.3628H162.05L170.24 54.9529H170.36L178.48 31.3628H184.67V75.9028H178.3V48.8127H178.18L171.87 67.9529H168.68L162.43 48.8127H162.31V75.9028H155.93Z" fill="#00AA89"/>
<path d="M191.86 41.8628C191.826 40.2301 192.147 38.6094 192.8 37.1128C193.377 35.8 194.229 34.6268 195.3 33.6729C196.299 32.795 197.456 32.1161 198.71 31.6729C201.187 30.7529 203.913 30.7529 206.39 31.6729C207.655 32.1307 208.83 32.8077 209.86 33.6729C210.897 34.6434 211.727 35.8134 212.3 37.1128C212.948 38.6112 213.268 40.2306 213.24 41.8628V65.3828C213.286 67.0392 212.965 68.6852 212.3 70.2029C211.726 71.4672 210.895 72.5978 209.86 73.5227C208.847 74.4272 207.669 75.1268 206.39 75.5828C203.913 76.5027 201.187 76.5027 198.71 75.5828C197.449 75.1275 196.29 74.4273 195.3 73.5227C194.232 72.6138 193.379 71.4803 192.8 70.2029C192.139 68.6841 191.818 67.0388 191.86 65.3828V41.8628ZM198.23 65.3928C198.178 66.0205 198.266 66.6518 198.487 67.2415C198.709 67.8311 199.058 68.3642 199.51 68.8027C200.363 69.5074 201.434 69.8928 202.54 69.8928C203.646 69.8928 204.718 69.5074 205.57 68.8027C206.022 68.3642 206.371 67.8311 206.593 67.2415C206.814 66.6518 206.902 66.0205 206.85 65.3928V41.8728C206.902 41.2452 206.814 40.6138 206.593 40.0242C206.371 39.4346 206.022 38.9012 205.57 38.4627C204.729 37.738 203.65 37.35 202.54 37.3728C201.431 37.3542 200.353 37.7417 199.51 38.4627C199.058 38.9012 198.709 39.4346 198.487 40.0242C198.266 40.6138 198.178 41.2452 198.23 41.8728V65.3928Z" fill="#00AA89"/>
<path d="M220.17 75.9028V31.3628H226.29L235.91 58.2029H236.03V31.3628H242.4V75.9028H236.4L226.65 49.1228H226.53V75.9028H220.17Z" fill="#00AA89"/>
<path d="M249.73 75.9028V31.3628H268.73V37.3728H256.1V50.4529H267.1V56.4626H256.1V69.5327H268.72V75.9128H249.73V75.9028Z" fill="#00AA89"/>
<path d="M280.35 75.9028V57.0728L271.6 31.3628H278.35L283.47 49.0627H283.59L288.71 31.3628H295.46L286.71 57.0728V75.9028H280.35Z" fill="#00AA89"/>
</svg>
