<svg width="284" height="140" viewBox="0 0 284 140" fill="none" xmlns="http://www.w3.org/2000/svg">
<path d="M7.87003 1.00269V2.73267L3.58005 19.1028H1.67001L5.93002 2.73267H2.16V4.95288H0.480011V0.992676H7.87003V1.00269Z" fill="#00211B"/>
<path d="M23.32 9.67285C23.19 8.22285 22.3901 7.91284 21.5901 7.91284C20.6301 7.91284 19.94 8.27275 19.94 9.57275C19.94 10.5828 20.6401 10.9928 21.4601 11.3828L23.06 12.1628C23.8403 12.5164 24.4759 13.1266 24.8609 13.8918C25.2459 14.6571 25.357 15.5314 25.1758 16.3687C24.9945 17.2059 24.5319 17.9556 23.8648 18.4932C23.1978 19.0307 22.3667 19.3236 21.51 19.3228C18.64 19.3228 17.82 17.4328 17.76 15.6528H19.72C19.82 17.0228 20.44 17.5127 21.45 17.5127C21.7023 17.5467 21.959 17.5221 22.2002 17.4407C22.4413 17.3592 22.6604 17.2232 22.8404 17.0432C23.0203 16.8632 23.1564 16.644 23.2378 16.4028C23.3193 16.1617 23.344 15.9051 23.31 15.6528C23.31 14.6928 23 14.2027 21.68 13.5627L20.1 12.7827C19.4179 12.537 18.838 12.0693 18.4536 11.4546C18.0691 10.8398 17.9024 10.1137 17.98 9.39282C17.98 7.66282 19.12 6.08276 21.67 6.08276C24.49 6.08276 25.18 8.07285 25.23 9.67285H23.32Z" fill="#00211B"/>
<path d="M33.8901 15.5126H35.8301V15.6928C35.8678 16.1727 35.802 16.6549 35.6373 17.1071C35.4725 17.5594 35.2127 17.971 34.8752 18.3142C34.5377 18.6573 34.1305 18.9241 33.681 19.0964C33.2316 19.2687 32.7505 19.3424 32.2701 19.3127C31.7721 19.3436 31.2733 19.2688 30.8063 19.0932C30.3394 18.9176 29.9148 18.6452 29.5607 18.2939C29.2065 17.9425 28.9306 17.5202 28.7513 17.0546C28.5719 16.5891 28.4932 16.0909 28.5201 15.5927V9.64277C28.5001 9.16433 28.5804 8.68693 28.7559 8.24141C28.9314 7.79588 29.1982 7.3921 29.5392 7.05586C29.8801 6.71962 30.2877 6.45832 30.7356 6.28901C31.1835 6.1197 31.662 6.04606 32.1401 6.0727C32.6312 6.05212 33.1214 6.13244 33.5804 6.30854C34.0394 6.48465 34.4574 6.75278 34.8088 7.09663C35.1601 7.44048 35.4373 7.85273 35.6233 8.30781C35.8092 8.76289 35.9001 9.25112 35.8901 9.74263V13.4128H30.47V15.4528C30.47 16.8228 31.0901 17.4228 32.2801 17.4228C33.4201 17.4228 33.91 16.7228 33.91 15.6628V15.5126H33.8901ZM33.9401 11.9726V9.77266C33.9659 9.53552 33.9396 9.29567 33.8629 9.06977C33.7863 8.84388 33.6612 8.63748 33.4963 8.46504C33.3315 8.2926 33.131 8.15826 32.9088 8.07148C32.6866 7.98471 32.4481 7.94749 32.2101 7.9626C31.9645 7.95732 31.7206 8.00434 31.4946 8.10054C31.2685 8.19673 31.0656 8.34007 30.8992 8.5207C30.7327 8.70134 30.6066 8.91528 30.5292 9.14839C30.4517 9.3815 30.4248 9.62843 30.4501 9.87275V11.9726H33.9401Z" fill="#00211B"/>
<path d="M41.4601 6.28263V7.55265C41.7618 7.10226 42.1693 6.73276 42.647 6.47647C43.1247 6.22019 43.6579 6.08499 44.2 6.08268C44.7202 6.0481 45.2388 6.16943 45.6895 6.43131C46.1402 6.69318 46.5025 7.08366 46.73 7.55265C47.0275 7.08659 47.4412 6.70589 47.9304 6.44815C48.4196 6.19042 48.9674 6.06454 49.5201 6.08268C51.3 6.08268 52.1501 7.3027 52.1501 9.1127V19.1227H50.2101V9.96256C50.2101 8.85256 49.75 7.97257 48.58 7.97257C47.37 7.97257 46.8 9.08267 46.8 10.3227V19.1127H44.86V9.95279C44.86 9.15279 44.55 7.96256 43.26 7.96256C42.02 7.96256 41.45 9.12266 41.45 10.3127V19.1027H39.51V6.27262H41.4601V6.28263Z" fill="#00211B"/>
<path d="M61.33 17.8429H61.3C60.9835 18.3139 60.5519 18.6962 60.0461 18.9535C59.5403 19.2107 58.9771 19.3344 58.41 19.3128C56.37 19.3128 55.7801 17.7627 55.7801 15.7127C55.7801 12.9927 56.6601 11.4727 59.5301 11.4727C60.1347 11.4754 60.7388 11.5089 61.3401 11.5728V9.68295C61.3407 9.44875 61.2937 9.21679 61.202 9.00131C61.1102 8.78583 60.9756 8.59111 60.8063 8.42929C60.637 8.26746 60.4365 8.14183 60.2171 8.0599C59.9977 7.97798 59.764 7.94171 59.5301 7.95297C59.089 7.93631 58.6587 8.0917 58.3302 8.38656C58.0018 8.68143 57.8009 9.09249 57.7701 9.5328H55.91C55.9051 9.05159 56.0009 8.57484 56.1914 8.1329C56.3819 7.69096 56.6629 7.29373 57.0161 6.96688C57.3693 6.64004 57.787 6.39064 58.2423 6.23495C58.6977 6.07926 59.1806 6.02066 59.66 6.06283C62.63 6.06283 63.2801 8.26293 63.2801 9.91293V19.0929H61.3401V17.8429H61.33ZM61.33 13.0028C60.8934 12.9305 60.4524 12.8872 60.01 12.8729C59.6871 12.8534 59.3639 12.9056 59.0637 13.026C58.7634 13.1463 58.4936 13.3318 58.2737 13.5689C58.0537 13.8061 57.8891 14.0891 57.7916 14.3975C57.6941 14.706 57.6663 15.0324 57.7101 15.3529C57.7101 17.1629 58.25 17.6529 59.36 17.6529C59.9165 17.5429 60.417 17.2417 60.7749 16.8016C61.1329 16.3615 61.3257 15.81 61.32 15.2428V13.0028H61.33Z" fill="#00211B"/>
<path d="M67.11 6.28271H69.05V7.55273C69.3596 7.10544 69.7716 6.73862 70.2517 6.48291C70.7319 6.2272 71.2661 6.09004 71.81 6.08276C74.08 6.08276 74.5 7.81273 74.5 9.05273V19.1128H72.56V9.95288C72.56 8.97288 72.17 7.96265 70.93 7.96265C69.35 7.96265 69.04 9.51274 69.04 10.3127V19.1028H67.1V6.28271H67.11Z" fill="#00211B"/>
<path d="M83.67 17.8429H83.64C83.3236 18.3139 82.8919 18.6962 82.3861 18.9535C81.8803 19.2107 81.3171 19.3344 80.75 19.3128C78.71 19.3128 78.12 17.7627 78.12 15.7127C78.12 12.9927 79 11.4727 81.87 11.4727C82.4747 11.4754 83.0788 11.5089 83.68 11.5728V9.68295C83.6807 9.44875 83.6337 9.21679 83.542 9.00131C83.4502 8.78583 83.3156 8.59111 83.1463 8.42929C82.977 8.26746 82.7766 8.14183 82.5572 8.0599C82.3378 7.97798 82.104 7.94171 81.87 7.95297C81.4289 7.93631 80.9987 8.0917 80.6702 8.38656C80.3417 8.68143 80.1409 9.09249 80.11 9.5328H78.25C78.2451 9.05159 78.341 8.57484 78.5315 8.1329C78.722 7.69096 79.0028 7.29373 79.356 6.96688C79.7093 6.64004 80.127 6.39064 80.5824 6.23495C81.0377 6.07926 81.5206 6.02066 82 6.06283C84.97 6.06283 85.62 8.26293 85.62 9.91293V19.0929H83.68V17.8429H83.67ZM83.67 13.0028C83.2333 12.9305 82.7924 12.8872 82.35 12.8729C82.0271 12.8534 81.7039 12.9056 81.4037 13.026C81.1034 13.1463 80.8336 13.3318 80.6136 13.5689C80.3936 13.8061 80.229 14.0891 80.1316 14.3975C80.0341 14.706 80.0063 15.0324 80.05 15.3529C80.05 17.1629 80.59 17.6529 81.7 17.6529C82.2565 17.5429 82.757 17.2417 83.115 16.8016C83.4729 16.3615 83.6657 15.81 83.66 15.2428V13.0028H83.67Z" fill="#00211B"/>
<path d="M94.39 9.67285C94.26 8.22285 93.46 7.91284 92.66 7.91284C91.7 7.91284 91.01 8.27275 91.01 9.57275C91.01 10.5828 91.7101 10.9928 92.5301 11.3828L94.13 12.1628C94.9103 12.5164 95.546 13.1266 95.9309 13.8918C96.3159 14.6571 96.427 15.5314 96.2458 16.3687C96.0645 17.2059 95.6018 17.9556 94.9348 18.4932C94.2678 19.0307 93.4367 19.3236 92.58 19.3228C89.71 19.3228 88.89 17.4328 88.83 15.6528H90.79C90.89 17.0228 91.5101 17.5127 92.5201 17.5127C92.7723 17.5467 93.029 17.5221 93.2702 17.4407C93.5113 17.3592 93.7304 17.2232 93.9104 17.0432C94.0904 16.8632 94.2264 16.644 94.3078 16.4028C94.3893 16.1617 94.414 15.9051 94.38 15.6528C94.38 14.6928 94.07 14.2027 92.75 13.5627L91.17 12.7827C90.4879 12.537 89.908 12.0693 89.5236 11.4546C89.1391 10.8398 88.9724 10.1137 89.05 9.39282C89.05 7.66282 90.19 6.08276 92.74 6.08276C95.56 6.08276 96.25 8.07285 96.3 9.67285H94.39Z" fill="#00211B"/>
<path d="M113.74 19.1128H111.8V17.8428C111.49 18.2901 111.078 18.6569 110.598 18.9126C110.118 19.1683 109.584 19.3055 109.04 19.3127C106.77 19.3127 106.35 17.5828 106.35 16.3428V9.05273C106.35 7.81273 106.76 6.08276 109.04 6.08276C109.584 6.08797 110.119 6.22434 110.6 6.48022C111.08 6.73611 111.492 7.10396 111.8 7.55273V1.0127H113.74V19.1128ZM111.8 15.0728V10.3127C111.8 9.51274 111.49 7.96265 109.91 7.96265C108.67 7.96265 108.28 8.97288 108.28 9.95288V15.4329C108.28 16.4129 108.67 17.4229 109.91 17.4229C111.5 17.4329 111.8 15.8828 111.8 15.0728Z" fill="#00211B"/>
<path d="M122.86 15.5126H124.8V15.6928C124.837 16.1734 124.771 16.6563 124.606 17.1091C124.44 17.5618 124.179 17.9739 123.841 18.3171C123.502 18.6603 123.094 18.9268 122.644 19.0986C122.193 19.2704 121.711 19.3434 121.23 19.3127C120.732 19.3436 120.233 19.2688 119.766 19.0932C119.299 18.9176 118.875 18.6452 118.521 18.2939C118.166 17.9425 117.891 17.5202 117.711 17.0546C117.532 16.5891 117.453 16.0909 117.48 15.5927V9.64277C117.46 9.16433 117.54 8.68693 117.716 8.24141C117.891 7.79588 118.158 7.3921 118.499 7.05586C118.84 6.71962 119.248 6.45832 119.696 6.28901C120.144 6.1197 120.622 6.04606 121.1 6.0727C121.591 6.05212 122.081 6.13244 122.54 6.30854C122.999 6.48465 123.417 6.75278 123.769 7.09663C124.12 7.44048 124.397 7.85273 124.583 8.30781C124.769 8.76289 124.86 9.25112 124.85 9.74263V13.4128H119.43V15.4528C119.43 16.8228 120.05 17.4228 121.24 17.4228C122.38 17.4228 122.87 16.7228 122.87 15.6628V15.5126H122.86ZM122.91 11.9726V9.77266C122.936 9.53552 122.91 9.29567 122.833 9.06977C122.756 8.84388 122.631 8.63748 122.466 8.46504C122.302 8.2926 122.101 8.15826 121.879 8.07148C121.657 7.98471 121.418 7.94749 121.18 7.9626C120.934 7.95732 120.691 8.00434 120.465 8.10054C120.239 8.19673 120.036 8.34007 119.869 8.5207C119.703 8.70134 119.577 8.91528 119.499 9.14839C119.422 9.3815 119.395 9.62843 119.42 9.87275V11.9726H122.91Z" fill="#00211B"/>
<path d="M137.1 6.28263V7.55265C137.402 7.10226 137.809 6.73276 138.287 6.47647C138.765 6.22019 139.298 6.08499 139.84 6.08268C140.36 6.0481 140.879 6.16943 141.329 6.43131C141.78 6.69318 142.142 7.08366 142.37 7.55265C142.668 7.08659 143.081 6.70589 143.57 6.44815C144.06 6.19042 144.607 6.06454 145.16 6.08268C146.94 6.08268 147.8 7.3027 147.8 9.1127V19.1227H145.86V9.96256C145.86 8.85256 145.4 7.97257 144.23 7.97257C143.02 7.97257 142.45 9.08267 142.45 10.3227V19.1127H140.51V9.95279C140.51 9.15279 140.2 7.96256 138.91 7.96256C137.67 7.96256 137.1 9.12266 137.1 10.3127V19.1027H135.16V6.27262H137.1V6.28263Z" fill="#00211B"/>
<path d="M156.91 15.5126H158.85V15.6928C158.887 16.1734 158.821 16.6563 158.656 17.1091C158.49 17.5618 158.229 17.9739 157.891 18.3171C157.552 18.6603 157.144 18.9268 156.694 19.0986C156.243 19.2704 155.761 19.3434 155.28 19.3127C154.782 19.3436 154.283 19.2688 153.816 19.0932C153.349 18.9176 152.925 18.6452 152.571 18.2939C152.216 17.9425 151.941 17.5202 151.761 17.0546C151.582 16.5891 151.503 16.0909 151.53 15.5927V9.64277C151.51 9.16433 151.59 8.68693 151.766 8.24141C151.941 7.79588 152.208 7.3921 152.549 7.05586C152.89 6.71962 153.298 6.45832 153.746 6.28901C154.194 6.1197 154.672 6.04606 155.15 6.0727C155.641 6.05212 156.131 6.13244 156.59 6.30854C157.049 6.48465 157.467 6.75278 157.819 7.09663C158.17 7.44048 158.447 7.85273 158.633 8.30781C158.819 8.76289 158.91 9.25112 158.9 9.74263V13.4128H153.48V15.4528C153.48 16.8228 154.1 17.4228 155.29 17.4228C156.43 17.4228 156.92 16.7228 156.92 15.6628V15.5126H156.91ZM156.96 11.9726V9.77266C156.986 9.53552 156.96 9.29567 156.883 9.06977C156.806 8.84388 156.681 8.63748 156.516 8.46504C156.352 8.2926 156.151 8.15826 155.929 8.07148C155.707 7.98471 155.468 7.94749 155.23 7.9626C154.984 7.95732 154.741 8.00434 154.515 8.10054C154.289 8.19673 154.086 8.34007 153.919 8.5207C153.753 8.70134 153.627 8.91528 153.549 9.14839C153.472 9.3815 153.445 9.62843 153.47 9.87275V11.9726H156.96Z" fill="#00211B"/>
<path d="M162.54 6.28271H164.48V7.55273C164.79 7.10544 165.202 6.73862 165.682 6.48291C166.162 6.2272 166.696 6.09004 167.24 6.08276C169.51 6.08276 169.93 7.81273 169.93 9.05273V19.1128H167.99V9.95288C167.99 8.97288 167.6 7.96265 166.36 7.96265C164.78 7.96265 164.47 9.51274 164.47 10.3127V19.1028H162.53V6.28271H162.54Z" fill="#00211B"/>
<path d="M176.05 2.3728V6.28271H177.86V7.83276H176.05V15.6128C176.006 15.8496 176.02 16.0935 176.092 16.3235C176.163 16.5535 176.289 16.7628 176.46 16.9331C176.63 17.1034 176.839 17.2296 177.069 17.301C177.299 17.3724 177.543 17.3867 177.78 17.3428H177.99V19.1028H177.42C176.969 19.2084 176.498 19.1979 176.052 19.0723C175.606 18.9466 175.199 18.7099 174.87 18.3843C174.54 18.0586 174.298 17.6547 174.167 17.2102C174.036 16.7657 174.02 16.2952 174.12 15.8428V7.82275H172.75V6.27271H174.12V2.36279H176.05V2.3728Z" fill="#00211B"/>
<path d="M180.91 9.6929C180.928 8.72881 181.323 7.81011 182.01 7.13333C182.697 6.45655 183.621 6.07524 184.585 6.07132C185.55 6.0674 186.477 6.44116 187.169 7.11234C187.862 7.78351 188.264 8.69896 188.29 9.66287V15.6328C188.29 16.6115 187.901 17.55 187.209 18.242C186.517 18.934 185.579 19.3228 184.6 19.3228C183.621 19.3228 182.683 18.934 181.991 18.242C181.299 17.55 180.91 16.6115 180.91 15.6328V9.6929ZM186.36 10.0628C186.36 8.64277 185.56 7.96268 184.6 7.96268C183.64 7.96268 182.84 8.63277 182.84 10.0628V15.3428C182.84 16.6828 183.46 17.4329 184.6 17.4329C185.68 17.4329 186.36 16.7328 186.36 15.3428V10.0628Z" fill="#00211B"/>
<path d="M193.98 6.28271V8.30273C195.35 6.44273 196.54 6.10276 197.55 6.08276V8.25269H197.19C195.77 8.25269 193.99 8.82282 193.99 11.6428V19.1128H192.05V6.28271H193.98Z" fill="#00211B"/>
<path d="M202.15 1.3728V3.2627H200.21V1.3728H202.15ZM200.21 6.28271H202.15V19.1128H200.21V6.28271Z" fill="#00211B"/>
<path d="M211.32 17.8429H211.29C210.974 18.3139 210.542 18.6962 210.036 18.9535C209.53 19.2107 208.967 19.3344 208.4 19.3128C206.36 19.3128 205.77 17.7627 205.77 15.7127C205.77 12.9927 206.65 11.4727 209.52 11.4727C210.125 11.4754 210.729 11.5089 211.33 11.5728V9.68295C211.331 9.44875 211.284 9.21679 211.192 9.00131C211.1 8.78583 210.966 8.59111 210.796 8.42929C210.627 8.26746 210.427 8.14183 210.207 8.0599C209.988 7.97798 209.754 7.94171 209.52 7.95297C209.079 7.93631 208.649 8.0917 208.32 8.38656C207.992 8.68143 207.791 9.09249 207.76 9.5328H205.9C205.895 9.05159 205.991 8.57484 206.181 8.1329C206.372 7.69096 206.653 7.29373 207.006 6.96688C207.359 6.64004 207.777 6.39064 208.232 6.23495C208.688 6.07926 209.171 6.02066 209.65 6.06283C212.62 6.06283 213.27 8.26293 213.27 9.91293V19.0929H211.33V17.8429H211.32ZM211.32 13.0028C210.883 12.9305 210.442 12.8872 210 12.8729C209.677 12.8534 209.354 12.9056 209.054 13.026C208.753 13.1463 208.484 13.3318 208.264 13.5689C208.044 13.8061 207.879 14.0891 207.781 14.3975C207.684 14.706 207.656 15.0324 207.7 15.3529C207.7 17.1629 208.24 17.6529 209.35 17.6529C209.906 17.5429 210.407 17.2417 210.765 16.8016C211.123 16.3615 211.316 15.81 211.31 15.2428V13.0028H211.32Z" fill="#00211B"/>
<path d="M229.22 15.1828H231.16V15.7029C231.128 16.6849 230.713 17.6154 230.002 18.2942C229.292 18.973 228.343 19.3458 227.361 19.3327C226.378 19.3196 225.44 18.9216 224.748 18.2241C224.056 17.5266 223.665 16.5853 223.66 15.6028V9.78269C223.636 9.28624 223.717 8.79036 223.898 8.32737C224.079 7.86439 224.355 7.44476 224.709 7.09568C225.063 6.7466 225.486 6.47602 225.952 6.30149C226.417 6.12697 226.914 6.0524 227.41 6.08274C227.898 6.04618 228.389 6.11275 228.849 6.27806C229.31 6.44336 229.731 6.70366 230.085 7.04222C230.438 7.38077 230.717 7.78997 230.902 8.24314C231.087 8.69632 231.175 9.1835 231.16 9.67283V10.2427H229.22V10.0627C229.22 8.61272 228.39 7.96263 227.41 7.96263C226.4 7.96263 225.6 8.61272 225.6 10.0627V15.3428C225.6 16.7128 226.22 17.4328 227.41 17.4328C228.55 17.4328 229.22 16.7328 229.22 15.3428V15.1828Z" fill="#00211B"/>
<path d="M234.23 9.6929C234.248 8.72881 234.643 7.81011 235.33 7.13333C236.017 6.45655 236.941 6.07524 237.905 6.07132C238.87 6.0674 239.797 6.44116 240.49 7.11234C241.182 7.78351 241.584 8.69896 241.61 9.66287V15.6328C241.61 16.6115 241.221 17.55 240.529 18.242C239.837 18.934 238.899 19.3228 237.92 19.3228C236.941 19.3228 236.003 18.934 235.311 18.242C234.619 17.55 234.23 16.6115 234.23 15.6328V9.6929ZM239.68 10.0628C239.68 8.64277 238.88 7.96268 237.92 7.96268C236.96 7.96268 236.16 8.63277 236.16 10.0628V15.3428C236.16 16.6828 236.78 17.4329 237.92 17.4329C239 17.4329 239.68 16.7328 239.68 15.3428V10.0628Z" fill="#00211B"/>
<path d="M247.3 6.28263V7.55265C247.602 7.10226 248.009 6.73276 248.487 6.47647C248.965 6.22019 249.498 6.08499 250.04 6.08268C250.56 6.0481 251.079 6.16943 251.529 6.43131C251.98 6.69318 252.342 7.08366 252.57 7.55265C252.867 7.08659 253.281 6.70589 253.77 6.44815C254.26 6.19042 254.807 6.06454 255.36 6.08268C257.14 6.08268 258 7.3027 258 9.1127V19.1227H256.06V9.96256C256.06 8.85256 255.6 7.97257 254.43 7.97257C253.22 7.97257 252.65 9.08267 252.65 10.3227V19.1127H250.71V9.95279C250.71 9.15279 250.4 7.96256 249.11 7.96256C247.87 7.96256 247.3 9.12266 247.3 10.3127V19.1027H245.36V6.27262H247.3V6.28263Z" fill="#00211B"/>
<path d="M0.410004 34.8428C0.410004 31.2228 2.92005 30.7827 4.21005 30.7827C4.71186 30.7404 5.21682 30.8085 5.68942 30.9824C6.16203 31.1563 6.59075 31.4318 6.9454 31.7893C7.30006 32.1468 7.57204 32.5778 7.74216 33.0518C7.91227 33.5257 7.97639 34.0313 7.93002 34.5327V35.7527C7.88094 36.7533 7.61838 37.732 7.16 38.6228L2.51004 47.3628H7.93002V49.1428H0.410004V47.4329L5.11002 38.4329C5.68209 37.4705 5.98595 36.3723 5.99002 35.2527V34.8428C5.99002 33.6828 5.6 32.6728 4.16 32.6728C2.48 32.6728 2.35001 34.1729 2.35001 35.2029V36.1128H0.410004V34.8428Z" fill="#00211B"/>
<path d="M23.66 45.5527H25.6V45.7326C25.6377 46.2125 25.572 46.6949 25.4073 47.1472C25.2425 47.5994 24.9827 48.011 24.6452 48.3542C24.3077 48.6974 23.9005 48.9642 23.451 49.1364C23.0016 49.3087 22.5204 49.3824 22.04 49.3527C21.5421 49.3837 21.0433 49.3089 20.5763 49.1333C20.1093 48.9577 19.6848 48.6853 19.3306 48.3339C18.9764 47.9826 18.7006 47.5602 18.5213 47.0947C18.3419 46.6291 18.2631 46.1309 18.29 45.6328V39.6828C18.27 39.2044 18.3504 38.727 18.5259 38.2814C18.7015 37.8359 18.9682 37.4321 19.3092 37.0959C19.6501 36.7597 20.0577 36.4984 20.5056 36.3291C20.9535 36.1597 21.4319 36.0861 21.91 36.1127C22.4012 36.0922 22.8914 36.1725 23.3504 36.3486C23.8094 36.5247 24.2274 36.7928 24.5788 37.1367C24.9301 37.4805 25.2073 37.8928 25.3933 38.3479C25.5793 38.8029 25.67 39.2912 25.66 39.7827V43.4528H20.24V45.4926C20.24 46.8626 20.86 47.4626 22.05 47.4626C23.19 47.4626 23.68 46.7628 23.68 45.7028V45.5527H23.66ZM23.7101 42.0026V39.8027C23.7359 39.5655 23.7096 39.3257 23.6329 39.0998C23.5563 38.8739 23.4312 38.6675 23.2663 38.4951C23.1015 38.3226 22.901 38.1883 22.6788 38.1015C22.4566 38.0147 22.2181 37.9775 21.98 37.9926C21.7345 37.9873 21.4906 38.0344 21.2646 38.1306C21.0386 38.2268 20.8356 38.3701 20.6691 38.5507C20.5027 38.7314 20.3766 38.9453 20.2991 39.1784C20.2217 39.4115 20.1947 39.6585 20.22 39.9028V42.0026H23.7101Z" fill="#00211B"/>
<path d="M29.29 36.3127H31.23V37.5828C31.5396 37.1355 31.9516 36.7687 32.4317 36.5129C32.9118 36.2572 33.4461 36.1201 33.99 36.1128C36.26 36.1128 36.68 37.8428 36.68 39.0828V49.1428H34.74V39.9827C34.74 39.0027 34.35 37.9927 33.11 37.9927C31.53 37.9927 31.22 39.5428 31.22 40.3428V49.1328H29.2801V36.3127H29.29Z" fill="#00211B"/>
<path d="M45.98 45.2126H47.92V45.7326C47.8884 46.7147 47.4727 47.6452 46.7623 48.324C46.0519 49.0028 45.1034 49.3759 44.1209 49.3628C43.1384 49.3497 42.2003 48.9516 41.5083 48.2541C40.8162 47.5566 40.4254 46.6154 40.42 45.6328V39.8127C40.3963 39.3163 40.4775 38.8204 40.6583 38.3574C40.839 37.8944 41.1153 37.4748 41.4691 37.1257C41.8229 36.7766 42.2463 36.506 42.7116 36.3315C43.177 36.157 43.6739 36.0824 44.17 36.1128C44.6582 36.0762 45.1486 36.1428 45.6095 36.3081C46.0703 36.4734 46.4912 36.7337 46.8449 37.0722C47.1985 37.4108 47.477 37.82 47.6622 38.2732C47.8474 38.7264 47.9353 39.2135 47.92 39.7029V40.2727H45.98V40.0928C45.98 38.6428 45.15 37.9927 44.17 37.9927C43.16 37.9927 42.36 38.6428 42.36 40.0928V45.3728C42.36 46.7428 42.98 47.4626 44.17 47.4626C45.31 47.4626 45.98 46.7628 45.98 45.3728V45.2126Z" fill="#00211B"/>
<path d="M50.99 39.7327C51.0082 38.7686 51.403 37.8499 52.0898 37.1731C52.7767 36.4963 53.7011 36.1153 54.6654 36.1114C55.6296 36.1074 56.5571 36.481 57.2495 37.1521C57.9418 37.8233 58.344 38.739 58.37 39.7029V45.6729C58.37 46.6515 57.9813 47.59 57.2893 48.282C56.5973 48.974 55.6587 49.3628 54.68 49.3628C53.7014 49.3628 52.7628 48.974 52.0708 48.282C51.3788 47.59 50.99 46.6515 50.99 45.6729V39.7327ZM56.44 40.0928C56.44 38.6728 55.64 37.9927 54.68 37.9927C53.72 37.9927 52.92 38.6628 52.92 40.0928V45.3728C52.92 46.7128 53.54 47.4627 54.68 47.4627C55.76 47.4627 56.44 46.7628 56.44 45.3728V40.0928Z" fill="#00211B"/>
<path d="M62.13 36.3127H64.07V37.5828C64.3796 37.1355 64.7916 36.7687 65.2717 36.5129C65.7518 36.2572 66.2861 36.1201 66.83 36.1128C69.1 36.1128 69.5201 37.8428 69.5201 39.0828V49.1428H67.58V39.9827C67.58 39.0027 67.19 37.9927 65.95 37.9927C64.37 37.9927 64.06 39.5428 64.06 40.3428V49.1328H62.12V36.3127H62.13Z" fill="#00211B"/>
<path d="M75.64 32.4128V36.3228H77.45V37.8728H75.64V45.6528C75.5961 45.8896 75.6104 46.1335 75.6817 46.3635C75.7531 46.5936 75.8794 46.8028 76.0497 46.9731C76.22 47.1434 76.4292 47.2697 76.6593 47.3411C76.8893 47.4124 77.1332 47.4268 77.37 47.3828H77.58V49.1428H77.01C76.5589 49.2485 76.0882 49.238 75.6422 49.1123C75.1962 48.9866 74.7893 48.7497 74.4596 48.4241C74.13 48.0984 73.8883 47.6945 73.7572 47.25C73.6261 46.8055 73.6099 46.3353 73.7101 45.8828V37.8628H72.3401V36.3127H73.7101V32.4028H75.64V32.4128Z" fill="#00211B"/>
<path d="M82.5301 36.3127V38.3328C83.9001 36.4728 85.0901 36.1328 86.0901 36.1128V38.2827H85.73C84.31 38.2827 82.5301 38.8529 82.5301 41.6729V49.1428H80.5901V36.3127H82.5301Z" fill="#00211B"/>
<path d="M88.4001 39.7327C88.4182 38.7686 88.8129 37.8499 89.4998 37.1731C90.1866 36.4963 91.1111 36.1153 92.0753 36.1114C93.0396 36.1074 93.9671 36.481 94.6595 37.1521C95.3518 37.8233 95.754 38.739 95.7801 39.7029V45.6729C95.7801 46.6515 95.3913 47.59 94.6992 48.282C94.0072 48.974 93.0687 49.3628 92.0901 49.3628C91.1114 49.3628 90.1728 48.974 89.4808 48.282C88.7888 47.59 88.4001 46.6515 88.4001 45.6729V39.7327ZM93.85 40.0928C93.85 38.6728 93.0501 37.9927 92.0901 37.9927C91.1301 37.9927 90.33 38.6628 90.33 40.0928V45.3728C90.33 46.7128 90.9501 47.4627 92.0901 47.4627C93.1701 47.4627 93.85 46.7628 93.85 45.3728V40.0928Z" fill="#00211B"/>
<path d="M104.47 39.7029C104.34 38.2529 103.54 37.9429 102.74 37.9429C101.78 37.9429 101.09 38.3028 101.09 39.6028C101.09 40.6128 101.79 41.0228 102.61 41.4128L104.21 42.1929C104.99 42.5464 105.626 43.1566 106.011 43.9219C106.396 44.6872 106.507 45.5612 106.326 46.3984C106.145 47.2357 105.682 47.9856 105.015 48.5232C104.348 49.0607 103.517 49.3536 102.66 49.3528C99.79 49.3528 98.97 47.4629 98.91 45.6829H100.87C100.97 47.0529 101.59 47.5427 102.6 47.5427C102.852 47.5767 103.109 47.5522 103.35 47.4707C103.591 47.3892 103.81 47.2532 103.99 47.0732C104.17 46.8933 104.306 46.674 104.388 46.4329C104.469 46.1917 104.494 45.9351 104.46 45.6829C104.46 44.7229 104.15 44.2328 102.83 43.5928L101.25 42.8127C100.568 42.567 99.9881 42.0991 99.6036 41.4844C99.2192 40.8696 99.0524 40.1437 99.13 39.4229C99.13 37.6929 100.27 36.1128 102.82 36.1128C105.64 36.1128 106.33 38.1029 106.38 39.7029H104.47Z" fill="#00211B"/>
<path d="M121.36 39.7029C121.23 38.2529 120.43 37.9429 119.63 37.9429C118.67 37.9429 117.98 38.3028 117.98 39.6028C117.98 40.6128 118.68 41.0228 119.5 41.4128L121.1 42.1929C121.88 42.5464 122.516 43.1566 122.901 43.9219C123.286 44.6872 123.397 45.5612 123.216 46.3984C123.035 47.2357 122.572 47.9856 121.905 48.5232C121.238 49.0607 120.407 49.3536 119.55 49.3528C116.68 49.3528 115.86 47.4629 115.8 45.6829H117.76C117.86 47.0529 118.48 47.5427 119.49 47.5427C119.742 47.5767 119.999 47.5522 120.24 47.4707C120.481 47.3892 120.7 47.2532 120.88 47.0732C121.06 46.8933 121.196 46.674 121.278 46.4329C121.359 46.1917 121.384 45.9351 121.35 45.6829C121.35 44.7229 121.04 44.2328 119.72 43.5928L118.14 42.8127C117.458 42.567 116.878 42.0991 116.494 41.4844C116.109 40.8696 115.942 40.1437 116.02 39.4229C116.02 37.6929 117.16 36.1128 119.71 36.1128C122.53 36.1128 123.22 38.1029 123.27 39.7029H121.36Z" fill="#00211B"/>
<path d="M131.93 45.5527H133.87V45.7326C133.907 46.2132 133.841 46.6964 133.676 47.1491C133.51 47.6019 133.249 48.0139 132.911 48.3571C132.572 48.7004 132.164 48.9668 131.714 49.1386C131.263 49.3104 130.781 49.3834 130.3 49.3527C129.802 49.3837 129.303 49.3089 128.836 49.1333C128.369 48.9577 127.945 48.6853 127.591 48.3339C127.236 47.9826 126.961 47.5602 126.781 47.0947C126.602 46.6291 126.523 46.1309 126.55 45.6328V39.6828C126.53 39.2044 126.61 38.727 126.786 38.2814C126.961 37.8359 127.228 37.4321 127.569 37.0959C127.91 36.7597 128.318 36.4984 128.766 36.3291C129.214 36.1597 129.692 36.0861 130.17 36.1127C130.661 36.0922 131.151 36.1725 131.61 36.3486C132.069 36.5247 132.487 36.7928 132.839 37.1367C133.19 37.4805 133.467 37.8928 133.653 38.3479C133.839 38.8029 133.93 39.2912 133.92 39.7827V43.4528H128.5V45.4926C128.5 46.8626 129.12 47.4626 130.31 47.4626C131.45 47.4626 131.94 46.7628 131.94 45.7028V45.5527H131.93ZM131.98 42.0026V39.8027C132.006 39.5655 131.98 39.3257 131.903 39.0998C131.826 38.8739 131.701 38.6675 131.536 38.4951C131.372 38.3226 131.171 38.1883 130.949 38.1015C130.727 38.0147 130.488 37.9775 130.25 37.9926C130.004 37.9873 129.761 38.0344 129.535 38.1306C129.309 38.2268 129.106 38.3701 128.939 38.5507C128.773 38.7314 128.647 38.9453 128.569 39.1784C128.492 39.4115 128.465 39.6585 128.49 39.9028V42.0026H131.98Z" fill="#00211B"/>
<path d="M139.5 36.3127V37.5827C139.802 37.1323 140.209 36.7628 140.687 36.5065C141.165 36.2502 141.698 36.115 142.24 36.1127C142.76 36.0781 143.279 36.1995 143.729 36.4613C144.18 36.7232 144.543 37.1137 144.77 37.5827C145.068 37.1166 145.481 36.7359 145.97 36.4782C146.46 36.2204 147.007 36.0946 147.56 36.1127C149.34 36.1127 150.2 37.3327 150.2 39.1427V49.1527H148.26V39.9926C148.26 38.8826 147.8 38.0026 146.63 38.0026C145.42 38.0026 144.85 39.1127 144.85 40.3527V49.1427H142.91V39.9826C142.91 39.1826 142.6 37.9926 141.31 37.9926C140.07 37.9926 139.5 39.1527 139.5 40.3427V49.1327H137.56V36.3026H139.5V36.3127Z" fill="#00211B"/>
<path d="M159.36 47.8729H159.33C159.014 48.3439 158.582 48.7262 158.076 48.9835C157.57 49.2408 157.007 49.3645 156.44 49.3429C154.4 49.3429 153.81 47.7928 153.81 45.7428C153.81 43.0228 154.69 41.5028 157.56 41.5028C158.165 41.5054 158.769 41.5389 159.37 41.6029V39.7127C159.371 39.4785 159.324 39.2468 159.232 39.0313C159.14 38.8159 159.006 38.6211 158.836 38.4593C158.667 38.2975 158.467 38.1719 158.247 38.0899C158.028 38.008 157.794 37.9715 157.56 37.9828C157.119 37.9661 156.689 38.1217 156.36 38.4166C156.032 38.7115 155.831 39.1225 155.8 39.5628H153.94C153.935 39.0816 154.031 38.6046 154.221 38.1627C154.412 37.7207 154.693 37.3238 155.046 36.9969C155.399 36.6701 155.817 36.4207 156.272 36.265C156.728 36.1093 157.211 36.0507 157.69 36.0929C160.66 36.0929 161.31 38.293 161.31 39.943V49.1229H159.37V47.8729H159.36ZM159.36 43.0428C158.923 42.9706 158.482 42.9272 158.04 42.9129C157.717 42.8934 157.394 42.9456 157.094 43.066C156.793 43.1864 156.524 43.3718 156.304 43.609C156.084 43.8462 155.919 44.1291 155.822 44.4376C155.724 44.746 155.696 45.0724 155.74 45.3929C155.74 47.2029 156.28 47.693 157.39 47.693C157.947 47.5829 158.447 47.2817 158.805 46.8416C159.163 46.4015 159.356 45.85 159.35 45.2828V43.0428H159.36Z" fill="#00211B"/>
<path d="M165.15 36.3127H167.09V37.5828C167.4 37.1355 167.812 36.7687 168.292 36.5129C168.772 36.2572 169.306 36.1201 169.85 36.1128C172.12 36.1128 172.54 37.8428 172.54 39.0828V49.1428H170.6V39.9827C170.6 39.0027 170.21 37.9927 168.97 37.9927C167.39 37.9927 167.08 39.5428 167.08 40.3428V49.1328H165.14V36.3127H165.15Z" fill="#00211B"/>
<path d="M181.71 47.8729H181.68C181.364 48.3439 180.932 48.7262 180.426 48.9835C179.92 49.2408 179.357 49.3645 178.79 49.3429C176.75 49.3429 176.16 47.7928 176.16 45.7428C176.16 43.0228 177.04 41.5028 179.91 41.5028C180.515 41.5054 181.119 41.5389 181.72 41.6029V39.7127C181.721 39.4785 181.674 39.2468 181.582 39.0313C181.49 38.8159 181.356 38.6211 181.186 38.4593C181.017 38.2975 180.817 38.1719 180.597 38.0899C180.378 38.008 180.144 37.9715 179.91 37.9828C179.469 37.9661 179.039 38.1217 178.71 38.4166C178.382 38.7115 178.181 39.1225 178.15 39.5628H176.29C176.285 39.0816 176.381 38.6046 176.571 38.1627C176.762 37.7207 177.043 37.3238 177.396 36.9969C177.749 36.6701 178.167 36.4207 178.622 36.265C179.078 36.1093 179.561 36.0507 180.04 36.0929C183.01 36.0929 183.66 38.293 183.66 39.943V49.1229H181.72V47.8729H181.71ZM181.71 43.0428C181.273 42.9706 180.832 42.9272 180.39 42.9129C180.067 42.8934 179.744 42.9456 179.444 43.066C179.143 43.1864 178.874 43.3718 178.654 43.609C178.434 43.8462 178.269 44.1291 178.172 44.4376C178.074 44.746 178.046 45.0724 178.09 45.3929C178.09 47.2029 178.63 47.693 179.74 47.693C180.297 47.5829 180.797 47.2817 181.155 46.8416C181.513 46.4015 181.706 45.85 181.7 45.2828V43.0428H181.71Z" fill="#00211B"/>
<path d="M189.44 31.4028V33.2927H187.5V31.4028H189.44ZM187.5 36.3127H189.44V49.1428H187.5V36.3127Z" fill="#00211B"/>
<path d="M198.22 39.7029C198.09 38.2529 197.29 37.9429 196.49 37.9429C195.53 37.9429 194.84 38.3028 194.84 39.6028C194.84 40.6128 195.54 41.0228 196.36 41.4128L197.96 42.1929C198.74 42.5464 199.376 43.1566 199.761 43.9219C200.146 44.6872 200.257 45.5612 200.076 46.3984C199.895 47.2357 199.432 47.9856 198.765 48.5232C198.098 49.0607 197.267 49.3536 196.41 49.3528C193.54 49.3528 192.72 47.4629 192.66 45.6829H194.62C194.72 47.0529 195.34 47.5427 196.35 47.5427C196.602 47.5767 196.859 47.5522 197.1 47.4707C197.341 47.3892 197.56 47.2532 197.74 47.0732C197.92 46.8933 198.056 46.674 198.138 46.4329C198.219 46.1917 198.244 45.9351 198.21 45.6829C198.21 44.7229 197.9 44.2328 196.58 43.5928L195 42.8127C194.318 42.567 193.738 42.0991 193.354 41.4844C192.969 40.8696 192.802 40.1437 192.88 39.4229C192.88 37.6929 194.02 36.1128 196.57 36.1128C199.39 36.1128 200.08 38.1029 200.14 39.7029H198.22Z" fill="#00211B"/>
<path d="M205.69 46.9429V49.3728L203.47 51.3628V46.9429H205.69Z" fill="#00211B"/>
<path d="M221.34 39.7029C221.21 38.2529 220.41 37.9429 219.61 37.9429C218.65 37.9429 217.96 38.3028 217.96 39.6028C217.96 40.6128 218.66 41.0228 219.48 41.4128L221.08 42.1929C221.86 42.5464 222.496 43.1566 222.881 43.9219C223.266 44.6872 223.377 45.5612 223.196 46.3984C223.015 47.2357 222.552 47.9856 221.885 48.5232C221.218 49.0607 220.387 49.3536 219.53 49.3528C216.66 49.3528 215.84 47.4629 215.78 45.6829H217.74C217.84 47.0529 218.46 47.5427 219.47 47.5427C219.722 47.5767 219.979 47.5522 220.22 47.4707C220.461 47.3892 220.68 47.2532 220.86 47.0732C221.04 46.8933 221.176 46.674 221.258 46.4329C221.339 46.1917 221.364 45.9351 221.33 45.6829C221.33 44.7229 221.02 44.2328 219.7 43.5928L218.12 42.8127C217.438 42.567 216.858 42.0991 216.474 41.4844C216.089 40.8696 215.922 40.1437 216 39.4229C216 37.6929 217.14 36.1128 219.69 36.1128C222.51 36.1128 223.2 38.1029 223.26 39.7029H221.34Z" fill="#00211B"/>
<path d="M231.91 45.5527H233.85V45.7326C233.887 46.2132 233.821 46.6964 233.656 47.1491C233.49 47.6019 233.229 48.0139 232.891 48.3571C232.552 48.7004 232.144 48.9668 231.694 49.1386C231.243 49.3104 230.761 49.3834 230.28 49.3527C229.782 49.3837 229.283 49.3089 228.816 49.1333C228.349 48.9577 227.925 48.6853 227.571 48.3339C227.216 47.9826 226.941 47.5602 226.761 47.0947C226.582 46.6291 226.503 46.1309 226.53 45.6328V39.6828C226.51 39.2044 226.59 38.727 226.766 38.2814C226.941 37.8359 227.208 37.4321 227.549 37.0959C227.89 36.7597 228.298 36.4984 228.746 36.3291C229.194 36.1597 229.672 36.0861 230.15 36.1127C230.641 36.0922 231.131 36.1725 231.59 36.3486C232.049 36.5247 232.467 36.7928 232.819 37.1367C233.17 37.4805 233.447 37.8928 233.633 38.3479C233.819 38.8029 233.91 39.2912 233.9 39.7827V43.4528H228.48V45.4926C228.48 46.8626 229.1 47.4626 230.29 47.4626C231.43 47.4626 231.92 46.7628 231.92 45.7028V45.5527H231.91ZM231.96 42.0026V39.8027C231.986 39.5655 231.96 39.3257 231.883 39.0998C231.806 38.8739 231.681 38.6675 231.516 38.4951C231.352 38.3226 231.151 38.1883 230.929 38.1015C230.707 38.0147 230.468 37.9775 230.23 37.9926C229.984 37.9873 229.741 38.0344 229.515 38.1306C229.289 38.2268 229.086 38.3701 228.919 38.5507C228.753 38.7314 228.627 38.9453 228.549 39.1784C228.472 39.4115 228.445 39.6585 228.47 39.9028V42.0026H231.96Z" fill="#00211B"/>
<path d="M237.54 36.3127H239.48V37.5828C239.79 37.1355 240.202 36.7687 240.682 36.5129C241.162 36.2572 241.696 36.1201 242.24 36.1128C244.51 36.1128 244.93 37.8428 244.93 39.0828V49.1428H242.99V39.9827C242.99 39.0027 242.6 37.9927 241.36 37.9927C239.78 37.9927 239.47 39.5428 239.47 40.3428V49.1328H237.53V36.3127H237.54Z" fill="#00211B"/>
<path d="M256.16 49.1428H254.22V47.8728C253.91 48.3201 253.498 48.6869 253.018 48.9426C252.538 49.1983 252.004 49.3355 251.46 49.3428C249.19 49.3428 248.77 47.6128 248.77 46.3728V39.0828C248.77 37.8428 249.18 36.1128 251.46 36.1128C252.004 36.118 252.539 36.2544 253.02 36.5103C253.5 36.7661 253.912 37.134 254.22 37.5828V31.0427H256.16V49.1428ZM254.23 45.1128V40.3528C254.23 39.5528 253.92 38.0027 252.34 38.0027C251.1 38.0027 250.71 39.0127 250.71 39.9927V45.4727C250.71 46.4527 251.1 47.4626 252.34 47.4626C253.92 47.4626 254.23 45.9128 254.23 45.1128Z" fill="#00211B"/>
<path d="M259.91 39.7327C259.928 38.7686 260.323 37.8499 261.01 37.1731C261.697 36.4963 262.621 36.1153 263.585 36.1114C264.55 36.1074 265.477 36.481 266.169 37.1521C266.862 37.8233 267.264 38.739 267.29 39.7029V45.6729C267.29 46.6515 266.901 47.59 266.209 48.282C265.517 48.974 264.579 49.3628 263.6 49.3628C262.621 49.3628 261.683 48.974 260.991 48.282C260.299 47.59 259.91 46.6515 259.91 45.6729V39.7327ZM265.36 40.0928C265.36 38.6728 264.56 37.9927 263.6 37.9927C262.64 37.9927 261.84 38.6628 261.84 40.0928V45.3728C261.84 46.7128 262.46 47.4627 263.6 47.4627C264.68 47.4627 265.36 46.7628 265.36 45.3728V40.0928Z" fill="#00211B"/>
<path d="M281.12 33.0527L278.2 34.8928V33.0527L281.17 31.0327H283.06V49.1328H281.12V33.0527Z" fill="#00211B"/>
<path d="M5.76007 75.5827H7.70007V75.7626C7.73777 76.2425 7.67199 76.725 7.50726 77.1772C7.34253 77.6294 7.08266 78.0411 6.74517 78.3842C6.40769 78.7274 6.00045 78.9939 5.55102 79.1662C5.10159 79.3385 4.62047 79.4124 4.14007 79.3828C3.64214 79.4137 3.14329 79.3389 2.67633 79.1633C2.20936 78.9877 1.78484 78.7153 1.43066 78.364C1.07647 78.0126 0.800616 77.5902 0.621272 77.1247C0.441928 76.6592 0.363151 76.161 0.390071 75.6628V69.7126C0.370074 69.2342 0.45039 68.757 0.625911 68.3115C0.801432 67.8659 1.06829 67.4619 1.40924 67.1257C1.75018 66.7894 2.15772 66.5284 2.60565 66.3591C3.05357 66.1898 3.53195 66.1161 4.01007 66.1428C4.50124 66.1222 4.99145 66.2023 5.45043 66.3784C5.90942 66.5545 6.32742 66.8228 6.67877 67.1667C7.03012 67.5106 7.30732 67.9228 7.49328 68.3779C7.67924 68.833 7.77006 69.3212 7.76007 69.8127V73.4826H2.34008V75.5227C2.34008 76.8927 2.96008 77.4926 4.15008 77.4926C5.29008 77.4926 5.78009 76.7926 5.78009 75.7326V75.5827H5.76007ZM5.81005 72.0427V69.8427C5.8359 69.6056 5.80961 69.3657 5.73297 69.1398C5.65632 68.914 5.53115 68.7075 5.36633 68.5351C5.20151 68.3627 5.001 68.2283 4.7788 68.1416C4.5566 68.0548 4.31814 68.0176 4.08007 68.0327C3.8345 68.0274 3.59057 68.0744 3.36456 68.1706C3.13854 68.2668 2.93561 68.4099 2.76916 68.5905C2.60271 68.7712 2.47659 68.9853 2.39917 69.2185C2.32174 69.4516 2.29476 69.6985 2.32006 69.9428V72.0427H5.81005Z" fill="#00211B"/>
<path d="M11.39 66.3528H13.33V67.6228C13.6396 67.1755 14.0516 66.8087 14.5317 66.553C15.0118 66.2973 15.5461 66.1601 16.0901 66.1528C18.3601 66.1528 18.7801 67.8828 18.7801 69.1228V79.1829H16.8401V70.0227C16.8401 69.0427 16.4501 68.0327 15.2101 68.0327C13.6301 68.0327 13.32 69.5828 13.32 70.3828V79.1729H11.38V66.3528H11.39Z" fill="#00211B"/>
<path d="M28.08 75.2427H30.02V75.7627C29.9884 76.7447 29.5727 77.6752 28.8623 78.354C28.1518 79.0328 27.2035 79.4059 26.221 79.3928C25.2385 79.3797 24.3004 78.9814 23.6083 78.2839C22.9162 77.5864 22.5255 76.6454 22.52 75.6628V69.8428C22.4964 69.3463 22.5775 68.8504 22.7583 68.3874C22.939 67.9244 23.2153 67.5048 23.5691 67.1557C23.9229 66.8067 24.3463 66.5361 24.8117 66.3616C25.277 66.187 25.774 66.1125 26.27 66.1428C26.7582 66.1062 27.2487 66.1728 27.7095 66.3381C28.1703 66.5034 28.5912 66.7637 28.9448 67.1023C29.2985 67.4408 29.5769 67.85 29.7622 68.3032C29.9474 68.7564 30.0353 69.2433 30.02 69.7326V70.3027H28.08V70.1228C28.08 68.6728 27.25 68.0227 26.27 68.0227C25.26 68.0227 24.46 68.6728 24.46 70.1228V75.4028C24.46 76.7728 25.08 77.4927 26.27 77.4927C27.41 77.4927 28.08 76.7928 28.08 75.4028V75.2427Z" fill="#00211B"/>
<path d="M33.0901 69.7627C33.1082 68.7986 33.5029 67.8799 34.1898 67.2032C34.8767 66.5264 35.8011 66.1453 36.7654 66.1414C37.7296 66.1375 38.6571 66.511 39.3495 67.1822C40.0418 67.8533 40.444 68.7688 40.47 69.7327V75.7029C40.47 76.6816 40.0813 77.62 39.3893 78.312C38.6972 79.0041 37.7587 79.3929 36.7801 79.3929C35.8014 79.3929 34.8628 79.0041 34.1708 78.312C33.4788 77.62 33.0901 76.6816 33.0901 75.7029V69.7627ZM38.54 70.1228C38.54 68.7028 37.7401 68.0227 36.7801 68.0227C35.8201 68.0227 35.0201 68.6928 35.0201 70.1228V75.4029C35.0201 76.7429 35.6401 77.4927 36.7801 77.4927C37.8601 77.4927 38.54 76.7929 38.54 75.4029V70.1228Z" fill="#00211B"/>
<path d="M44.22 66.3528H46.16V67.6228C46.4696 67.1755 46.8816 66.8087 47.3617 66.553C47.8418 66.2973 48.3761 66.1601 48.92 66.1528C51.19 66.1528 51.61 67.8828 51.61 69.1228V79.1829H49.67V70.0227C49.67 69.0427 49.28 68.0327 48.04 68.0327C46.46 68.0327 46.1501 69.5828 46.1501 70.3828V79.1729H44.2101V66.3528H44.22Z" fill="#00211B"/>
<path d="M57.73 62.4429V66.3528H59.54V67.9028H57.73V75.6829C57.686 75.9197 57.7004 76.1635 57.7718 76.3936C57.8431 76.6236 57.9694 76.8329 58.1397 77.0032C58.31 77.1735 58.5192 77.2997 58.7492 77.3711C58.9793 77.4425 59.2233 77.4568 59.4601 77.4128H59.67V79.1729H59.1C58.6488 79.2785 58.1782 79.268 57.7322 79.1423C57.2862 79.0167 56.8793 78.7798 56.5497 78.4541C56.22 78.1284 55.9783 77.7245 55.8472 77.28C55.7161 76.8356 55.6999 76.3653 55.8 75.9128V67.8928H54.43V66.3428H55.8V62.4329H57.73V62.4429Z" fill="#00211B"/>
<path d="M64.63 66.3528V68.3728C66 66.5128 67.19 66.1728 68.19 66.1528V68.3228H67.83C66.41 68.3228 64.63 68.8926 64.63 71.7126V79.1829H62.69V66.3528H64.63Z" fill="#00211B"/>
<path d="M70.5 69.7627C70.5182 68.7986 70.913 67.8799 71.5998 67.2032C72.2867 66.5264 73.2111 66.1453 74.1754 66.1414C75.1396 66.1375 76.0672 66.511 76.7595 67.1822C77.4518 67.8533 77.854 68.7688 77.88 69.7327V75.7029C77.88 76.6816 77.4912 77.62 76.7992 78.312C76.1072 79.0041 75.1687 79.3929 74.19 79.3929C73.2114 79.3929 72.2728 79.0041 71.5808 78.312C70.8888 77.62 70.5 76.6816 70.5 75.7029V69.7627ZM75.95 70.1228C75.95 68.7028 75.15 68.0227 74.19 68.0227C73.23 68.0227 72.43 68.6928 72.43 70.1228V75.4029C72.43 76.7429 73.05 77.4927 74.19 77.4927C75.27 77.4927 75.95 76.7929 75.95 75.4029V70.1228Z" fill="#00211B"/>
<path d="M93.75 75.2427H95.69V75.7627C95.6584 76.7447 95.2427 77.6752 94.5322 78.354C93.8218 79.0328 92.8734 79.4059 91.891 79.3928C90.9085 79.3797 89.9704 78.9814 89.2783 78.2839C88.5862 77.5864 88.1955 76.6454 88.19 75.6628V69.8428C88.1663 69.3463 88.2475 68.8504 88.4282 68.3874C88.609 67.9244 88.8853 67.5048 89.2391 67.1557C89.5929 66.8067 90.0163 66.5361 90.4817 66.3616C90.947 66.187 91.4439 66.1125 91.94 66.1428C92.4282 66.1062 92.9187 66.1728 93.3795 66.3381C93.8403 66.5034 94.2612 66.7637 94.6148 67.1023C94.9685 67.4408 95.247 67.85 95.4322 68.3032C95.6174 68.7564 95.7053 69.2433 95.69 69.7326V70.3027H93.75V70.1228C93.75 68.6728 92.92 68.0227 91.94 68.0227C90.93 68.0227 90.13 68.6728 90.13 70.1228V75.4028C90.13 76.7728 90.75 77.4927 91.94 77.4927C93.08 77.4927 93.75 76.7928 93.75 75.4028V75.2427Z" fill="#00211B"/>
<path d="M98.76 69.7627C98.7782 68.7986 99.173 67.8799 99.8598 67.2032C100.547 66.5264 101.471 66.1453 102.435 66.1414C103.4 66.1375 104.327 66.511 105.02 67.1822C105.712 67.8533 106.114 68.7688 106.14 69.7327V75.7029C106.14 76.6816 105.751 77.62 105.059 78.312C104.367 79.0041 103.429 79.3929 102.45 79.3929C101.471 79.3929 100.533 79.0041 99.8408 78.312C99.1488 77.62 98.76 76.6816 98.76 75.7029V69.7627ZM104.21 70.1228C104.21 68.7028 103.41 68.0227 102.45 68.0227C101.49 68.0227 100.69 68.6928 100.69 70.1228V75.4029C100.69 76.7429 101.31 77.4927 102.45 77.4927C103.53 77.4927 104.21 76.7929 104.21 75.4029V70.1228Z" fill="#00211B"/>
<path d="M111.83 66.3527V67.6227C112.132 67.1723 112.539 66.8028 113.017 66.5465C113.495 66.2903 114.028 66.1551 114.57 66.1527C115.09 66.1182 115.609 66.2395 116.059 66.5014C116.51 66.7633 116.872 67.1537 117.1 67.6227C117.398 67.1567 117.811 66.776 118.3 66.5182C118.79 66.2605 119.337 66.1346 119.89 66.1527C121.67 66.1527 122.52 67.3728 122.52 69.1828V79.1928H120.58V70.0326C120.58 68.9226 120.12 68.0426 118.95 68.0426C117.74 68.0426 117.17 69.1527 117.17 70.3927V79.1828H115.23V70.0226C115.23 69.2226 114.92 68.0326 113.63 68.0326C112.39 68.0326 111.82 69.1927 111.82 70.3827V79.1728H109.88V66.3427H111.83V66.3527Z" fill="#00211B"/>
<path d="M132.81 76.8228C133.028 77.0622 133.296 77.2508 133.595 77.3752C133.894 77.4997 134.216 77.5568 134.54 77.5427C135.175 77.5638 135.793 77.3422 136.27 76.9229C136.514 76.6722 136.7 76.3713 136.815 76.0415C136.931 75.7117 136.974 75.3606 136.94 75.0127V61.0728H138.88V74.6028C138.959 75.2845 138.884 75.9753 138.661 76.6243C138.438 77.2733 138.072 77.864 137.59 78.3528C136.757 79.1045 135.661 79.4964 134.54 79.4429C133.966 79.4742 133.392 79.3814 132.857 79.1709C132.322 78.9604 131.839 78.6368 131.44 78.2227L132.81 76.8228Z" fill="#00211B"/>
<path d="M142.78 69.7627C142.798 68.7986 143.193 67.8799 143.88 67.2032C144.567 66.5264 145.491 66.1453 146.455 66.1414C147.42 66.1375 148.347 66.511 149.039 67.1822C149.732 67.8533 150.134 68.7688 150.16 69.7327V75.7029C150.16 76.6816 149.771 77.62 149.079 78.312C148.387 79.0041 147.449 79.3929 146.47 79.3929C145.491 79.3929 144.553 79.0041 143.861 78.312C143.169 77.62 142.78 76.6816 142.78 75.7029V69.7627ZM148.23 70.1228C148.23 68.7028 147.43 68.0227 146.47 68.0227C145.51 68.0227 144.71 68.6928 144.71 70.1228V75.4029C144.71 76.7429 145.33 77.4927 146.47 77.4927C147.55 77.4927 148.23 76.7929 148.23 75.4029V70.1228Z" fill="#00211B"/>
<path d="M159.24 77.9128H159.21C158.894 78.3839 158.462 78.7662 157.956 79.0234C157.45 79.2807 156.887 79.4044 156.32 79.3828C154.28 79.3828 153.69 77.8327 153.69 75.7827C153.69 73.0627 154.57 71.5427 157.44 71.5427C158.045 71.5454 158.649 71.5788 159.25 71.6428V69.7527C159.251 69.5185 159.204 69.2868 159.112 69.0713C159.02 68.8558 158.886 68.6611 158.716 68.4993C158.547 68.3374 158.347 68.2118 158.127 68.1299C157.908 68.048 157.674 68.0114 157.44 68.0227C156.999 68.006 156.569 68.1617 156.24 68.4565C155.912 68.7514 155.711 69.1625 155.68 69.6028H153.82C153.815 69.1216 153.911 68.6446 154.101 68.2026C154.292 67.7607 154.573 67.3635 154.926 67.0366C155.279 66.7098 155.697 66.4606 156.152 66.3049C156.608 66.1492 157.091 66.0906 157.57 66.1328C160.54 66.1328 161.19 68.3327 161.19 69.9827V79.1628H159.25V77.9128H159.24ZM154.51 64.0427C154.51 62.9327 155.05 61.5327 156.29 61.5327C156.676 61.5424 157.055 61.6381 157.4 61.8127L157.89 62.0427C158.137 62.1725 158.411 62.2442 158.69 62.2527C159.03 62.2527 159.36 62.0227 159.47 61.2727H160.63C160.63 62.9027 159.75 63.7827 158.9 63.7827C158.499 63.7624 158.106 63.6674 157.74 63.5027L157.22 63.2727C156.987 63.1569 156.73 63.0954 156.47 63.0928C156.16 63.0928 155.77 63.3228 155.69 64.0728H154.5V64.0427H154.51ZM159.24 73.0728C158.803 73.0005 158.362 72.9572 157.92 72.9429C157.597 72.9233 157.274 72.9756 156.974 73.0959C156.673 73.2163 156.404 73.4017 156.184 73.6389C155.964 73.8761 155.799 74.1591 155.702 74.4675C155.604 74.776 155.576 75.1023 155.62 75.4229C155.62 77.2329 156.16 77.7227 157.27 77.7227C157.827 77.6126 158.327 77.3117 158.685 76.8716C159.043 76.4315 159.236 75.88 159.23 75.3127V73.0728H159.24Z" fill="#00211B"/>
<path d="M164.92 69.7627C164.938 68.7986 165.333 67.8799 166.02 67.2032C166.707 66.5264 167.631 66.1453 168.595 66.1414C169.56 66.1375 170.487 66.511 171.179 67.1822C171.872 67.8533 172.274 68.7688 172.3 69.7327V75.7029C172.3 76.6816 171.911 77.62 171.219 78.312C170.527 79.0041 169.589 79.3929 168.61 79.3929C167.631 79.3929 166.693 79.0041 166.001 78.312C165.309 77.62 164.92 76.6816 164.92 75.7029V69.7627ZM170.37 70.1228C170.37 68.7028 169.57 68.0227 168.61 68.0227C167.65 68.0227 166.85 68.6928 166.85 70.1228V75.4029C166.85 76.7429 167.47 77.4927 168.61 77.4927C169.69 77.4927 170.37 76.7929 170.37 75.4029V70.1228Z" fill="#00211B"/>
<path d="M184.81 61.0728V70.6929L189.69 61.0728H191.65L187.96 68.2927L192.4 79.1829H190.31L186.77 70.1528L184.81 73.9827V79.1829H182.87V61.0828H184.81V61.0728Z" fill="#00211B"/>
<path d="M199.8 75.5827H201.74V75.7626C201.777 76.2433 201.711 76.7264 201.546 77.1791C201.38 77.6319 201.119 78.0439 200.781 78.3872C200.442 78.7304 200.034 78.9969 199.584 79.1687C199.133 79.3404 198.651 79.4134 198.17 79.3828C197.672 79.4137 197.173 79.3389 196.706 79.1633C196.239 78.9877 195.815 78.7153 195.461 78.364C195.106 78.0126 194.831 77.5902 194.651 77.1247C194.472 76.6592 194.393 76.161 194.42 75.6628V69.7126C194.4 69.2342 194.48 68.757 194.656 68.3115C194.831 67.8659 195.098 67.4619 195.439 67.1257C195.78 66.7894 196.188 66.5284 196.636 66.3591C197.084 66.1898 197.562 66.1161 198.04 66.1428C198.531 66.1222 199.021 66.2023 199.48 66.3784C199.939 66.5545 200.357 66.8228 200.709 67.1667C201.06 67.5106 201.337 67.9228 201.523 68.3779C201.709 68.833 201.8 69.3212 201.79 69.8127V73.4826H196.37V75.5227C196.37 76.8927 196.99 77.4926 198.18 77.4926C199.32 77.4926 199.81 76.7926 199.81 75.7326V75.5827H199.8ZM199.85 72.0427V69.8427C199.876 69.6056 199.849 69.3657 199.773 69.1398C199.696 68.914 199.571 68.7075 199.406 68.5351C199.241 68.3627 199.041 68.2283 198.819 68.1416C198.597 68.0548 198.358 68.0176 198.12 68.0327C197.874 68.0274 197.631 68.0744 197.405 68.1706C197.179 68.2668 196.976 68.4099 196.809 68.5905C196.643 68.7712 196.517 68.9853 196.439 69.2185C196.362 69.4516 196.335 69.6985 196.36 69.9428V72.0427H199.85Z" fill="#00211B"/>
<path d="M205.43 66.3528H207.37V67.6228C207.68 67.1755 208.092 66.8087 208.572 66.553C209.052 66.2973 209.586 66.1601 210.13 66.1528C212.4 66.1528 212.82 67.8828 212.82 69.1228V76.4128C212.82 77.6528 212.41 79.3828 210.13 79.3828C209.586 79.3776 209.051 79.2412 208.57 78.9854C208.09 78.7295 207.678 78.3616 207.37 77.9128V84.4529H205.43V66.3528ZM210.88 75.5027V70.0227C210.88 69.0427 210.49 68.0327 209.25 68.0327C207.67 68.0327 207.36 69.5828 207.36 70.3828V75.1428C207.36 75.9428 207.67 77.4927 209.25 77.4927C210.49 77.4927 210.88 76.4827 210.88 75.5027Z" fill="#00211B"/>
<path d="M218.6 61.0728V75.9727C218.584 76.1631 218.61 76.3547 218.676 76.5342C218.742 76.7136 218.846 76.8766 218.981 77.0117C219.116 77.1469 219.279 77.2511 219.459 77.3169C219.638 77.3827 219.83 77.4086 220.02 77.3928H220.3V79.1729H219.71C219.315 79.2189 218.916 79.1785 218.538 79.0544C218.161 78.9304 217.815 78.7256 217.525 78.4543C217.235 78.1831 217.007 77.852 216.858 77.4839C216.708 77.1158 216.641 76.7195 216.66 76.3228V61.0627H218.6V61.0728Z" fill="#00211B"/>
<path d="M228.45 75.5827H230.39V75.7626C230.427 76.2433 230.361 76.7264 230.196 77.1791C230.03 77.6319 229.769 78.0439 229.431 78.3872C229.092 78.7304 228.684 78.9969 228.234 79.1687C227.783 79.3404 227.301 79.4134 226.82 79.3828C226.322 79.4137 225.823 79.3389 225.356 79.1633C224.889 78.9877 224.465 78.7153 224.111 78.364C223.756 78.0126 223.481 77.5902 223.301 77.1247C223.122 76.6592 223.043 76.161 223.07 75.6628V69.7126C223.05 69.2342 223.13 68.757 223.306 68.3115C223.481 67.8659 223.748 67.4619 224.089 67.1257C224.43 66.7894 224.838 66.5284 225.286 66.3591C225.733 66.1898 226.212 66.1161 226.69 66.1428C227.181 66.1222 227.671 66.2023 228.13 66.3784C228.589 66.5545 229.007 66.8228 229.359 67.1667C229.71 67.5106 229.987 67.9228 230.173 68.3779C230.359 68.833 230.45 69.3212 230.44 69.8127V73.4826H225.02V75.5227C225.02 76.8927 225.64 77.4926 226.83 77.4926C227.97 77.4926 228.46 76.7926 228.46 75.7326V75.5827H228.45ZM228.5 72.0427V69.8427C228.526 69.6056 228.5 69.3657 228.423 69.1398C228.346 68.914 228.221 68.7075 228.056 68.5351C227.891 68.3627 227.691 68.2283 227.469 68.1416C227.247 68.0548 227.008 68.0176 226.77 68.0327C226.524 68.0274 226.281 68.0744 226.055 68.1706C225.829 68.2668 225.626 68.4099 225.459 68.5905C225.293 68.7712 225.167 68.9853 225.089 69.2185C225.012 69.4516 224.985 69.6985 225.01 69.9428V72.0427H228.5Z" fill="#00211B"/>
<path d="M236.01 66.3528V68.3728C237.38 66.5128 238.57 66.1728 239.58 66.1528V68.3228H239.22C237.8 68.3228 236.02 68.8926 236.02 71.7126V79.1829H234.08V66.3528H236.01Z" fill="#00211B"/>
<path d="M254.18 75.5827H256.12V75.7626C256.157 76.2433 256.091 76.7264 255.926 77.1791C255.76 77.6319 255.499 78.0439 255.161 78.3872C254.822 78.7304 254.414 78.9969 253.964 79.1687C253.513 79.3404 253.031 79.4134 252.55 79.3828C252.052 79.4137 251.553 79.3389 251.086 79.1633C250.619 78.9877 250.195 78.7153 249.841 78.364C249.486 78.0126 249.211 77.5902 249.031 77.1247C248.852 76.6592 248.773 76.161 248.8 75.6628V69.7126C248.78 69.2342 248.86 68.757 249.036 68.3115C249.211 67.8659 249.478 67.4619 249.819 67.1257C250.16 66.7894 250.568 66.5284 251.016 66.3591C251.463 66.1898 251.942 66.1161 252.42 66.1428C252.911 66.1222 253.401 66.2023 253.86 66.3784C254.319 66.5545 254.737 66.8228 255.089 67.1667C255.44 67.5106 255.717 67.9228 255.903 68.3779C256.089 68.833 256.18 69.3212 256.17 69.8127V73.4826H250.75V75.5227C250.75 76.8927 251.37 77.4926 252.56 77.4926C253.7 77.4926 254.19 76.7926 254.19 75.7326V75.5827H254.18ZM254.23 72.0427V69.8427C254.256 69.6056 254.23 69.3657 254.153 69.1398C254.076 68.914 253.951 68.7075 253.786 68.5351C253.621 68.3627 253.421 68.2283 253.199 68.1416C252.977 68.0548 252.738 68.0176 252.5 68.0327C252.254 68.0274 252.011 68.0744 251.785 68.1706C251.559 68.2668 251.356 68.4099 251.189 68.5905C251.023 68.7712 250.897 68.9853 250.819 69.2185C250.742 69.4516 250.715 69.6985 250.74 69.9428V72.0427H254.23Z" fill="#00211B"/>
<path d="M269.88 63.0928L266.96 64.9329V63.0928L269.93 61.0728H271.82V79.1729H269.88V63.0928Z" fill="#00211B"/>
<path d="M5.76007 105.613H7.70007V105.793C7.73777 106.273 7.67199 106.755 7.50726 107.207C7.34253 107.659 7.08266 108.071 6.74517 108.414C6.40769 108.757 6.00045 109.024 5.55102 109.196C5.10159 109.369 4.62047 109.442 4.14007 109.413C3.64214 109.444 3.14329 109.369 2.67633 109.193C2.20936 109.018 1.78484 108.745 1.43066 108.394C1.07647 108.042 0.800616 107.62 0.621272 107.155C0.441928 106.689 0.363151 106.191 0.390071 105.693V99.7426C0.370074 99.2642 0.45039 98.787 0.625911 98.3415C0.801432 97.896 1.06829 97.492 1.40924 97.1557C1.75018 96.8195 2.15772 96.5584 2.60565 96.3891C3.05357 96.2198 3.53195 96.1462 4.01007 96.1728C4.50124 96.1522 4.99145 96.2323 5.45043 96.4084C5.90942 96.5845 6.32742 96.8529 6.67877 97.1967C7.03012 97.5406 7.30732 97.9526 7.49328 98.4077C7.67924 98.8627 7.77006 99.3512 7.76007 99.8427V103.513H2.34008V105.553C2.34008 106.923 2.96008 107.523 4.15008 107.523C5.29008 107.523 5.78009 106.823 5.78009 105.763V105.613H5.76007ZM5.81005 102.073V99.8728C5.8359 99.6356 5.80961 99.3958 5.73297 99.1699C5.65632 98.944 5.53115 98.7376 5.36633 98.5651C5.20151 98.3927 5.001 98.2584 4.7788 98.1716C4.5566 98.0848 4.31814 98.0476 4.08007 98.0627C3.8345 98.0574 3.59057 98.1044 3.36456 98.2006C3.13854 98.2968 2.93561 98.4399 2.76916 98.6206C2.60271 98.8012 2.47659 99.0154 2.39917 99.2485C2.32174 99.4816 2.29476 99.7283 2.32006 99.9726V102.073H5.81005Z" fill="#00211B"/>
<path d="M11.39 96.3828H13.33V97.6528C13.6396 97.2055 14.0516 96.8387 14.5317 96.583C15.0118 96.3273 15.5461 96.1901 16.0901 96.1829C18.3601 96.1829 18.7801 97.9128 18.7801 99.1528V109.213H16.8401V100.053C16.8401 99.0727 16.4501 98.0627 15.2101 98.0627C13.6301 98.0627 13.32 99.6128 13.32 100.413V109.203H11.38V96.3828H11.39Z" fill="#00211B"/>
<path d="M28.08 105.283H30.02V105.803C29.9884 106.785 29.5727 107.715 28.8623 108.394C28.1518 109.073 27.2035 109.446 26.221 109.433C25.2385 109.42 24.3004 109.021 23.6083 108.324C22.9162 107.626 22.5255 106.685 22.52 105.703V99.8828C22.4964 99.3864 22.5775 98.8905 22.7583 98.4275C22.939 97.9645 23.2153 97.5449 23.5691 97.1958C23.9229 96.8467 24.3463 96.5759 24.8117 96.4014C25.277 96.2268 25.774 96.1525 26.27 96.1829C26.7582 96.1463 27.2487 96.2126 27.7095 96.3779C28.1703 96.5432 28.5912 96.8038 28.9448 97.1423C29.2985 97.4809 29.5769 97.8901 29.7622 98.3433C29.9474 98.7964 30.0353 99.2834 30.02 99.7727V100.343H28.08V100.163C28.08 98.7128 27.25 98.0627 26.27 98.0627C25.26 98.0627 24.46 98.7128 24.46 100.163V105.443C24.46 106.813 25.08 107.533 26.27 107.533C27.41 107.533 28.08 106.833 28.08 105.443V105.283Z" fill="#00211B"/>
<path d="M33.0901 99.7928C33.1082 98.8287 33.5029 97.91 34.1898 97.2332C34.8767 96.5564 35.8011 96.1753 36.7654 96.1714C37.7296 96.1675 38.6571 96.541 39.3495 97.2122C40.0418 97.8834 40.444 98.7988 40.47 99.7627V105.733C40.47 106.711 40.0813 107.65 39.3893 108.342C38.6972 109.034 37.7587 109.423 36.7801 109.423C35.8014 109.423 34.8628 109.034 34.1708 108.342C33.4788 107.65 33.0901 106.711 33.0901 105.733V99.7928ZM38.54 100.153C38.54 98.7329 37.7401 98.0528 36.7801 98.0528C35.8201 98.0528 35.0201 98.7229 35.0201 100.153V105.433C35.0201 106.773 35.6401 107.523 36.7801 107.523C37.8601 107.523 38.54 106.823 38.54 105.433V100.153Z" fill="#00211B"/>
<path d="M44.22 96.3828H46.16V97.6528C46.4696 97.2055 46.8816 96.8387 47.3617 96.583C47.8418 96.3273 48.3761 96.1901 48.92 96.1829C51.19 96.1829 51.61 97.9128 51.61 99.1528V109.213H49.67V100.053C49.67 99.0727 49.28 98.0627 48.04 98.0627C46.46 98.0627 46.1501 99.6128 46.1501 100.413V109.203H44.2101V96.3828H44.22Z" fill="#00211B"/>
<path d="M57.73 92.4727V96.3828H59.54V97.9329H57.73V105.713C57.686 105.949 57.7004 106.194 57.7718 106.424C57.8431 106.654 57.9694 106.863 58.1397 107.033C58.31 107.203 58.5192 107.33 58.7492 107.401C58.9793 107.473 59.2233 107.487 59.4601 107.443H59.67V109.203H59.1C58.6488 109.309 58.1782 109.298 57.7322 109.172C57.2862 109.047 56.8793 108.81 56.5497 108.484C56.22 108.158 55.9783 107.755 55.8472 107.31C55.7161 106.866 55.6999 106.395 55.8 105.943V97.9229H54.43V96.3728H55.8V92.4626H57.73V92.4727Z" fill="#00211B"/>
<path d="M64.63 96.3828V98.4028C66 96.5428 67.19 96.2029 68.19 96.1829V98.3528H67.83C66.41 98.3528 64.63 98.9227 64.63 101.743V109.213H62.69V96.3828H64.63Z" fill="#00211B"/>
<path d="M70.5 99.7928C70.5182 98.8287 70.913 97.91 71.5998 97.2332C72.2867 96.5564 73.2111 96.1753 74.1754 96.1714C75.1396 96.1675 76.0672 96.541 76.7595 97.2122C77.4518 97.8834 77.854 98.7988 77.88 99.7627V105.733C77.88 106.711 77.4912 107.65 76.7992 108.342C76.1072 109.034 75.1687 109.423 74.19 109.423C73.2114 109.423 72.2728 109.034 71.5808 108.342C70.8888 107.65 70.5 106.711 70.5 105.733V99.7928ZM75.95 100.153C75.95 98.7329 75.15 98.0528 74.19 98.0528C73.23 98.0528 72.43 98.7229 72.43 100.153V105.433C72.43 106.773 73.05 107.523 74.19 107.523C75.27 107.523 75.95 106.823 75.95 105.433V100.153Z" fill="#00211B"/>
<path d="M93.75 105.283H95.69V105.803C95.6584 106.785 95.2427 107.715 94.5322 108.394C93.8218 109.073 92.8734 109.446 91.891 109.433C90.9085 109.42 89.9704 109.021 89.2783 108.324C88.5862 107.626 88.1955 106.685 88.19 105.703V99.8828C88.1663 99.3864 88.2475 98.8905 88.4282 98.4275C88.609 97.9645 88.8853 97.5449 89.2391 97.1958C89.5929 96.8467 90.0163 96.5759 90.4817 96.4014C90.947 96.2268 91.4439 96.1525 91.94 96.1829C92.4282 96.1463 92.9187 96.2126 93.3795 96.3779C93.8403 96.5432 94.2612 96.8038 94.6148 97.1423C94.9685 97.4809 95.247 97.8901 95.4322 98.3433C95.6174 98.7964 95.7053 99.2834 95.69 99.7727V100.343H93.75V100.163C93.75 98.7128 92.92 98.0627 91.94 98.0627C90.93 98.0627 90.13 98.7128 90.13 100.163V105.443C90.13 106.813 90.75 107.533 91.94 107.533C93.08 107.533 93.75 106.833 93.75 105.443V105.283Z" fill="#00211B"/>
<path d="M98.76 99.7928C98.7782 98.8287 99.173 97.91 99.8598 97.2332C100.547 96.5564 101.471 96.1753 102.435 96.1714C103.4 96.1675 104.327 96.541 105.02 97.2122C105.712 97.8834 106.114 98.7988 106.14 99.7627V105.733C106.14 106.711 105.751 107.65 105.059 108.342C104.367 109.034 103.429 109.423 102.45 109.423C101.471 109.423 100.533 109.034 99.8408 108.342C99.1488 107.65 98.76 106.711 98.76 105.733V99.7928ZM104.21 100.153C104.21 98.7329 103.41 98.0528 102.45 98.0528C101.49 98.0528 100.69 98.7229 100.69 100.153V105.433C100.69 106.773 101.31 107.523 102.45 107.523C103.53 107.523 104.21 106.823 104.21 105.433V100.153Z" fill="#00211B"/>
<path d="M111.83 96.3827V97.6527C112.132 97.2024 112.539 96.8329 113.017 96.5766C113.495 96.3203 114.028 96.1851 114.57 96.1828C115.09 96.1482 115.609 96.2695 116.059 96.5314C116.51 96.7933 116.872 97.1838 117.1 97.6527C117.398 97.1867 117.811 96.806 118.3 96.5483C118.79 96.2905 119.337 96.1646 119.89 96.1828C121.67 96.1828 122.52 97.4026 122.52 99.2126V109.223H120.58V100.063C120.58 98.9527 120.12 98.0727 118.95 98.0727C117.74 98.0727 117.17 99.1828 117.17 100.423V109.213H115.23V100.053C115.23 99.2526 114.92 98.0627 113.63 98.0627C112.39 98.0627 111.82 99.2228 111.82 100.413V109.203H109.88V96.3727H111.83V96.3827Z" fill="#00211B"/>
<path d="M140.43 109.213H138.49V107.943C138.18 108.39 137.768 108.757 137.288 109.012C136.808 109.268 136.274 109.406 135.73 109.413C133.46 109.413 133.04 107.683 133.04 106.443V96.3828H134.98V105.543C134.98 106.523 135.37 107.533 136.61 107.533C138.19 107.533 138.5 105.983 138.5 105.183V96.3928H140.44V109.213H140.43Z" fill="#00211B"/>
<path d="M146.22 96.3827V97.6527C146.522 97.2024 146.929 96.8329 147.407 96.5766C147.885 96.3203 148.418 96.1851 148.96 96.1828C149.48 96.1482 149.999 96.2695 150.449 96.5314C150.9 96.7933 151.262 97.1838 151.49 97.6527C151.788 97.1867 152.201 96.806 152.69 96.5483C153.18 96.2905 153.727 96.1646 154.28 96.1828C156.06 96.1828 156.92 97.4026 156.92 99.2126V109.223H154.98V100.063C154.98 98.9527 154.52 98.0727 153.35 98.0727C152.14 98.0727 151.57 99.1828 151.57 100.423V109.213H149.63V100.053C149.63 99.2526 149.32 98.0627 148.03 98.0627C146.79 98.0627 146.22 99.2228 146.22 100.413V109.203H144.28V96.3727H146.22V96.3827Z" fill="#00211B"/>
<path d="M169.36 96.3827V97.6527C169.662 97.2024 170.069 96.8329 170.547 96.5766C171.025 96.3203 171.558 96.1851 172.1 96.1828C172.62 96.1482 173.139 96.2695 173.589 96.5314C174.04 96.7933 174.402 97.1838 174.63 97.6527C174.928 97.1867 175.341 96.806 175.83 96.5483C176.32 96.2905 176.867 96.1646 177.42 96.1828C179.2 96.1828 180.06 97.4026 180.06 99.2126V109.223H178.12V100.063C178.12 98.9527 177.66 98.0727 176.49 98.0727C175.28 98.0727 174.71 99.1828 174.71 100.423V109.213H172.77V100.053C172.77 99.2526 172.46 98.0627 171.17 98.0627C169.93 98.0627 169.36 99.2228 169.36 100.413V109.203H167.42V96.3727H169.36V96.3827Z" fill="#00211B"/>
<path d="M189.18 105.613H191.12V105.793C191.157 106.273 191.091 106.756 190.926 107.209C190.76 107.662 190.499 108.074 190.161 108.417C189.822 108.76 189.414 109.027 188.964 109.199C188.513 109.37 188.031 109.443 187.55 109.413C187.052 109.444 186.553 109.369 186.086 109.193C185.619 109.018 185.195 108.745 184.841 108.394C184.486 108.042 184.211 107.62 184.031 107.155C183.852 106.689 183.773 106.191 183.8 105.693V99.7426C183.78 99.2642 183.86 98.787 184.036 98.3415C184.211 97.896 184.478 97.492 184.819 97.1557C185.16 96.8195 185.568 96.5584 186.016 96.3891C186.464 96.2198 186.942 96.1462 187.42 96.1728C187.911 96.1522 188.401 96.2323 188.86 96.4084C189.319 96.5845 189.737 96.8529 190.089 97.1967C190.44 97.5406 190.717 97.9526 190.903 98.4077C191.089 98.8627 191.18 99.3512 191.17 99.8427V103.513H185.75V105.553C185.75 106.923 186.37 107.523 187.56 107.523C188.7 107.523 189.19 106.823 189.19 105.763V105.613H189.18ZM189.23 102.073V99.8728C189.256 99.6356 189.23 99.3958 189.153 99.1699C189.076 98.944 188.951 98.7376 188.786 98.5651C188.622 98.3927 188.421 98.2584 188.199 98.1716C187.977 98.0848 187.738 98.0476 187.5 98.0627C187.255 98.0574 187.011 98.1044 186.785 98.2006C186.559 98.2968 186.356 98.4399 186.189 98.6206C186.023 98.8012 185.897 99.0154 185.819 99.2485C185.742 99.4816 185.715 99.7283 185.74 99.9726V102.073H189.23Z" fill="#00211B"/>
<path d="M194.81 96.3828H196.75V97.6528C197.06 97.2055 197.472 96.8387 197.952 96.583C198.432 96.3273 198.966 96.1901 199.51 96.1829C201.78 96.1829 202.2 97.9128 202.2 99.1528V109.213H200.26V100.053C200.26 99.0727 199.87 98.0627 198.63 98.0627C197.05 98.0627 196.74 99.6128 196.74 100.413V109.203H194.8V96.3828H194.81Z" fill="#00211B"/>
<path d="M208.32 92.4727V96.3828H210.13V97.9329H208.32V105.713C208.276 105.949 208.29 106.194 208.362 106.424C208.433 106.654 208.559 106.863 208.73 107.033C208.9 107.203 209.109 107.33 209.339 107.401C209.569 107.473 209.813 107.487 210.05 107.443H210.26V109.203H209.69C209.239 109.309 208.768 109.298 208.322 109.172C207.876 109.047 207.469 108.81 207.14 108.484C206.81 108.158 206.568 107.755 206.437 107.31C206.306 106.866 206.29 106.395 206.39 105.943V97.9229H205.02V96.3728H206.39V92.4626H208.32V92.4727Z" fill="#00211B"/>
<path d="M213.18 99.7928C213.198 98.8287 213.593 97.91 214.28 97.2332C214.967 96.5564 215.891 96.1753 216.855 96.1714C217.82 96.1675 218.747 96.541 219.439 97.2122C220.132 97.8834 220.534 98.7988 220.56 99.7627V105.733C220.56 106.711 220.171 107.65 219.479 108.342C218.787 109.034 217.849 109.423 216.87 109.423C215.891 109.423 214.953 109.034 214.261 108.342C213.569 107.65 213.18 106.711 213.18 105.733V99.7928ZM218.63 100.153C218.63 98.7329 217.83 98.0528 216.87 98.0528C215.91 98.0528 215.11 98.7229 215.11 100.153V105.433C215.11 106.773 215.73 107.523 216.87 107.523C217.95 107.523 218.63 106.823 218.63 105.433V100.153Z" fill="#00211B"/>
<path d="M226.25 96.3828V98.4028C227.62 96.5428 228.81 96.2029 229.82 96.1829V98.3528H229.46C228.04 98.3528 226.26 98.9227 226.26 101.743V109.213H224.32V96.3828H226.25Z" fill="#00211B"/>
<path d="M5.94003 135.313H7.88003V135.833C7.84841 136.815 7.43267 137.745 6.72225 138.424C6.01183 139.103 5.06345 139.476 4.08096 139.463C3.09846 139.45 2.16035 139.051 1.46828 138.354C0.776215 137.656 0.385453 136.715 0.380028 135.733V129.913C0.356343 129.416 0.437491 128.92 0.618248 128.457C0.799005 127.995 1.0753 127.575 1.4291 127.226C1.7829 126.876 2.20629 126.606 2.67165 126.431C3.13702 126.257 3.63394 126.182 4.13003 126.213C4.61823 126.176 5.10866 126.243 5.56948 126.408C6.0303 126.573 6.45119 126.834 6.80483 127.172C7.15848 127.511 7.43698 127.92 7.62222 128.373C7.80745 128.826 7.89528 129.313 7.88003 129.803V130.373H5.94003V130.193C5.94003 128.743 5.11003 128.093 4.13003 128.093C3.12003 128.093 2.32003 128.743 2.32003 130.193V135.473C2.32003 136.843 2.94003 137.563 4.13003 137.563C5.27003 137.563 5.94003 136.863 5.94003 135.473V135.313Z" fill="#00211B"/>
<path d="M10.95 129.833C10.9682 128.869 11.363 127.95 12.0498 127.273C12.7367 126.596 13.6611 126.215 14.6254 126.211C15.5897 126.208 16.5171 126.581 17.2094 127.252C17.9018 127.923 18.304 128.839 18.33 129.803V135.773C18.33 136.751 17.9412 137.69 17.2492 138.382C16.5572 139.074 15.6187 139.463 14.64 139.463C13.6614 139.463 12.7228 139.074 12.0308 138.382C11.3388 137.69 10.95 136.751 10.95 135.773V129.833ZM16.4001 130.193C16.4001 128.773 15.6 128.093 14.64 128.093C13.68 128.093 12.88 128.763 12.88 130.193V135.473C12.88 136.813 13.5 137.563 14.64 137.563C15.72 137.563 16.4001 136.863 16.4001 135.473V130.193Z" fill="#00211B"/>
<path d="M22.08 126.413H24.0201V127.683C24.3296 127.236 24.7416 126.869 25.2217 126.613C25.7018 126.357 26.2361 126.22 26.7801 126.213C29.0501 126.213 29.47 127.943 29.47 129.183V139.243H27.5301V130.083C27.5301 129.103 27.1401 128.093 25.9001 128.093C24.3201 128.093 24.01 129.643 24.01 130.443V139.233H22.07V126.413H22.08Z" fill="#00211B"/>
<path d="M37.07 139.243H35.55L32.19 126.413H34.23L36.37 135.413H36.42L38.51 126.413H40.47L37.07 139.243Z" fill="#00211B"/>
<path d="M45.05 121.503V123.393H43.11V121.503H45.05ZM43.11 126.413H45.05V139.243H43.11V126.413Z" fill="#00211B"/>
<path d="M56.29 139.243H54.35V137.973C54.0404 138.42 53.6285 138.787 53.1483 139.042C52.6682 139.298 52.134 139.436 51.5901 139.443C49.3201 139.443 48.9001 137.713 48.9001 136.473V129.183C48.9001 127.943 49.3101 126.213 51.5901 126.213C52.1344 126.218 52.6694 126.354 53.1498 126.61C53.6303 126.866 54.0419 127.234 54.35 127.683V121.143H56.29V139.243ZM54.35 135.213V130.453C54.35 129.653 54.0401 128.103 52.4601 128.103C51.2201 128.103 50.83 129.113 50.83 130.093V135.573C50.83 136.553 51.2201 137.563 52.4601 137.563C54.0401 137.563 54.35 136.013 54.35 135.213Z" fill="#00211B"/>
<path d="M65.4601 137.973H65.43C65.1135 138.444 64.6819 138.826 64.1761 139.084C63.6703 139.341 63.1071 139.465 62.54 139.443C60.5 139.443 59.91 137.893 59.91 135.843C59.91 133.123 60.79 131.603 63.66 131.603C64.2646 131.606 64.8688 131.639 65.47 131.703V129.813C65.4707 129.579 65.4238 129.347 65.332 129.131C65.2402 128.916 65.1056 128.721 64.9363 128.559C64.767 128.398 64.5665 128.272 64.3471 128.19C64.1277 128.108 63.8939 128.072 63.66 128.083C63.2189 128.066 62.7887 128.222 62.4602 128.517C62.1318 128.812 61.9309 129.223 61.9001 129.663H60.04C60.0351 129.182 60.131 128.705 60.3214 128.263C60.5119 127.821 60.7929 127.424 61.1461 127.097C61.4993 126.77 61.917 126.521 62.3723 126.365C62.8277 126.209 63.3106 126.151 63.79 126.193C66.76 126.193 67.41 128.393 67.41 130.043V139.223H65.47V137.973H65.4601ZM65.4601 133.143C65.0234 133.071 64.5824 133.027 64.14 133.013C63.8172 132.993 63.4939 133.046 63.1937 133.166C62.8934 133.286 62.6236 133.472 62.4037 133.709C62.1837 133.946 62.0191 134.229 61.9216 134.538C61.8241 134.846 61.7963 135.172 61.8401 135.493C61.8401 137.303 62.38 137.793 63.49 137.793C64.0465 137.683 64.547 137.382 64.9049 136.941C65.2629 136.501 65.4557 135.95 65.45 135.383V133.143H65.4601Z" fill="#00211B"/>
<path d="M78.63 139.243H76.69V137.973C76.3805 138.42 75.9685 138.787 75.4884 139.042C75.0083 139.298 74.4739 139.436 73.93 139.443C71.66 139.443 71.24 137.713 71.24 136.473V129.183C71.24 127.943 71.65 126.213 73.93 126.213C74.4743 126.218 75.0094 126.354 75.4898 126.61C75.9703 126.866 76.382 127.234 76.69 127.683V121.143H78.63V139.243ZM76.7 135.213V130.453C76.7 129.653 76.39 128.103 74.81 128.103C73.57 128.103 73.18 129.113 73.18 130.093V135.573C73.18 136.553 73.57 137.563 74.81 137.563C76.39 137.563 76.7 136.013 76.7 135.213Z" fill="#00211B"/>
<path d="M82.38 129.833C82.3982 128.869 82.793 127.95 83.4798 127.273C84.1667 126.596 85.0911 126.215 86.0554 126.211C87.0196 126.208 87.9472 126.581 88.6395 127.252C89.3318 127.923 89.734 128.839 89.76 129.803V135.773C89.76 136.751 89.3712 137.69 88.6792 138.382C87.9872 139.074 87.0487 139.463 86.07 139.463C85.0914 139.463 84.1528 139.074 83.4608 138.382C82.7688 137.69 82.38 136.751 82.38 135.773V129.833ZM87.83 130.193C87.83 128.773 87.03 128.093 86.07 128.093C85.11 128.093 84.31 128.763 84.31 130.193V135.473C84.31 136.813 84.93 137.563 86.07 137.563C87.15 137.563 87.83 136.863 87.83 135.473V130.193Z" fill="#00211B"/>
<path d="M95.68 137.043V139.243H93.4601V137.043H95.68Z" fill="#00211B"/>
</svg>
