<svg width="156" height="78" viewBox="0 0 156 78" fill="none" xmlns="http://www.w3.org/2000/svg">
<path d="M10.11 1.00269V3.97266H3.87004V9.91284C4.19194 9.60324 4.56823 9.35578 4.98002 9.18286C5.4575 8.98152 5.97195 8.88268 6.49003 8.89282C6.96776 8.87243 7.44477 8.94768 7.89299 9.11426C8.3412 9.28084 8.75156 9.53535 9.10002 9.86279C9.4573 10.2554 9.7304 10.717 9.90239 11.2192C10.0744 11.7214 10.1416 12.2535 10.1 12.7827V18.4727C10.112 19.1529 9.97911 19.828 9.71006 20.4529C9.46715 21.0115 9.11329 21.515 8.67003 21.9329C8.24009 22.3461 7.72942 22.6661 7.17003 22.8728C6.02172 23.2995 4.75833 23.2995 3.61003 22.8728C3.05063 22.6661 2.53996 22.3461 2.11003 21.9329C1.67191 21.5127 1.32181 21.0097 1.08006 20.4529C0.811015 19.828 0.678054 19.1529 0.690045 18.4727V17.5427H3.84007V18.3428C3.8261 18.5708 3.85876 18.7992 3.93614 19.0142C4.01351 19.2291 4.13392 19.426 4.29002 19.5928C4.44212 19.7434 4.62365 19.8611 4.82322 19.9385C5.0228 20.0159 5.23617 20.0514 5.45005 20.0427C5.65375 20.0564 5.85794 20.025 6.04808 19.9507C6.23821 19.8764 6.40958 19.761 6.55003 19.6128C6.82773 19.2729 6.96702 18.8409 6.94004 18.4028V13.2427C6.94752 12.8325 6.79718 12.4353 6.52006 12.1328C6.38672 11.9819 6.2216 11.8622 6.0366 11.7827C5.8516 11.7032 5.6513 11.6658 5.45005 11.6729C5.21574 11.6677 4.98329 11.7155 4.77006 11.8127C4.59938 11.892 4.44371 12.0003 4.31004 12.1328C4.19273 12.2476 4.09782 12.3832 4.03007 12.5327C3.93007 12.7227 3.86007 12.8328 3.84007 12.8728H1.06004V1.00269H10.11Z" fill="#011C1C"/>
<path d="M16.72 23.0227V4.34277L13.57 6.66284V3.32275L16.72 1.00269H19.87V23.0227H16.72Z" fill="#011C1C"/>
<path d="M30.7701 23.0227L35.68 1.00269H38.31L43.22 23.0227H40.07L39.14 18.2927H34.85L33.92 23.0227H30.7701ZM38.56 15.3228L37.0201 7.34277H36.9601L35.42 15.3228H38.56Z" fill="#011C1C"/>
<path d="M45.42 23.0227V1.00269H48.45L53.2101 14.2727H53.2701V1.00269H56.42V23.0227H53.45L48.63 9.79272H48.57V23.0227H45.42Z" fill="#011C1C"/>
<path d="M59.84 6.20285C59.8221 5.39551 59.979 4.59375 60.3 3.85275C60.585 3.20278 61.0081 2.62272 61.54 2.1528C62.0348 1.72293 62.6042 1.38739 63.22 1.16281C64.4461 0.709402 65.7939 0.709402 67.02 1.16281C67.644 1.38933 68.2229 1.72449 68.73 2.1528C69.2434 2.63245 69.6549 3.21057 69.94 3.85275C70.261 4.59375 70.4179 5.39551 70.4 6.20285V17.8327C70.4239 18.6503 70.2668 19.4628 69.94 20.2126C69.6578 20.8391 69.2453 21.3983 68.73 21.8527C67.9887 22.5035 67.0853 22.9418 66.1154 23.1213C65.1455 23.3009 64.1451 23.2151 63.22 22.8728C62.5979 22.6476 62.0268 22.3008 61.54 21.8527C61.0125 21.4025 60.5894 20.8428 60.3 20.2126C59.9732 19.4628 59.8162 18.6503 59.84 17.8327V6.20285ZM62.99 17.8227C62.9651 18.1333 63.0085 18.4458 63.1174 18.7378C63.2262 19.0298 63.3978 19.2942 63.62 19.5127C64.0419 19.8618 64.5724 20.0529 65.12 20.0529C65.6676 20.0529 66.1981 19.8618 66.62 19.5127C66.844 19.2955 67.0167 19.0311 67.1257 18.7387C67.2347 18.4464 67.2771 18.1335 67.25 17.8227V6.19284C67.275 5.88221 67.2315 5.56979 67.1226 5.2778C67.0138 4.9858 66.8422 4.72115 66.62 4.50265C66.1981 4.15356 65.6676 3.96261 65.12 3.96261C64.5724 3.96261 64.0419 4.15356 63.62 4.50265C63.3961 4.71986 63.2233 4.98424 63.1143 5.27658C63.0054 5.56891 62.9629 5.88203 62.99 6.19284V17.8227Z" fill="#011C1C"/>
<path d="M84.1501 7.34278H81V6.63282C81.0162 5.97306 80.8389 5.32288 80.49 4.7627C80.3002 4.49164 80.042 4.27574 79.7416 4.13697C79.4412 3.99819 79.1095 3.94146 78.7801 3.97266C78.4135 3.95527 78.0494 4.04194 77.73 4.22266C77.472 4.38109 77.2505 4.59251 77.08 4.84278C76.9081 5.12085 76.7925 5.42998 76.74 5.75269C76.679 6.10607 76.6489 6.46416 76.6501 6.82276C76.6484 7.18337 76.665 7.54392 76.7 7.90284C76.725 8.1722 76.8031 8.43395 76.93 8.67286C77.0598 8.9102 77.2451 9.11246 77.47 9.2627C77.7727 9.46404 78.0984 9.62853 78.44 9.75269L80.85 10.7127C81.4638 10.9318 82.038 11.2495 82.55 11.6528C82.9677 11.9995 83.3142 12.4241 83.57 12.9028C83.8101 13.4389 83.9653 14.009 84.0301 14.5928C84.1148 15.3062 84.1549 16.0242 84.1501 16.7427C84.1586 17.6107 84.0645 18.4768 83.87 19.3228C83.7121 20.0539 83.4058 20.7449 82.97 21.3528C82.5259 21.9411 81.9415 22.4085 81.27 22.7127C80.4629 23.0616 79.589 23.2291 78.7101 23.2029C77.9807 23.2103 77.257 23.0743 76.58 22.8027C75.9449 22.5501 75.3668 22.1728 74.88 21.6929C74.4069 21.2156 74.024 20.6564 73.75 20.0427C73.4654 19.3937 73.3222 18.6914 73.33 17.9827V16.8027H76.48V17.7927C76.474 18.3546 76.6533 18.9029 76.99 19.3528C77.1973 19.5989 77.4611 19.7912 77.7589 19.9131C78.0567 20.035 78.3797 20.0829 78.7 20.0527C79.1288 20.0724 79.5564 19.9937 79.95 19.8228C80.2435 19.6758 80.4845 19.4419 80.64 19.1528C80.8116 18.8316 80.9106 18.4765 80.93 18.1128C80.96 17.7128 80.98 17.2627 80.98 16.7627C80.9847 16.2886 80.9647 15.8147 80.92 15.3428C80.8979 15.029 80.8129 14.7231 80.67 14.4429C80.5272 14.2136 80.3318 14.0215 80.1 13.8828C79.7977 13.7079 79.4836 13.5542 79.16 13.4229L76.91 12.4927C75.7615 12.1126 74.7909 11.3269 74.18 10.2827C73.6862 9.2016 73.45 8.02067 73.49 6.83277C73.4843 6.03678 73.599 5.2444 73.83 4.48267C74.0394 3.78137 74.3861 3.12879 74.85 2.56275C75.2943 2.01492 75.8589 1.57688 76.5 1.28272C77.2508 0.94622 78.0675 0.782223 78.89 0.802738C79.6291 0.792428 80.3618 0.938918 81.04 1.23267C81.6654 1.50596 82.235 1.89258 82.72 2.37281C83.1707 2.81679 83.5284 3.34617 83.7722 3.92994C84.016 4.51371 84.1411 5.14007 84.14 5.77271V7.34278H84.1501Z" fill="#011C1C"/>
<path d="M93.79 23.0227V1.00269H103.18V3.97266H96.94V10.4329H102.38V13.4028H96.94V19.8628H103.18V23.0127H93.79V23.0227Z" fill="#011C1C"/>
<path d="M105.99 23.0227V1.00269H109.02L113.07 12.6628H113.13L117.15 1.00269H120.21V23.0227H117.06V9.63281H117L113.88 19.0928H112.3L109.21 9.63281H109.15V23.0227H105.99Z" fill="#011C1C"/>
<path d="M20.79 32.1628V38.1729H8.17002V50.1829C8.82102 49.5559 9.58434 49.057 10.42 48.7126C11.3883 48.3066 12.4302 48.1058 13.48 48.1228C14.447 48.0829 15.4121 48.2367 16.3188 48.575C17.2255 48.9132 18.0555 49.4293 18.7601 50.0928C20.1101 51.4028 20.7867 53.3727 20.79 56.0027V67.5127C20.8159 68.8862 20.5501 70.2495 20.0101 71.5127C19.5178 72.6406 18.8075 73.6601 17.92 74.5127C17.0447 75.3415 16.0153 75.9906 14.8901 76.4229C12.5775 77.3023 10.0226 77.3023 7.71006 76.4229C6.58058 75.9991 5.54949 75.349 4.68003 74.5127C3.78949 73.6628 3.07879 72.6426 2.59007 71.5127C2.051 70.2493 1.78516 68.8861 1.81004 67.5127V65.6328H8.18003V67.2627C8.15175 67.7241 8.21784 68.1866 8.37431 68.6216C8.53077 69.0566 8.77436 69.455 9.09007 69.7927C9.39628 70.0976 9.7622 70.3358 10.1649 70.4924C10.5676 70.649 10.9983 70.7208 11.43 70.7029C11.8421 70.7289 12.2548 70.6634 12.6386 70.5112C13.0224 70.3591 13.3678 70.124 13.6501 69.8228C14.2055 69.1353 14.4837 68.265 14.43 67.3828V56.9329C14.4487 56.1029 14.1481 55.2975 13.5901 54.6829C13.3219 54.3762 12.9891 54.1328 12.6156 53.9702C12.2421 53.8077 11.8372 53.7299 11.43 53.7427C10.9545 53.7275 10.482 53.8234 10.05 54.0227C9.70309 54.1905 9.38564 54.4135 9.11003 54.6829C8.87179 54.9133 8.68147 55.1884 8.55003 55.4927C8.34003 55.8727 8.22003 56.0929 8.17002 56.1829H2.55003V32.1628H20.79Z" fill="#00AA89"/>
<path d="M34.16 76.7029V38.9128L27.79 43.6028V36.8428L34.16 32.1528H40.5301V76.6929H34.16V76.7029Z" fill="#00AA89"/>
<path d="M65.47 76.7029V32.1628H74.91C78.5767 32.1628 81.3567 33.1628 83.25 35.1628C85.15 37.1628 86.0901 40.0029 86.0901 43.6729V64.5027C86.0901 68.6727 85.08 71.7493 83.06 73.7327C81.04 75.716 78.1334 76.7062 74.3401 76.7029H65.47ZM71.85 38.1729V70.7029H74.79C75.4854 70.7745 76.1881 70.6905 76.8471 70.457C77.506 70.2235 78.1048 69.8463 78.6 69.3528C79.4478 68.1169 79.8433 66.6264 79.72 65.1328V43.6729C79.8091 42.2379 79.4377 40.812 78.66 39.6028C77.95 38.6428 76.66 38.1628 74.79 38.1628H71.85V38.1729Z" fill="#00AA89"/>
<path d="M93.85 76.7029V32.1628H100.22V76.7029H93.85Z" fill="#00AA89"/>
<path d="M105.1 76.7029L115.04 32.1628H120.35L130.29 76.7029H123.92L122.04 67.1328H113.35L111.47 76.7029H105.1ZM120.84 61.1228L117.72 44.9827H117.6L114.48 61.1228H120.84Z" fill="#00AA89"/>
<path d="M155.59 44.9827H149.22V43.5428C149.255 42.2058 148.897 40.888 148.19 39.7527C147.804 39.2034 147.28 38.7659 146.671 38.4849C146.061 38.2039 145.388 38.0894 144.72 38.1529C143.981 38.1205 143.247 38.2936 142.6 38.6529C142.076 38.9675 141.629 39.3944 141.29 39.9029C140.949 40.4725 140.716 41.0993 140.6 41.7527C140.47 42.4653 140.406 43.1885 140.41 43.9129C140.41 44.7929 140.44 45.5228 140.5 46.1028C140.55 46.6492 140.71 47.1799 140.97 47.6629C141.236 48.1389 141.609 48.5463 142.06 48.8528C142.677 49.2586 143.338 49.594 144.03 49.8528L148.91 51.7928C150.153 52.237 151.316 52.8824 152.35 53.7029C153.2 54.3987 153.901 55.2591 154.41 56.2327C154.891 57.3163 155.208 58.4658 155.35 59.6429C155.529 61.0858 155.612 62.5388 155.6 63.9927C155.612 65.7483 155.424 67.4996 155.04 69.2127C154.72 70.6878 154.105 72.0827 153.23 73.3128C152.331 74.5024 151.148 75.4479 149.79 76.0628C148.155 76.7745 146.383 77.116 144.6 77.0628C143.124 77.0753 141.66 76.8001 140.29 76.2527C139.003 75.7422 137.833 74.9769 136.85 74.0027C135.886 73.0397 135.112 71.9032 134.57 70.6529C134.002 69.3404 133.715 67.9229 133.73 66.4927V64.1128H140.1V66.1128C140.088 67.2505 140.45 68.3605 141.13 69.2728C141.55 69.7723 142.086 70.1618 142.69 70.4075C143.295 70.6532 143.951 70.7479 144.6 70.6829C145.468 70.7241 146.334 70.563 147.13 70.2127C147.719 69.9112 148.209 69.446 148.54 68.8728C148.891 68.2257 149.093 67.508 149.13 66.7728C149.19 65.9627 149.22 65.0528 149.22 64.0528C149.229 63.0914 149.189 62.1302 149.1 61.1729C149.052 60.5429 148.882 59.9281 148.6 59.3628C148.305 58.9025 147.908 58.5158 147.44 58.2327C146.825 57.8779 146.187 57.5639 145.53 57.2928L140.97 55.4129C138.22 54.2829 136.377 52.7929 135.44 50.9429C134.429 48.7589 133.946 46.3677 134.03 43.9627C134.021 42.3538 134.254 40.7527 134.72 39.2127C135.139 37.7941 135.84 36.4746 136.78 35.3328C137.687 34.229 138.828 33.3408 140.12 32.7327C141.64 32.0498 143.294 31.7183 144.96 31.7627C146.453 31.7429 147.933 32.0431 149.3 32.6429C150.568 33.1983 151.724 33.9813 152.71 34.9529C153.622 35.8518 154.346 36.9227 154.84 38.1038C155.335 39.2849 155.59 40.5524 155.59 41.8328V44.9827Z" fill="#00AA89"/>
</svg>
