<svg width="238" height="55" viewBox="0 0 238 55" fill="none" xmlns="http://www.w3.org/2000/svg">
<path d="M7.43009 17.8528C7.0959 18.3911 6.62628 18.8323 6.06827 19.1324C5.51027 19.4324 4.88335 19.5808 4.25004 19.5628C3.69899 19.6149 3.14348 19.534 2.63016 19.327C2.11685 19.1199 1.66077 18.7927 1.30009 18.3729C0.685729 17.4766 0.370669 16.409 0.400062 15.3228V5.78276C0.298934 4.64284 0.591862 3.50274 1.23002 2.55278C1.64213 2.02726 2.17396 1.60796 2.78104 1.32964C3.38813 1.05132 4.05287 0.922186 4.72001 0.95293C7.30001 0.95293 9.0601 2.24272 9.0601 5.24272V6.0728H7.12003V5.27275C7.15401 4.94962 7.11618 4.62305 7.00932 4.31621C6.90245 4.00937 6.72922 3.72998 6.50187 3.49785C6.27452 3.26573 5.99868 3.08665 5.69413 2.97344C5.38958 2.86022 5.0638 2.81557 4.74003 2.84282C2.62003 2.84282 2.34 4.75285 2.34 5.87285V14.7227C2.34 16.5627 2.95998 17.6929 4.68998 17.6929C6.41998 17.6929 7.12003 16.3528 7.12003 14.3528V11.4529H4.81998V9.77275H9.0601V19.3128H7.94999L7.43009 17.8528Z" fill="#00211B"/>
<path d="M14.87 6.47266V8.49268C16.24 6.63268 17.4299 6.29271 18.4399 6.27271V8.44287H18.08C16.66 8.44287 14.88 9.01276 14.88 11.8328V19.3027H12.9399V6.47266H14.87Z" fill="#00211B"/>
<path d="M28.49 19.3027H26.55V18.0327C26.2405 18.48 25.8284 18.8468 25.3483 19.1025C24.8682 19.3583 24.334 19.4954 23.79 19.5027C21.52 19.5027 21.1 17.7727 21.1 16.5327V6.47266H23.04V15.6328C23.04 16.6128 23.43 17.6228 24.67 17.6228C26.25 17.6228 26.5601 16.0727 26.5601 15.2727V6.48267H28.5V19.3027H28.49Z" fill="#00211B"/>
<path d="M32.34 6.47266H34.28V7.74268C34.5896 7.29538 35.0016 6.92856 35.4817 6.67285C35.9618 6.41714 36.4961 6.27998 37.04 6.27271C39.31 6.27271 39.73 8.00268 39.73 9.24268V16.5327C39.73 17.7727 39.32 19.5027 37.04 19.5027C36.4957 19.4975 35.9607 19.3614 35.4802 19.1055C34.9998 18.8496 34.5881 18.4815 34.28 18.0327V24.5728H32.34V6.47266ZM37.79 15.6328V10.1528C37.79 9.17283 37.4 8.16284 36.16 8.16284C34.58 8.16284 34.27 9.7127 34.27 10.5127V15.2727C34.27 16.0727 34.58 17.6228 36.16 17.6228C37.4 17.6228 37.79 16.6128 37.79 15.6328Z" fill="#00211B"/>
<path d="M43.47 9.89285C43.4882 8.92876 43.883 8.01006 44.5698 7.33328C45.2567 6.65651 46.1811 6.27543 47.1454 6.27151C48.1096 6.2676 49.0372 6.64112 49.7295 7.31229C50.4218 7.98346 50.824 8.89891 50.85 9.86282V15.8328C50.85 16.8114 50.4612 17.7499 49.7692 18.4419C49.0772 19.1339 48.1387 19.5227 47.16 19.5227C46.1814 19.5227 45.2428 19.1339 44.5508 18.4419C43.8588 17.7499 43.47 16.8114 43.47 15.8328V9.89285ZM48.92 10.2527C48.92 8.83272 48.12 8.15286 47.16 8.15286C46.2 8.15286 45.4 8.82272 45.4 10.2527V15.5327C45.4 16.8727 46.02 17.6228 47.16 17.6228C48.24 17.6228 48.92 16.9227 48.92 15.5327V10.2527Z" fill="#00211B"/>
<path d="M66.5401 15.7126H68.48V15.8928C68.5174 16.3734 68.451 16.8563 68.2855 17.309C68.1201 17.7618 67.8593 18.1738 67.5208 18.517C67.1823 18.8603 66.7741 19.1268 66.3236 19.2985C65.8732 19.4703 65.3911 19.5433 64.9101 19.5126C64.4121 19.5436 63.9133 19.4688 63.4463 19.2932C62.9793 19.1176 62.5548 18.8452 62.2006 18.4938C61.8464 18.1425 61.5706 17.7201 61.3913 17.2546C61.2119 16.789 61.1331 16.2908 61.1601 15.7927V9.84272C61.1401 9.36429 61.2204 8.88688 61.3959 8.44136C61.5714 7.99583 61.8383 7.59205 62.1792 7.25581C62.5202 6.91957 62.9277 6.65827 63.3756 6.48896C63.8236 6.31966 64.3019 6.24601 64.7801 6.27266C65.2712 6.25207 65.7614 6.33239 66.2204 6.5085C66.6793 6.6846 67.0974 6.95273 67.4488 7.29658C67.8001 7.64043 68.0772 8.05268 68.2632 8.50776C68.4492 8.96284 68.54 9.45131 68.5301 9.94282V13.6127H63.11V15.6528C63.11 17.0228 63.7301 17.6228 64.9201 17.6228C66.0601 17.6228 66.5501 16.9227 66.5501 15.8627V15.7126H66.5401ZM66.59 12.1628V9.9626C66.6158 9.72546 66.5896 9.48561 66.513 9.25972C66.4363 9.03382 66.3112 8.82742 66.1464 8.65498C65.9816 8.48254 65.7809 8.3482 65.5587 8.26142C65.3365 8.17465 65.0981 8.13767 64.86 8.15278C64.6144 8.1475 64.3706 8.19453 64.1446 8.29072C63.9185 8.38691 63.7155 8.53001 63.5491 8.71064C63.3826 8.89128 63.2565 9.10522 63.1791 9.33833C63.1017 9.57144 63.0747 9.81837 63.1 10.0627V12.1628H66.59Z" fill="#00211B"/>
<path d="M74.08 12.7627L71.11 6.48267H73.1801L75.12 10.8528L76.95 6.48267H78.99L76.02 12.6628L79.14 19.3127H77.13L75.0601 14.6528L72.99 19.3127H70.95L74.08 12.7627Z" fill="#00211B"/>
<path d="M87.16 15.3728H89.1V15.8928C89.0683 16.8749 88.6527 17.8053 87.9423 18.4841C87.2318 19.1629 86.2834 19.5358 85.3009 19.5227C84.3184 19.5096 83.3803 19.1115 82.6882 18.414C81.9962 17.7165 81.6054 16.7753 81.6 15.7927V9.97264C81.5763 9.47618 81.6575 8.9803 81.8382 8.51731C82.019 8.05433 82.2952 7.6347 82.649 7.28562C83.0028 6.93655 83.4262 6.66596 83.8916 6.49143C84.357 6.31691 84.8539 6.24234 85.35 6.27268C85.8382 6.23613 86.3286 6.30269 86.7894 6.468C87.2502 6.63331 87.6711 6.8936 88.0248 7.23216C88.3784 7.57071 88.6569 7.97991 88.8422 8.43309C89.0274 8.88626 89.1152 9.37344 89.1 9.86277V10.4328H87.16V10.2527C87.16 8.80267 86.33 8.15281 85.35 8.15281C84.34 8.15281 83.54 8.80267 83.54 10.2527V15.5327C83.54 16.9027 84.16 17.6228 85.35 17.6228C86.49 17.6228 87.16 16.9227 87.16 15.5327V15.3728Z" fill="#00211B"/>
<path d="M94.21 1.20288V16.1028C94.1942 16.2932 94.2203 16.4849 94.286 16.6643C94.3518 16.8437 94.4558 17.0067 94.591 17.1418C94.7261 17.277 94.8891 17.381 95.0685 17.4468C95.2479 17.5126 95.4396 17.5385 95.63 17.5227H95.9101V19.3027H95.32C94.9254 19.3488 94.5256 19.3084 94.1482 19.1843C93.7709 19.0603 93.425 18.8554 93.1348 18.5842C92.8446 18.313 92.6169 17.9819 92.4676 17.6138C92.3182 17.2457 92.2508 16.8497 92.2701 16.4529V1.19287H94.21V1.20288Z" fill="#00211B"/>
<path d="M106.17 19.3027H104.23V18.0327C103.92 18.48 103.508 18.8468 103.028 19.1025C102.548 19.3583 102.014 19.4954 101.47 19.5027C99.2 19.5027 98.78 17.7727 98.78 16.5327V6.47266H100.72V15.6328C100.72 16.6128 101.11 17.6228 102.35 17.6228C103.93 17.6228 104.24 16.0727 104.24 15.2727V6.48267H106.18V19.3027H106.17Z" fill="#00211B"/>
<path d="M114.95 9.86279C114.82 8.41279 114.02 8.10278 113.22 8.10278C112.26 8.10278 111.57 8.4627 111.57 9.7627C111.57 10.7727 112.27 11.1828 113.09 11.5728L114.69 12.3528C115.47 12.7063 116.106 13.3165 116.491 14.0818C116.876 14.8471 116.987 15.7213 116.806 16.5586C116.625 17.3959 116.162 18.1458 115.495 18.6833C114.828 19.2209 113.997 19.5135 113.14 19.5127C110.27 19.5127 109.45 17.6228 109.39 15.8428H111.35C111.45 17.2128 112.07 17.7029 113.08 17.7029C113.332 17.7369 113.589 17.7121 113.83 17.6306C114.071 17.5492 114.29 17.4131 114.47 17.2332C114.65 17.0532 114.786 16.8339 114.868 16.5928C114.949 16.3516 114.974 16.095 114.94 15.8428C114.94 14.8828 114.63 14.3927 113.31 13.7527L111.73 12.9727C111.048 12.7269 110.468 12.2593 110.084 11.6445C109.699 11.0298 109.532 10.3037 109.61 9.58276C109.61 7.85276 110.75 6.27271 113.3 6.27271C116.12 6.27271 116.81 8.26279 116.87 9.86279H114.95Z" fill="#00211B"/>
<path d="M122.19 1.56274V3.45288H120.25V1.56274H122.19ZM120.25 6.47266H122.19V19.3027H120.25V6.47266Z" fill="#00211B"/>
<path d="M129.78 19.3027H128.26L124.9 6.47266H126.94L129.08 15.4727H129.13L131.22 6.47266H133.18L129.78 19.3027Z" fill="#00211B"/>
<path d="M135.72 9.89285C135.738 8.92876 136.133 8.01006 136.82 7.33328C137.507 6.65651 138.431 6.27543 139.395 6.27151C140.36 6.2676 141.287 6.64112 141.979 7.31229C142.672 7.98346 143.074 8.89891 143.1 9.86282V15.8328C143.1 16.8114 142.711 17.7499 142.019 18.4419C141.327 19.1339 140.389 19.5227 139.41 19.5227C138.431 19.5227 137.493 19.1339 136.801 18.4419C136.109 17.7499 135.72 16.8114 135.72 15.8328V9.89285ZM141.17 10.2527C141.17 8.83272 140.37 8.15286 139.41 8.15286C138.45 8.15286 137.65 8.82272 137.65 10.2527V15.5327C137.65 16.8727 138.27 17.6228 139.41 17.6228C140.49 17.6228 141.17 16.9227 141.17 15.5327V10.2527Z" fill="#00211B"/>
<path d="M153.52 6.47266H155.46V7.74268C155.77 7.29538 156.182 6.92856 156.662 6.67285C157.142 6.41714 157.676 6.27998 158.22 6.27271C160.49 6.27271 160.91 8.00268 160.91 9.24268V16.5327C160.91 17.7727 160.5 19.5027 158.22 19.5027C157.676 19.4975 157.141 19.3614 156.66 19.1055C156.18 18.8496 155.768 18.4815 155.46 18.0327V24.5728H153.52V6.47266ZM158.97 15.6328V10.1528C158.97 9.17283 158.58 8.16284 157.34 8.16284C155.76 8.16284 155.45 9.7127 155.45 10.5127V15.2727C155.45 16.0727 155.76 17.6228 157.34 17.6228C158.59 17.6228 158.97 16.6128 158.97 15.6328Z" fill="#00211B"/>
<path d="M170.08 18.0428H170.05C169.734 18.5138 169.302 18.8961 168.796 19.1534C168.29 19.4107 167.727 19.5344 167.16 19.5128C165.12 19.5128 164.53 17.9629 164.53 15.9129C164.53 13.1929 165.41 11.6729 168.28 11.6729C168.885 11.6756 169.489 11.7088 170.09 11.7728V9.8829C170.091 9.6487 170.044 9.41674 169.952 9.20126C169.86 8.98578 169.726 8.79131 169.556 8.62948C169.387 8.46766 169.187 8.34178 168.967 8.25985C168.748 8.17793 168.514 8.14166 168.28 8.15292C167.839 8.13626 167.409 8.29165 167.08 8.58651C166.752 8.88138 166.551 9.29244 166.52 9.73275H164.66C164.655 9.25154 164.751 8.77479 164.941 8.33285C165.132 7.89092 165.413 7.49368 165.766 7.16684C166.119 6.83999 166.537 6.59059 166.992 6.4349C167.448 6.27921 167.931 6.22061 168.41 6.26278C171.38 6.26278 172.03 8.46288 172.03 10.1129V19.2928H170.09V18.0428H170.08ZM170.08 13.203C169.643 13.1307 169.202 13.0872 168.76 13.0728C168.437 13.0533 168.114 13.1055 167.814 13.2259C167.513 13.3463 167.244 13.5319 167.024 13.7691C166.804 14.0063 166.639 14.2893 166.542 14.5977C166.444 14.9062 166.416 15.2323 166.46 15.5528C166.46 17.3628 167 17.8529 168.11 17.8529C168.666 17.7428 169.167 17.4416 169.525 17.0016C169.883 16.5615 170.076 16.0102 170.07 15.443V13.203H170.08Z" fill="#00211B"/>
<path d="M177.81 6.47266V8.49268C179.18 6.63268 180.37 6.29271 181.38 6.27271V8.44287H181.02C179.6 8.44287 177.82 9.01276 177.82 11.8328V19.3027H175.88V6.47266H177.81Z" fill="#00211B"/>
<path d="M188.89 18.0428H188.86C188.544 18.5138 188.112 18.8961 187.606 19.1534C187.1 19.4107 186.537 19.5344 185.97 19.5128C183.93 19.5128 183.34 17.9629 183.34 15.9129C183.34 13.1929 184.22 11.6729 187.09 11.6729C187.695 11.6756 188.299 11.7088 188.9 11.7728V9.8829C188.901 9.6487 188.854 9.41674 188.762 9.20126C188.67 8.98578 188.536 8.79131 188.366 8.62948C188.197 8.46766 187.997 8.34178 187.777 8.25985C187.558 8.17793 187.324 8.14166 187.09 8.15292C186.649 8.13626 186.219 8.29165 185.89 8.58651C185.562 8.88138 185.361 9.29244 185.33 9.73275H183.47C183.465 9.25154 183.561 8.77479 183.751 8.33285C183.942 7.89092 184.223 7.49368 184.576 7.16684C184.929 6.83999 185.347 6.59059 185.802 6.4349C186.258 6.27921 186.741 6.22061 187.22 6.26278C190.19 6.26278 190.84 8.46288 190.84 10.1129V19.2928H188.9V18.0428H188.89ZM188.89 13.203C188.453 13.1307 188.012 13.0872 187.57 13.0728C187.247 13.0533 186.924 13.1055 186.624 13.2259C186.323 13.3463 186.054 13.5319 185.834 13.7691C185.614 14.0063 185.449 14.2893 185.352 14.5977C185.254 14.9062 185.226 15.2323 185.27 15.5528C185.27 17.3628 185.81 17.8529 186.92 17.8529C187.477 17.7428 187.977 17.4416 188.335 17.0016C188.693 16.5615 188.886 16.0102 188.88 15.443V13.203H188.89Z" fill="#00211B"/>
<path d="M201.24 9.89285C201.258 8.92876 201.653 8.01006 202.34 7.33328C203.027 6.65651 203.951 6.27543 204.915 6.27151C205.88 6.2676 206.807 6.64112 207.499 7.31229C208.192 7.98346 208.594 8.89891 208.62 9.86282V15.8328C208.62 16.8114 208.231 17.7499 207.539 18.4419C206.847 19.1339 205.909 19.5227 204.93 19.5227C203.951 19.5227 203.013 19.1339 202.321 18.4419C201.629 17.7499 201.24 16.8114 201.24 15.8328V9.89285ZM206.69 10.2527C206.69 8.83272 205.89 8.15286 204.93 8.15286C203.97 8.15286 203.17 8.82272 203.17 10.2527V15.5327C203.17 16.8727 203.79 17.6228 204.93 17.6228C206.01 17.6228 206.69 16.9227 206.69 15.5327V10.2527Z" fill="#00211B"/>
<path d="M217.31 9.86279C217.18 8.41279 216.38 8.10278 215.58 8.10278C214.62 8.10278 213.93 8.4627 213.93 9.7627C213.93 10.7727 214.63 11.1828 215.45 11.5728L217.05 12.3528C217.83 12.7063 218.466 13.3165 218.851 14.0818C219.236 14.8471 219.347 15.7213 219.166 16.5586C218.985 17.3959 218.522 18.1458 217.855 18.6833C217.188 19.2209 216.357 19.5135 215.5 19.5127C212.63 19.5127 211.81 17.6228 211.75 15.8428H213.71C213.81 17.2128 214.43 17.7029 215.44 17.7029C215.692 17.7369 215.949 17.7121 216.19 17.6306C216.431 17.5492 216.65 17.4131 216.83 17.2332C217.01 17.0532 217.146 16.8339 217.228 16.5928C217.309 16.3516 217.334 16.095 217.3 15.8428C217.3 14.8828 216.99 14.3927 215.67 13.7527L214.09 12.9727C213.408 12.7269 212.828 12.2593 212.444 11.6445C212.059 11.0298 211.892 10.3037 211.97 9.58276C211.97 7.85276 213.11 6.27271 215.66 6.27271C218.48 6.27271 219.17 8.26279 219.23 9.86279H217.31Z" fill="#00211B"/>
<path d="M2.31995 36.5126V37.7826C2.62165 37.3322 3.02926 36.9627 3.50696 36.7065C3.98465 36.4502 4.51796 36.315 5.06006 36.3127C5.58018 36.2781 6.09873 36.3994 6.54944 36.6613C7.00015 36.9232 7.36242 37.3136 7.58997 37.7826C7.88748 37.3166 8.30123 36.9361 8.79041 36.6784C9.27958 36.4206 9.82738 36.2945 10.38 36.3127C12.16 36.3127 13.02 37.5327 13.02 39.3427V49.3527H11.08V40.1928C11.08 39.0828 10.62 38.2028 9.44995 38.2028C8.23995 38.2028 7.67004 39.3126 7.67004 40.5526V49.3427H5.72998V40.1828C5.72998 39.3828 5.42 38.1928 4.13 38.1928C2.89 38.1928 2.31995 39.3526 2.31995 40.5426V49.3327H0.380005V36.5026H2.31995V36.5126Z" fill="#00211B"/>
<path d="M22.13 45.7426H24.07V45.9228C24.1073 46.4034 24.041 46.8863 23.8755 47.3391C23.71 47.7918 23.4492 48.2038 23.1107 48.5471C22.7723 48.8903 22.364 49.1568 21.9136 49.3286C21.4632 49.5003 20.9811 49.5733 20.5 49.5427C20.0021 49.5736 19.5032 49.4988 19.0363 49.3232C18.5693 49.1476 18.1447 48.8752 17.7906 48.5239C17.4364 48.1725 17.1606 47.7502 16.9812 47.2846C16.8019 46.8191 16.7231 46.3209 16.75 45.8227V39.8728C16.73 39.3943 16.8103 38.9169 16.9859 38.4714C17.1614 38.0259 17.4282 37.6221 17.7692 37.2858C18.1101 36.9496 18.5177 36.6883 18.9656 36.519C19.4135 36.3497 19.8919 36.276 20.37 36.3027C20.8612 36.2821 21.3513 36.3624 21.8103 36.5385C22.2693 36.7146 22.6874 36.9828 23.0387 37.3266C23.3901 37.6705 23.6673 38.0827 23.8533 38.5378C24.0393 38.9929 24.13 39.4811 24.12 39.9726V43.6428H18.7V45.6828C18.7 47.0528 19.32 47.6528 20.51 47.6528C21.65 47.6528 22.14 46.9528 22.14 45.8928V45.7426H22.13ZM22.1801 42.2028V40.0026C22.2059 39.7655 22.1796 39.5256 22.1029 39.2998C22.0263 39.0739 21.9012 38.8675 21.7364 38.695C21.5715 38.5226 21.371 38.3882 21.1488 38.3015C20.9266 38.2147 20.688 38.1777 20.45 38.1928C20.2044 38.1875 19.9605 38.2346 19.7345 38.3308C19.5085 38.427 19.3055 38.57 19.1391 38.7507C18.9726 38.9313 18.8465 39.1453 18.7691 39.3784C18.6916 39.6115 18.6647 39.8584 18.69 40.1027V42.2028H22.1801Z" fill="#00211B"/>
<path d="M27.76 36.5127H29.7V37.7827C30.0095 37.3354 30.4216 36.9686 30.9017 36.7129C31.3818 36.4572 31.916 36.32 32.46 36.3127C34.73 36.3127 35.15 38.0427 35.15 39.2827V49.3428H33.21V40.1829C33.21 39.2029 32.82 38.1929 31.58 38.1929C30 38.1929 29.6899 39.7427 29.6899 40.5427V49.3328H27.75V36.5127H27.76Z" fill="#00211B"/>
<path d="M41.28 32.6028V36.5127H43.09V38.0627H41.28V45.8428C41.2361 46.0796 41.2504 46.3234 41.3218 46.5535C41.3932 46.7835 41.5194 46.9928 41.6897 47.1631C41.86 47.3334 42.0692 47.4596 42.2992 47.531C42.5292 47.6024 42.7732 47.6167 43.01 47.5728H43.22V49.3328H42.65C42.1988 49.4384 41.7283 49.4279 41.2822 49.3022C40.8362 49.1766 40.4293 48.9399 40.0996 48.6143C39.7699 48.2886 39.5283 47.8846 39.3972 47.4402C39.2661 46.9957 39.2498 46.5252 39.35 46.0728V38.0527H37.98V36.5027H39.35V32.5928H41.28V32.6028Z" fill="#00211B"/>
<path d="M46.13 39.9229C46.1482 38.9588 46.5429 38.0401 47.2297 37.3633C47.9166 36.6865 48.841 36.3052 49.8053 36.3013C50.7696 36.2974 51.6971 36.6711 52.3894 37.3423C53.0817 38.0135 53.484 38.9289 53.51 39.8929V45.8628C53.51 46.8415 53.1212 47.7799 52.4292 48.472C51.7372 49.164 50.7986 49.5528 49.8199 49.5528C48.8413 49.5528 47.9028 49.164 47.2108 48.472C46.5188 47.7799 46.13 46.8415 46.13 45.8628V39.9229ZM51.58 40.2827C51.58 38.8627 50.7799 38.1829 49.8199 38.1829C48.8599 38.1829 48.0601 38.8527 48.0601 40.2827V45.5628C48.0601 46.9028 48.6799 47.6529 49.8199 47.6529C50.8999 47.6529 51.58 46.9528 51.58 45.5628V40.2827Z" fill="#00211B"/>
<path d="M59.2 36.5127V38.5327C60.57 36.6727 61.76 36.3327 62.77 36.3127V38.4827H62.41C60.99 38.4827 59.21 39.0528 59.21 41.8728V49.3428H57.27V36.5127H59.2Z" fill="#00211B"/>
<path d="M70.29 48.0728H70.26C69.9435 48.5439 69.5119 48.9262 69.0061 49.1834C68.5003 49.4407 67.9371 49.5644 67.37 49.5428C65.33 49.5428 64.74 47.993 64.74 45.943C64.74 43.223 65.62 41.703 68.49 41.703C69.0946 41.7056 69.6988 41.7388 70.3 41.8028V39.9129C70.3007 39.6787 70.2537 39.4468 70.162 39.2313C70.0702 39.0158 69.9355 38.8213 69.7662 38.6595C69.5969 38.4977 69.3965 38.3718 69.1771 38.2899C68.9577 38.208 68.7239 38.1717 68.49 38.1829C68.0489 38.1663 67.6186 38.3217 67.2902 38.6165C66.9617 38.9114 66.7608 39.3225 66.73 39.7628H64.87C64.8651 39.2816 64.961 38.8048 65.1515 38.3629C65.342 37.9209 65.6229 37.5237 65.9761 37.1969C66.3293 36.87 66.747 36.6206 67.2024 36.4649C67.6578 36.3092 68.1406 36.2506 68.62 36.2928C71.59 36.2928 72.24 38.4929 72.24 40.1429V49.3228H70.3V48.0728H70.29ZM70.29 43.2328C69.8534 43.1605 69.4123 43.1172 68.97 43.1029C68.6471 43.0833 68.3239 43.1356 68.0237 43.2559C67.7234 43.3763 67.4536 43.5617 67.2336 43.7989C67.0137 44.0361 66.849 44.3193 66.7516 44.6278C66.6541 44.9362 66.6263 45.2623 66.67 45.5829C66.67 47.3929 67.2099 47.8829 68.3199 47.8829C68.8764 47.7728 69.3769 47.4717 69.7349 47.0316C70.0928 46.5915 70.2857 46.04 70.28 45.4727V43.2328H70.29Z" fill="#00211B"/>
<path d="M83.46 49.3428H81.52V48.0728C81.2105 48.52 80.7985 48.8869 80.3184 49.1426C79.8382 49.3983 79.3039 49.5354 78.76 49.5427C76.49 49.5427 76.0699 47.8128 76.0699 46.5728V39.2827C76.0699 38.0427 76.48 36.3127 78.76 36.3127C79.3043 36.318 79.8394 36.4543 80.3198 36.7102C80.8003 36.9661 81.212 37.3339 81.52 37.7827V31.2427H83.46V49.3428ZM81.53 45.3027V40.5427C81.53 39.7427 81.22 38.1929 79.64 38.1929C78.4 38.1929 78.01 39.2029 78.01 40.1829V45.6628C78.01 46.6428 78.4 47.6528 79.64 47.6528C81.21 47.6528 81.53 46.1027 81.53 45.3027Z" fill="#00211B"/>
<path d="M87.21 39.9229C87.2281 38.9588 87.623 38.0401 88.3098 37.3633C88.9967 36.6865 89.9211 36.3052 90.8854 36.3013C91.8496 36.2974 92.7771 36.6711 93.4695 37.3423C94.1618 38.0135 94.5639 38.9289 94.59 39.8929V45.8628C94.59 46.8415 94.2013 47.7799 93.5093 48.472C92.8173 49.164 91.8787 49.5528 90.9 49.5528C89.9214 49.5528 88.9828 49.164 88.2908 48.472C87.5988 47.7799 87.21 46.8415 87.21 45.8628V39.9229ZM92.66 40.2827C92.66 38.8627 91.86 38.1829 90.9 38.1829C89.94 38.1829 89.14 38.8527 89.14 40.2827V45.5628C89.14 46.9028 89.76 47.6529 90.9 47.6529C91.98 47.6529 92.66 46.9528 92.66 45.5628V40.2827Z" fill="#00211B"/>
<path d="M103.28 39.8928C103.15 38.4428 102.35 38.1328 101.55 38.1328C100.59 38.1328 99.9 38.4927 99.9 39.7927C99.9 40.8027 100.6 41.2128 101.42 41.6028L103.02 42.3828C103.8 42.7364 104.436 43.3465 104.821 44.1118C105.206 44.8771 105.317 45.7513 105.136 46.5886C104.954 47.4259 104.492 48.1758 103.825 48.7134C103.158 49.2509 102.327 49.5435 101.47 49.5427C98.6 49.5427 97.78 47.6528 97.72 45.8728H99.6801C99.7801 47.2428 100.4 47.7327 101.41 47.7327C101.662 47.7666 101.919 47.7421 102.16 47.6606C102.401 47.5792 102.62 47.4432 102.8 47.2632C102.98 47.0832 103.116 46.864 103.198 46.6228C103.279 46.3816 103.304 46.1251 103.27 45.8728C103.27 44.9128 102.96 44.4227 101.64 43.7827L100.06 43.0027C99.3779 42.7569 98.798 42.2893 98.4136 41.6746C98.0291 41.0598 97.8623 40.3337 97.9399 39.6128C97.9399 37.8828 99.08 36.3027 101.63 36.3027C104.45 36.3027 105.14 38.2928 105.2 39.8928H103.28Z" fill="#00211B"/>
<path d="M121.57 35.5827C121.602 34.8855 121.413 34.1961 121.03 33.6127C120.82 33.362 120.554 33.1638 120.254 33.0336C119.953 32.9034 119.627 32.8449 119.3 32.8627C119.011 32.8523 118.722 32.8989 118.451 33.0002C118.18 33.1014 117.932 33.2554 117.72 33.4528C117.214 34.0686 116.973 34.8596 117.05 35.6528C117.01 36.404 117.169 37.1524 117.51 37.8227C117.872 38.2864 118.368 38.6283 118.93 38.8027L120.58 39.3927C121.485 39.6557 122.288 40.1897 122.88 40.9228C123.45 41.8135 123.704 42.8703 123.6 43.9228V44.5727C123.685 45.9673 123.263 47.3458 122.41 48.4528C121.973 48.8459 121.463 49.1488 120.909 49.3444C120.354 49.54 119.767 49.6244 119.18 49.5927C118.528 49.6468 117.872 49.5464 117.265 49.2997C116.659 49.053 116.119 48.667 115.69 48.1728C115.158 47.2642 114.892 46.225 114.92 45.1728V44.5226H116.86V45.0426C116.832 45.7177 117.014 46.385 117.38 46.9528C117.603 47.2017 117.878 47.3981 118.186 47.5278C118.493 47.6575 118.826 47.7173 119.16 47.7028C119.531 47.7361 119.905 47.681 120.251 47.5419C120.597 47.4029 120.905 47.1838 121.15 46.9028C121.551 46.2796 121.734 45.5409 121.67 44.8027V44.1027C121.726 43.3493 121.544 42.5974 121.15 41.9528C120.766 41.4899 120.255 41.149 119.68 40.9726L117.72 40.2726C117.225 40.135 116.767 39.8897 116.378 39.5544C115.989 39.219 115.679 38.8019 115.47 38.3327C115.179 37.5123 115.057 36.6415 115.11 35.7726V35.2326C115.087 34.634 115.191 34.0374 115.413 33.4811C115.635 32.9248 115.971 32.4211 116.4 32.0026C116.801 31.6412 117.271 31.3638 117.781 31.1869C118.291 31.01 118.831 30.9371 119.37 30.9726C121.85 30.9726 123.5 32.5726 123.5 35.4726V36.0927H121.56V35.5827H121.57Z" fill="#00211B"/>
<path d="M129.09 36.5126V37.7826C129.392 37.3322 129.799 36.9627 130.277 36.7065C130.755 36.4502 131.288 36.315 131.83 36.3127C132.35 36.2781 132.869 36.3994 133.319 36.6613C133.77 36.9232 134.132 37.3136 134.36 37.7826C134.657 37.3166 135.071 36.9361 135.56 36.6784C136.05 36.4206 136.597 36.2945 137.15 36.3127C138.93 36.3127 139.79 37.5327 139.79 39.3427V49.3527H137.85V40.1928C137.85 39.0828 137.39 38.2028 136.22 38.2028C135.01 38.2028 134.44 39.3126 134.44 40.5526V49.3427H132.5V40.1828C132.5 39.3828 132.19 38.1928 130.9 38.1928C129.66 38.1928 129.09 39.3526 129.09 40.5426V49.3327H127.15V36.5026H129.09V36.5126Z" fill="#00211B"/>
<path d="M148.95 48.0728H148.92C148.604 48.5439 148.172 48.9262 147.666 49.1834C147.16 49.4407 146.597 49.5644 146.03 49.5428C143.99 49.5428 143.4 47.993 143.4 45.943C143.4 43.223 144.28 41.703 147.15 41.703C147.755 41.7056 148.359 41.7388 148.96 41.8028V39.9129C148.961 39.6787 148.914 39.4468 148.822 39.2313C148.73 39.0158 148.596 38.8213 148.426 38.6595C148.257 38.4977 148.057 38.3718 147.837 38.2899C147.618 38.208 147.384 38.1717 147.15 38.1829C146.709 38.1663 146.279 38.3217 145.95 38.6165C145.622 38.9114 145.421 39.3225 145.39 39.7628H143.53C143.525 39.2816 143.621 38.8048 143.811 38.3629C144.002 37.9209 144.283 37.5237 144.636 37.1969C144.989 36.87 145.407 36.6206 145.862 36.4649C146.318 36.3092 146.801 36.2506 147.28 36.2928C150.25 36.2928 150.9 38.4929 150.9 40.1429V49.3228H148.96V48.0728H148.95ZM148.95 43.2328C148.513 43.1605 148.072 43.1172 147.63 43.1029C147.307 43.0833 146.984 43.1356 146.684 43.2559C146.383 43.3763 146.114 43.5617 145.894 43.7989C145.674 44.0361 145.509 44.3193 145.411 44.6278C145.314 44.9362 145.286 45.2623 145.33 45.5829C145.33 47.3929 145.87 47.8829 146.98 47.8829C147.536 47.7728 148.037 47.4717 148.395 47.0316C148.753 46.5915 148.946 46.04 148.94 45.4727V43.2328H148.95Z" fill="#00211B"/>
<path d="M156.68 36.5127V38.5327C158.05 36.6727 159.24 36.3327 160.25 36.3127V38.4827H159.89C158.47 38.4827 156.69 39.0528 156.69 41.8728V49.3428H154.75V36.5127H156.68Z" fill="#00211B"/>
<path d="M165.18 32.6028V36.5127H166.99V38.0627H165.18V45.8428C165.136 46.0796 165.15 46.3234 165.222 46.5535C165.293 46.7835 165.419 46.9928 165.59 47.1631C165.76 47.3334 165.969 47.4596 166.199 47.531C166.429 47.6024 166.673 47.6167 166.91 47.5728H167.12V49.3328H166.55C166.099 49.4384 165.628 49.4279 165.182 49.3022C164.736 49.1766 164.329 48.9399 164 48.6143C163.67 48.2886 163.428 47.8846 163.297 47.4402C163.166 46.9957 163.15 46.5252 163.25 46.0728V38.0527H161.88V36.5027H163.25V32.5928H165.18V32.6028Z" fill="#00211B"/>
<path d="M176.96 31.2327H178.92L182.72 42.5627H182.8L186.44 31.2327H188.4V49.3328H186.46V37.0728H186.38L183.15 46.2827H182.19L178.96 37.0728H178.88V49.3328H176.94V31.2327H176.96Z" fill="#00211B"/>
<path d="M192.3 39.9229C192.318 38.9588 192.713 38.0401 193.4 37.3633C194.087 36.6865 195.011 36.3052 195.975 36.3013C196.94 36.2974 197.867 36.6711 198.559 37.3423C199.252 38.0135 199.654 38.9289 199.68 39.8929V45.8628C199.68 46.8415 199.291 47.7799 198.599 48.472C197.907 49.164 196.969 49.5528 195.99 49.5528C195.011 49.5528 194.073 49.164 193.381 48.472C192.689 47.7799 192.3 46.8415 192.3 45.8628V39.9229ZM197.75 40.2827C197.75 38.8627 196.95 38.1829 195.99 38.1829C195.03 38.1829 194.23 38.8527 194.23 40.2827V45.5628C194.23 46.9028 194.85 47.6529 195.99 47.6529C197.07 47.6529 197.75 46.9528 197.75 45.5628V40.2827Z" fill="#00211B"/>
<path d="M203.44 36.5127H205.38V37.7827C205.69 37.3354 206.102 36.9686 206.582 36.7129C207.062 36.4572 207.596 36.32 208.14 36.3127C210.41 36.3127 210.83 38.0427 210.83 39.2827V49.3428H208.89V40.1829C208.89 39.2029 208.5 38.1929 207.26 38.1929C205.68 38.1929 205.37 39.7427 205.37 40.5427V49.3328H203.43V36.5127H203.44Z" fill="#00211B"/>
<path d="M219.94 45.7426H221.88V45.9228C221.917 46.4034 221.851 46.8863 221.686 47.3391C221.52 47.7918 221.259 48.2038 220.921 48.5471C220.582 48.8903 220.174 49.1568 219.724 49.3286C219.273 49.5003 218.791 49.5733 218.31 49.5427C217.812 49.5736 217.313 49.4988 216.846 49.3232C216.379 49.1476 215.955 48.8752 215.601 48.5239C215.246 48.1725 214.971 47.7502 214.791 47.2846C214.612 46.8191 214.533 46.3209 214.56 45.8227V39.8728C214.54 39.3943 214.62 38.9169 214.796 38.4714C214.971 38.0259 215.238 37.6221 215.579 37.2858C215.92 36.9496 216.328 36.6883 216.776 36.519C217.223 36.3497 217.702 36.276 218.18 36.3027C218.671 36.2821 219.161 36.3624 219.62 36.5385C220.079 36.7146 220.497 36.9828 220.849 37.3266C221.2 37.6705 221.477 38.0827 221.663 38.5378C221.849 38.9929 221.94 39.4811 221.93 39.9726V43.6428H216.51V45.6828C216.51 47.0528 217.13 47.6528 218.32 47.6528C219.46 47.6528 219.95 46.9528 219.95 45.8928V45.7426H219.94ZM219.99 42.2028V40.0026C220.016 39.7655 219.99 39.5256 219.913 39.2998C219.836 39.0739 219.711 38.8675 219.546 38.695C219.381 38.5226 219.181 38.3882 218.959 38.3015C218.737 38.2147 218.498 38.1777 218.26 38.1928C218.014 38.1875 217.771 38.2346 217.545 38.3308C217.319 38.427 217.116 38.57 216.949 38.7507C216.783 38.9313 216.657 39.1453 216.579 39.3784C216.502 39.6115 216.475 39.8584 216.5 40.1027V42.2028H219.99Z" fill="#00211B"/>
<path d="M229.06 51.6128C228.52 53.8328 227.61 54.6128 225.62 54.6128H225.18V52.8528H225.54C226.75 52.8528 227.14 52.2029 227.5 50.6829L227.86 49.1528L224.09 36.5027H226.13L228.71 45.8428H228.76L230.72 36.5027H232.68L229.06 51.6128Z" fill="#00211B"/>
<path d="M237.64 47.1428V49.3428H235.42V47.1428H237.64Z" fill="#00211B"/>
</svg>
