<svg width="306" height="85" viewBox="0 0 306 85" fill="none" xmlns="http://www.w3.org/2000/svg">
<path d="M0.870033 4.40292C0.852793 3.92355 0.938238 3.44593 1.12064 3.00228C1.30305 2.55864 1.57821 2.15926 1.92765 1.83065C2.27709 1.50204 2.69276 1.25183 3.14677 1.09701C3.60077 0.942186 4.08263 0.886309 4.56004 0.932948C6.27004 0.932948 8.41004 1.55281 8.41004 4.29281V6.80282C8.41004 7.94282 8.20003 9.3329 6.55003 9.8829C8.38003 10.3729 8.41004 11.9229 8.41004 12.8829V15.8529C8.41004 17.8929 7.27005 19.5528 4.51005 19.5528C3.14005 19.5528 0.870033 18.953 0.870033 16.193V14.1529H2.81004V15.5228C2.81004 16.4028 3.07005 17.6729 4.67005 17.6729C5.52005 17.6729 6.48005 17.2829 6.48005 15.6829V12.7628C6.51308 12.5085 6.48812 12.25 6.40708 12.0067C6.32605 11.7634 6.19104 11.5415 6.01212 11.3578C5.83321 11.174 5.61502 11.0333 5.37394 10.9459C5.13286 10.8584 4.87513 10.8266 4.62003 10.8529H4.00004V9.12289H4.65003C4.90579 9.12859 5.15983 9.07979 5.39521 8.97958C5.63059 8.87937 5.84192 8.7299 6.01508 8.54159C6.18825 8.35328 6.31928 8.13023 6.39945 7.88729C6.47963 7.64436 6.50712 7.38729 6.48005 7.1329V4.72274C6.49409 4.47086 6.4548 4.21891 6.36478 3.98324C6.27477 3.74758 6.13603 3.53369 5.95765 3.35531C5.77927 3.17693 5.56526 3.0381 5.3296 2.94808C5.09393 2.85807 4.84192 2.81881 4.59003 2.83285C3.12003 2.83285 2.81004 4.28282 2.81004 5.05282V6.27279H0.870033V4.40292Z" fill="#00211B"/>
<path d="M20.78 6.47256V7.74258C21.0817 7.2922 21.4893 6.92269 21.967 6.66641C22.4447 6.41013 22.9779 6.27492 23.52 6.27261C24.0401 6.23804 24.5587 6.35961 25.0095 6.62148C25.4602 6.88336 25.8225 7.2736 26.05 7.74258C26.3475 7.27652 26.7612 6.89607 27.2504 6.63833C27.7396 6.38059 28.2874 6.25447 28.84 6.27261C30.62 6.27261 31.47 7.49264 31.47 9.30264V19.3126H29.53V10.1527C29.53 9.04274 29.07 8.16274 27.9 8.16274C26.69 8.16274 26.12 9.2726 26.12 10.5126V19.3026H24.18V10.1427C24.18 9.34273 23.87 8.15273 22.58 8.15273C21.34 8.15273 20.77 9.31259 20.77 10.5026V19.2926H18.83V6.46255H20.78V6.47256Z" fill="#00211B"/>
<path d="M35.23 9.89282C35.2482 8.92873 35.6429 8.01003 36.3298 7.33325C37.0167 6.65648 37.9411 6.2754 38.9054 6.27148C39.8696 6.26756 40.7971 6.64109 41.4895 7.31226C42.1818 7.98343 42.584 8.89888 42.61 9.86279V15.8328C42.61 16.8114 42.2213 17.7499 41.5293 18.4419C40.8373 19.1339 39.8987 19.5227 38.92 19.5227C37.9414 19.5227 37.0028 19.1339 36.3108 18.4419C35.6188 17.7499 35.23 16.8114 35.23 15.8328V9.89282ZM40.68 10.2527C40.68 8.83269 39.88 8.15283 38.92 8.15283C37.96 8.15283 37.16 8.82269 37.16 10.2527V15.5327C37.16 16.8727 37.78 17.6228 38.92 17.6228C40 17.6228 40.68 16.9227 40.68 15.5327V10.2527ZM39.26 4.35278H38.25L39.44 1.19287H41.53L39.26 4.35278Z" fill="#00211B"/>
<path d="M53.75 19.3027H51.81V18.0327C51.5005 18.48 51.0884 18.8468 50.6083 19.1025C50.1282 19.3582 49.5939 19.4954 49.05 19.5027C46.78 19.5027 46.36 17.7727 46.36 16.5327V9.24268C46.36 8.00268 46.77 6.27271 49.05 6.27271C49.5943 6.27791 50.1294 6.41428 50.6098 6.67017C51.0903 6.92605 51.502 7.2939 51.81 7.74268V1.20288H53.75V19.3027ZM51.81 15.2727V10.5127C51.81 9.7127 51.5 8.16284 49.92 8.16284C48.68 8.16284 48.29 9.17283 48.29 10.1528V15.6328C48.29 16.6128 48.68 17.6228 49.92 17.6228C51.5 17.6228 51.81 16.0727 51.81 15.2727Z" fill="#00211B"/>
<path d="M64.99 19.3027H63.05V18.0327C62.7405 18.48 62.3285 18.8468 61.8484 19.1025C61.3682 19.3583 60.834 19.4954 60.29 19.5027C58.02 19.5027 57.6 17.7727 57.6 16.5327V6.47266H59.54V15.6328C59.54 16.6128 59.93 17.6228 61.17 17.6228C62.75 17.6228 63.06 16.0727 63.06 15.2727V6.48267H65V19.3027H64.99Z" fill="#00211B"/>
<path d="M70.77 1.20288V16.1028C70.7543 16.2932 70.7802 16.4849 70.846 16.6643C70.9117 16.8437 71.0158 17.0067 71.1509 17.1418C71.2861 17.277 71.449 17.381 71.6285 17.4468C71.8079 17.5126 71.9995 17.5385 72.19 17.5227H72.47V19.3027H71.88C71.4855 19.3488 71.0856 19.3084 70.7083 19.1843C70.3309 19.0603 69.9851 18.8554 69.6948 18.5842C69.4046 18.313 69.1769 17.9819 69.0275 17.6138C68.8782 17.2457 68.8108 16.8497 68.83 16.4529V1.19287H70.77V1.20288Z" fill="#00211B"/>
<path d="M75.24 9.89285C75.2582 8.92876 75.653 8.01006 76.3398 7.33328C77.0267 6.65651 77.9511 6.27543 78.9154 6.27151C79.8796 6.2676 80.8071 6.64112 81.4995 7.31229C82.1918 7.98346 82.594 8.89891 82.62 9.86282V15.8328C82.62 16.8114 82.2313 17.7499 81.5393 18.4419C80.8473 19.1339 79.9087 19.5227 78.93 19.5227C77.9514 19.5227 77.0128 19.1339 76.3208 18.4419C75.6288 17.7499 75.24 16.8114 75.24 15.8328V9.89285ZM80.69 10.2527C80.69 8.83272 79.89 8.15286 78.93 8.15286C77.97 8.15286 77.17 8.82272 77.17 10.2527V15.5327C77.17 16.8727 77.79 17.6228 78.93 17.6228C80.01 17.6228 80.69 16.9227 80.69 15.5327V10.2527Z" fill="#00211B"/>
<path d="M91.31 9.86279C91.18 8.41279 90.38 8.10278 89.58 8.10278C88.62 8.10278 87.93 8.4627 87.93 9.7627C87.93 10.7727 88.63 11.1828 89.45 11.5728L91.05 12.3528C91.8303 12.7063 92.4659 13.3165 92.8509 14.0818C93.2359 14.8471 93.3471 15.7213 93.1658 16.5586C92.9845 17.3959 92.5219 18.1458 91.8548 18.6833C91.1878 19.2209 90.3567 19.5135 89.5 19.5127C86.63 19.5127 85.81 17.6228 85.75 15.8428H87.7101C87.8101 17.2128 88.43 17.7029 89.44 17.7029C89.6923 17.7369 89.949 17.7121 90.1902 17.6306C90.4313 17.5492 90.6504 17.4131 90.8304 17.2332C91.0104 17.0532 91.1464 16.8339 91.2279 16.5928C91.3093 16.3516 91.334 16.095 91.3 15.8428C91.3 14.8828 90.99 14.3927 89.67 13.7527L88.0901 12.9727C87.4079 12.7269 86.8281 12.2593 86.4436 11.6445C86.0592 11.0298 85.8923 10.3037 85.97 9.58276C85.97 7.85276 87.11 6.27271 89.66 6.27271C92.48 6.27271 93.17 8.26279 93.22 9.86279H91.31Z" fill="#00211B"/>
<path d="M108.72 15.3728H110.66V15.8928C110.628 16.8749 110.213 17.8053 109.502 18.4841C108.792 19.1629 107.843 19.5358 106.861 19.5227C105.878 19.5096 104.94 19.1115 104.248 18.414C103.556 17.7165 103.165 16.7753 103.16 15.7927V9.97264C103.136 9.47618 103.218 8.9803 103.398 8.51731C103.579 8.05433 103.855 7.6347 104.209 7.28562C104.563 6.93655 104.986 6.66596 105.452 6.49143C105.917 6.31691 106.414 6.24234 106.91 6.27268C107.398 6.23613 107.889 6.30269 108.35 6.468C108.81 6.63331 109.231 6.8936 109.585 7.23216C109.939 7.57071 110.217 7.97991 110.402 8.43309C110.587 8.88626 110.675 9.37344 110.66 9.86277V10.4328H108.72V10.2527C108.72 8.80267 107.89 8.15281 106.91 8.15281C105.9 8.15281 105.1 8.80267 105.1 10.2527V15.5327C105.1 16.9027 105.72 17.6228 106.91 17.6228C108.05 17.6228 108.72 16.9227 108.72 15.5327V15.3728Z" fill="#00211B"/>
<path d="M113.74 9.89285C113.758 8.92876 114.153 8.01006 114.84 7.33328C115.527 6.65651 116.451 6.27543 117.415 6.27151C118.38 6.2676 119.307 6.64112 119.999 7.31229C120.692 7.98346 121.094 8.89891 121.12 9.86282V15.8328C121.12 16.8114 120.731 17.7499 120.039 18.4419C119.347 19.1339 118.409 19.5227 117.43 19.5227C116.451 19.5227 115.513 19.1339 114.821 18.4419C114.129 17.7499 113.74 16.8114 113.74 15.8328V9.89285ZM119.19 10.2527C119.19 8.83272 118.39 8.15286 117.43 8.15286C116.47 8.15286 115.67 8.82272 115.67 10.2527V15.5327C115.67 16.8727 116.29 17.6228 117.43 17.6228C118.51 17.6228 119.19 16.9227 119.19 15.5327V10.2527Z" fill="#00211B"/>
<path d="M126.81 6.47256V7.74258C127.112 7.2922 127.519 6.92269 127.997 6.66641C128.475 6.41013 129.008 6.27492 129.55 6.27261C130.07 6.23804 130.589 6.35961 131.039 6.62148C131.49 6.88336 131.853 7.2736 132.08 7.74258C132.378 7.27652 132.791 6.89607 133.28 6.63833C133.77 6.38059 134.317 6.25447 134.87 6.27261C136.65 6.27261 137.5 7.49264 137.5 9.30264V19.3126H135.56V10.1527C135.56 9.04274 135.1 8.16274 133.93 8.16274C132.72 8.16274 132.15 9.2726 132.15 10.5126V19.3026H130.21V10.1427C130.21 9.34273 129.9 8.15273 128.61 8.15273C127.37 8.15273 126.8 9.31259 126.8 10.5026V19.2926H124.86V6.46255H126.81V6.47256Z" fill="#00211B"/>
<path d="M141.35 6.47266H143.29V7.74268C143.6 7.29538 144.012 6.92856 144.492 6.67285C144.972 6.41714 145.506 6.27998 146.05 6.27271C148.32 6.27271 148.74 8.00268 148.74 9.24268V16.5327C148.74 17.7727 148.33 19.5027 146.05 19.5027C145.506 19.4975 144.971 19.3614 144.49 19.1055C144.01 18.8496 143.598 18.4815 143.29 18.0327V24.5728H141.35V6.47266ZM146.8 15.6328V10.1528C146.8 9.17283 146.41 8.16284 145.17 8.16284C143.59 8.16284 143.28 9.7127 143.28 10.5127V15.2727C143.28 16.0727 143.59 17.6228 145.17 17.6228C146.42 17.6228 146.8 16.6128 146.8 15.6328Z" fill="#00211B"/>
<path d="M154.53 1.20288V16.1028C154.514 16.2932 154.54 16.4849 154.606 16.6643C154.672 16.8437 154.776 17.0067 154.911 17.1418C155.046 17.277 155.209 17.381 155.388 17.4468C155.568 17.5126 155.76 17.5385 155.95 17.5227H156.23V19.3027H155.64C155.245 19.3488 154.846 19.3084 154.468 19.1843C154.091 19.0603 153.745 18.8554 153.455 18.5842C153.165 18.313 152.937 17.9819 152.788 17.6138C152.638 17.2457 152.571 16.8497 152.59 16.4529V1.19287H154.53V1.20288Z" fill="#00211B"/>
<path d="M164.37 15.7126H166.31V15.8928C166.348 16.3726 166.282 16.8548 166.117 17.3071C165.953 17.7593 165.693 18.1709 165.355 18.5141C165.018 18.8573 164.61 19.1241 164.161 19.2963C163.712 19.4686 163.23 19.5423 162.75 19.5126C162.252 19.5436 161.753 19.4688 161.286 19.2932C160.819 19.1176 160.395 18.8452 160.041 18.4938C159.686 18.1425 159.411 17.7201 159.231 17.2546C159.052 16.789 158.973 16.2908 159 15.7927V9.84272C158.98 9.36429 159.06 8.88688 159.236 8.44136C159.411 7.99583 159.678 7.59205 160.019 7.25581C160.36 6.91957 160.768 6.65827 161.216 6.48896C161.664 6.31966 162.142 6.24601 162.62 6.27266C163.111 6.25207 163.601 6.33239 164.06 6.5085C164.519 6.6846 164.937 6.95273 165.289 7.29658C165.64 7.64043 165.917 8.05268 166.103 8.50776C166.289 8.96284 166.38 9.45131 166.37 9.94282V13.6127H160.95V15.6528C160.95 17.0228 161.57 17.6228 162.76 17.6228C163.9 17.6228 164.39 16.9227 164.39 15.8627V15.7126H164.37ZM164.42 12.1628V9.9626C164.446 9.72546 164.42 9.48561 164.343 9.25972C164.266 9.03382 164.141 8.82742 163.976 8.65498C163.812 8.48254 163.611 8.3482 163.389 8.26142C163.167 8.17465 162.928 8.13767 162.69 8.15278C162.444 8.1475 162.201 8.19453 161.975 8.29072C161.749 8.38691 161.546 8.53001 161.379 8.71064C161.213 8.89128 161.087 9.10522 161.009 9.33833C160.932 9.57144 160.905 9.81837 160.93 10.0627V12.1628H164.42Z" fill="#00211B"/>
<path d="M172.28 2.57275V6.48267H174.09V8.03271H172.28V15.8127C172.236 16.0495 172.25 16.2934 172.322 16.5234C172.393 16.7535 172.519 16.9628 172.69 17.1331C172.86 17.3034 173.069 17.4296 173.299 17.501C173.529 17.5724 173.773 17.5867 174.01 17.5427H174.22V19.3027H173.65C173.199 19.4084 172.728 19.3979 172.282 19.2722C171.836 19.1465 171.429 18.9099 171.1 18.5842C170.77 18.2586 170.528 17.8546 170.397 17.4102C170.266 16.9657 170.25 16.4952 170.35 16.0427V8.02271H168.98V6.47266H170.35V2.56274H172.28V2.57275Z" fill="#00211B"/>
<path d="M177.13 9.89285C177.148 8.92876 177.543 8.01006 178.23 7.33328C178.917 6.65651 179.841 6.27543 180.805 6.27151C181.77 6.2676 182.697 6.64112 183.389 7.31229C184.082 7.98346 184.484 8.89891 184.51 9.86282V15.8328C184.51 16.8114 184.121 17.7499 183.429 18.4419C182.737 19.1339 181.799 19.5227 180.82 19.5227C179.841 19.5227 178.903 19.1339 178.211 18.4419C177.519 17.7499 177.13 16.8114 177.13 15.8328V9.89285ZM182.58 10.2527C182.58 8.83272 181.78 8.15286 180.82 8.15286C179.86 8.15286 179.06 8.82272 179.06 10.2527V15.5327C179.06 16.8727 179.68 17.6228 180.82 17.6228C181.9 17.6228 182.58 16.9227 182.58 15.5327V10.2527Z" fill="#00211B"/>
<path d="M193.2 9.86279C193.07 8.41279 192.27 8.10278 191.47 8.10278C190.51 8.10278 189.82 8.4627 189.82 9.7627C189.82 10.7727 190.52 11.1828 191.34 11.5728L192.94 12.3528C193.72 12.7063 194.356 13.3165 194.741 14.0818C195.126 14.8471 195.237 15.7213 195.056 16.5586C194.875 17.3959 194.412 18.1458 193.745 18.6833C193.078 19.2209 192.247 19.5135 191.39 19.5127C188.52 19.5127 187.7 17.6228 187.64 15.8428H189.6C189.7 17.2128 190.32 17.7029 191.33 17.7029C191.582 17.7369 191.839 17.7121 192.08 17.6306C192.321 17.5492 192.54 17.4131 192.72 17.2332C192.9 17.0532 193.036 16.8339 193.118 16.5928C193.199 16.3516 193.224 16.095 193.19 15.8428C193.19 14.8828 192.88 14.3927 191.56 13.7527L189.98 12.9727C189.298 12.7269 188.718 12.2593 188.334 11.6445C187.949 11.0298 187.782 10.3037 187.86 9.58276C187.86 7.85276 189 6.27271 191.55 6.27271C194.37 6.27271 195.06 8.26279 195.11 9.86279H193.2Z" fill="#00211B"/>
<path d="M205.16 6.47266H207.1V7.74268C207.41 7.29538 207.822 6.92856 208.302 6.67285C208.782 6.41714 209.316 6.27998 209.86 6.27271C212.13 6.27271 212.55 8.00268 212.55 9.24268V16.5327C212.55 17.7727 212.14 19.5027 209.86 19.5027C209.316 19.4975 208.781 19.3614 208.3 19.1055C207.82 18.8496 207.408 18.4815 207.1 18.0327V24.5728H205.16V6.47266ZM210.61 15.6328V10.1528C210.61 9.17283 210.22 8.16284 208.98 8.16284C207.4 8.16284 207.09 9.7127 207.09 10.5127V15.2727C207.09 16.0727 207.4 17.6228 208.98 17.6228C210.23 17.6228 210.61 16.6128 210.61 15.6328Z" fill="#00211B"/>
<path d="M221.72 18.0428H221.69C221.374 18.5138 220.942 18.8961 220.436 19.1534C219.93 19.4107 219.367 19.5344 218.8 19.5128C216.76 19.5128 216.17 17.9629 216.17 15.9129C216.17 13.1929 217.05 11.6729 219.92 11.6729C220.525 11.6756 221.129 11.7088 221.73 11.7728V9.8829C221.731 9.6487 221.684 9.41674 221.592 9.20126C221.5 8.98578 221.366 8.79131 221.196 8.62948C221.027 8.46766 220.827 8.34178 220.607 8.25985C220.388 8.17793 220.154 8.14166 219.92 8.15292C219.479 8.13626 219.049 8.29165 218.72 8.58651C218.392 8.88138 218.191 9.29244 218.16 9.73275H216.3C216.295 9.25154 216.391 8.77479 216.581 8.33285C216.772 7.89092 217.053 7.49368 217.406 7.16684C217.759 6.83999 218.177 6.59059 218.632 6.4349C219.088 6.27921 219.571 6.22061 220.05 6.26278C223.02 6.26278 223.67 8.46288 223.67 10.1129V19.2928H221.73V18.0428H221.72ZM221.72 13.203C221.283 13.1307 220.842 13.0872 220.4 13.0728C220.077 13.0533 219.754 13.1055 219.454 13.2259C219.153 13.3463 218.884 13.5319 218.664 13.7691C218.444 14.0063 218.279 14.2893 218.182 14.5977C218.084 14.9062 218.056 15.2323 218.1 15.5528C218.1 17.3628 218.64 17.8529 219.75 17.8529C220.307 17.7428 220.807 17.4416 221.165 17.0016C221.523 16.5615 221.716 16.0102 221.71 15.443V13.203H221.72Z" fill="#00211B"/>
<path d="M229.45 6.47266V8.49268C230.82 6.63268 232.01 6.29271 233.01 6.27271V8.44287H232.65C231.23 8.44287 229.45 9.01276 229.45 11.8328V19.3027H227.51V6.47266H229.45Z" fill="#00211B"/>
<path d="M240.53 18.0428H240.5C240.184 18.5138 239.752 18.8961 239.246 19.1534C238.74 19.4107 238.177 19.5344 237.61 19.5128C235.57 19.5128 234.98 17.9629 234.98 15.9129C234.98 13.1929 235.86 11.6729 238.73 11.6729C239.335 11.6756 239.939 11.7088 240.54 11.7728V9.8829C240.541 9.6487 240.494 9.41674 240.402 9.20126C240.31 8.98578 240.176 8.79131 240.006 8.62948C239.837 8.46766 239.637 8.34178 239.417 8.25985C239.198 8.17793 238.964 8.14166 238.73 8.15292C238.289 8.13626 237.859 8.29165 237.53 8.58651C237.202 8.88138 237.001 9.29244 236.97 9.73275H235.11C235.105 9.25154 235.201 8.77479 235.391 8.33285C235.582 7.89092 235.863 7.49368 236.216 7.16684C236.569 6.83999 236.987 6.59059 237.442 6.4349C237.898 6.27921 238.381 6.22061 238.86 6.26278C241.83 6.26278 242.48 8.46288 242.48 10.1129V19.2928H240.54V18.0428H240.53ZM240.53 13.203C240.093 13.1307 239.652 13.0872 239.21 13.0728C238.887 13.0533 238.564 13.1055 238.264 13.2259C237.963 13.3463 237.694 13.5319 237.474 13.7691C237.254 14.0063 237.089 14.2893 236.992 14.5977C236.894 14.9062 236.866 15.2323 236.91 15.5528C236.91 17.3628 237.45 17.8529 238.56 17.8529C239.117 17.7428 239.617 17.4416 239.975 17.0016C240.333 16.5615 240.526 16.0102 240.52 15.443V13.203H240.53Z" fill="#00211B"/>
<path d="M256.73 19.3027H255.21L251.85 6.47266H253.89L256.03 15.4727H256.08L258.17 6.47266H260.13L256.73 19.3027Z" fill="#00211B"/>
<path d="M262.67 9.89285C262.688 8.92876 263.083 8.01006 263.77 7.33328C264.457 6.65651 265.381 6.27543 266.345 6.27151C267.31 6.2676 268.237 6.64112 268.929 7.31229C269.622 7.98346 270.024 8.89891 270.05 9.86282V15.8328C270.05 16.8114 269.661 17.7499 268.969 18.4419C268.277 19.1339 267.339 19.5227 266.36 19.5227C265.381 19.5227 264.443 19.1339 263.751 18.4419C263.059 17.7499 262.67 16.8114 262.67 15.8328V9.89285ZM268.12 10.2527C268.12 8.83272 267.32 8.15286 266.36 8.15286C265.4 8.15286 264.6 8.82272 264.6 10.2527V15.5327C264.6 16.8727 265.22 17.6228 266.36 17.6228C267.44 17.6228 268.12 16.9227 268.12 15.5327V10.2527Z" fill="#00211B"/>
<path d="M279.25 15.3728H281.19V15.8928C281.158 16.8749 280.743 17.8053 280.032 18.4841C279.322 19.1629 278.373 19.5358 277.391 19.5227C276.408 19.5096 275.47 19.1115 274.778 18.414C274.086 17.7165 273.695 16.7753 273.69 15.7927V9.97264C273.666 9.47618 273.747 8.9803 273.928 8.51731C274.109 8.05433 274.385 7.6347 274.739 7.28562C275.093 6.93655 275.516 6.66596 275.982 6.49143C276.447 6.31691 276.944 6.24234 277.44 6.27268C277.928 6.23613 278.419 6.30269 278.879 6.468C279.34 6.63331 279.761 6.8936 280.115 7.23216C280.468 7.57071 280.747 7.97991 280.932 8.43309C281.117 8.88626 281.205 9.37344 281.19 9.86277V10.4328H279.25V10.2527C279.25 8.80267 278.42 8.15281 277.44 8.15281C276.43 8.15281 275.63 8.80267 275.63 10.2527V15.5327C275.63 16.9027 276.25 17.6228 277.44 17.6228C278.58 17.6228 279.25 16.9227 279.25 15.5327V15.3728Z" fill="#00211B"/>
<path d="M289.64 15.7126H291.58V15.8928C291.618 16.3727 291.552 16.8549 291.387 17.3071C291.223 17.7594 290.963 18.171 290.625 18.5142C290.288 18.8573 289.88 19.1241 289.431 19.2964C288.982 19.4687 288.5 19.5424 288.02 19.5127C287.522 19.5436 287.023 19.4688 286.556 19.2932C286.089 19.1176 285.665 18.8452 285.311 18.4939C284.956 18.1425 284.681 17.7202 284.501 17.2546C284.322 16.7891 284.243 16.2909 284.27 15.7927V9.84277C284.25 9.36434 284.33 8.88693 284.506 8.44141C284.681 7.99588 284.948 7.5921 285.289 7.25586C285.63 6.91962 286.038 6.65832 286.486 6.48901C286.934 6.31971 287.412 6.24606 287.89 6.27271C288.381 6.25212 288.871 6.33244 289.33 6.50854C289.789 6.68465 290.207 6.95278 290.559 7.29663C290.91 7.64048 291.187 8.05273 291.373 8.50781C291.559 8.96289 291.65 9.45136 291.64 9.94287V13.6128H286.22V15.6528C286.22 17.0228 286.84 17.6228 288.03 17.6228C289.17 17.6228 289.66 16.9228 289.66 15.8628V15.7126H289.64ZM286.46 4.15283H285.27L286.59 1.20288H289.28L290.57 4.15283H289.38L287.93 2.34277L286.46 4.15283ZM289.69 12.1628V9.96265C289.716 9.72551 289.69 9.48566 289.613 9.25977C289.536 9.03387 289.411 8.82747 289.246 8.65503C289.082 8.48259 288.881 8.34825 288.659 8.26147C288.437 8.1747 288.198 8.13772 287.96 8.15283C287.715 8.14755 287.471 8.19458 287.245 8.29077C287.019 8.38696 286.816 8.53006 286.649 8.71069C286.483 8.89133 286.357 9.10527 286.279 9.33838C286.202 9.57149 286.175 9.81842 286.2 10.0627V12.1628H289.69Z" fill="#00211B"/>
<path d="M6.27002 48.0728H6.24002C5.92354 48.5439 5.49189 48.9262 4.98608 49.1834C4.48027 49.4407 3.91711 49.5644 3.35004 49.5428C1.31004 49.5428 0.720032 47.993 0.720032 45.943C0.720032 43.223 1.60003 41.703 4.47003 41.703C5.07467 41.7056 5.67878 41.7388 6.28003 41.8028V39.9129C6.28071 39.6787 6.23375 39.4468 6.142 39.2313C6.05025 39.0158 5.91561 38.8213 5.74631 38.6595C5.577 38.4977 5.37654 38.3718 5.15714 38.2899C4.93773 38.208 4.70396 38.1717 4.47003 38.1829C4.02895 38.1663 3.59869 38.3217 3.27023 38.6165C2.94178 38.9114 2.74086 39.3225 2.71002 39.7628H0.850037C0.845114 39.2816 0.940982 38.8048 1.13147 38.3629C1.32196 37.9209 1.60283 37.5237 1.95605 37.1969C2.30928 36.87 2.72701 36.6206 3.18237 36.4649C3.63773 36.3092 4.12065 36.2506 4.60004 36.2928C7.57004 36.2928 8.22003 38.4929 8.22003 40.1429V49.3228H6.28003V48.0728H6.27002ZM6.27002 43.2328C5.83335 43.1605 5.39242 43.1172 4.95004 43.1029C4.62715 43.0833 4.30394 43.1356 4.00369 43.2559C3.70344 43.3763 3.43362 43.5617 3.21365 43.7989C2.99369 44.0361 2.82903 44.3193 2.73157 44.6278C2.63411 44.9362 2.60626 45.2623 2.65002 45.5829C2.65002 47.3929 3.19002 47.8829 4.30002 47.8829C4.8565 47.7728 5.35701 47.4717 5.71494 47.0316C6.07286 46.5915 6.26569 46.04 6.26004 45.4727V43.2328H6.27002Z" fill="#00211B"/>
<path d="M12.05 36.5127H13.99V37.7827C14.2996 37.3354 14.7116 36.9686 15.1917 36.7129C15.6718 36.4572 16.2061 36.32 16.75 36.3127C19.02 36.3127 19.44 38.0427 19.44 39.2827V46.5728C19.44 47.8128 19.03 49.5427 16.75 49.5427C16.2057 49.5375 15.6707 49.4012 15.1902 49.1453C14.7098 48.8894 14.2981 48.5215 13.99 48.0728V54.6128H12.05V36.5127ZM17.5 45.6628V40.1829C17.5 39.2029 17.11 38.1929 15.87 38.1929C14.29 38.1929 13.98 39.7427 13.98 40.5427V45.3027C13.98 46.1027 14.29 47.6528 15.87 47.6528C17.12 47.6528 17.5 46.6528 17.5 45.6628Z" fill="#00211B"/>
<path d="M25.23 36.5127V38.5327C26.6 36.6727 27.79 36.3327 28.79 36.3127V38.4827H28.43C27.01 38.4827 25.23 39.0528 25.23 41.8728V49.3428H23.29V36.5127H25.23Z" fill="#00211B"/>
<path d="M36.47 45.7426H38.41V45.9228C38.4477 46.4026 38.382 46.8849 38.2172 47.3371C38.0525 47.7894 37.7926 48.201 37.4551 48.5441C37.1176 48.8873 36.7104 49.1541 36.261 49.3264C35.8116 49.4986 35.3304 49.5723 34.85 49.5427C34.3521 49.5736 33.8533 49.4988 33.3863 49.3232C32.9193 49.1476 32.4948 48.8752 32.1406 48.5239C31.7864 48.1725 31.5106 47.7502 31.3313 47.2846C31.1519 46.8191 31.0731 46.3209 31.1 45.8227V39.8728C31.08 39.3943 31.1604 38.9169 31.3359 38.4714C31.5114 38.0259 31.7782 37.6221 32.1192 37.2858C32.4601 36.9496 32.8677 36.6883 33.3156 36.519C33.7635 36.3497 34.2419 36.276 34.72 36.3027C35.2112 36.2821 35.7014 36.3624 36.1604 36.5385C36.6193 36.7146 37.0374 36.9828 37.3888 37.3266C37.7401 37.6705 38.0173 38.0827 38.2033 38.5378C38.3892 38.9929 38.48 39.4811 38.47 39.9726V43.6428H33.05V45.6828C33.05 47.0528 33.67 47.6528 34.86 47.6528C36 47.6528 36.49 46.9528 36.49 45.8928V45.7426H36.47ZM36.52 42.2028V40.0026C36.5459 39.7655 36.5195 39.5256 36.4429 39.2998C36.3663 39.0739 36.2411 38.8675 36.0763 38.695C35.9115 38.5226 35.711 38.3882 35.4888 38.3015C35.2666 38.2147 35.0281 38.1777 34.79 38.1928C34.5445 38.1875 34.3006 38.2346 34.0745 38.3308C33.8485 38.427 33.6456 38.57 33.4791 38.7507C33.3127 38.9313 33.1865 39.1453 33.1091 39.3784C33.0317 39.6115 33.0047 39.8584 33.03 40.1027V42.2028H36.52Z" fill="#00211B"/>
<path d="M42.1 36.5127H44.04V37.7827C44.3496 37.3354 44.7616 36.9686 45.2417 36.7129C45.7218 36.4572 46.2561 36.32 46.8 36.3127C49.07 36.3127 49.49 38.0427 49.49 39.2827V49.3428H47.55V40.1829C47.55 39.2029 47.16 38.1929 45.92 38.1929C44.34 38.1929 44.03 39.7427 44.03 40.5427V49.3328H42.09V36.5127H42.1Z" fill="#00211B"/>
<path d="M60.72 49.3428H58.78V48.0728C58.4705 48.52 58.0584 48.8869 57.5783 49.1426C57.0982 49.3983 56.5639 49.5354 56.02 49.5427C53.75 49.5427 53.33 47.8128 53.33 46.5728V39.2827C53.33 38.0427 53.74 36.3127 56.02 36.3127C56.5643 36.318 57.0994 36.4543 57.5798 36.7102C58.0603 36.9661 58.472 37.3339 58.78 37.7827V31.2427H60.72V49.3428ZM58.79 45.3027V40.5427C58.79 39.7427 58.48 38.1929 56.9 38.1929C55.66 38.1929 55.27 39.2029 55.27 40.1829V45.6628C55.27 46.6428 55.66 47.6528 56.9 47.6528C58.48 47.6528 58.79 46.1027 58.79 45.3027Z" fill="#00211B"/>
<path d="M69.8401 45.7426H71.7801V45.9228C71.8178 46.4026 71.752 46.8849 71.5872 47.3371C71.4225 47.7894 71.1626 48.201 70.8252 48.5441C70.4877 48.8873 70.0804 49.1541 69.631 49.3264C69.1816 49.4986 68.7004 49.5723 68.22 49.5427C67.7221 49.5736 67.2233 49.4988 66.7563 49.3232C66.2893 49.1476 65.8648 48.8752 65.5106 48.5239C65.1564 48.1725 64.8806 47.7502 64.7013 47.2846C64.5219 46.8191 64.4431 46.3209 64.47 45.8227V39.8728C64.45 39.3943 64.5304 38.9169 64.7059 38.4714C64.8814 38.0259 65.1482 37.6221 65.4892 37.2858C65.8301 36.9496 66.2376 36.6883 66.6856 36.519C67.1335 36.3497 67.6119 36.276 68.0901 36.3027C68.5812 36.2821 69.0714 36.3624 69.5304 36.5385C69.9893 36.7146 70.4074 36.9828 70.7588 37.3266C71.1101 37.6705 71.3873 38.0827 71.5733 38.5378C71.7592 38.9929 71.85 39.4811 71.8401 39.9726V43.6428H66.42V45.6828C66.42 47.0528 67.04 47.6528 68.23 47.6528C69.37 47.6528 69.86 46.9528 69.86 45.8928V45.7426H69.8401ZM69.9 42.2028V40.0026C69.9259 39.7655 69.8995 39.5256 69.8229 39.2998C69.7463 39.0739 69.6211 38.8675 69.4563 38.695C69.2915 38.5226 69.091 38.3882 68.8688 38.3015C68.6466 38.2147 68.4081 38.1777 68.17 38.1928C67.9244 38.1875 67.6806 38.2346 67.4546 38.3308C67.2285 38.427 67.0255 38.57 66.8591 38.7507C66.6926 38.9313 66.5665 39.1453 66.4891 39.3784C66.4117 39.6115 66.3847 39.8584 66.41 40.1027V42.2028H69.9Z" fill="#00211B"/>
<path d="M77.41 36.5127V38.5327C78.78 36.6727 79.97 36.3327 80.97 36.3127V38.4827H80.61C79.19 38.4827 77.41 39.0528 77.41 41.8728V49.3428H75.47V36.5127H77.41Z" fill="#00211B"/>
<path d="M95.63 48.0728H95.6C95.2835 48.5439 94.8519 48.9262 94.3461 49.1834C93.8403 49.4407 93.2771 49.5644 92.7101 49.5428C90.6701 49.5428 90.08 47.993 90.08 45.943C90.08 43.223 90.96 41.703 93.83 41.703C94.4347 41.7056 95.0388 41.7388 95.64 41.8028V39.9129C95.6407 39.6787 95.5937 39.4468 95.502 39.2313C95.4102 39.0158 95.2756 38.8213 95.1063 38.6595C94.937 38.4977 94.7365 38.3718 94.5171 38.2899C94.2977 38.208 94.064 38.1717 93.83 38.1829C93.389 38.1663 92.9587 38.3217 92.6302 38.6165C92.3018 38.9114 92.1009 39.3225 92.07 39.7628H90.2101C90.2051 39.2816 90.301 38.8048 90.4915 38.3629C90.682 37.9209 90.9629 37.5237 91.3161 37.1969C91.6693 36.87 92.087 36.6206 92.5424 36.4649C92.9978 36.3092 93.4807 36.2506 93.9601 36.2928C96.9301 36.2928 97.58 38.4929 97.58 40.1429V49.3228H95.64V48.0728H95.63ZM95.63 43.2328C95.1934 43.1605 94.7524 43.1172 94.31 43.1029C93.9871 43.0833 93.6639 43.1356 93.3637 43.2559C93.0634 43.3763 92.7936 43.5617 92.5736 43.7989C92.3537 44.0361 92.189 44.3193 92.0916 44.6278C91.9941 44.9362 91.9663 45.2623 92.01 45.5829C92.01 47.3929 92.55 47.8829 93.66 47.8829C94.2165 47.7728 94.717 47.4717 95.0749 47.0316C95.4328 46.5915 95.6257 46.04 95.62 45.4727V43.2328H95.63Z" fill="#00211B"/>
<path d="M113.53 45.4028H115.47V45.9228C115.438 46.9049 115.023 47.8353 114.312 48.5141C113.602 49.1929 112.653 49.5658 111.671 49.5527C110.688 49.5396 109.75 49.1416 109.058 48.4441C108.366 47.7466 107.975 46.8053 107.97 45.8227V40.0027C107.946 39.5062 108.028 39.0103 108.208 38.5473C108.389 38.0844 108.665 37.6647 109.019 37.3157C109.373 36.9666 109.796 36.696 110.262 36.5215C110.727 36.3469 111.224 36.2724 111.72 36.3027C112.208 36.2662 112.699 36.3327 113.16 36.498C113.62 36.6633 114.041 36.9236 114.395 37.2622C114.748 37.6007 115.027 38.0099 115.212 38.4631C115.397 38.9163 115.485 39.4035 115.47 39.8928V40.4626H113.53V40.2827C113.53 38.8327 112.7 38.1828 111.72 38.1828C110.71 38.1828 109.91 38.8327 109.91 40.2827V45.5627C109.91 46.9327 110.53 47.6528 111.72 47.6528C112.86 47.6528 113.53 46.9527 113.53 45.5627V45.4028Z" fill="#00211B"/>
<path d="M120.58 36.5127V38.5327C121.95 36.6727 123.14 36.3327 124.14 36.3127V38.4827H123.78C122.36 38.4827 120.58 39.0528 120.58 41.8728V49.3428H118.64V36.5127H120.58Z" fill="#00211B"/>
<path d="M128.75 31.5928V33.4827H126.81V31.5928H128.75ZM126.81 36.5127H128.75V49.3428H126.81V36.5127Z" fill="#00211B"/>
<path d="M137.92 48.0728H137.89C137.574 48.5439 137.142 48.9262 136.636 49.1834C136.13 49.4407 135.567 49.5644 135 49.5428C132.96 49.5428 132.37 47.993 132.37 45.943C132.37 43.223 133.25 41.703 136.12 41.703C136.725 41.7056 137.329 41.7388 137.93 41.8028V39.9129C137.931 39.6787 137.884 39.4468 137.792 39.2313C137.7 39.0158 137.566 38.8213 137.396 38.6595C137.227 38.4977 137.027 38.3718 136.807 38.2899C136.588 38.208 136.354 38.1717 136.12 38.1829C135.679 38.1663 135.249 38.3217 134.92 38.6165C134.592 38.9114 134.391 39.3225 134.36 39.7628H132.5C132.495 39.2816 132.591 38.8048 132.781 38.3629C132.972 37.9209 133.253 37.5237 133.606 37.1969C133.959 36.87 134.377 36.6206 134.832 36.4649C135.288 36.3092 135.771 36.2506 136.25 36.2928C139.22 36.2928 139.87 38.4929 139.87 40.1429V49.3228H137.93V48.0728H137.92ZM137.92 43.2328C137.483 43.1605 137.042 43.1172 136.6 43.1029C136.277 43.0833 135.954 43.1356 135.654 43.2559C135.353 43.3763 135.084 43.5617 134.864 43.7989C134.644 44.0361 134.479 44.3193 134.382 44.6278C134.284 44.9362 134.256 45.2623 134.3 45.5829C134.3 47.3929 134.84 47.8829 135.95 47.8829C136.507 47.7728 137.007 47.4717 137.365 47.0316C137.723 46.5915 137.916 46.04 137.91 45.4727V43.2328H137.92Z" fill="#00211B"/>
<path d="M145.64 36.5127V38.5327C147.01 36.6727 148.2 36.3327 149.2 36.3127V38.4827H148.84C147.42 38.4827 145.64 39.0528 145.64 41.8728V49.3428H143.7V36.5127H145.64Z" fill="#00211B"/>
<path d="M154.04 47.1428V49.5728L151.82 51.5627V47.1428H154.04Z" fill="#00211B"/>
<path d="M166.69 36.5127V38.5327C168.06 36.6727 169.25 36.3327 170.25 36.3127V38.4827H169.89C168.47 38.4827 166.69 39.0528 166.69 41.8728V49.3428H164.75V36.5127H166.69Z" fill="#00211B"/>
<path d="M177.93 45.7426H179.87V45.9228C179.908 46.4026 179.842 46.8849 179.677 47.3371C179.513 47.7894 179.253 48.201 178.915 48.5441C178.578 48.8873 178.17 49.1541 177.721 49.3264C177.272 49.4986 176.79 49.5723 176.31 49.5427C175.812 49.5736 175.313 49.4988 174.846 49.3232C174.379 49.1476 173.955 48.8752 173.601 48.5239C173.246 48.1725 172.971 47.7502 172.791 47.2846C172.612 46.8191 172.533 46.3209 172.56 45.8227V39.8728C172.54 39.3943 172.62 38.9169 172.796 38.4714C172.971 38.0259 173.238 37.6221 173.579 37.2858C173.92 36.9496 174.328 36.6883 174.776 36.519C175.224 36.3497 175.702 36.276 176.18 36.3027C176.671 36.2821 177.161 36.3624 177.62 36.5385C178.079 36.7146 178.497 36.9828 178.849 37.3266C179.2 37.6705 179.477 38.0827 179.663 38.5378C179.849 38.9929 179.94 39.4811 179.93 39.9726V43.6428H174.51V45.6828C174.51 47.0528 175.13 47.6528 176.32 47.6528C177.46 47.6528 177.95 46.9528 177.95 45.8928V45.7426H177.93ZM177.98 42.2028V40.0026C178.006 39.7655 177.98 39.5256 177.903 39.2998C177.826 39.0739 177.701 38.8675 177.536 38.695C177.372 38.5226 177.171 38.3882 176.949 38.3015C176.727 38.2147 176.488 38.1777 176.25 38.1928C176.004 38.1875 175.761 38.2346 175.535 38.3308C175.309 38.427 175.106 38.57 174.939 38.7507C174.773 38.9313 174.647 39.1453 174.569 39.3784C174.492 39.6115 174.465 39.8584 174.49 40.1027V42.2028H177.98Z" fill="#00211B"/>
<path d="M189.02 45.4028H190.96V45.9228C190.928 46.9049 190.513 47.8353 189.802 48.5141C189.092 49.1929 188.143 49.5658 187.161 49.5527C186.178 49.5396 185.24 49.1416 184.548 48.4441C183.856 47.7466 183.465 46.8053 183.46 45.8227V40.0027C183.436 39.5062 183.518 39.0103 183.698 38.5473C183.879 38.0844 184.155 37.6647 184.509 37.3157C184.863 36.9666 185.286 36.696 185.752 36.5215C186.217 36.3469 186.714 36.2724 187.21 36.3027C187.698 36.2662 188.189 36.3327 188.649 36.498C189.11 36.6633 189.531 36.9236 189.885 37.2622C190.238 37.6007 190.517 38.0099 190.702 38.4631C190.887 38.9163 190.975 39.4035 190.96 39.8928V40.4626H189.02V40.2827C189.02 38.8327 188.19 38.1828 187.21 38.1828C186.2 38.1828 185.4 38.8327 185.4 40.2827V45.5627C185.4 46.9327 186.02 47.6528 187.21 47.6528C188.35 47.6528 189.02 46.9527 189.02 45.5627V45.4028Z" fill="#00211B"/>
<path d="M196.07 36.5127V38.5327C197.44 36.6727 198.63 36.3327 199.63 36.3127V38.4827H199.27C197.85 38.4827 196.07 39.0528 196.07 41.8728V49.3428H194.13V36.5127H196.07Z" fill="#00211B"/>
<path d="M204.23 31.5928V33.4827H202.29V31.5928H204.23ZM202.29 36.5127H204.23V49.3428H202.29V36.5127Z" fill="#00211B"/>
<path d="M213.4 48.0728H213.37C213.054 48.5439 212.622 48.9262 212.116 49.1834C211.61 49.4407 211.047 49.5644 210.48 49.5428C208.44 49.5428 207.85 47.993 207.85 45.943C207.85 43.223 208.73 41.703 211.6 41.703C212.205 41.7056 212.809 41.7388 213.41 41.8028V39.9129C213.411 39.6787 213.364 39.4468 213.272 39.2313C213.18 39.0158 213.046 38.8213 212.876 38.6595C212.707 38.4977 212.507 38.3718 212.287 38.2899C212.068 38.208 211.834 38.1717 211.6 38.1829C211.159 38.1663 210.729 38.3217 210.4 38.6165C210.072 38.9114 209.871 39.3225 209.84 39.7628H207.98C207.975 39.2816 208.071 38.8048 208.261 38.3629C208.452 37.9209 208.733 37.5237 209.086 37.1969C209.439 36.87 209.857 36.6206 210.312 36.4649C210.768 36.3092 211.251 36.2506 211.73 36.2928C214.7 36.2928 215.35 38.4929 215.35 40.1429V49.3228H213.41V48.0728H213.4ZM213.4 43.2328C212.963 43.1605 212.522 43.1172 212.08 43.1029C211.757 43.0833 211.434 43.1356 211.134 43.2559C210.833 43.3763 210.564 43.5617 210.344 43.7989C210.124 44.0361 209.959 44.3193 209.862 44.6278C209.764 44.9362 209.736 45.2623 209.78 45.5829C209.78 47.3929 210.32 47.8829 211.43 47.8829C211.987 47.7728 212.487 47.4717 212.845 47.0316C213.203 46.5915 213.396 46.04 213.39 45.4727V43.2328H213.4Z" fill="#00211B"/>
<path d="M221.13 36.5127V38.5327C222.5 36.6727 223.69 36.3327 224.69 36.3127V38.4827H224.33C222.91 38.4827 221.13 39.0528 221.13 41.8728V49.3428H219.19V36.5127H221.13Z" fill="#00211B"/>
<path d="M229.52 47.1428V49.5728L227.3 51.5627V47.1428H229.52Z" fill="#00211B"/>
<path d="M245.51 45.7426H247.45V45.9228C247.488 46.4026 247.422 46.8849 247.257 47.3371C247.093 47.7894 246.833 48.201 246.495 48.5441C246.158 48.8873 245.75 49.1541 245.301 49.3264C244.852 49.4986 244.37 49.5723 243.89 49.5427C243.392 49.5736 242.893 49.4988 242.426 49.3232C241.959 49.1476 241.535 48.8752 241.181 48.5239C240.826 48.1725 240.551 47.7502 240.371 47.2846C240.192 46.8191 240.113 46.3209 240.14 45.8227V39.8728C240.12 39.3943 240.2 38.9169 240.376 38.4714C240.551 38.0259 240.818 37.6221 241.159 37.2858C241.5 36.9496 241.908 36.6883 242.356 36.519C242.804 36.3497 243.282 36.276 243.76 36.3027C244.251 36.2821 244.741 36.3624 245.2 36.5385C245.659 36.7146 246.077 36.9828 246.429 37.3266C246.78 37.6705 247.057 38.0827 247.243 38.5378C247.429 38.9929 247.52 39.4811 247.51 39.9726V43.6428H242.09V45.6828C242.09 47.0528 242.71 47.6528 243.9 47.6528C245.04 47.6528 245.53 46.9528 245.53 45.8928V45.7426H245.51ZM245.57 42.2028V40.0026C245.596 39.7655 245.57 39.5256 245.493 39.2998C245.416 39.0739 245.291 38.8675 245.126 38.695C244.962 38.5226 244.761 38.3882 244.539 38.3015C244.317 38.2147 244.078 38.1777 243.84 38.1928C243.595 38.1875 243.351 38.2346 243.125 38.3308C242.899 38.427 242.696 38.57 242.529 38.7507C242.363 38.9313 242.237 39.1453 242.159 39.3784C242.082 39.6115 242.055 39.8584 242.08 40.1027V42.2028H245.57Z" fill="#00211B"/>
<path d="M256.08 39.8928C255.95 38.4428 255.15 38.1328 254.35 38.1328C253.39 38.1328 252.7 38.4927 252.7 39.7927C252.7 40.8027 253.4 41.2128 254.22 41.6028L255.82 42.3828C256.6 42.7364 257.236 43.3465 257.621 44.1118C258.006 44.8771 258.117 45.7513 257.936 46.5886C257.755 47.4259 257.292 48.1758 256.625 48.7134C255.958 49.2509 255.127 49.5435 254.27 49.5427C251.4 49.5427 250.58 47.6528 250.52 45.8728H252.48C252.58 47.2428 253.2 47.7327 254.21 47.7327C254.462 47.7666 254.719 47.7421 254.96 47.6606C255.201 47.5792 255.42 47.4432 255.6 47.2632C255.78 47.0832 255.916 46.864 255.998 46.6228C256.079 46.3816 256.104 46.1251 256.07 45.8728C256.07 44.9128 255.76 44.4227 254.44 43.7827L252.86 43.0027C252.178 42.7569 251.598 42.2893 251.214 41.6746C250.829 41.0598 250.662 40.3337 250.74 39.6128C250.74 37.8828 251.88 36.3027 254.43 36.3027C257.25 36.3027 257.94 38.2928 257.99 39.8928H256.08Z" fill="#00211B"/>
<path d="M266.83 45.4028H268.77V45.9228C268.738 46.9049 268.323 47.8353 267.612 48.5141C266.902 49.1929 265.953 49.5658 264.971 49.5527C263.988 49.5396 263.05 49.1416 262.358 48.4441C261.666 47.7466 261.275 46.8053 261.27 45.8227V40.0027C261.246 39.5062 261.328 39.0103 261.508 38.5473C261.689 38.0844 261.965 37.6647 262.319 37.3157C262.673 36.9666 263.096 36.696 263.562 36.5215C264.027 36.3469 264.524 36.2724 265.02 36.3027C265.508 36.2662 265.999 36.3327 266.459 36.498C266.92 36.6633 267.341 36.9236 267.695 37.2622C268.048 37.6007 268.327 38.0099 268.512 38.4631C268.697 38.9163 268.785 39.4035 268.77 39.8928V40.4626H266.83V40.2827C266.83 38.8327 266 38.1828 265.02 38.1828C264.01 38.1828 263.21 38.8327 263.21 40.2827V45.5627C263.21 46.9327 263.83 47.6528 265.02 47.6528C266.16 47.6528 266.83 46.9527 266.83 45.5627V45.4028Z" fill="#00211B"/>
<path d="M277.01 48.0728H276.98C276.664 48.5439 276.232 48.9262 275.726 49.1834C275.22 49.4407 274.657 49.5644 274.09 49.5428C272.05 49.5428 271.46 47.993 271.46 45.943C271.46 43.223 272.34 41.703 275.21 41.703C275.815 41.7056 276.419 41.7388 277.02 41.8028V39.9129C277.021 39.6787 276.974 39.4468 276.882 39.2313C276.79 39.0158 276.656 38.8213 276.486 38.6595C276.317 38.4977 276.117 38.3718 275.897 38.2899C275.678 38.208 275.444 38.1717 275.21 38.1829C274.769 38.1663 274.339 38.3217 274.01 38.6165C273.682 38.9114 273.481 39.3225 273.45 39.7628H271.59C271.585 39.2816 271.681 38.8048 271.871 38.3629C272.062 37.9209 272.343 37.5237 272.696 37.1969C273.049 36.87 273.467 36.6206 273.922 36.4649C274.378 36.3092 274.861 36.2506 275.34 36.2928C278.31 36.2928 278.96 38.4929 278.96 40.1429V49.3228H277.02V48.0728H277.01ZM277.01 43.2328C276.573 43.1605 276.132 43.1172 275.69 43.1029C275.367 43.0833 275.044 43.1356 274.744 43.2559C274.443 43.3763 274.174 43.5617 273.954 43.7989C273.734 44.0361 273.569 44.3193 273.472 44.6278C273.374 44.9362 273.346 45.2623 273.39 45.5829C273.39 47.3929 273.93 47.8829 275.04 47.8829C275.596 47.7728 276.097 47.4717 276.455 47.0316C276.813 46.5915 277.006 46.04 277 45.4727V43.2328H277.01Z" fill="#00211B"/>
<path d="M284.73 31.2327V46.1328C284.714 46.3233 284.74 46.5149 284.806 46.6943C284.872 46.8738 284.976 47.0367 285.111 47.1719C285.246 47.307 285.409 47.411 285.589 47.4768C285.768 47.5426 285.96 47.5685 286.15 47.5527H286.43V49.3328H285.84C285.445 49.3788 285.046 49.3384 284.668 49.2144C284.291 49.0903 283.945 48.8855 283.655 48.6143C283.365 48.343 283.137 48.0119 282.987 47.6438C282.838 47.2757 282.771 46.8794 282.79 46.4827V31.2227H284.73V31.2327Z" fill="#00211B"/>
<path d="M294.62 48.0728H294.59C294.274 48.5439 293.842 48.9262 293.336 49.1834C292.83 49.4407 292.267 49.5644 291.7 49.5428C289.66 49.5428 289.07 47.993 289.07 45.943C289.07 43.223 289.95 41.703 292.82 41.703C293.425 41.7056 294.029 41.7388 294.63 41.8028V39.9129C294.631 39.6787 294.584 39.4468 294.492 39.2313C294.4 39.0158 294.266 38.8213 294.096 38.6595C293.927 38.4977 293.727 38.3718 293.507 38.2899C293.288 38.208 293.054 38.1717 292.82 38.1829C292.379 38.1663 291.949 38.3217 291.62 38.6165C291.292 38.9114 291.091 39.3225 291.06 39.7628H289.2C289.195 39.2816 289.291 38.8048 289.481 38.3629C289.672 37.9209 289.953 37.5237 290.306 37.1969C290.659 36.87 291.077 36.6206 291.532 36.4649C291.988 36.3092 292.471 36.2506 292.95 36.2928C295.92 36.2928 296.57 38.4929 296.57 40.1429V49.3228H294.63V48.0728H294.62ZM294.62 43.2328C294.183 43.1605 293.742 43.1172 293.3 43.1029C292.977 43.0833 292.654 43.1356 292.354 43.2559C292.053 43.3763 291.784 43.5617 291.564 43.7989C291.344 44.0361 291.179 44.3193 291.082 44.6278C290.984 44.9362 290.956 45.2623 291 45.5829C291 47.3929 291.54 47.8829 292.65 47.8829C293.207 47.7728 293.707 47.4717 294.065 47.0316C294.423 46.5915 294.616 46.04 294.61 45.4727V43.2328H294.62Z" fill="#00211B"/>
<path d="M302.35 36.5127V38.5327C303.72 36.6727 304.91 36.3327 305.91 36.3127V38.4827H305.55C304.13 38.4827 302.35 39.0528 302.35 41.8728V49.3428H300.41V36.5127H302.35Z" fill="#00211B"/>
<path d="M6.21002 75.7727H8.15002V75.9528C8.18772 76.4327 8.12197 76.9149 7.95724 77.3671C7.79251 77.8194 7.53264 78.231 7.19515 78.5742C6.85767 78.9173 6.45046 79.1841 6.00103 79.3564C5.5516 79.5287 5.07042 79.6024 4.59002 79.5727C4.09209 79.6036 3.59324 79.5288 3.12628 79.3532C2.65931 79.1776 2.23479 78.9053 1.88061 78.5539C1.52642 78.2026 1.2506 77.7802 1.07125 77.3146C0.891908 76.8491 0.813101 76.3509 0.840021 75.8527V69.9028C0.820024 69.4243 0.90037 68.9469 1.07589 68.5014C1.25141 68.0559 1.51824 67.6521 1.85919 67.3159C2.20013 66.9796 2.60767 66.7183 3.0556 66.549C3.50352 66.3797 3.9819 66.3061 4.46002 66.3327C4.95119 66.3121 5.4414 66.3924 5.90038 66.5686C6.35937 66.7447 6.7774 67.0128 7.12875 67.3566C7.4801 67.7005 7.7573 68.1127 7.94326 68.5678C8.12922 69.0229 8.22001 69.5111 8.21002 70.0026V73.6728H2.79003V75.7126C2.79003 77.0826 3.41003 77.6828 4.60003 77.6828C5.74003 77.6828 6.23004 76.9828 6.23004 75.9228V75.7727H6.21002ZM6.27001 72.2326V70.0327C6.29586 69.7955 6.26954 69.5557 6.1929 69.3298C6.11625 69.1039 5.99114 68.8975 5.82632 68.725C5.6615 68.5526 5.46096 68.4183 5.23876 68.3315C5.01656 68.2447 4.77809 68.2075 4.54003 68.2226C4.29446 68.2173 4.05056 68.2644 3.82455 68.3605C3.59853 68.4567 3.39557 68.6001 3.22912 68.7807C3.06267 68.9613 2.93652 69.1753 2.85909 69.4084C2.78167 69.6415 2.75472 69.8884 2.78002 70.1328V72.2326H6.27001Z" fill="#00211B"/>
<path d="M23.96 75.4429H25.9V75.9626C25.8684 76.9447 25.4527 77.8754 24.7423 78.5542C24.0318 79.233 23.0834 79.6059 22.1009 79.5928C21.1185 79.5797 20.1803 79.1816 19.4883 78.4841C18.7962 77.7866 18.4054 76.8453 18.4 75.8628V70.0427C18.3763 69.5463 18.4575 69.0504 18.6383 68.5874C18.819 68.1244 19.0953 67.7048 19.4491 67.3557C19.8029 67.0066 20.2263 66.736 20.6916 66.5615C21.157 66.387 21.6539 66.3124 22.15 66.3428C22.6382 66.3062 23.1286 66.3728 23.5895 66.5381C24.0503 66.7034 24.4712 66.9637 24.8249 67.3022C25.1785 67.6408 25.457 68.05 25.6422 68.5032C25.8274 68.9563 25.9153 69.4435 25.9 69.9328V70.5027H23.96V70.3227C23.96 68.8727 23.13 68.2226 22.15 68.2226C21.14 68.2226 20.34 68.8727 20.34 70.3227V75.6028C20.34 76.9728 20.96 77.6929 22.15 77.6929C23.29 77.6929 23.96 76.9928 23.96 75.6028V75.4429Z" fill="#00211B"/>
<path d="M34.14 78.1029H34.11C33.7935 78.5739 33.3619 78.9562 32.8561 79.2135C32.3503 79.4707 31.7871 79.5945 31.22 79.5728C29.18 79.5728 28.59 78.0227 28.59 75.9727C28.59 73.2527 29.47 71.7328 32.34 71.7328C32.9447 71.7354 33.5488 71.7689 34.15 71.8329V69.943C34.1507 69.7088 34.1037 69.4768 34.012 69.2613C33.9202 69.0458 33.7856 68.8511 33.6163 68.6893C33.447 68.5275 33.2466 68.4018 33.0272 68.3199C32.8078 68.238 32.574 68.2015 32.34 68.2127C31.8989 68.1961 31.4687 68.3517 31.1402 68.6466C30.8118 68.9414 30.6109 69.3525 30.58 69.7928H28.72C28.7151 69.3116 28.811 68.8346 29.0015 68.3927C29.192 67.9507 29.4728 67.5537 29.826 67.2269C30.1793 66.9 30.597 66.6506 31.0524 66.495C31.5077 66.3393 31.9906 66.2807 32.47 66.3228C35.44 66.3228 36.09 68.5229 36.09 70.1729V79.3529H34.15V78.1029H34.14ZM34.14 73.2628C33.7034 73.1905 33.2624 73.1472 32.82 73.1329C32.4971 73.1134 32.1739 73.1656 31.8737 73.286C31.5734 73.4064 31.3036 73.5918 31.0836 73.8289C30.8637 74.0661 30.6991 74.3491 30.6016 74.6576C30.5041 74.966 30.4763 75.2924 30.52 75.6129C30.52 77.4229 31.06 77.9129 32.17 77.9129C32.7265 77.8029 33.227 77.5017 33.5849 77.0616C33.9429 76.6215 34.1357 76.07 34.13 75.5028V73.2628H34.14Z" fill="#00211B"/>
<path d="M39.93 66.5427H41.87V67.8127C42.1796 67.3655 42.5916 66.9986 43.0717 66.7429C43.5518 66.4872 44.0861 66.35 44.63 66.3428C46.9 66.3428 47.32 68.0727 47.32 69.3127V76.6028C47.32 77.8428 46.91 79.5728 44.63 79.5728C44.0857 79.5675 43.5507 79.4312 43.0702 79.1753C42.5898 78.9194 42.1781 78.5516 41.87 78.1028V84.6428H39.93V66.5427ZM45.38 75.7029V70.2227C45.38 69.2427 44.99 68.2327 43.75 68.2327C42.17 68.2327 41.86 69.7828 41.86 70.5828V75.3428C41.86 76.1428 42.17 77.6929 43.75 77.6929C44.99 77.6929 45.38 76.6829 45.38 75.7029Z" fill="#00211B"/>
<path d="M53.44 62.6328V66.5427H55.25V68.0928H53.44V75.8728C53.3961 76.1096 53.4104 76.3535 53.4818 76.5835C53.5531 76.8135 53.6794 77.0228 53.8497 77.1931C54.02 77.3634 54.2292 77.4897 54.4593 77.561C54.6893 77.6324 54.9332 77.6468 55.17 77.6028H55.38V79.3628H54.81C54.3588 79.4685 53.8882 79.4579 53.4422 79.3323C52.9962 79.2066 52.5893 78.97 52.2596 78.6443C51.93 78.3186 51.6883 77.9147 51.5572 77.4702C51.4261 77.0258 51.4099 76.5552 51.51 76.1028V68.0828H50.14V66.5327H51.51V62.6228H53.44V62.6328Z" fill="#00211B"/>
<path d="M63.72 78.1029H63.69C63.3735 78.5739 62.9419 78.9562 62.4361 79.2135C61.9303 79.4707 61.3671 79.5945 60.8 79.5728C58.76 79.5728 58.17 78.0227 58.17 75.9727C58.17 73.2527 59.05 71.7328 61.92 71.7328C62.5247 71.7354 63.1288 71.7689 63.73 71.8329V69.943C63.7307 69.7088 63.6837 69.4768 63.592 69.2613C63.5002 69.0458 63.3656 68.8511 63.1963 68.6893C63.027 68.5275 62.8266 68.4018 62.6071 68.3199C62.3877 68.238 62.154 68.2015 61.92 68.2127C61.479 68.1961 61.0487 68.3517 60.7202 68.6466C60.3918 68.9414 60.1909 69.3525 60.16 69.7928H58.3C58.2951 69.3116 58.391 68.8346 58.5815 68.3927C58.7719 67.9507 59.0528 67.5537 59.4061 67.2269C59.7593 66.9 60.177 66.6506 60.6324 66.495C61.0877 66.3393 61.5706 66.2807 62.05 66.3228C65.02 66.3228 65.67 68.5229 65.67 70.1729V79.3529H63.73V78.1029H63.72ZM63.72 73.2628C63.2834 73.1905 62.8424 73.1472 62.4 73.1329C62.0771 73.1134 61.7539 73.1656 61.4537 73.286C61.1534 73.4064 60.8836 73.5918 60.6636 73.8289C60.4437 74.0661 60.279 74.3491 60.1816 74.6576C60.0841 74.966 60.0563 75.2924 60.1 75.6129C60.1 77.4229 60.64 77.9129 61.75 77.9129C62.3065 77.8029 62.807 77.5017 63.1649 77.0616C63.5229 76.6215 63.7157 76.07 63.71 75.5028V73.2628H63.72Z" fill="#00211B"/>
<path d="M71.45 66.5427V68.5627C72.82 66.7027 74.01 66.3628 75.01 66.3428V68.5127H74.6501C73.2301 68.5127 71.45 69.0828 71.45 71.9028V79.3728H69.51V66.5427H71.45Z" fill="#00211B"/>
<path d="M86.2701 61.6328V63.5227H84.33V61.6328H86.2701ZM84.3401 66.5427H86.2801V79.3728H84.3401V66.5427Z" fill="#00211B"/>
<path d="M90.12 66.5427H92.06V67.8127C92.3696 67.3655 92.7816 66.9986 93.2617 66.7429C93.7418 66.4872 94.2761 66.35 94.82 66.3428C97.09 66.3428 97.51 68.0727 97.51 69.3127V79.3728H95.57V70.2126C95.57 69.2326 95.18 68.2227 93.94 68.2227C92.36 68.2227 92.05 69.7728 92.05 70.5728V79.3628H90.11V66.5427H90.12Z" fill="#00211B"/>
<path d="M105.11 79.3728H103.59L100.23 66.5427H102.27L104.41 75.5427H104.46L106.55 66.5427H108.51L105.11 79.3728Z" fill="#00211B"/>
<path d="M116.42 75.7727H118.36V75.9528C118.398 76.4327 118.332 76.9149 118.167 77.3671C118.003 77.8194 117.743 78.231 117.405 78.5742C117.068 78.9173 116.66 79.1841 116.211 79.3564C115.762 79.5287 115.28 79.6024 114.8 79.5727C114.302 79.6036 113.803 79.5288 113.336 79.3532C112.869 79.1776 112.445 78.9053 112.091 78.5539C111.736 78.2026 111.461 77.7802 111.281 77.3146C111.102 76.8491 111.023 76.3509 111.05 75.8527V69.9028C111.03 69.4243 111.11 68.9469 111.286 68.5014C111.461 68.0559 111.728 67.6521 112.069 67.3159C112.41 66.9796 112.818 66.7183 113.266 66.549C113.714 66.3797 114.192 66.3061 114.67 66.3327C115.161 66.3121 115.651 66.3924 116.11 66.5686C116.569 66.7447 116.987 67.0128 117.339 67.3566C117.69 67.7005 117.967 68.1127 118.153 68.5678C118.339 69.0229 118.43 69.5111 118.42 70.0026V73.6728H113V75.7126C113 77.0826 113.62 77.6828 114.81 77.6828C115.95 77.6828 116.44 76.9828 116.44 75.9228V75.7727H116.42ZM116.47 72.2326V70.0327C116.496 69.7955 116.47 69.5557 116.393 69.3298C116.316 69.1039 116.191 68.8975 116.026 68.725C115.862 68.5526 115.661 68.4183 115.439 68.3315C115.217 68.2447 114.978 68.2075 114.74 68.2226C114.494 68.2173 114.251 68.2644 114.025 68.3605C113.799 68.4567 113.596 68.6001 113.429 68.7807C113.263 68.9613 113.137 69.1753 113.059 69.4084C112.982 69.6415 112.955 69.8884 112.98 70.1328V72.2326H116.47Z" fill="#00211B"/>
<path d="M126.99 69.9329C126.86 68.4829 126.06 68.1729 125.26 68.1729C124.3 68.1729 123.61 68.5328 123.61 69.8328C123.61 70.8428 124.31 71.2528 125.13 71.6428L126.73 72.4229C127.51 72.7764 128.146 73.3866 128.531 74.1519C128.916 74.9171 129.027 75.7914 128.846 76.6287C128.665 77.4659 128.202 78.2156 127.535 78.7532C126.868 79.2907 126.037 79.5836 125.18 79.5828C122.31 79.5828 121.49 77.6928 121.43 75.9128H123.39C123.49 77.2828 124.11 77.7727 125.12 77.7727C125.372 77.8067 125.629 77.7821 125.87 77.7007C126.111 77.6192 126.33 77.4832 126.51 77.3032C126.69 77.1232 126.826 76.904 126.908 76.6628C126.989 76.4217 127.014 76.1651 126.98 75.9128C126.98 74.9528 126.67 74.4628 125.35 73.8228L123.77 73.0427C123.088 72.797 122.508 72.3294 122.124 71.7146C121.739 71.0998 121.572 70.3737 121.65 69.6528C121.65 67.9228 122.79 66.3428 125.34 66.3428C128.16 66.3428 128.85 68.3329 128.9 69.9329H126.99Z" fill="#00211B"/>
<path d="M134.56 62.6328V66.5427H136.37V68.0928H134.56V75.8728C134.516 76.1096 134.53 76.3535 134.602 76.5835C134.673 76.8135 134.799 77.0228 134.97 77.1931C135.14 77.3634 135.349 77.4897 135.579 77.561C135.809 77.6324 136.053 77.6468 136.29 77.6028H136.5V79.3628H135.93C135.479 79.4685 135.008 79.4579 134.562 79.3323C134.116 79.2066 133.709 78.97 133.38 78.6443C133.05 78.3186 132.808 77.9147 132.677 77.4702C132.546 77.0258 132.53 76.5552 132.63 76.1028V68.0828H131.26V66.5327H132.63V62.6228H134.56V62.6328Z" fill="#00211B"/>
<path d="M141.46 61.6328V63.5227H139.52V61.6328H141.46ZM139.52 66.5427H141.46V79.3728H139.52V66.5427Z" fill="#00211B"/>
<path d="M147.24 66.5426V67.8127C147.542 67.3623 147.949 66.9928 148.427 66.7365C148.905 66.4802 149.438 66.345 149.98 66.3427C150.5 66.3081 151.019 66.4294 151.469 66.6913C151.92 66.9532 152.282 67.3437 152.51 67.8127C152.808 67.3466 153.221 66.9659 153.71 66.7082C154.2 66.4504 154.747 66.3245 155.3 66.3427C157.08 66.3427 157.93 67.5627 157.93 69.3727V79.3827H156V70.2226C156 69.1126 155.54 68.2326 154.37 68.2326C153.16 68.2326 152.59 69.3427 152.59 70.5827V79.3727H150.65V70.2126C150.65 69.4126 150.34 68.2226 149.05 68.2226C147.81 68.2226 147.24 69.3827 147.24 70.5727V79.3627H145.3V66.5326H147.24V66.5426Z" fill="#00211B"/>
<path d="M167.06 75.7727H169V75.9528C169.038 76.4327 168.972 76.9149 168.807 77.3671C168.643 77.8194 168.383 78.231 168.045 78.5742C167.708 78.9173 167.3 79.1841 166.851 79.3564C166.402 79.5287 165.92 79.6024 165.44 79.5727C164.942 79.6036 164.443 79.5288 163.976 79.3532C163.509 79.1776 163.085 78.9053 162.731 78.5539C162.376 78.2026 162.101 77.7802 161.921 77.3146C161.742 76.8491 161.663 76.3509 161.69 75.8527V69.9028C161.67 69.4243 161.75 68.9469 161.926 68.5014C162.101 68.0559 162.368 67.6521 162.709 67.3159C163.05 66.9796 163.458 66.7183 163.906 66.549C164.354 66.3797 164.832 66.3061 165.31 66.3327C165.801 66.3121 166.291 66.3924 166.75 66.5686C167.209 66.7447 167.627 67.0128 167.979 67.3566C168.33 67.7005 168.607 68.1127 168.793 68.5678C168.979 69.0229 169.07 69.5111 169.06 70.0026V73.6728H163.64V75.7126C163.64 77.0826 164.26 77.6828 165.45 77.6828C166.59 77.6828 167.08 76.9828 167.08 75.9228V75.7727H167.06ZM167.11 72.2326V70.0327C167.136 69.7955 167.11 69.5557 167.033 69.3298C166.956 69.1039 166.831 68.8975 166.666 68.725C166.502 68.5526 166.301 68.4183 166.079 68.3315C165.857 68.2447 165.618 68.2075 165.38 68.2226C165.134 68.2173 164.891 68.2644 164.665 68.3605C164.439 68.4567 164.236 68.6001 164.069 68.7807C163.903 68.9613 163.777 69.1753 163.699 69.4084C163.622 69.6415 163.595 69.8884 163.62 70.1328V72.2326H167.11Z" fill="#00211B"/>
<path d="M172.69 66.5427H174.63V67.8127C174.94 67.3655 175.352 66.9986 175.832 66.7429C176.312 66.4872 176.846 66.35 177.39 66.3428C179.66 66.3428 180.08 68.0727 180.08 69.3127V79.3728H178.14V70.2126C178.14 69.2326 177.75 68.2227 176.51 68.2227C174.93 68.2227 174.62 69.7728 174.62 70.5728V79.3628H172.68V66.5427H172.69Z" fill="#00211B"/>
<path d="M186.2 62.6328V66.5427H188.01V68.0928H186.2V75.8728C186.156 76.1096 186.17 76.3535 186.242 76.5835C186.313 76.8135 186.439 77.0228 186.61 77.1931C186.78 77.3634 186.989 77.4897 187.219 77.561C187.449 77.6324 187.693 77.6468 187.93 77.6028H188.14V79.3628H187.57C187.119 79.4685 186.648 79.4579 186.202 79.3323C185.756 79.2066 185.349 78.97 185.02 78.6443C184.69 78.3186 184.448 77.9147 184.317 77.4702C184.186 77.0258 184.17 76.5552 184.27 76.1028V68.0828H182.9V66.5327H184.27V62.6228H186.2V62.6328Z" fill="#00211B"/>
<path d="M191.06 69.9529C191.078 68.9888 191.473 68.0701 192.16 67.3933C192.847 66.7166 193.771 66.3352 194.735 66.3313C195.7 66.3274 196.627 66.7012 197.319 67.3723C198.012 68.0435 198.414 68.959 198.44 69.9229V75.8929C198.44 76.8715 198.051 77.81 197.359 78.502C196.667 79.194 195.729 79.5828 194.75 79.5828C193.771 79.5828 192.833 79.194 192.141 78.502C191.449 77.81 191.06 76.8715 191.06 75.8929V69.9529ZM196.51 70.3228C196.51 68.9028 195.71 68.2227 194.75 68.2227C193.79 68.2227 192.99 68.8928 192.99 70.3228V75.6028C192.99 76.9428 193.61 77.6929 194.75 77.6929C195.83 77.6929 196.51 76.9928 196.51 75.6028V70.3228Z" fill="#00211B"/>
<path d="M204.36 77.1729V79.3728H202.14V77.1729H204.36Z" fill="#00211B"/>
</svg>
