<svg width="462" height="86" viewBox="0 0 462 86" fill="none" xmlns="http://www.w3.org/2000/svg">
<path d="M0.00355024 9.10288C-0.0245321 7.74212 0.24156 6.39138 0.78358 5.14292C1.26743 4.04805 1.98003 3.06934 2.87355 2.2728C3.7056 1.54087 4.66946 0.974184 5.71357 0.602879C7.27725 0.0406432 8.96118 -0.100845 10.5968 0.192235C12.2324 0.485315 13.7624 1.2026 15.0336 2.2728C15.8964 3.0832 16.5868 4.05946 17.0635 5.14292C17.6036 6.39199 17.8696 7.7423 17.8436 9.10288V28.7132C17.8795 30.094 17.6132 31.466 17.0635 32.7332C16.5856 33.7841 15.8943 34.7238 15.0336 35.493C14.1875 36.2489 13.2026 36.8333 12.1336 37.2132C10.061 37.9729 7.78615 37.9729 5.71357 37.2132C4.66132 36.8358 3.69555 36.2507 2.87355 35.493C1.98261 34.7377 1.26906 33.7956 0.78358 32.7332C0.231945 31.4667 -0.0343751 30.0942 0.00355024 28.7132V9.10288ZM5.32356 28.7132C5.27999 29.2363 5.35339 29.7625 5.53846 30.2538C5.72353 30.745 6.01565 31.1888 6.39356 31.5531C7.10547 32.1413 8.00012 32.4632 8.92359 32.4632C9.84707 32.4632 10.7417 32.1413 11.4536 31.5531C11.8307 31.1882 12.1222 30.7443 12.3073 30.2533C12.4923 29.7622 12.5661 29.2363 12.5236 28.7132V9.10288C12.5671 8.57976 12.4937 8.05357 12.3087 7.56235C12.1236 7.07113 11.8315 6.62735 11.4536 6.26304C10.7417 5.67482 9.84707 5.35288 8.92359 5.35288C8.00012 5.35288 7.10547 5.67482 6.39356 6.26304C6.01645 6.62795 5.72488 7.07177 5.53987 7.56284C5.35485 8.05391 5.28098 8.57985 5.32356 9.10288V28.7132Z" fill="#1A1A1A"/>
<path d="M32.2435 37.4731V0.333008H37.3536L44.1835 19.9932H44.2835L51.0635 0.333008H56.2236V37.4731H50.9035V14.8931H50.8035L45.5335 30.853H42.8736L37.6535 14.8931H37.5535V37.4731H32.2435Z" fill="#1A1A1A"/>
<path d="M58.8436 37.4731L67.1336 0.333008H71.5635L79.8536 37.4731H74.5335L72.9636 29.4932H65.7136L64.1535 37.4731H58.8436ZM71.9836 24.4834L69.3736 11.0229H69.2735L66.6635 24.4834H71.9836Z" fill="#1A1A1A"/>
<path d="M82.6236 37.4731V0.333008H87.9435V37.4731H82.6236Z" fill="#1A1A1A"/>
<path d="M92.7935 9.10288C92.7654 7.74212 93.0315 6.39138 93.5736 5.14292C94.0574 4.04807 94.77 3.06936 95.6635 2.2728C96.4956 1.54085 97.4595 0.974161 98.5036 0.602879C100.067 0.0406432 101.751 -0.100845 103.387 0.192235C105.022 0.485315 106.552 1.2026 107.824 2.2728C108.686 3.0832 109.377 4.05946 109.854 5.14292C110.394 6.39199 110.66 7.7423 110.634 9.10288V28.7132C110.669 30.094 110.403 31.466 109.854 32.7332C109.376 33.7841 108.684 34.7238 107.824 35.493C106.978 36.2489 105.993 36.8333 104.924 37.2132C102.851 37.973 100.576 37.973 98.5036 37.2132C97.4514 36.8358 96.4855 36.2507 95.6635 35.493C94.7755 34.735 94.0624 33.7936 93.5736 32.7332C93.0219 31.4667 92.7556 30.0942 92.7935 28.7132V9.10288ZM98.1236 28.7132C98.08 29.2363 98.1534 29.7625 98.3384 30.2538C98.5235 30.745 98.8156 31.1888 99.1936 31.5531C99.9055 32.1413 100.8 32.4632 101.724 32.4632C102.647 32.4632 103.542 32.1413 104.254 31.5531C104.631 31.1882 104.922 30.7443 105.107 30.2533C105.292 29.7622 105.366 29.2363 105.324 28.7132V9.10288C105.367 8.57976 105.294 8.05357 105.109 7.56235C104.924 7.07113 104.632 6.62735 104.254 6.26304C103.542 5.67482 102.647 5.35288 101.724 5.35288C100.8 5.35288 99.9055 5.67482 99.1936 6.26304C98.8164 6.62795 98.5249 7.07177 98.3399 7.56284C98.1549 8.05391 98.081 8.57985 98.1236 9.10288V28.7132Z" fill="#1A1A1A"/>
<path d="M115.334 37.4731V0.333008H123.884C130.144 0.333008 133.273 3.96673 133.273 11.2334C133.327 13.1442 132.979 15.0445 132.254 16.813C131.509 18.4095 130.252 19.7118 128.684 20.5132L134.424 37.4634H128.794L123.834 21.603H120.654V37.4634H115.334V37.4731ZM120.654 5.34326V16.9233H123.684C124.45 16.9561 125.214 16.8229 125.924 16.5332C126.458 16.296 126.91 15.9062 127.224 15.4131C127.526 14.8546 127.719 14.2439 127.794 13.6133C127.904 12.7913 127.958 11.9627 127.954 11.1333C127.962 10.3038 127.909 9.47482 127.794 8.65332C127.711 8.00045 127.496 7.37104 127.164 6.80322C126.504 5.83322 125.254 5.34326 123.414 5.34326H120.654Z" fill="#1A1A1A"/>
<path d="M147.414 37.4731V0.333008H152.734V37.4731H147.414Z" fill="#1A1A1A"/>
<path d="M157.684 37.4731V0.333008H162.794L170.824 22.7134H170.924V0.333008H176.244V37.4731H171.234L163.094 15.1533H162.994V37.4731H157.684Z" fill="#1A1A1A"/>
<path d="M199.094 0.333008L191.474 37.4731H186.784L179.224 0.333008H184.854L189.074 26.2529H189.174L193.454 0.333008H199.094Z" fill="#1A1A1A"/>
<path d="M202.284 37.4731V0.333008H218.144V5.34326H207.604V16.2432H216.784V21.2529H207.604V32.1533H218.144V37.4731H202.284Z" fill="#1A1A1A"/>
<path d="M238.794 11.0333H233.474V9.8331C233.501 8.71852 233.202 7.62063 232.614 6.67344C232.292 6.21674 231.855 5.8528 231.348 5.61924C230.84 5.38568 230.28 5.29072 229.724 5.34336C229.106 5.31557 228.493 5.46097 227.954 5.76328C227.518 6.02929 227.144 6.38361 226.854 6.80332C226.565 7.27459 226.371 7.79778 226.284 8.34336C226.178 8.93757 226.125 9.53965 226.124 10.1432C226.124 10.8732 226.154 11.4832 226.204 11.9732C226.244 12.4286 226.376 12.8708 226.594 13.273C226.817 13.6688 227.128 14.0079 227.504 14.2633C228.017 14.602 228.567 14.8806 229.144 15.0934L233.214 16.7135C234.251 17.0826 235.221 17.6196 236.084 18.3033C236.791 18.8859 237.376 19.6029 237.804 20.4132C238.203 21.3158 238.466 22.2728 238.584 23.253C238.732 24.4539 238.802 25.6632 238.794 26.8731C238.803 28.3396 238.645 29.8027 238.324 31.2335C238.059 32.4646 237.545 33.6284 236.814 34.6534C236.062 35.6431 235.076 36.4302 233.944 36.9435C232.579 37.5364 231.101 37.8194 229.614 37.773C228.381 37.7824 227.158 37.5517 226.014 37.0934C224.94 36.6665 223.964 36.0271 223.144 35.2135C222.343 34.4096 221.698 33.4634 221.244 32.4234C220.769 31.3289 220.53 30.1463 220.544 28.9532V26.9732H225.864V28.6432C225.857 29.59 226.159 30.513 226.724 31.273C227.074 31.6877 227.521 32.0111 228.024 32.2149C228.528 32.4188 229.073 32.4972 229.614 32.4435C230.338 32.4792 231.06 32.3455 231.724 32.0533C232.217 31.8059 232.625 31.4155 232.894 30.9332C233.185 30.3931 233.356 29.7959 233.394 29.1832C233.444 28.5032 233.474 27.7532 233.474 26.9132C233.474 25.9432 233.434 25.1433 233.374 24.5133C233.333 23.9874 233.191 23.4742 232.954 23.003C232.709 22.6179 232.376 22.2959 231.984 22.0631C231.472 21.7675 230.941 21.5072 230.394 21.2833L226.584 19.7232C224.645 19.0769 223.004 17.7524 221.964 15.9933C221.126 14.1707 220.725 12.178 220.794 10.1734C220.786 8.83249 220.979 7.49797 221.364 6.21347C221.71 5.03054 222.295 3.93125 223.084 2.98349C223.842 2.06295 224.795 1.32145 225.874 0.813084C227.143 0.244405 228.523 -0.0324466 229.914 0.00302529C231.158 -0.0141905 232.393 0.235164 233.534 0.733494C234.59 1.19792 235.553 1.85174 236.374 2.66318C237.134 3.41314 237.738 4.30668 238.15 5.29209C238.562 6.27749 238.774 7.33534 238.774 8.40342V11.0333H238.794Z" fill="#1A1A1A"/>
<path d="M246.254 37.4731V5.34326H240.104V0.333008H257.734V5.34326H251.574V37.4731H246.254Z" fill="#1A1A1A"/>
<path d="M260.224 37.4731V0.333008H265.544V37.4731H260.224Z" fill="#1A1A1A"/>
<path d="M270.714 37.4731V0.333008H278.594C281.654 0.333008 283.974 1.16634 285.554 2.83301C287.134 4.49967 287.924 6.86334 287.924 9.92334V27.293C287.924 30.773 287.08 33.3367 285.394 34.9834C283.704 36.6334 281.284 37.4634 278.114 37.4634H270.714V37.4731ZM276.034 5.34326V32.4634H278.484C279.064 32.525 279.65 32.4565 280.2 32.2627C280.75 32.0689 281.25 31.7548 281.664 31.3433C282.375 30.314 282.707 29.07 282.604 27.8232V9.93311C282.675 8.73719 282.363 7.54946 281.714 6.54297C281.309 6.10143 280.805 5.76234 280.243 5.55371C279.682 5.34508 279.079 5.27317 278.484 5.34326H276.034Z" fill="#1A1A1A"/>
<path d="M292.624 9.10288C292.596 7.74212 292.861 6.39138 293.404 5.14292C293.887 4.04807 294.6 3.06936 295.494 2.2728C296.326 1.54085 297.289 0.974161 298.334 0.602879C299.897 0.0406432 301.581 -0.100845 303.217 0.192235C304.852 0.485315 306.382 1.2026 307.654 2.2728C308.516 3.0832 309.207 4.05946 309.684 5.14292C310.224 6.39199 310.49 7.7423 310.464 9.10288V28.7132C310.499 30.094 310.233 31.466 309.684 32.7332C309.206 33.7841 308.514 34.7238 307.654 35.493C306.807 36.2489 305.823 36.8333 304.754 37.2132C302.681 37.973 300.406 37.973 298.334 37.2132C297.281 36.8358 296.316 36.2507 295.494 35.493C294.606 34.735 293.892 33.7936 293.404 32.7332C292.852 31.4667 292.586 30.0942 292.624 28.7132V9.10288ZM297.944 28.7132C297.9 29.2363 297.973 29.7625 298.159 30.2538C298.344 30.745 298.636 31.1888 299.014 31.5531C299.726 32.1413 300.62 32.4632 301.544 32.4632C302.467 32.4632 303.362 32.1413 304.074 31.5531C304.451 31.1882 304.742 30.7443 304.927 30.2533C305.112 29.7622 305.186 29.2363 305.144 28.7132V9.10288C305.187 8.57976 305.114 8.05357 304.929 7.56235C304.744 7.07113 304.451 6.62735 304.074 6.26304C303.362 5.67482 302.467 5.35288 301.544 5.35288C300.62 5.35288 299.726 5.67482 299.014 6.26304C298.637 6.62795 298.345 7.07177 298.16 7.56284C297.975 8.05391 297.901 8.57985 297.944 9.10288V28.7132Z" fill="#1A1A1A"/>
<path d="M315.154 37.4731V0.333008H323.704C329.964 0.333008 333.094 3.96673 333.094 11.2334C333.147 13.1442 332.799 15.0445 332.074 16.813C331.329 18.4095 330.072 19.7118 328.504 20.5132L334.244 37.4634H328.614L323.654 21.603H320.474V37.4634H315.154V37.4731ZM320.474 5.34326V16.9233H323.504C324.27 16.9561 325.034 16.8229 325.744 16.5332C326.278 16.296 326.73 15.9062 327.044 15.4131C327.346 14.8546 327.539 14.2439 327.614 13.6133C327.724 12.7913 327.778 11.9627 327.773 11.1333C327.782 10.3038 327.729 9.47482 327.614 8.65332C327.531 8.00045 327.316 7.37104 326.984 6.80322C326.324 5.83322 325.074 5.34326 323.234 5.34326H320.474Z" fill="#1A1A1A"/>
<path d="M347.074 37.4731V0.333008H354.954C358.014 0.333008 360.334 1.16634 361.914 2.83301C363.494 4.49967 364.284 6.86334 364.284 9.92334V27.293C364.284 30.773 363.44 33.3367 361.754 34.9834C360.064 36.6334 357.644 37.4634 354.474 37.4634H347.074V37.4731ZM352.394 5.34326V32.4634H354.844C355.424 32.525 356.01 32.4565 356.56 32.2627C357.11 32.0689 357.61 31.7548 358.023 31.3433C358.735 30.314 359.067 29.07 358.964 27.8232V9.93311C359.035 8.73719 358.723 7.54946 358.074 6.54297C357.669 6.10143 357.165 5.76234 356.603 5.55371C356.042 5.34508 355.439 5.27317 354.844 5.34326H352.394Z" fill="#1A1A1A"/>
<path d="M368.984 9.10288C368.956 7.74212 369.222 6.39138 369.764 5.14292C370.247 4.04807 370.96 3.06936 371.854 2.2728C372.686 1.54085 373.649 0.974161 374.694 0.602879C376.257 0.0406432 377.941 -0.100845 379.577 0.192235C381.212 0.485315 382.742 1.2026 384.014 2.2728C384.876 3.0832 385.567 4.05946 386.044 5.14292C386.584 6.39199 386.85 7.7423 386.824 9.10288V28.7132C386.859 30.094 386.593 31.466 386.044 32.7332C385.566 33.7841 384.874 34.7238 384.014 35.493C383.168 36.2489 382.183 36.8333 381.114 37.2132C379.041 37.973 376.766 37.973 374.694 37.2132C373.641 36.8358 372.676 36.2507 371.854 35.493C370.966 34.735 370.253 33.7936 369.764 32.7332C369.212 31.4667 368.946 30.0942 368.984 28.7132V9.10288ZM374.304 28.7132C374.26 29.2363 374.333 29.7625 374.519 30.2538C374.704 30.745 374.996 31.1888 375.374 31.5531C376.086 32.1413 376.98 32.4632 377.904 32.4632C378.827 32.4632 379.722 32.1413 380.434 31.5531C380.811 31.1882 381.102 30.7443 381.287 30.2533C381.472 29.7622 381.546 29.2363 381.504 28.7132V9.10288C381.547 8.57976 381.474 8.05357 381.289 7.56235C381.104 7.07113 380.811 6.62735 380.434 6.26304C379.722 5.67482 378.827 5.35288 377.904 5.35288C376.98 5.35288 376.086 5.67482 375.374 6.26304C374.996 6.62795 374.705 7.07177 374.52 7.56284C374.335 8.05391 374.261 8.57985 374.304 9.10288V28.7132Z" fill="#1A1A1A"/>
<path d="M0.323547 85.2831V48.143H8.09357C9.58483 48.1036 11.0684 48.3693 12.4536 48.9232C13.5793 49.3933 14.5868 50.107 15.4036 51.0131C16.1675 51.878 16.7279 52.9031 17.0436 54.0131C17.3774 55.1565 17.5458 56.3419 17.5436 57.5331V58.893C17.5559 59.752 17.4788 60.61 17.3135 61.453C17.1755 62.0953 16.9395 62.7127 16.6136 63.2831C15.938 64.3337 15.0051 65.1943 13.9036 65.7831C15.0927 66.3153 16.0658 67.2354 16.6636 68.393C17.3214 69.8657 17.6261 71.4716 17.5535 73.0829V75.1732C17.5535 78.4432 16.7635 80.9463 15.1835 82.683C13.6035 84.4197 11.0736 85.2895 7.59357 85.2929H0.323547V85.2831ZM5.64355 53.1532V63.373H8.04358C9.81358 63.373 11.0036 62.9329 11.6136 62.0429C12.2961 60.8652 12.6128 59.5115 12.5236 58.1532C12.6227 56.8233 12.2626 55.4997 11.5035 54.4032C10.8235 53.5732 9.60355 53.1532 7.82355 53.1532H5.64355ZM5.64355 68.0731V79.9633H7.94354C8.81181 80.0035 9.67766 79.8424 10.4736 79.4931C11.0536 79.208 11.5344 78.7552 11.8536 78.1933C12.1791 77.5801 12.3733 76.9057 12.4236 76.2133C12.4936 75.4533 12.5236 74.6133 12.5236 73.7133C12.5335 72.8937 12.48 72.0744 12.3636 71.2631C12.2891 70.6333 12.0737 70.0283 11.7336 69.4931C11.3806 69.004 10.8896 68.6316 10.3235 68.4232C9.56701 68.1696 8.77097 68.0541 7.97357 68.0829H5.64355V68.0731Z" fill="#1A1A1A"/>
<path d="M22.5436 85.2832V48.1431H31.0936C37.3536 48.1431 40.4836 51.7763 40.4836 59.043C40.5366 60.9538 40.1891 62.8546 39.4636 64.623C38.7188 66.2195 37.4624 67.5219 35.8936 68.3232L41.6336 85.2729H36.0036L31.0436 69.4131H27.8636V85.2729H22.5436V85.2832ZM27.8636 53.1533V64.7334H30.8936C31.6596 64.7662 32.4237 64.633 33.1335 64.3433C33.6677 64.1061 34.1199 63.7163 34.4335 63.2231C34.7357 62.6646 34.9292 62.054 35.0036 61.4233C35.1143 60.6014 35.1677 59.7727 35.1635 58.9434C35.1723 58.1139 35.1189 57.2849 35.0036 56.4634C34.9236 55.8098 34.709 55.1798 34.3735 54.6133C33.7135 53.6433 32.4635 53.1533 30.6235 53.1533H27.8636Z" fill="#1A1A1A"/>
<path d="M42.3636 85.2832L50.6535 48.1431H55.0836L63.3736 85.2832H58.0535L56.4836 77.3032H49.2336L47.6735 85.2832H42.3636ZM55.5036 72.3032L52.8936 58.8433H52.7935L50.1835 72.3032H55.5036Z" fill="#1A1A1A"/>
<path d="M83.2036 58.8434H77.8837V57.6432C77.9106 56.5286 77.6116 55.4307 77.0236 54.4835C76.7018 54.0268 76.2651 53.6629 75.7576 53.4293C75.2501 53.1957 74.6899 53.1008 74.1337 53.1534C73.516 53.1256 72.9029 53.271 72.3636 53.5733C71.9283 53.8393 71.5537 54.1937 71.2637 54.6134C70.9751 55.0847 70.7814 55.6078 70.6936 56.1534C70.5881 56.7476 70.5345 57.3497 70.5336 57.9532C70.5336 58.6832 70.5636 59.2933 70.6136 59.7833C70.6536 60.2387 70.7863 60.6809 71.0037 61.0831C71.2266 61.4789 71.5379 61.818 71.9136 62.0733C72.4265 62.4121 72.9768 62.6907 73.5536 62.9034L77.6237 64.523C78.661 64.8922 79.6306 65.4297 80.4937 66.1134C81.201 66.6959 81.7856 67.413 82.2136 68.2232C82.6134 69.1259 82.8763 70.0829 82.9937 71.0631C83.142 72.2639 83.2121 73.4733 83.2036 74.6832C83.2125 76.1496 83.0549 77.6122 82.7336 79.0431C82.4689 80.2741 81.955 81.4384 81.2236 82.4635C80.4719 83.4532 79.4855 84.2397 78.3536 84.753C76.9893 85.346 75.5105 85.6295 74.0236 85.5831C72.7908 85.5924 71.568 85.3618 70.4236 84.9034C69.35 84.4766 68.3738 83.8367 67.5536 83.023C66.7525 82.2191 66.1081 81.2734 65.6536 80.2335C65.1785 79.139 64.9401 77.9563 64.9536 76.7633V74.7833H70.2736V76.4532C70.2671 77.4 70.569 78.3231 71.1337 79.0831C71.4845 79.4977 71.9308 79.8212 72.4342 80.025C72.9376 80.2288 73.4831 80.3068 74.0236 80.253C74.7476 80.2887 75.4702 80.1556 76.1337 79.8634C76.6272 79.6159 77.0348 79.2255 77.3036 78.7433C77.5954 78.2032 77.766 77.606 77.8036 76.9933C77.8536 76.3133 77.8837 75.5632 77.8837 74.7232C77.8837 73.7532 77.8436 72.9533 77.7836 72.3233C77.7432 71.7975 77.6006 71.2843 77.3636 70.8131C77.1186 70.428 76.7863 70.106 76.3937 69.8731C75.8818 69.5778 75.3505 69.3174 74.8036 69.0934L70.9936 67.523C69.0547 66.8767 67.4142 65.5522 66.3737 63.7931C65.5361 61.9705 65.1354 59.9779 65.2036 57.9732C65.1965 56.6323 65.3885 55.2978 65.7736 54.0133C66.12 52.8303 66.7055 51.7311 67.4936 50.7833C68.2498 49.863 69.2032 49.1246 70.2836 48.6231C71.5527 48.0545 72.9333 47.7776 74.3236 47.8131C75.5685 47.7959 76.8027 48.0447 77.9436 48.5431C79.0002 49.0075 79.9628 49.6618 80.7836 50.4732C81.5441 51.2232 82.1479 52.1167 82.5599 53.1021C82.972 54.0876 83.1839 55.1454 83.1836 56.2135V58.8434H83.2036Z" fill="#1A1A1A"/>
<path d="M87.3235 85.2832V48.1431H92.6436V85.2832H87.3235Z" fill="#1A1A1A"/>
<path d="M97.8035 85.2832V48.1431H103.124V79.9634H113.664V85.2832H97.8035Z" fill="#1A1A1A"/>
<path d="M144.854 48.1533L137.234 85.293H132.544L124.984 48.1533H130.614L134.834 74.0732H134.934L139.214 48.1533H144.854Z" fill="#1A1A1A"/>
<path d="M143.704 85.2832L151.994 48.1431H156.424L164.714 85.2832H159.394L157.824 77.3032H150.574L149.014 85.2832H143.704ZM156.854 72.3032L154.244 58.8433H154.144L151.534 72.3032H156.854Z" fill="#1A1A1A"/>
<path d="M167.494 85.2832V48.1431H172.814V85.2832H167.494Z" fill="#1A1A1A"/>
<path d="M204.894 58.8434H199.574V57.6432C199.601 56.5286 199.302 55.4307 198.714 54.4835C198.392 54.0268 197.955 53.6629 197.448 53.4293C196.94 53.1957 196.38 53.1008 195.824 53.1534C195.206 53.1256 194.593 53.271 194.054 53.5733C193.618 53.8393 193.244 54.1937 192.954 54.6134C192.665 55.0847 192.471 55.6078 192.384 56.1534C192.278 56.7476 192.225 57.3497 192.224 57.9532C192.224 58.6832 192.254 59.2933 192.304 59.7833C192.344 60.2387 192.476 60.6809 192.694 61.0831C192.916 61.4789 193.228 61.818 193.604 62.0733C194.117 62.4121 194.667 62.6907 195.244 62.9034L199.314 64.523C200.351 64.8922 201.321 65.4297 202.184 66.1134C202.891 66.6959 203.476 67.413 203.904 68.2232C204.303 69.1259 204.566 70.0829 204.684 71.0631C204.832 72.2639 204.902 73.4733 204.894 74.6832C204.903 76.1496 204.745 77.6122 204.424 79.0431C204.159 80.2741 203.645 81.4384 202.914 82.4635C202.162 83.4532 201.175 84.2397 200.044 84.753C198.679 85.346 197.201 85.6295 195.714 85.5831C194.481 85.5924 193.258 85.3618 192.114 84.9034C191.04 84.4766 190.064 83.8367 189.244 83.023C188.443 82.2191 187.798 81.2734 187.344 80.2335C186.869 79.139 186.63 77.9563 186.644 76.7633V74.7833H191.964V76.4532C191.957 77.4 192.259 78.3231 192.824 79.0831C193.174 79.4977 193.621 79.8212 194.124 80.025C194.628 80.2288 195.173 80.3068 195.714 80.253C196.438 80.2887 197.16 80.1556 197.824 79.8634C198.317 79.6159 198.725 79.2255 198.994 78.7433C199.285 78.2032 199.456 77.606 199.494 76.9933C199.544 76.3133 199.574 75.5632 199.574 74.7232C199.574 73.7532 199.534 72.9533 199.474 72.3233C199.433 71.7975 199.291 71.2843 199.054 70.8131C198.809 70.428 198.476 70.106 198.084 69.8731C197.572 69.5778 197.041 69.3174 196.494 69.0934L192.684 67.523C190.745 66.8767 189.104 65.5522 188.064 63.7931C187.226 61.9705 186.825 59.9779 186.894 57.9732C186.887 56.6323 187.079 55.2978 187.464 54.0133C187.81 52.8303 188.395 51.7311 189.184 50.7833C189.94 49.863 190.893 49.1246 191.974 48.6231C193.243 48.0545 194.623 47.7776 196.014 47.8131C197.259 47.7959 198.493 48.0447 199.634 48.5431C200.69 49.0075 201.653 49.6618 202.474 50.4732C203.234 51.2232 203.838 52.1167 204.25 53.1021C204.662 54.0876 204.874 55.1454 204.874 56.2135V58.8434H204.894Z" fill="#1A1A1A"/>
<path d="M208.854 85.2832V48.1431H224.714V53.1533H214.174V64.0532H223.354V69.063H214.174V79.9634H224.714V85.2832H208.854Z" fill="#1A1A1A"/>
<path d="M228.154 85.2832V48.1431H236.704C242.964 48.1431 246.094 51.7763 246.094 59.043C246.147 60.9538 245.799 62.8546 245.074 64.623C244.329 66.2195 243.072 67.5219 241.504 68.3232L247.244 85.2729H241.614L236.654 69.4131H233.474V85.2729H228.154V85.2832ZM233.474 53.1533V64.7334H236.504C237.27 64.7661 238.034 64.633 238.744 64.3433C239.278 64.106 239.73 63.7163 240.044 63.2231C240.346 62.6646 240.539 62.054 240.614 61.4233C240.724 60.6014 240.778 59.7727 240.773 58.9434C240.782 58.1139 240.729 57.2849 240.614 56.4634C240.534 55.8098 240.319 55.1798 239.984 54.6133C239.324 53.6433 238.074 53.1533 236.234 53.1533H233.474Z" fill="#1A1A1A"/>
<path d="M277.284 58.8434H271.964V57.6432C271.991 56.5286 271.692 55.4307 271.104 54.4835C270.782 54.0268 270.345 53.6629 269.838 53.4293C269.33 53.1957 268.77 53.1008 268.214 53.1534C267.596 53.1256 266.983 53.271 266.444 53.5733C266.008 53.8393 265.634 54.1937 265.344 54.6134C265.055 55.0847 264.861 55.6078 264.774 56.1534C264.668 56.7476 264.615 57.3497 264.614 57.9532C264.614 58.6832 264.644 59.2933 264.694 59.7833C264.734 60.2387 264.866 60.6809 265.084 61.0831C265.307 61.4789 265.618 61.818 265.994 62.0733C266.507 62.4121 267.057 62.6907 267.634 62.9034L271.704 64.523C272.741 64.8922 273.711 65.4297 274.574 66.1134C275.281 66.6959 275.866 67.413 276.294 68.2232C276.693 69.1259 276.956 70.0829 277.074 71.0631C277.222 72.2639 277.292 73.4733 277.284 74.6832C277.293 76.1496 277.135 77.6122 276.814 79.0431C276.549 80.2741 276.035 81.4384 275.304 82.4635C274.552 83.4532 273.566 84.2397 272.434 84.753C271.069 85.346 269.591 85.6295 268.104 85.5831C266.871 85.5924 265.648 85.3618 264.504 84.9034C263.43 84.4766 262.454 83.8367 261.634 83.023C260.833 82.2191 260.188 81.2734 259.734 80.2335C259.259 79.139 259.02 77.9563 259.034 76.7633V74.7833H264.354V76.4532C264.347 77.4 264.649 78.3231 265.214 79.0831C265.564 79.4977 266.011 79.8212 266.514 80.025C267.018 80.2288 267.563 80.3068 268.104 80.253C268.828 80.2887 269.55 80.1556 270.214 79.8634C270.707 79.6159 271.115 79.2255 271.384 78.7433C271.675 78.2032 271.846 77.606 271.884 76.9933C271.934 76.3133 271.964 75.5632 271.964 74.7232C271.964 73.7532 271.924 72.9533 271.864 72.3233C271.823 71.7975 271.681 71.2843 271.444 70.8131C271.199 70.428 270.866 70.106 270.474 69.8731C269.962 69.5778 269.431 69.3174 268.884 69.0934L265.074 67.523C263.135 66.8767 261.494 65.5522 260.454 63.7931C259.616 61.9705 259.215 59.9779 259.284 57.9732C259.276 56.6323 259.469 55.2978 259.854 54.0133C260.2 52.8303 260.785 51.7311 261.574 50.7833C262.33 49.863 263.283 49.1246 264.364 48.6231C265.633 48.0545 267.013 47.7776 268.404 47.8131C269.648 47.7959 270.883 48.0447 272.024 48.5431C273.08 49.0075 274.043 49.6618 274.864 50.4732C275.624 51.2232 276.228 52.1167 276.64 53.1021C277.052 54.0876 277.264 55.1454 277.264 56.2135V58.8434H277.284Z" fill="#1A1A1A"/>
<path d="M281.244 85.2832V48.1431H297.104V53.1533H286.564V64.0532H295.744V69.063H286.564V79.9634H297.104V85.2832H281.244Z" fill="#1A1A1A"/>
<path d="M317.764 48.1533V76.9434C317.779 78.0761 317.566 79.2003 317.136 80.2485C316.707 81.2968 316.07 82.247 315.264 83.043C314.471 83.8394 313.535 84.4778 312.504 84.9233C311.449 85.3774 310.312 85.6086 309.163 85.603C308.025 85.6107 306.897 85.3793 305.854 84.9233C303.793 84.0102 302.147 82.3633 301.234 80.3032C300.775 79.243 300.543 78.0986 300.554 76.9434V48.1533H305.874V76.4233C305.829 76.9481 305.889 77.4763 306.05 77.9775C306.212 78.4788 306.471 78.9431 306.814 79.3433C307.447 79.9466 308.289 80.2832 309.163 80.2832C310.038 80.2832 310.88 79.9466 311.514 79.3433C311.856 78.9431 312.115 78.4788 312.277 77.9775C312.438 77.4763 312.498 76.9481 312.454 76.4233V48.1533H317.764Z" fill="#1A1A1A"/>
<path d="M332.464 85.2832V48.1431H337.574L344.404 67.8032H344.504L351.284 48.1431H356.444V85.2832H351.124V62.7031H351.023L345.754 78.6631H343.094L337.874 62.7031H337.773V85.2832H332.464Z" fill="#1A1A1A"/>
<path d="M361.474 85.2832V48.1431H377.334V53.1533H366.794V64.0532H375.974V69.063H366.794V79.9634H377.334V85.2832H361.474Z" fill="#1A1A1A"/>
<path d="M380.564 85.2832V48.1431H385.674L393.704 70.5229H393.804V48.1431H399.124V85.2832H394.114L385.974 62.9634H385.874V85.2832H380.564Z" fill="#1A1A1A"/>
<path d="M407.424 85.2832V53.1533H401.273V48.1431H418.904V53.1533H412.744V85.2832H407.424Z" fill="#1A1A1A"/>
<path d="M420.304 56.9129C420.276 55.5523 420.543 54.2017 421.084 52.953C421.567 51.8581 422.28 50.8794 423.174 50.0829C424.006 49.3509 424.97 48.7842 426.014 48.4129C427.577 47.8507 429.261 47.7092 430.897 48.0023C432.532 48.2954 434.062 49.0127 435.334 50.0829C436.196 50.8933 436.887 51.8695 437.364 52.953C437.904 54.202 438.17 55.5524 438.144 56.9129V76.5228C438.18 77.9036 437.913 79.2756 437.364 80.5428C436.886 81.5937 436.194 82.5338 435.334 83.3031C434.485 84.0554 433.501 84.6389 432.434 85.0228C430.361 85.7826 428.086 85.7826 426.014 85.0228C424.961 84.6454 423.996 84.0607 423.174 83.3031C422.285 82.545 421.572 81.6031 421.084 80.5428C420.532 79.2762 420.266 77.9038 420.304 76.5228V56.9129ZM425.624 76.5228C425.58 77.0459 425.653 77.5726 425.838 78.0638C426.024 78.555 426.316 78.9988 426.694 79.3631C427.405 79.9513 428.3 80.2728 429.224 80.2728C430.147 80.2728 431.042 79.9513 431.754 79.3631C432.131 78.9982 432.422 78.5539 432.607 78.0628C432.792 77.5718 432.866 77.0458 432.824 76.5228V56.9129C432.867 56.3898 432.794 55.8636 432.609 55.3724C432.424 54.8812 432.132 54.4374 431.754 54.0731C431.042 53.4849 430.147 53.1629 429.224 53.1629C428.3 53.1629 427.405 53.4849 426.694 54.0731C426.316 54.438 426.025 54.8818 425.84 55.3729C425.655 55.864 425.581 56.3899 425.624 56.9129V76.5228Z" fill="#1A1A1A"/>
<path d="M442.834 85.2832V48.1431H451.384C457.644 48.1431 460.773 51.7763 460.773 59.043C460.827 60.9538 460.479 62.8546 459.754 64.623C459.009 66.2195 457.752 67.5219 456.184 68.3232L461.924 85.2729H456.294L451.334 69.4131H448.154V85.2729H442.834V85.2832ZM448.154 53.1533V64.7334H451.184C451.95 64.7661 452.714 64.633 453.424 64.3433C453.958 64.106 454.41 63.7163 454.724 63.2231C455.026 62.6646 455.219 62.054 455.294 61.4233C455.404 60.6014 455.458 59.7727 455.454 58.9434C455.462 58.1139 455.409 57.2849 455.294 56.4634C455.214 55.8098 454.999 55.1798 454.664 54.6133C454.004 53.6433 452.754 53.1533 450.914 53.1533H448.154Z" fill="#1A1A1A"/>
</svg>
