<svg width="472" height="100" viewBox="0 0 472 100" fill="none" xmlns="http://www.w3.org/2000/svg">
<path d="M35.33 17.9131V79.7432C35.4845 83.5734 34.4763 87.3608 32.438 90.6074C30.3998 93.854 27.4268 96.4078 23.91 97.9331C21.269 99.0428 18.424 99.5844 15.56 99.5229C12.2995 99.6471 9.0759 98.7978 6.29999 97.083C4.1592 95.7191 2.19445 94.0969 0.450012 92.2529L9.54001 84.9829C10.3927 85.8281 11.3709 86.5366 12.44 87.083C13.5102 87.6448 14.7014 87.9367 15.91 87.9331C16.7216 87.9139 17.5263 87.7793 18.3 87.5332C19.2759 87.2302 20.1689 86.7065 20.91 86.0029C21.8154 85.2141 22.5184 84.2197 22.96 83.103C23.5481 81.5248 23.82 79.8463 23.76 78.1631V17.9229H35.33V17.9131Z" fill="#00E1BE"/>
<path d="M45.56 37.0131C45.5012 34.0436 46.0846 31.0962 47.27 28.3729C48.3232 25.9888 49.8746 23.8577 51.82 22.1229C53.6386 20.5347 55.738 19.3 58.01 18.4828C61.4141 17.2566 65.0809 16.9474 68.6423 17.5863C72.2037 18.2252 75.5344 19.7899 78.3 22.1229C80.187 23.8828 81.6945 26.0096 82.7299 28.3729C83.9107 31.0977 84.4938 34.044 84.44 37.0131V79.7528C84.5217 82.7599 83.9378 85.7478 82.7299 88.5028C81.691 90.7975 80.1818 92.8484 78.3 94.5229C76.4536 96.1619 74.3122 97.4346 71.99 98.2729C67.479 99.9395 62.521 99.9395 58.01 98.2729C55.7146 97.4536 53.6089 96.178 51.82 94.5229C49.88 92.8743 48.3266 90.819 47.27 88.5028C46.0622 85.7478 45.4782 82.7599 45.56 79.7528V37.0131ZM57.1599 79.7528C57.1599 82.5528 57.9366 84.6197 59.49 85.953C61.038 87.2393 62.9873 87.9433 65 87.9433C67.0126 87.9433 68.9619 87.2393 70.51 85.953C72.06 84.623 72.84 82.5628 72.84 79.7528V37.0131C72.84 34.2131 72.0633 32.1462 70.51 30.8129C68.9619 29.5267 67.0126 28.8227 65 28.8227C62.9873 28.8227 61.038 29.5267 59.49 30.8129C57.94 32.1429 57.1599 34.2031 57.1599 37.0131V79.7528Z" fill="#00E1BE"/>
<path d="M88.07 98.8428L106.14 17.9131H115.8L133.87 98.8428H122.28L118.87 81.4531H103.07L99.66 98.8428H88.07ZM130.36 0.0732422C130.005 1.72904 129.551 3.36164 129 4.96289C128.512 6.40283 127.781 7.74881 126.84 8.94287C125.942 10.0728 124.818 11.0026 123.54 11.6729C122.093 12.3889 120.493 12.7392 118.88 12.6929C117.625 12.6312 116.384 12.4028 115.19 12.0132C113.64 11.5632 112.02 11.0329 110.36 10.4229C109.53 10.1229 108.73 9.85305 107.97 9.62305C107.21 9.39305 106.45 9.13324 105.7 8.82324C104.671 8.46954 103.604 8.24105 102.52 8.14307C101.846 8.09808 101.171 8.20185 100.542 8.44727C99.9127 8.69268 99.3453 9.07364 98.88 9.56299C98.0139 10.5989 97.5334 11.9027 97.52 13.2529H91.72C92.123 10.0458 93.3342 6.99357 95.24 4.38281C96.1378 3.25289 97.2618 2.32304 98.54 1.65283C99.9865 0.93677 101.587 0.586513 103.2 0.632812C104.455 0.694519 105.696 0.923375 106.89 1.31299C108.44 1.77299 110.05 2.30283 111.72 2.90283C113.39 3.50283 114.963 4.03316 116.44 4.49316C117.449 4.85488 118.502 5.08316 119.57 5.17285C120.244 5.21784 120.919 5.11407 121.548 4.86865C122.177 4.62324 122.745 4.24228 123.21 3.75293C124.076 2.71702 124.557 1.41318 124.57 0.0629883H130.36V0.0732422ZM116.72 70.543L111.04 41.2129H110.81L105.13 70.543H116.72Z" fill="#00E1BE"/>
<path d="M138.88 37.0131C138.821 34.0436 139.405 31.0962 140.59 28.3729C141.643 25.9888 143.195 23.8577 145.14 22.1229C146.959 20.5347 149.058 19.3 151.33 18.4828C154.734 17.2566 158.401 16.9474 161.962 17.5863C165.524 18.2252 168.854 19.7899 171.62 22.1229C173.507 23.8828 175.014 26.0096 176.05 28.3729C177.231 31.0977 177.814 34.044 177.76 37.0131V79.7528C177.842 82.7599 177.258 85.7478 176.05 88.5028C175.011 90.7975 173.502 92.8484 171.62 94.5229C169.774 96.1619 167.632 97.4346 165.31 98.2729C160.799 99.9395 155.841 99.9395 151.33 98.2729C149.035 97.4536 146.929 96.178 145.14 94.5229C143.2 92.8743 141.647 90.819 140.59 88.5028C139.382 85.7478 138.798 82.7599 138.88 79.7528V37.0131ZM150.48 79.7528C150.48 82.5528 151.257 84.6197 152.81 85.953C154.358 87.2393 156.307 87.9433 158.32 87.9433C160.333 87.9433 162.282 87.2393 163.83 85.953C165.38 84.623 166.16 82.5628 166.16 79.7528V37.0131C166.16 34.2131 165.383 32.1462 163.83 30.8129C162.282 29.5267 160.333 28.8227 158.32 28.8227C156.307 28.8227 154.358 29.5267 152.81 30.8129C151.26 32.1429 150.48 34.2031 150.48 37.0131V79.7528Z" fill="#00E1BE"/>
<path d="M209.12 98.8428V17.9131H220.71V54.853H220.94L237.88 17.9131H249.47L233.67 50.3032L252.42 98.8428H240.14L226.95 62.9229L220.7 74.6328V98.8428H209.12Z" fill="#00E1BE"/>
<path d="M257.55 98.8428V17.9131H292.1V28.8232H269.14V52.583H289.15V63.4932H269.14V87.2529H292.1V98.8428H257.55Z" fill="#00E1BE"/>
<path d="M299.6 98.8427V17.913H316.99C319.843 17.8641 322.685 18.2864 325.4 19.163C327.931 20.0676 330.197 21.5901 331.99 23.5927C333.951 25.6977 335.357 28.2584 336.08 31.0429C336.941 34.8268 337.324 38.7037 337.22 42.5829C337.26 45.6649 337.05 48.745 336.59 51.7929C336.169 54.2948 335.262 56.6898 333.92 58.8427C332.39 61.4396 330.19 63.578 327.55 65.0331C324.9 66.5131 321.413 67.2528 317.09 67.2528H311.18V98.8529H299.6V98.8427ZM311.2 28.8231V56.3329H316.77C318.645 56.4284 320.516 56.0788 322.23 55.3129C323.455 54.6929 324.45 53.6981 325.07 52.473C325.726 51.1626 326.094 49.7273 326.15 48.2631C326.26 46.5931 326.32 44.7428 326.32 42.6928C326.32 40.8028 326.28 39.0029 326.21 37.2929C326.167 35.744 325.82 34.2188 325.19 32.8031C324.614 31.5536 323.659 30.5173 322.46 29.8427C320.828 29.0737 319.031 28.7237 317.23 28.8231H311.2Z" fill="#00E1BE"/>
<path d="M345.86 98.8428V17.9131H357.45V87.2529H380.41V98.8428H345.86Z" fill="#00E1BE"/>
<path d="M387.92 98.8428V17.9131H422.47V28.8232H399.51V52.583H419.52V63.4932H399.51V87.2529H422.47V98.8428H387.92Z" fill="#00E1BE"/>
<path d="M429.98 98.8428V17.9131H448.62C462.26 17.9131 469.08 25.8329 469.08 41.6729C469.195 45.8366 468.439 49.9787 466.86 53.833C465.24 57.3194 462.497 60.161 459.07 61.9028L471.57 98.8428H459.3L448.5 64.293H441.57V98.8428H429.98ZM441.57 28.8232V54.0532H448.16C449.832 54.1241 451.5 53.8341 453.05 53.2031C454.211 52.6787 455.197 51.8318 455.89 50.7632C456.547 49.5458 456.971 48.2159 457.14 46.8428C457.593 43.257 457.593 39.6287 457.14 36.043C456.956 34.6202 456.493 33.2476 455.78 32.0029C454.34 29.8829 451.613 28.8232 447.6 28.8232H441.57Z" fill="#00E1BE"/>
</svg>
