<svg width="260" height="55" viewBox="0 0 260 55" fill="none" xmlns="http://www.w3.org/2000/svg">
<path d="M0.480042 43.1528V8.2229H15.39V12.9329H5.48004V23.5328H14.11V28.2429H5.48004V43.1528H0.480042Z" fill="#090C0B"/>
<path d="M13.93 43.1528L21.73 8.2229H25.9001L33.7 43.1528H28.7L27.23 35.6429H20.41L18.94 43.1528H13.93ZM26.29 30.9329L23.8401 18.2728H23.74L21.29 30.9329H26.29Z" fill="#090C0B"/>
<path d="M34.5301 43.1528V38.7329L43.95 12.9329H35.0201V8.2229H49.39V12.1929L39.7701 38.4429H49.39V43.1528H34.5301Z" fill="#090C0B"/>
<path d="M52.48 43.1528V8.2229H67.39V12.9329H57.48V23.1829H66.11V27.8929H57.48V38.1429H67.39V43.1429H52.48V43.1528Z" fill="#090C0B"/>
<path d="M70.63 43.1528V8.2229H78.68C84.57 8.2229 87.5134 11.6396 87.51 18.4729C87.5598 20.2707 87.2328 22.059 86.55 23.7229C85.8505 25.2258 84.6675 26.451 83.19 27.2029L88.5901 43.1429H83.29L78.63 28.2329H75.64V43.1429H70.63V43.1528ZM75.64 12.9329V23.8229H78.49C79.2119 23.8547 79.932 23.7284 80.6 23.4529C81.0981 23.2217 81.5235 22.8585 81.83 22.4028C82.112 21.8773 82.295 21.3045 82.37 20.7129C82.5701 19.166 82.5701 17.5997 82.37 16.0529C82.2927 15.439 82.092 14.8472 81.7801 14.3129C81.1601 13.3929 79.98 12.9429 78.25 12.9429H75.64V12.9329Z" fill="#090C0B"/>
<path d="M100.8 43.1528V8.2229H105.8V43.1528H100.8Z" fill="#090C0B"/>
<path d="M110.47 43.1528V8.2229H115.28L122.84 29.2728H122.94V8.2229H127.94V43.1528H123.23L115.58 22.1528H115.48V43.1528H110.47Z" fill="#090C0B"/>
<path d="M148.63 18.2829H143.63V17.1529C143.656 16.1051 143.374 15.0727 142.82 14.1829C142.516 13.7546 142.104 13.4137 141.627 13.1944C141.15 12.975 140.623 12.8849 140.1 12.9329C139.518 12.9073 138.94 13.0422 138.43 13.3229C138.018 13.569 137.666 13.9037 137.4 14.3029C137.133 14.7493 136.95 15.2408 136.86 15.753C136.758 16.3105 136.708 16.8762 136.71 17.4429C136.703 18.0171 136.727 18.5912 136.78 19.1629C136.819 19.5936 136.945 20.012 137.15 20.393C137.359 20.7666 137.654 21.0852 138.01 21.3229C138.494 21.6372 139.01 21.8987 139.55 22.103L143.38 23.623C144.356 23.9725 145.268 24.4792 146.08 25.123C146.751 25.6679 147.303 26.3453 147.7 27.113C148.075 27.9624 148.324 28.8617 148.44 29.7829C148.58 30.9141 148.647 32.0531 148.64 33.1929C148.648 34.5718 148.501 35.9472 148.2 37.2929C147.953 38.4493 147.47 39.5423 146.78 40.503C146.074 41.4362 145.146 42.1785 144.08 42.6629C142.798 43.2209 141.408 43.4906 140.01 43.4529C138.849 43.4639 137.697 43.2465 136.62 42.8129C135.607 42.417 134.687 41.8142 133.92 41.0429C133.167 40.2874 132.56 39.3991 132.13 38.4229C131.684 37.3946 131.459 36.2838 131.47 35.1629V33.3029H136.47V34.873C136.462 35.7659 136.747 36.6368 137.28 37.353C137.61 37.7438 138.03 38.0482 138.504 38.2399C138.978 38.4316 139.491 38.5047 140 38.4529C140.683 38.4875 141.365 38.3608 141.99 38.0829C142.452 37.844 142.834 37.4756 143.09 37.0229C143.365 36.5171 143.525 35.9574 143.56 35.383C143.61 34.743 143.63 34.033 143.63 33.253C143.639 32.4984 143.606 31.7438 143.53 30.993C143.487 30.4999 143.355 30.0187 143.14 29.5729C142.91 29.2126 142.598 28.9112 142.23 28.6929C141.746 28.4146 141.245 28.1675 140.73 27.9529L137.15 26.483C135.323 25.8823 133.779 24.6337 132.81 22.9729C132.019 21.2614 131.642 19.3874 131.71 17.503C131.704 16.2397 131.886 14.9824 132.25 13.7729C132.575 12.659 133.127 11.6242 133.87 10.733C134.58 9.86589 135.475 9.16879 136.49 8.69292C137.683 8.15711 138.982 7.89732 140.29 7.93291C141.463 7.91878 142.625 8.15398 143.7 8.62291C144.696 9.05659 145.602 9.67402 146.37 10.4429C147.085 11.1491 147.652 11.9899 148.04 12.9168C148.428 13.8436 148.629 14.8382 148.63 15.8429V18.2829Z" fill="#090C0B"/>
<path d="M168.25 33.1928V35.3529C168.257 36.4069 168.049 37.4513 167.64 38.4228C167.236 39.377 166.663 40.2509 165.95 41.0029C165.229 41.7563 164.37 42.3639 163.42 42.7928C162.44 43.2369 161.376 43.4622 160.3 43.4528C159.324 43.4491 158.352 43.318 157.41 43.0628C156.438 42.8042 155.533 42.3367 154.76 41.6928C153.944 40.9945 153.283 40.1325 152.82 39.1628C152.269 37.9212 152.009 36.5702 152.06 35.2128V15.9829C152.052 14.8917 152.252 13.8089 152.65 12.7928C153.026 11.8372 153.594 10.9692 154.32 10.2428C155.058 9.51248 155.936 8.93779 156.9 8.55281C157.953 8.13428 159.077 7.92702 160.21 7.94282C161.275 7.9029 162.337 8.08801 163.326 8.48603C164.315 8.88406 165.209 9.48605 165.95 10.2528C166.682 11.0242 167.256 11.9312 167.64 12.9228C168.056 13.9936 168.263 15.1341 168.25 16.2828V18.2429H163.25V16.5728C163.268 15.6536 162.976 14.7551 162.42 14.0228C162.158 13.6742 161.816 13.394 161.422 13.206C161.029 13.018 160.596 12.9277 160.16 12.9428C159.68 12.8788 159.192 12.9531 158.753 13.1568C158.313 13.3605 157.941 13.6852 157.68 14.0928C157.241 15.0016 157.031 16.0043 157.07 17.0129V34.8729C157.04 35.7687 157.269 36.6542 157.73 37.4228C158.002 37.7878 158.365 38.0751 158.782 38.2558C159.2 38.4366 159.658 38.5045 160.11 38.4528C160.47 38.4463 160.826 38.389 161.17 38.2828C161.554 38.1689 161.911 37.9785 162.22 37.7228C162.541 37.4202 162.794 37.0519 162.96 36.6429C163.173 36.0952 163.271 35.5099 163.25 34.9228V33.2028H168.25V33.1928Z" fill="#090C0B"/>
<path d="M172.33 43.1528V8.2229H180.38C186.27 8.2229 189.213 11.6396 189.21 18.4729C189.26 20.2707 188.933 22.059 188.25 23.7229C187.55 25.2258 186.368 26.451 184.89 27.2029L190.29 43.1429H184.99L180.33 28.2329H177.34V43.1429H172.33V43.1528ZM177.33 12.9329V23.8229H180.18C180.902 23.8547 181.622 23.7284 182.29 23.4529C182.788 23.2217 183.214 22.8585 183.52 22.4028C183.802 21.8773 183.985 21.3045 184.06 20.7129C184.26 19.166 184.26 17.5997 184.06 16.0529C183.983 15.439 183.782 14.8472 183.47 14.3129C182.85 13.3929 181.67 12.9429 179.94 12.9429H177.33V12.9329Z" fill="#090C0B"/>
<path d="M193.37 43.1528V8.2229H198.37V43.1528H193.37Z" fill="#090C0B"/>
<path d="M207.3 47.3729L210.29 43.4528C209.383 43.381 208.491 43.1825 207.64 42.8629C206.765 42.538 205.965 42.0378 205.29 41.3929C204.543 40.7009 203.957 39.8545 203.57 38.9128C203.109 37.7353 202.891 36.4767 202.93 35.2128V15.9829C202.922 14.8917 203.122 13.8089 203.52 12.7928C203.896 11.8372 204.464 10.9692 205.19 10.2428C205.928 9.51248 206.806 8.93779 207.77 8.55281C208.823 8.13428 209.947 7.92702 211.08 7.94282C212.145 7.9029 213.207 8.08801 214.196 8.48603C215.185 8.88406 216.079 9.48605 216.82 10.2528C217.552 11.0242 218.126 11.9312 218.51 12.9228C218.926 13.9936 219.133 15.1341 219.12 16.2828V18.2429H214.12V16.5728C214.138 15.6536 213.846 14.7551 213.29 14.0228C213.028 13.6742 212.686 13.394 212.292 13.206C211.899 13.018 211.466 12.9277 211.03 12.9428C210.55 12.8788 210.062 12.9531 209.623 13.1568C209.183 13.3605 208.811 13.6852 208.55 14.0928C208.111 15.0016 207.901 16.0043 207.94 17.0129V34.8729C207.91 35.7687 208.139 36.6542 208.6 37.4228C208.872 37.7878 209.235 38.0751 209.652 38.2558C210.07 38.4366 210.528 38.5045 210.98 38.4528C211.34 38.4463 211.696 38.389 212.04 38.2828C212.424 38.1689 212.781 37.9785 213.09 37.7228C213.411 37.4202 213.664 37.0519 213.83 36.6429C214.043 36.0952 214.141 35.5099 214.12 34.9228V33.2028H219.12V35.3629C219.123 36.3015 218.957 37.2331 218.63 38.1129C218.311 38.9735 217.866 39.7823 217.31 40.5129C216.724 41.2293 216.021 41.8412 215.23 42.3228C214.422 42.813 213.536 43.1614 212.61 43.3529L210.5 46.1029C210.76 46.0729 211.02 46.0428 211.26 46.0328C211.5 46.0228 211.76 46.0129 212.02 46.0129C212.706 45.9874 213.39 46.1031 214.03 46.3529C214.513 46.5544 214.949 46.8541 215.31 47.2329C215.622 47.591 215.857 48.0097 216 48.4628C216.128 48.8605 216.196 49.2751 216.2 49.6928C216.216 50.4129 216.022 51.1221 215.64 51.7329C215.266 52.3006 214.771 52.7787 214.19 53.1329C213.589 53.497 212.934 53.7636 212.25 53.9228C211.568 54.0836 210.871 54.1674 210.17 54.1728C209.276 54.1765 208.385 54.0622 207.52 53.8328C206.7 53.6028 206.06 53.4029 205.61 53.2429L206.44 51.1828C206.96 51.3828 207.49 51.5528 208.01 51.7028C208.537 51.8521 209.082 51.9262 209.63 51.9228C209.918 51.9223 210.206 51.899 210.49 51.8529C210.795 51.8037 211.087 51.6949 211.35 51.5328C211.646 51.383 211.892 51.1499 212.057 50.862C212.223 50.5741 212.3 50.2441 212.28 49.9128C212.286 49.6483 212.226 49.3866 212.105 49.151C211.985 48.9154 211.808 48.7132 211.59 48.5628C211.154 48.227 210.62 48.0442 210.07 48.0428C209.417 48.0286 208.768 48.1442 208.16 48.3829L207.3 47.3729Z" fill="#090C0B"/>
<path d="M220.94 43.1529L228.74 8.22296H232.91L240.71 43.1529H235.71L234.24 35.643H227.42L225.95 43.1529H220.94ZM239.19 0.522949C239.039 1.23827 238.842 1.94306 238.6 2.63293C238.388 3.25391 238.073 3.83522 237.67 4.35297C237.281 4.83782 236.798 5.23915 236.25 5.53296C235.625 5.83934 234.936 5.99028 234.24 5.97296C233.7 5.94534 233.165 5.84782 232.65 5.68292C231.98 5.48292 231.28 5.26292 230.57 4.99292C230.21 4.86292 229.87 4.74295 229.54 4.65295C229.21 4.56295 228.89 4.44293 228.56 4.31293C228.118 4.15742 227.657 4.05997 227.19 4.02295C226.9 4.00433 226.609 4.04925 226.338 4.1546C226.067 4.25996 225.822 4.42319 225.62 4.63293C225.245 5.07839 225.036 5.64055 225.03 6.22296H222.53C222.704 4.838 223.227 3.51996 224.05 2.39294C224.439 1.90809 224.922 1.50676 225.47 1.21295C226.095 0.906575 226.784 0.755627 227.48 0.772949C228.02 0.800571 228.555 0.898026 229.07 1.06293C229.74 1.26293 230.44 1.49293 231.15 1.75293C231.86 2.01293 232.55 2.24293 233.19 2.44293C233.625 2.59875 234.079 2.6963 234.54 2.73297C234.831 2.7536 235.122 2.7096 235.393 2.60413C235.665 2.49865 235.91 2.33428 236.11 2.12292C236.485 1.67747 236.694 1.11538 236.7 0.532959H239.19V0.522949ZM233.3 30.9329L230.85 18.2729H230.75L228.3 30.9329H233.3Z" fill="#090C0B"/>
<path d="M242.87 16.463C242.846 15.1809 243.098 13.9088 243.61 12.733C244.062 11.7028 244.731 10.7819 245.57 10.033C246.354 9.34788 247.26 8.8154 248.24 8.46295C249.709 7.93281 251.293 7.79881 252.83 8.0744C254.368 8.34999 255.806 9.02548 257 10.033C257.812 10.7953 258.461 11.7136 258.91 12.733C259.422 13.9088 259.674 15.1809 259.65 16.463V34.9129C259.683 36.2119 259.43 37.5023 258.91 38.6929C258.46 39.6826 257.81 40.568 257 41.2929C256.203 41.9985 255.28 42.548 254.28 42.9129C252.331 43.633 250.189 43.633 248.24 42.9129C247.25 42.5588 246.341 42.0077 245.57 41.2929C244.733 40.5814 244.064 39.6936 243.61 38.6929C243.09 37.5023 242.837 36.2119 242.87 34.9129V16.463ZM247.87 34.9129C247.827 35.4053 247.895 35.9011 248.07 36.3633C248.245 36.8256 248.522 37.2425 248.88 37.5829C249.549 38.1387 250.391 38.4431 251.26 38.4431C252.129 38.4431 252.971 38.1387 253.64 37.5829C253.996 37.2411 254.272 36.824 254.447 36.3621C254.622 35.9002 254.691 35.4051 254.65 34.9129V16.463C254.691 15.9708 254.622 15.4756 254.447 15.0137C254.272 14.5518 253.996 14.1347 253.64 13.7929C252.971 13.2371 252.129 12.9329 251.26 12.9329C250.391 12.9329 249.549 13.2371 248.88 13.7929C248.524 14.1347 248.248 14.5518 248.073 15.0137C247.898 15.4756 247.829 15.9708 247.87 16.463V34.9129Z" fill="#090C0B"/>
</svg>
