<svg width="288" height="177" viewBox="0 0 288 177" fill="none" xmlns="http://www.w3.org/2000/svg">
<path d="M156.36 0.4729H0.410004V58.1329H156.36V0.4729Z" fill="#00E1BE"/>
<path d="M287.74 63.803H0.410004V121.463H287.74V63.803Z" fill="#00E1BE"/>
<path d="M14.29 52.9829V15.063H7.03006V9.15308H27.8401V15.063H20.58V52.9829H14.29Z" fill="#001E1F"/>
<path d="M52.45 9.15308V43.1331C52.4634 44.4947 52.2015 45.8451 51.68 47.103C51.1706 48.3138 50.4263 49.4116 49.49 50.333C48.5519 51.2705 47.446 52.0236 46.23 52.553C44.9857 53.0879 43.6444 53.3603 42.29 53.353C40.9451 53.3624 39.6132 53.0898 38.38 52.553C37.1718 52.0253 36.0756 51.2719 35.15 50.333C34.2175 49.4022 33.4648 48.3072 32.93 47.103C32.3892 45.85 32.1167 44.4977 32.13 43.1331V9.15308H38.41V42.5129C38.3577 43.1328 38.429 43.7569 38.6195 44.3491C38.81 44.9413 39.1161 45.4898 39.52 45.9629C40.2662 46.6754 41.2582 47.073 42.29 47.073C43.3217 47.073 44.3138 46.6754 45.06 45.9629C45.4639 45.4898 45.77 44.9413 45.9605 44.3491C46.151 43.7569 46.2222 43.1328 46.17 42.5129V9.15308H52.45Z" fill="#001E1F"/>
<path d="M59.9001 52.9829V9.15308H69.2C72.81 9.15308 75.55 10.1397 77.42 12.113C79.29 14.0864 80.2233 16.8762 80.22 20.4829V40.9829C80.22 45.0829 79.2233 48.1097 77.23 50.063C75.2367 52.0163 72.3734 52.9896 68.64 52.9829H59.9001ZM66.18 15.063V47.073H69.07C69.7538 47.1441 70.4448 47.0625 71.0933 46.8342C71.7418 46.606 72.3315 46.2366 72.82 45.7529C73.6589 44.5359 74.0511 43.0662 73.93 41.593V20.4829C74.0168 19.0716 73.6488 17.6696 72.88 16.4829C72.18 15.5429 70.91 15.063 69.06 15.063H66.18Z" fill="#001E1F"/>
<path d="M87.29 19.4929C87.261 17.8853 87.5747 16.29 88.21 14.8129C88.7853 13.5241 89.6231 12.3697 90.67 11.423C91.6523 10.5609 92.7891 9.89247 94.02 9.45307C96.4653 8.54624 99.1547 8.54624 101.6 9.45307C102.847 9.90313 104.005 10.57 105.02 11.423C106.043 12.377 106.86 13.5307 107.42 14.8129C108.062 16.2879 108.376 17.8846 108.34 19.4929V42.643C108.383 44.2712 108.069 45.889 107.42 47.383C106.853 48.6232 106.036 49.7331 105.02 50.643C104.018 51.5283 102.857 52.217 101.6 52.673C99.1547 53.5799 96.4653 53.5799 94.02 52.673C92.7786 52.2277 91.6393 51.5373 90.67 50.643C89.6181 49.7525 88.7778 48.6388 88.21 47.383C87.5565 45.8905 87.2422 44.2716 87.29 42.643V19.4929ZM93.57 42.643C93.517 43.26 93.6026 43.881 93.8206 44.4606C94.0386 45.0403 94.3835 45.5637 94.83 45.9929C95.6701 46.6908 96.7278 47.0729 97.82 47.0729C98.9122 47.0729 99.9699 46.6908 100.81 45.9929C101.255 45.5626 101.599 45.039 101.817 44.4597C102.035 43.8803 102.121 43.2599 102.07 42.643V19.4929C102.123 18.8759 102.037 18.2549 101.819 17.6752C101.601 17.0956 101.257 16.5721 100.81 16.143C99.9699 15.4451 98.9122 15.0629 97.82 15.0629C96.7278 15.0629 95.6701 15.4451 94.83 16.143C94.3851 16.5733 94.0412 17.0969 93.8233 17.6762C93.6054 18.2556 93.5189 18.876 93.57 19.4929V42.643Z" fill="#001E1F"/>
<path d="M128.04 19.4929C128.011 17.8853 128.325 16.29 128.96 14.8129C129.535 13.5241 130.373 12.3697 131.42 11.423C132.402 10.5609 133.539 9.89247 134.77 9.45307C137.215 8.54624 139.905 8.54624 142.35 9.45307C143.597 9.90313 144.755 10.57 145.77 11.423C146.793 12.377 147.61 13.5307 148.17 14.8129C148.812 16.2879 149.126 17.8846 149.09 19.4929V42.643C149.133 44.2712 148.819 45.889 148.17 47.383C147.603 48.6232 146.786 49.7331 145.77 50.643C144.768 51.5283 143.607 52.217 142.35 52.673C139.905 53.5799 137.215 53.5799 134.77 52.673C133.529 52.2277 132.389 51.5373 131.42 50.643C130.368 49.7525 129.528 48.6388 128.96 47.383C128.306 45.8905 127.992 44.2716 128.04 42.643V19.4929ZM134.32 42.643C134.267 43.26 134.353 43.881 134.571 44.4606C134.789 45.0403 135.134 45.5637 135.58 45.9929C136.42 46.6908 137.478 47.0729 138.57 47.0729C139.662 47.0729 140.72 46.6908 141.56 45.9929C142.005 45.5626 142.349 45.039 142.567 44.4597C142.785 43.8803 142.871 43.2599 142.82 42.643V19.4929C142.873 18.8759 142.787 18.2549 142.569 17.6752C142.351 17.0956 142.007 16.5721 141.56 16.143C140.72 15.4451 139.662 15.0629 138.57 15.0629C137.478 15.0629 136.42 15.4451 135.58 16.143C135.135 16.5733 134.791 17.0969 134.573 17.6762C134.355 18.2556 134.269 18.876 134.32 19.4929V42.643Z" fill="#001E1F"/>
<path d="M9.80002 81.0529C9.77108 79.4453 10.0847 77.85 10.72 76.373C11.2953 75.0842 12.1332 73.9295 13.18 72.9829C14.1624 72.1207 15.2991 71.4523 16.5301 71.0129C18.9754 70.1061 21.6647 70.1061 24.11 71.0129C25.3572 71.4629 26.515 72.1298 27.5301 72.9829C28.5535 73.9368 29.3703 75.0907 29.93 76.373C30.572 77.848 30.8859 79.4447 30.85 81.0529V104.203C30.8851 105.75 30.5706 107.285 29.93 108.693L33.81 111.833L30.61 115.653L26.92 112.633C25.0594 114.144 22.7264 114.951 20.3301 114.913C19.0369 114.907 17.7546 114.677 16.54 114.233C15.2986 113.788 14.1594 113.097 13.19 112.203C12.1382 111.313 11.2978 110.199 10.73 108.943C10.0765 107.451 9.76226 105.832 9.81003 104.203V81.0529H9.80002ZM16.07 104.203C16.017 104.82 16.1026 105.441 16.3207 106.021C16.5387 106.6 16.8835 107.124 17.3301 107.553C18.1598 108.269 19.2244 108.653 20.32 108.633C20.7834 108.657 21.2459 108.571 21.67 108.383L18.8401 106.103L22.04 102.283L24.56 104.313V81.0429C24.6131 80.4259 24.5274 79.8049 24.3094 79.2253C24.0914 78.6457 23.7465 78.1222 23.3 77.6931C22.4599 76.9951 21.4022 76.613 20.31 76.613C19.2179 76.613 18.1601 76.9951 17.32 77.6931C16.8751 78.1233 16.5312 78.6469 16.3133 79.2263C16.0954 79.8056 16.0089 80.4261 16.06 81.0429V104.203H16.07Z" fill="#001E1F"/>
<path d="M58.24 70.7129V104.693C58.2534 106.055 57.9914 107.405 57.47 108.663C56.9606 109.874 56.2163 110.972 55.28 111.893C54.3419 112.831 53.2361 113.584 52.02 114.113C50.7757 114.648 49.4344 114.92 48.08 114.913C46.7351 114.922 45.4031 114.65 44.17 114.113C42.9618 113.585 41.8655 112.832 40.94 111.893C40.0075 110.962 39.2548 109.867 38.72 108.663C38.1792 107.41 37.9067 106.058 37.92 104.693V70.7129H44.2V104.073C44.1478 104.693 44.219 105.317 44.4095 105.909C44.6 106.501 44.9061 107.05 45.31 107.523C46.0562 108.235 47.0483 108.633 48.08 108.633C49.1118 108.633 50.1038 108.235 50.85 107.523C51.2539 107.05 51.56 106.501 51.7505 105.909C51.941 105.317 52.0123 104.693 51.96 104.073V70.7129H58.24Z" fill="#001E1F"/>
<path d="M65.69 114.543V70.7129H84.4001V76.623H71.97V89.4929H82.8V95.4031H71.97V108.273H84.4001V114.553H65.69V114.543Z" fill="#001E1F"/>
<path d="M124.29 70.7129L115.3 114.543H109.76L100.83 70.7129H107.48L112.47 101.303H112.59L117.64 70.7129H124.29Z" fill="#001E1F"/>
<path d="M129.21 81.0529C129.181 79.4453 129.495 77.85 130.13 76.373C130.705 75.0842 131.543 73.9295 132.59 72.9829C133.572 72.1207 134.709 71.4523 135.94 71.0129C138.385 70.1061 141.075 70.1061 143.52 71.0129C144.767 71.4629 145.925 72.1298 146.94 72.9829C147.963 73.9368 148.78 75.0907 149.34 76.373C149.982 77.848 150.296 79.4447 150.26 81.0529V104.203C150.303 105.831 149.989 107.449 149.34 108.943C148.773 110.183 147.956 111.293 146.94 112.203C145.938 113.088 144.777 113.777 143.52 114.233C141.075 115.14 138.385 115.14 135.94 114.233C134.699 113.788 133.559 113.097 132.59 112.203C131.538 111.313 130.698 110.199 130.13 108.943C129.476 107.451 129.162 105.832 129.21 104.203V81.0529ZM135.49 104.203C135.437 104.82 135.523 105.441 135.741 106.021C135.959 106.6 136.304 107.124 136.75 107.553C137.59 108.251 138.648 108.633 139.74 108.633C140.832 108.633 141.89 108.251 142.73 107.553C143.175 107.123 143.519 106.599 143.737 106.02C143.955 105.44 144.041 104.82 143.99 104.203V81.0529C144.043 80.4359 143.957 79.8149 143.739 79.2353C143.521 78.6557 143.176 78.1322 142.73 77.7031C141.89 77.0052 140.832 76.623 139.74 76.623C138.648 76.623 137.59 77.0052 136.75 77.7031C136.305 78.1333 135.961 78.6569 135.743 79.2363C135.525 79.8156 135.439 80.4361 135.49 81.0529V104.203Z" fill="#001E1F"/>
<path d="M177.29 102.043V104.753C177.295 106.075 177.033 107.384 176.52 108.603C176.018 109.801 175.299 110.896 174.4 111.833C173.494 112.776 172.419 113.539 171.23 114.083C170.002 114.639 168.668 114.922 167.32 114.913C166.094 114.91 164.873 114.745 163.69 114.423C162.47 114.101 161.337 113.514 160.37 112.703C159.345 111.83 158.517 110.749 157.94 109.533C157.248 107.974 156.923 106.277 156.99 104.573V80.4431C156.979 79.0747 157.23 77.7169 157.73 76.4431C158.2 75.2445 158.911 74.1551 159.82 73.2429C160.744 72.3268 161.842 71.606 163.05 71.1231C164.37 70.5988 165.78 70.3372 167.2 70.353C168.536 70.3005 169.868 70.5308 171.109 71.0288C172.35 71.5269 173.471 72.2813 174.4 73.2429C175.318 74.2107 176.039 75.3488 176.52 76.593C177.042 77.9382 177.303 79.3703 177.29 80.813V83.273H171.01V81.1831C171.035 80.0279 170.665 78.8986 169.96 77.9829C169.632 77.5469 169.203 77.1967 168.71 76.9617C168.218 76.7267 167.676 76.6139 167.13 76.6331C165.57 76.6331 164.53 77.113 164.02 78.083C163.47 79.2223 163.205 80.4785 163.25 81.7429V104.153C163.212 105.277 163.501 106.389 164.08 107.353C164.423 107.81 164.879 108.169 165.403 108.396C165.928 108.622 166.502 108.707 167.07 108.643C167.519 108.638 167.964 108.564 168.39 108.423C168.872 108.275 169.321 108.034 169.71 107.713C170.113 107.337 170.428 106.876 170.63 106.363C170.899 105.679 171.025 104.947 171 104.213V102.063H177.29V102.043Z" fill="#001E1F"/>
<path d="M183.94 114.543V70.7129H202.65V76.623H190.22V89.4929H201.05V95.4031H190.22V108.273H202.65V114.553H183.94V114.543ZM184.06 68.7429L190.09 60.063H195.88L201.91 68.7429H197.11L192.99 62.8931L188.87 68.7429H184.06Z" fill="#001E1F"/>
<path d="M242.54 70.7129L233.55 114.543H228.01L219.08 70.7129H225.73L230.72 101.303H230.84L235.89 70.7129H242.54Z" fill="#001E1F"/>
<path d="M242.73 114.543L252.52 70.7129H257.75L267.54 114.543H261.26L259.41 105.123H250.85L249 114.543H242.73ZM258.24 99.2129L255.16 83.333H255.04L251.96 99.2129H258.24Z" fill="#001E1F"/>
<path d="M272.33 114.543V70.7129H278.61V114.543H272.33Z" fill="#001E1F"/>
<path d="M7.33005 176.103L17.12 132.273H22.35L32.14 176.103H25.86L24.01 166.683H15.45L13.6 176.103H7.33005ZM22.85 160.773L19.7701 144.893H19.6501L16.57 160.773H22.85Z" fill="#00E1BE"/>
<path d="M36.76 176.103V132.273H46.18C47.727 132.248 49.2676 132.478 50.74 132.953C52.1111 133.444 53.3382 134.269 54.31 135.353C55.3741 136.491 56.1372 137.876 56.5301 139.383C56.9965 141.433 57.2047 143.532 57.1501 145.633C57.1732 147.303 57.0594 148.972 56.81 150.623C56.5807 151.979 56.0881 153.277 55.36 154.443C54.5315 155.849 53.3398 157.006 51.91 157.793C50.155 158.665 48.2078 159.078 46.25 158.993H43.05V176.103H36.76ZM43.04 138.183V153.083H46.06C47.0731 153.137 48.0845 152.949 49.01 152.533C49.6752 152.198 50.215 151.658 50.55 150.993C50.9033 150.283 51.1011 149.506 51.13 148.713C51.19 147.813 51.22 146.803 51.22 145.693C51.22 144.663 51.2 143.693 51.16 142.773C51.1356 141.935 50.9488 141.11 50.61 140.343C50.3005 139.665 49.7818 139.104 49.13 138.743C48.2472 138.327 47.2744 138.138 46.3 138.193H43.04V138.183Z" fill="#00E1BE"/>
<path d="M63.35 176.103V132.273H73.45C80.84 132.273 84.5334 136.563 84.5301 145.143C84.5925 147.399 84.1838 149.644 83.33 151.733C82.4517 153.621 80.9658 155.159 79.11 156.103L85.88 176.113H79.23L73.38 157.403H69.62V176.113H63.35V176.103ZM69.63 138.183V151.853H73.2C74.1062 151.892 75.0101 151.735 75.85 151.393C76.4785 151.109 77.0129 150.651 77.39 150.073C77.7453 149.414 77.9758 148.696 78.07 147.953C78.31 146.014 78.31 144.052 78.07 142.113C77.9717 141.341 77.7201 140.597 77.33 139.923C76.55 138.773 75.0734 138.2 72.9001 138.203H69.63V138.183Z" fill="#00E1BE"/>
<path d="M91.11 176.103V132.273H109.82V138.183H97.39V151.053H108.22V156.963H97.39V169.833H109.82V176.113H91.11V176.103Z" fill="#00E1BE"/>
<path d="M115.18 176.103V132.273H121.21L130.69 158.683H130.81V132.273H137.09V176.103H131.18L121.58 149.753H121.46V176.103H115.18Z" fill="#00E1BE"/>
<path d="M144.3 176.103V132.273H153.6C157.21 132.273 159.95 133.26 161.82 135.233C163.69 137.206 164.623 139.996 164.62 143.603V164.103C164.62 168.203 163.623 171.23 161.63 173.183C159.637 175.136 156.773 176.11 153.04 176.103H144.3ZM150.58 138.183V170.193H153.47C154.154 170.264 154.845 170.183 155.493 169.954C156.142 169.726 156.731 169.357 157.22 168.873C158.059 167.656 158.451 166.186 158.33 164.713V143.603C158.417 142.192 158.049 140.79 157.28 139.603C156.58 138.663 155.31 138.183 153.46 138.183H150.58Z" fill="#00E1BE"/>
<path d="M172.06 176.103V132.273H190.77V138.183H178.34V151.053H189.17V156.963H178.34V169.833H190.77V176.113H172.06V176.103Z" fill="#00E1BE"/>
<path d="M196.37 176.103V132.273H206.47C213.86 132.273 217.553 136.563 217.55 145.143C217.612 147.399 217.204 149.644 216.35 151.733C215.472 153.621 213.986 155.159 212.13 156.103L218.9 176.113H212.25L206.4 157.403H202.64V176.113H196.37V176.103ZM202.65 138.183V151.853H206.22C207.126 151.892 208.03 151.735 208.87 151.393C209.499 151.109 210.033 150.651 210.41 150.073C210.765 149.414 210.996 148.696 211.09 147.953C211.33 146.014 211.33 144.052 211.09 142.113C210.992 141.341 210.74 140.597 210.35 139.923C209.57 138.773 208.093 138.2 205.92 138.203H202.65V138.183Z" fill="#00E1BE"/>
<path d="M223.77 162.123V155.843H230.05V162.123H223.77ZM223.77 176.103V169.823H230.05V176.103H223.77Z" fill="white"/>
</svg>
